<svg width="24" height="24" viewBox="0 0 24 24" fill="none" xmlns="http://www.w3.org/2000/svg">
<path d="M13.5441 10.456C12.7249 9.6372 11.6142 9.17725 10.4561 9.17725C9.2979 9.17725 8.18716 9.6372 7.36805 10.456L4.27905 13.544C3.45993 14.3631 2.99976 15.474 2.99976 16.6325C2.99976 17.7909 3.45993 18.9018 4.27905 19.721C5.09818 20.5401 6.20914 21.0003 7.36755 21.0003C8.52597 21.0003 9.63693 20.5401 10.4561 19.721L12.0001 18.177" stroke="black" stroke-width="2" stroke-linecap="round" stroke-linejoin="round"/>
<path d="M10.4561 13.5441C11.2752 14.3628 12.3859 14.8228 13.5441 14.8228C14.7022 14.8228 15.8129 14.3628 16.6321 13.5441L19.7211 10.4561C20.5402 9.63693 21.0004 8.52597 21.0004 7.36755C21.0004 6.20914 20.5402 5.09818 19.7211 4.27905C18.9019 3.45993 17.791 2.99976 16.6326 2.99976C15.4741 2.99976 14.3632 3.45993 13.5441 4.27905L12.0001 5.82305" stroke="black" stroke-width="2" stroke-linecap="round" stroke-linejoin="round"/>
</svg>
