<svg width="140" height="118" viewBox="0 0 140 118" fill="none" xmlns="http://www.w3.org/2000/svg">
<g filter="url(#filter0_d)">
<path d="M98.7581 26.0303C99.7853 26.6235 99.7906 27.5878 98.7703 28.1793L88.6203 34.082C87.6001 34.6753 85.9358 34.6753 84.9086 34.082L77.8316 29.9958C76.8044 29.4025 76.8009 28.4383 77.8211 27.845L87.9711 21.9423C88.9913 21.3508 90.6538 21.3508 91.6811 21.9423L98.7581 26.0303ZM87.8696 33.6533L98.0196 27.7505C98.6303 27.4005 98.6286 26.816 98.0196 26.4608L90.9426 22.3745C90.5974 22.1994 90.2158 22.1082 89.8287 22.1082C89.4417 22.1082 89.06 22.1994 88.7148 22.3745L78.5649 28.2773C77.9524 28.6273 77.9559 29.2118 78.5649 29.567L85.6418 33.6533C85.987 33.8284 86.3687 33.9197 86.7557 33.9197C87.1428 33.9197 87.5244 33.8284 87.8696 33.6533Z" fill="black"/>
<path d="M98.0189 26.4608C98.6349 26.8108 98.6366 27.3953 98.0189 27.7505L87.8689 33.6533C87.5237 33.8284 87.1421 33.9196 86.755 33.9196C86.3679 33.9196 85.9863 33.8284 85.6411 33.6533L78.5641 29.567C77.9481 29.217 77.9446 28.6325 78.5641 28.2773L88.7141 22.3745C89.0593 22.1994 89.4409 22.1082 89.828 22.1082C90.2151 22.1082 90.5967 22.1994 90.9419 22.3745L98.0189 26.4608Z" fill="black"/>
<path d="M106.788 39.8168L89.1815 49.9668" stroke="black" stroke-width="2" stroke-miterlimit="10"/>
<path d="M46.9035 48.1152L31.15 39.0205" stroke="black" stroke-width="2" stroke-miterlimit="10"/>
<path d="M49.0039 73.1403L29.0539 84.6902" stroke="black" stroke-width="2" stroke-miterlimit="10"/>
<path d="M6.02356 63.3403L21.1786 72.0903L43.3668 59.3048" stroke="black" stroke-width="2" stroke-miterlimit="10"/>
<path d="M129.434 64.2153L114.279 72.9653L95.6235 62.2378" stroke="black" stroke-width="2" stroke-miterlimit="10"/>
<path d="M102.05 54.7757L102.037 59.0562C102.009 54.1702 98.7648 49.2877 92.3108 45.5602C85.8568 41.8327 77.4148 39.9707 68.9798 39.9707C60.5448 39.9707 52.1273 41.8397 45.7136 45.5602C39.2998 49.2807 36.1113 54.1702 36.1376 59.0562L36.1498 54.7757C36.1236 49.8914 39.3121 45.0089 45.7258 41.2814C52.1396 37.5539 60.5588 35.6902 69.0008 35.6902C77.4428 35.6902 85.8743 37.5539 92.3318 41.2797C98.7893 45.0054 102.025 49.8897 102.05 54.7757Z" fill="black"/>
<path d="M102.037 59.0563C102.058 62.719 100.271 66.38 96.6716 69.5563C96.6716 68.1306 96.6757 66.7038 96.6839 65.2758C100.282 62.103 102.069 58.4403 102.049 54.7758C102.046 56.0603 102.035 57.7648 102.037 59.0563Z" fill="white"/>
<path d="M92.8459 68.487L92.8354 72.7658L92.4627 72.5523L92.475 68.2717L92.8459 68.487Z" fill="white"/>
<path d="M96.6716 69.5544C95.3727 70.6883 93.966 71.6923 92.4716 72.5522L92.4838 68.2717C93.9817 67.4129 95.3914 66.4088 96.6926 65.2739C96.6833 66.7019 96.6763 68.1288 96.6716 69.5544Z" fill="white"/>
<path d="M45.8657 72.5505C39.41 68.823 36.1672 63.9405 36.1375 59.0563L36.1497 54.7758C36.1795 59.6618 39.4205 64.5443 45.878 68.2718C52.3355 71.9993 60.7722 73.8648 69.2072 73.8648C77.6422 73.8648 86.0615 72.0028 92.4822 68.2753L92.47 72.5558C86.0563 76.2815 77.637 78.1453 69.195 78.1453C60.753 78.1453 52.325 76.278 45.8657 72.5505Z" fill="white"/>
<path d="M92.3226 41.2797C98.7766 45.0072 102.021 49.8897 102.049 54.7757C102.077 59.6617 98.8886 64.5442 92.4749 68.2647L92.8459 68.48L92.4749 68.2647C86.0611 71.9922 77.6418 73.8542 69.1998 73.8542C60.7578 73.8542 52.3333 71.9992 45.8776 68.2647C39.4218 64.5302 36.1791 59.6547 36.1493 54.7687C36.1196 49.8827 39.3116 45.002 45.7253 41.2745C52.1391 37.547 60.5583 35.685 69.0003 35.6832C77.4423 35.6815 85.8651 37.554 92.3226 41.2797Z" fill="white"/>
<path d="M103.099 54.8737L103.087 59.1525C103.073 64.161 99.7813 69.1607 93.2065 72.9775C79.9748 80.6722 58.4498 80.6722 45.1253 72.9897C38.421 69.1205 35.0733 64.0402 35.0873 58.967L35.0995 54.6882C35.0855 59.7632 38.4333 64.8382 45.1358 68.711C58.4585 76.4022 79.9853 76.4005 93.2188 68.711C99.7935 64.8802 103.085 59.8805 103.099 54.8737Z" fill="black"/>
<path d="M93.0611 40.851C106.384 48.551 106.452 61.011 93.2186 68.7005C79.9851 76.39 58.4583 76.4005 45.1356 68.7005C31.8128 61.0005 31.7463 48.5422 44.9746 40.851C58.2028 33.1597 79.7418 33.1597 93.0611 40.851ZM69.2068 73.8647C77.6418 73.8647 86.0611 72.0027 92.4818 68.2752C98.9026 64.5477 102.082 59.6652 102.056 54.7792C102.03 49.8932 98.7836 45.0107 92.3296 41.2832C85.8756 37.5557 77.4336 35.6937 68.9986 35.6937C60.5636 35.6937 52.1461 37.5575 45.7323 41.285C39.3186 45.0125 36.1301 49.895 36.1563 54.7792C36.1826 59.6635 39.4288 64.5477 45.8846 68.2752C52.3403 72.0027 60.7718 73.8647 69.2068 73.8647Z" fill="black"/>
<path d="M80.4183 19.2963L84.1178 21.447C86.8583 23.0395 88.5891 26.781 88.6013 31.3118C88.6118 35.048 86.9826 39.8553 84.2421 44.1708L80.5408 42.0148C83.2813 37.6993 84.9158 32.892 84.9018 29.1558C84.8896 24.632 83.1588 20.8888 80.4183 19.2963Z" fill="black"/>
<path d="M79.5344 18.8728C79.8369 18.9897 80.1295 19.1307 80.4094 19.2946L84.1107 21.4453C83.8304 21.2821 83.5379 21.1411 83.2357 21.0236L79.5344 18.8728Z" fill="#FF9480"/>
<path d="M80.9429 18.3897L84.6424 20.5405C84.3476 20.3681 84.0391 20.22 83.7202 20.0977L80.0207 17.9435C80.3393 18.068 80.6476 18.2172 80.9429 18.3897V18.3897Z" fill="black"/>
<path d="M79.4767 18.8483L79.5344 18.8728L83.2357 21.0235L83.178 20.999L79.4767 18.8483Z" fill="#FF9480"/>
<path d="M82.6478 18.5017L78.9483 16.351L78.544 15.6825L82.2453 17.8332L82.6478 18.5017Z" fill="black"/>
<path d="M78.4983 15.651L82.1979 17.8017C82.2146 17.8107 82.2304 17.8212 82.2451 17.8332L78.5438 15.6843C78.5306 15.6708 78.5152 15.6596 78.4983 15.651Z" fill="black"/>
<path d="M58.8702 57.3727L55.1707 55.222C55.2862 55.2902 55.4034 55.3532 55.5207 55.4145C58.0232 56.6727 62.6432 56.895 68.1084 53.7398C75.2117 49.6378 79.1667 44.1778 80.5334 42.0148L84.2347 44.1655C82.8627 46.3215 78.9077 51.7833 71.8097 55.8905C66.3444 59.0405 61.7244 58.8235 59.2219 57.5652C59.1047 57.504 58.9857 57.4392 58.8702 57.3727Z" fill="black"/>
<path d="M79.4764 18.8483C79.5307 18.8745 79.5972 18.9183 79.6514 18.948L80.2114 19.2735L80.9412 19.697L83.1812 20.999C82.7507 20.824 80.0014 19.7985 77.0247 20.649C76.4454 20.8135 75.7524 21.0498 75.2379 21.2353L71.5331 19.0898C72.0494 18.9148 72.7424 18.668 73.3199 18.5035C76.3002 17.6478 79.0477 18.6733 79.4764 18.8483Z" fill="#FF9480"/>
<path d="M76.6797 19.8685L72.975 17.7178C73.15 17.6618 73.325 17.6075 73.5 17.562C76.9002 16.5925 79.8927 17.8875 80.0187 17.9435L83.7182 20.0943C83.5922 20.0383 80.5997 18.7415 77.1995 19.711C77.0332 19.7583 76.8582 19.8125 76.6797 19.8685Z" fill="black"/>
<path d="M71.5334 19.0897L75.2347 21.2405C74.8007 21.3945 74.4909 21.5117 74.4857 21.5152L70.7844 19.3645C70.7844 19.3645 71.0994 19.2367 71.5334 19.0897Z" fill="#FF9480"/>
<path d="M76.7952 8.29919L80.4999 10.4499C81.3994 10.9749 81.9979 11.9042 82.3217 13.2867C82.6052 14.4819 82.4704 15.9117 82.3427 16.7604L78.6379 14.6097C78.7657 13.7609 78.9004 12.3347 78.6187 11.1359C78.2932 9.75344 77.6999 8.82244 76.7952 8.29919Z" fill="black"/>
<path d="M74.47 20.6735L70.7705 18.5228C70.8772 18.4353 72.979 16.7308 74.7272 15.7228C75.0693 15.5215 75.4242 15.3426 75.7895 15.1873C77.3015 14.58 78.1625 14.5258 78.6385 14.6115L82.3397 16.7623C81.8637 16.6765 81.0027 16.729 79.4907 17.338C79.1242 17.4887 78.7687 17.6647 78.4267 17.8648C76.6785 18.8798 74.5785 20.586 74.47 20.6735Z" fill="black"/>
<path d="M72.545 22.4637L68.8455 20.3147L68.954 20.054L72.6535 22.2047L72.545 22.4637Z" fill="#FF9480"/>
<path d="M72.6533 22.2048L68.9539 20.054L70.7844 19.3575L74.4856 21.5083L72.6533 22.2048Z" fill="#FF9480"/>
<path d="M72.6869 22.1277L68.9856 19.9787L70.7706 18.5227L74.4701 20.6735L72.6869 22.1277Z" fill="black"/>
<path d="M72.3084 22.5949L68.6089 20.4459L68.8451 20.3147L72.5446 22.4637L72.3084 22.5949Z" fill="#FF9480"/>
<path d="M76.4422 8.12071C76.5622 8.17215 76.6791 8.23058 76.7922 8.29571L80.5005 10.45C80.3875 10.3845 80.2706 10.3261 80.1505 10.275C79.8442 10.1405 79.5276 10.0311 79.2037 9.9477L75.4955 7.79346C75.8194 7.87684 76.136 7.98628 76.4422 8.12071V8.12071Z" fill="#FF9480"/>
<path d="M68.9856 19.9788C69.2061 19.4538 70.6411 16.092 72.0674 13.4355L75.7756 15.5898C74.3476 18.248 72.9126 21.6115 72.6939 22.133L68.9856 19.9788Z" fill="#FF9480"/>
<path d="M72.067 13.4355L75.7753 15.5898L72.067 13.4355Z" fill="#FF9480"/>
<path d="M74.3073 9.49796C74.8008 8.72096 75.2505 8.11196 75.4955 7.79346L79.1968 9.94421C78.9518 10.2627 78.4968 10.8717 78.0068 11.6487C77.2928 12.7757 76.4755 14.2702 75.7755 15.5897L72.0691 13.4302C72.7743 12.1195 73.5916 10.625 74.3073 9.49796Z" fill="#FF9480"/>
<path d="M78.4265 17.8648C76.6765 18.8728 74.5765 20.579 74.4698 20.6648L72.6865 22.119C72.9053 21.594 74.342 18.2305 75.77 15.5723C76.47 14.2615 77.2925 12.7723 78.0065 11.64C78.5 10.863 78.9515 10.254 79.1965 9.93555C79.5231 10.0214 79.842 10.1338 80.1503 10.2715C81.2475 10.7458 81.9598 11.731 82.3255 13.2868C82.609 14.482 82.4743 15.9118 82.3465 16.7605C81.8705 16.6748 81.0078 16.7273 79.4975 17.3363C79.1286 17.4872 78.7708 17.6638 78.4265 17.8648V17.8648Z" fill="#FF9480"/>
<path d="M77.3276 7.39277L81.0253 9.54352C80.8981 9.46939 80.7666 9.40278 80.6316 9.34402C80.2404 9.16436 79.8292 9.03217 79.4066 8.95027L75.7053 6.80127C76.128 6.88289 76.5393 7.01509 76.9303 7.19502C77.067 7.25205 77.1997 7.31811 77.3276 7.39277V7.39277Z" fill="black"/>
<path d="M79.219 8.92224L75.5194 6.77148L75.7049 6.79948L79.4062 8.95024L79.219 8.92224Z" fill="black"/>
<path d="M79.0269 9.15674L75.3274 7.00598L75.5199 6.77148L79.2194 8.92224L79.0269 9.15674Z" fill="black"/>
<path d="M72.139 21.839L68.4378 19.6883C68.8245 18.78 70.151 15.7158 71.5143 13.1783C72.2335 11.8378 73.0718 10.3083 73.8173 9.13402C74.2805 8.39979 74.7847 7.69225 75.3275 7.01477L79.027 9.16552C78.4882 9.84342 77.987 10.5503 77.5255 11.283C76.78 12.459 75.9505 13.9885 75.2225 15.329C73.8505 17.8648 72.524 20.9308 72.139 21.839Z" fill="black"/>
<path d="M62.428 25.486C65.5448 22.2502 68.3063 20.6192 68.609 20.4442L72.3085 22.5897C72.0075 22.7647 69.2443 24.3957 66.1293 27.6315C64.7298 29.0951 63.4357 30.6559 62.2565 32.3022L58.5553 30.1567C59.7354 28.5112 61.0295 26.9504 62.428 25.486V25.486Z" fill="#FF9480"/>
<path d="M58.5556 30.1567L62.2569 32.3075C61.2699 33.6777 60.7081 34.6175 60.6976 34.635L56.9981 32.4842C57.0086 32.4667 57.5756 31.527 58.5556 30.1567Z" fill="#FF9480"/>
<path d="M59.6943 36.3237L55.993 34.173L56.9975 32.4843L60.697 34.635L59.6943 36.3237Z" fill="#FF9480"/>
<path d="M61.6262 32.1272L57.925 29.9765C59.2047 28.1664 60.6161 26.4532 62.1477 24.8507C65.1 21.7847 67.69 20.1257 68.4355 19.6882L72.1367 21.839C71.3912 22.2835 68.7995 23.939 65.8472 27.0015C64.3158 28.6037 62.9049 30.3169 61.6262 32.1272V32.1272Z" fill="black"/>
<path d="M59.6943 36.3238L55.993 34.173L56.3798 32.4108L60.081 34.5615L59.6943 36.3238Z" fill="black"/>
<path d="M60.0811 34.5615L56.3798 32.4107C56.4078 32.2865 57.0798 29.3185 59.8221 25.6155C61.8801 22.8382 63.4848 21.3647 64.1726 20.7925L67.8721 22.9397C67.1843 23.5137 65.5796 24.9872 63.5233 27.7645C60.7811 31.4692 60.1073 34.4373 60.0811 34.5615Z" fill="black"/>
<path d="M52.5 36.6038L56.1995 38.7528C55.3717 42.3805 54.9167 45.8945 54.9255 48.7278C54.936 52.8542 56.3255 55.9027 58.8682 57.3745L55.167 55.2238C52.633 53.7538 51.2365 50.7035 51.2242 46.577C51.2242 43.7438 51.6792 40.2298 52.5 36.6038Z" fill="#FF9480"/>
<path d="M62.7603 17.184L66.4598 19.3347L66.4966 19.3557C67.4311 19.9122 67.7723 22.077 67.8721 22.9415L64.1726 20.7925C64.0711 19.9175 63.7298 17.7632 62.7953 17.205L62.7603 17.184Z" fill="black"/>
<path d="M62.1726 16.911C62.3765 16.9826 62.5729 17.074 62.7589 17.184L66.4584 19.3348C66.2729 19.2237 66.0764 19.1323 65.8721 19.0618L62.1726 16.911Z" fill="#FF9480"/>
<path d="M62.1727 16.911L62.2322 16.946L62.3004 16.9897L62.3984 17.0475L62.4317 17.0667L62.6854 17.2137L65.8774 19.0688C65.511 18.9347 65.114 18.9079 64.7329 18.9918L61.0282 16.8357C61.409 16.7512 61.8061 16.7773 62.1727 16.911Z" fill="#FF9480"/>
<path d="M60.6571 16.9407C60.7788 16.8991 60.9026 16.8641 61.0281 16.8357L64.7276 18.9847C64.5876 19.0162 64.4651 19.0564 64.3566 19.0914C64.2866 19.1142 64.2218 19.1352 64.1641 19.1509L64.1361 19.1597L60.4366 17.0089H60.4646C60.5223 16.9897 60.5853 16.9634 60.6571 16.9407Z" fill="#FF9480"/>
<path d="M57.3055 21.7603L61.0067 23.911C60.5115 25.1605 60.0127 26.4485 59.668 27.411C58.7422 29.9958 57.1025 35.2965 57.043 35.524C56.735 36.6003 56.4585 37.6835 56.2135 38.7545L52.5 36.6038C52.745 35.531 53.025 34.4495 53.3277 33.3715C53.3942 33.144 55.0357 27.845 55.9615 25.2603C56.3132 24.2995 56.812 23.0098 57.3055 21.7603Z" fill="#FF9480"/>
<path d="M57.3055 21.7602C57.9793 20.061 58.6425 18.4352 58.8963 17.8192L62.5958 19.9647C62.3438 20.5807 61.6788 22.2065 61.0068 23.9057L57.3055 21.7602Z" fill="#FF9480"/>
<path d="M60.4364 17.009L64.1359 19.1598C63.6688 19.3617 63.2162 19.5956 62.7814 19.8598L62.5959 19.9665L58.8964 17.8193L59.0801 17.7125C59.5155 17.447 59.9686 17.212 60.4364 17.009V17.009Z" fill="#FF9480"/>
<path d="M83.2352 21.0235C86.4814 22.273 88.5867 26.312 88.6007 31.3117C88.6112 35.048 86.9819 39.8552 84.2414 44.1707C82.8694 46.3267 78.9144 51.7885 71.8164 55.8957C66.3512 59.0457 61.7312 58.8287 59.2287 57.5705C56.469 56.1775 54.9499 53.0397 54.9324 48.7277C54.9219 45.0527 55.6884 40.2437 57.0324 35.5222C57.0989 35.2947 58.7387 29.994 59.6574 27.4092C60.4712 25.1342 62.1459 21.0392 62.5852 19.97L62.7707 19.8632C63.2124 19.5905 63.6747 19.3523 64.1532 19.151C64.2109 19.1352 64.2757 19.1142 64.3457 19.0915C64.7814 18.9497 65.4412 18.7415 66.4859 19.3557C67.4204 19.9122 67.7617 22.077 67.8614 22.9415C67.1737 23.5155 65.5689 24.989 63.5127 27.7662C60.7704 31.4692 60.0967 34.4372 60.0704 34.5615L59.6837 36.3237L60.6864 34.635C62.2514 32.1228 64.0692 29.7772 66.1114 27.635C69.2264 24.3992 71.9897 22.7682 72.2907 22.5932L72.5269 22.462L72.6354 22.203L74.4677 21.503C74.4817 21.503 75.9377 20.9447 77.0034 20.642C80.2427 19.7285 83.1984 21.0147 83.2352 21.0235Z" fill="#FF9480"/>
<path d="M63.2889 16.2775L66.9884 18.4282C65.8089 17.7405 64.9986 18.0065 64.5121 18.164L64.3546 18.213C64.0326 18.3005 63.3046 18.7065 62.8094 18.9882C62.6099 19.1037 62.4506 19.1982 62.3789 19.242L58.6776 17.0912L59.1099 16.8375C59.5981 16.5557 60.3349 16.1497 60.6534 16.0622C60.7024 16.05 60.7549 16.0325 60.8126 16.0132C61.2991 15.8557 62.1076 15.5897 63.2889 16.2775Z" fill="black"/>
<path d="M58.3435 58.2792L54.6423 56.1302C51.9718 54.5762 50.5 51.358 50.4878 47.0057C50.4738 41.8397 51.8318 36.2975 52.6438 33.4537C52.6928 33.2787 54.3465 27.9237 55.3073 25.2445C56.2575 22.5897 58.3488 17.5147 58.3698 17.4692L62.071 19.6147C62.05 19.6655 59.957 24.7422 59.0085 27.3882C58.046 30.0692 56.394 35.4242 56.3433 35.5992C55.533 38.443 54.1733 43.9852 54.189 49.1512C54.2013 53.5087 55.6713 56.727 58.3435 58.2792Z" fill="black"/>
<path d="M62.0707 19.62L58.3694 17.471L58.4762 17.212L62.1757 19.3628L62.0707 19.62Z" fill="black"/>
<path d="M62.1762 19.3627L58.4767 17.2119L58.678 17.0912L62.3792 19.2419L62.1762 19.3627Z" fill="black"/>
<path d="M83.7206 20.0942C87.1209 21.4032 89.3329 25.64 89.3469 30.8813C89.3591 34.8625 87.6319 39.969 84.7304 44.5313C83.2971 46.787 79.1689 52.4955 71.8154 56.741C66.1331 60.0205 61.3154 59.7878 58.7166 58.477C55.8099 57.014 54.2016 53.7013 54.1894 49.1513C54.1736 43.9853 55.5334 38.443 56.3436 35.5993C56.3944 35.4243 58.0464 30.0692 59.0089 27.3882C59.9574 24.7422 62.0504 19.6655 62.0714 19.6147L62.1764 19.3575L62.3794 19.2367C62.4511 19.193 62.6104 19.0985 62.8099 18.983C63.2981 18.7012 64.0349 18.2952 64.3551 18.2077L64.5126 18.1587C65.0044 17.9995 65.8251 17.73 67.0274 18.444C68.3889 19.2542 68.6409 22.6615 68.6514 22.805L68.6776 23.1987L68.3276 23.4507C68.3101 23.463 66.4849 24.8 63.9421 28.2318C63.0379 29.4446 62.2626 30.7484 61.6286 32.122C62.9079 30.3116 64.3193 28.5984 65.8514 26.9962C68.8036 23.9302 71.3954 22.2712 72.1409 21.8337C72.5259 20.9255 73.8541 17.8612 75.2156 15.3237C75.9366 13.9832 76.7731 12.4537 77.5186 11.2777C77.9827 10.5418 78.4868 9.83201 79.0289 9.15149L79.2214 8.91699L79.4086 8.94499C79.8312 9.02689 80.2425 9.15908 80.6336 9.33874C81.8586 9.86374 82.6409 10.9522 83.0434 12.6637C83.5229 14.6955 82.9419 17.233 82.9174 17.3397L82.6479 18.4947L82.2506 17.8332C82.1981 17.7877 81.6171 17.3485 79.3859 18.248C79.059 18.3851 78.7421 18.5447 78.4374 18.7257C77.8704 19.0512 77.2544 19.4642 76.6874 19.8685C76.8624 19.8125 77.0374 19.7582 77.2124 19.711C80.6021 18.7397 83.5946 20.0382 83.7206 20.0942ZM84.2456 44.1708C86.9861 39.8553 88.6206 35.048 88.6049 31.3117C88.5909 26.312 86.4856 22.273 83.2394 21.0235C83.2026 21.006 80.2469 19.7285 77.0251 20.6472C75.9594 20.95 74.5034 21.5012 74.4894 21.5082L72.6571 22.2082L72.5486 22.4672L72.3404 22.5827C72.0114 22.7735 69.2481 24.4045 66.1331 27.6402C64.0908 29.7825 62.273 32.128 60.7081 34.6403L59.7054 36.329L60.0921 34.5668C60.1184 34.4425 60.7921 31.4745 63.5344 27.7715C65.5906 24.9942 67.1954 23.5207 67.8831 22.9467C67.7834 22.0822 67.4421 19.9175 66.5076 19.361C65.4576 18.7397 64.8031 18.955 64.3674 19.0967C64.2974 19.1195 64.2326 19.1405 64.1749 19.1562C63.6963 19.3576 63.2341 19.5957 62.7924 19.8685L62.6069 19.9752C62.1676 21.0445 60.4929 25.1465 59.6791 27.4145C58.7534 29.9993 57.1136 35.3 57.0541 35.5275C55.7066 40.2525 54.9401 45.0633 54.9541 48.733C54.9664 53.045 56.4906 56.1828 59.2469 57.5688C61.7494 58.827 66.3694 59.0493 71.8346 55.894C78.9361 51.7938 82.8911 46.332 84.2596 44.169L84.2456 44.1708ZM75.7756 15.5897C74.3476 18.248 72.9109 21.615 72.6921 22.1365L74.4754 20.6822C74.5839 20.5947 76.6839 18.8885 78.4321 17.8822C78.772 17.677 79.1258 17.4957 79.4909 17.3397C81.0029 16.7307 81.8639 16.6782 82.3399 16.764C82.4676 15.9152 82.6024 14.489 82.3189 13.2902C81.9531 11.7397 81.2409 10.7457 80.1506 10.2715C79.8444 10.1371 79.5278 10.0276 79.2039 9.94424C78.9589 10.2627 78.5039 10.8717 78.0139 11.6487C77.2929 12.7757 76.4756 14.2702 75.7756 15.5897Z" fill="black"/>
<path d="M34.1367 26.3505L34.1087 36.336C34.1087 34.9255 33.1847 33.5115 31.3244 32.4388C27.6284 30.3038 21.6312 30.3038 17.9597 32.4388C16.1362 33.4975 15.2227 34.8888 15.2192 36.2888L15.2472 26.3033C15.2472 24.9033 16.1642 23.519 17.9877 22.4533C21.6627 20.3183 27.6564 20.3183 31.3524 22.4533C33.2127 23.526 34.1419 24.94 34.1367 26.3505Z" fill="black"/>
<path d="M18.004 40.179C16.1437 39.1063 15.225 37.6923 15.225 36.2818L15.253 26.2963C15.253 27.7068 16.1787 29.119 18.0372 30.1935C18.0291 33.5243 18.018 36.8528 18.004 40.179Z" fill="#FF9480"/>
<path d="M31.368 40.1791C27.693 42.3141 21.6993 42.3141 18.0033 40.1791C18.0173 36.853 18.0243 33.5245 18.0243 30.1936C21.7203 32.3269 27.7175 32.3269 31.389 30.1936C33.2125 29.1331 34.126 27.7436 34.1295 26.3436L34.1015 36.3309C34.105 37.7274 33.1915 39.1186 31.368 40.1791Z" fill="#FF9480"/>
<path d="M35.1869 26.3523L35.1589 36.3396C35.1589 37.8866 34.1404 39.4318 32.1139 40.6096C28.0329 42.9808 21.3706 42.9808 17.2634 40.6096C15.1966 39.4161 14.1641 37.8463 14.1746 36.2783L14.2026 26.2928C14.2026 27.8678 15.2299 29.4306 17.2966 30.6241C21.4039 32.9953 28.0661 32.9953 32.1471 30.6241C34.1684 29.4463 35.1834 27.9011 35.1869 26.3523Z" fill="black"/>
<path d="M32.0926 22.0228C36.1999 24.3941 36.2209 28.2528 32.1416 30.6241C28.0624 32.9953 21.3984 32.9953 17.2911 30.6241C13.1839 28.2528 13.1629 24.3941 17.2421 22.0228C21.3214 19.6516 27.9854 19.6516 32.0926 22.0228ZM18.0244 30.1936C21.7204 32.3268 27.7176 32.3268 31.3891 30.1936C35.0606 28.0603 35.0414 24.5936 31.3454 22.4533C27.6494 20.3131 21.6539 20.3183 17.9806 22.4533C14.3074 24.5883 14.3284 28.0533 18.0244 30.1936Z" fill="black"/>
<path d="M34.1409 26.3483C34.1493 23.3251 29.9253 20.8626 24.7062 20.848C19.4872 20.8334 15.2494 23.2724 15.241 26.2956C15.2325 29.3187 19.4566 31.7813 24.6757 31.7959C29.8947 31.8105 34.1325 29.3715 34.1409 26.3483Z" fill="#FF9480"/>
<path d="M121.989 26.3505L121.959 36.336C121.959 34.9255 121.035 33.5115 119.175 32.4388C115.479 30.3038 109.484 30.3038 105.81 32.4388C103.987 33.4975 103.073 34.8888 103.07 36.2888L103.098 26.3033C103.098 24.9033 104.015 23.519 105.838 22.4533C109.513 20.3183 115.507 20.3183 119.203 22.4533C121.063 23.526 121.993 24.94 121.989 26.3505Z" fill="black"/>
<path d="M105.854 40.179C103.995 39.1063 103.075 37.6923 103.075 36.2818L103.103 26.2963C103.103 27.7068 104.029 29.119 105.887 30.1935C105.879 33.5243 105.868 36.8528 105.854 40.179Z" fill="white"/>
<path d="M119.219 40.1791C115.544 42.3141 109.55 42.3141 105.854 40.1791C105.868 36.853 105.875 33.5245 105.875 30.1936C109.571 32.3269 115.568 32.3269 119.24 30.1936C121.065 29.1331 121.977 27.7436 121.982 26.3436L121.952 36.3309C121.956 37.7274 121.042 39.1186 119.219 40.1791Z" fill="white"/>
<path d="M123.039 26.3523L123.009 36.3396C123.009 37.8866 121.991 39.4318 119.964 40.6096C115.883 42.9808 109.221 42.9808 105.114 40.6096C103.047 39.4161 102.015 37.8463 102.02 36.2783L102.048 26.2928C102.048 27.8678 103.075 29.4306 105.142 30.6241C109.249 32.9953 115.911 32.9953 119.992 30.6241C122.019 29.4463 123.034 27.9011 123.039 26.3523Z" fill="black"/>
<path d="M119.944 22.0228C124.051 24.3941 124.074 28.2528 119.993 30.6241C115.912 32.9953 109.249 32.9953 105.142 30.6241C101.035 28.2528 101.014 24.3941 105.095 22.0228C109.176 19.6516 115.836 19.6516 119.944 22.0228ZM105.875 30.1936C109.571 32.3268 115.569 32.3268 119.24 30.1936C122.912 28.0603 122.892 24.5936 119.196 22.4533C115.5 20.3131 109.505 20.3183 105.832 22.4533C102.158 24.5883 102.179 28.0533 105.875 30.1936Z" fill="black"/>
<path d="M121.989 26.3487C121.997 23.3255 117.773 20.8629 112.554 20.8483C107.335 20.8338 103.097 23.2727 103.089 26.2959C103.081 29.3191 107.305 31.7817 112.524 31.7963C117.743 31.8109 121.98 29.3719 121.989 26.3487Z" fill="white"/>
<path d="M114.814 79.7255L114.784 89.711C114.784 88.3005 113.86 86.8865 112 85.8137C108.304 83.6787 102.307 83.6787 98.6354 85.8137C96.8119 86.8725 95.8984 88.2637 95.8949 89.6638L95.9229 79.6782C95.9229 78.2782 96.8399 76.894 98.6634 75.8282C102.338 73.695 108.332 73.695 112.028 75.8282C113.888 76.901 114.818 78.315 114.814 79.7255Z" fill="black"/>
<path d="M114.784 89.711C114.784 90.7523 114.27 91.7935 113.248 92.6965C113.256 89.368 113.265 86.0395 113.276 82.711C114.298 81.808 114.811 80.7668 114.814 79.7238C114.8 82.7198 114.8 86.715 114.784 89.711Z" fill="white"/>
<path d="M98.6791 93.554C96.8188 92.4812 95.8896 91.0672 95.8948 89.6567L95.9228 79.6713C95.9228 81.0818 96.8468 82.494 98.7071 83.5685C102.405 85.7035 108.399 85.7017 112.072 83.5685C112.5 83.3223 112.903 83.0351 113.276 82.711C113.268 86.0395 113.258 89.368 113.248 92.6965C112.875 93.0207 112.472 93.3079 112.044 93.554C108.371 95.6872 102.375 95.689 98.6791 93.554Z" fill="white"/>
<path d="M115.862 79.7273L115.834 89.7128C115.834 91.2616 114.816 92.8068 112.789 93.9845C108.708 96.3558 102.046 96.3558 97.9388 93.9845C95.8721 92.791 94.8396 91.2213 94.8448 89.6551L94.8728 79.6696C94.8728 81.2358 95.9001 82.8056 97.9668 83.9991C102.074 86.3703 108.736 86.3703 112.817 83.9991C114.844 82.8213 115.859 81.2761 115.862 79.7273Z" fill="black"/>
<path d="M112.769 75.3977C116.876 77.769 116.897 81.6277 112.818 83.999C108.738 86.3702 102.074 86.3702 97.9671 83.999C93.8599 81.6277 93.8389 77.769 97.9199 75.3977C102.001 73.0265 108.661 73.0247 112.769 75.3977ZM98.7004 83.5685C102.398 85.7035 108.394 85.7017 112.065 83.5685C115.737 81.4352 115.719 77.9685 112.021 75.8265C108.324 73.6845 102.33 73.6932 98.6566 75.8265C94.9834 77.9597 95.0044 81.4352 98.7004 83.5685Z" fill="black"/>
<path d="M114.812 79.7204C114.821 76.6972 110.597 74.2346 105.377 74.22C100.158 74.2054 95.9207 76.6444 95.9122 79.6676C95.9038 82.6908 100.128 85.1534 105.347 85.168C110.566 85.1826 114.804 82.7436 114.812 79.7204Z" fill="white"/>
<path d="M17.6837 59.4605L17.675 65.1673C17.675 63.965 16.8875 62.7628 15.302 61.8423C12.152 60.024 7.04725 60.0223 3.927 61.8423C2.3555 62.7488 1.575 63.9335 1.575 65.1148L1.59075 59.4098C1.59075 58.2233 2.373 57.0385 3.927 56.1355C7.056 54.3173 12.1625 54.3173 15.3125 56.1355C16.8945 57.0648 17.6855 58.26 17.6837 59.4605Z" fill="black"/>
<path d="M17.6746 65.1673C17.6748 65.4647 17.6269 65.7602 17.5329 66.0423L17.5486 60.3356C17.6425 60.0533 17.6909 59.758 17.6921 59.4606L17.6746 65.1673Z" fill="white"/>
<path d="M3.94625 68.4398C2.3625 67.5263 1.575 66.3223 1.575 65.1148L1.59075 59.4098C1.59075 60.6103 2.38 61.8143 3.9655 62.7348C7.1155 64.553 12.2203 64.553 15.3493 62.7348C16.5218 62.054 17.2533 61.2105 17.542 60.3285L17.5263 66.0353C17.2375 66.9103 16.506 67.759 15.3335 68.4415C12.2028 70.2598 7.09625 70.2598 3.94625 68.4398Z" fill="white"/>
<path d="M15.3104 56.1408C18.4604 57.959 18.4762 60.9165 15.3472 62.7348C12.2182 64.553 7.11167 64.553 3.96342 62.7348C0.815167 60.9165 0.795918 57.959 3.92492 56.1408C7.05392 54.3225 12.1604 54.3225 15.3104 56.1408Z" fill="white"/>
<path d="M18.725 59.464L18.7092 65.169C18.7092 66.5113 17.8342 67.85 16.0685 68.8703C12.5317 70.9265 6.76024 70.9248 3.20074 68.8703C1.41574 67.836 0.524994 66.4763 0.524994 65.1148L0.540744 59.4098C0.540744 60.7678 1.43149 62.1293 3.22349 63.1635C6.78299 65.218 12.5545 65.218 16.0912 63.1635C17.85 62.1398 18.725 60.8045 18.725 59.464Z" fill="black"/>
<path d="M16.0512 55.7103C19.609 57.7648 19.6282 61.109 16.0915 63.1653C12.5547 65.2215 6.78321 65.2198 3.22372 63.1653C-0.335785 61.1108 -0.349785 57.7648 3.18172 55.7103C6.71322 53.6558 12.4917 53.6558 16.0512 55.7103ZM3.96396 62.7348C7.11396 64.553 12.2187 64.553 15.3477 62.7348C18.4767 60.9165 18.4592 57.9591 15.311 56.1408C12.1627 54.3226 7.05446 54.3226 3.92547 56.1408C0.796465 57.9591 0.813965 60.9148 3.96396 62.7348Z" fill="black"/>
<path d="M135.984 57.1855L135.975 62.8923C135.975 61.69 135.187 60.486 133.604 59.5673C130.454 57.7473 125.347 57.749 122.218 59.5673C120.656 60.4755 119.875 61.6603 119.875 62.8398L119.891 57.1331C119.891 55.9466 120.673 54.7618 122.227 53.8588C125.354 52.0406 130.452 52.0406 133.602 53.8588C135.194 54.7898 135.985 55.9833 135.984 57.1855Z" fill="black"/>
<path d="M119.875 62.8695V62.8398L119.891 57.1331V57.1558L119.875 62.8695Z" fill="#FF9480"/>
<path d="M122.248 66.1648C120.673 65.2548 119.882 64.0648 119.875 62.8678L119.891 57.161C119.891 58.3545 120.689 59.548 122.264 60.458C125.414 62.2763 130.52 62.2763 133.648 60.458C135.202 59.555 135.98 58.3703 135.984 57.1838L135.975 62.8923C135.975 64.0788 135.194 65.2635 133.64 66.1665C130.503 67.983 125.396 67.983 122.248 66.1648Z" fill="#FF9480"/>
<path d="M135.982 57.1819C135.989 54.6072 132.391 52.5099 127.945 52.4975C123.499 52.485 119.89 54.5622 119.882 57.137C119.875 59.7117 123.473 61.809 127.919 61.8214C132.365 61.8338 135.975 59.7567 135.982 57.1819Z" fill="#FF9480"/>
<path d="M137.025 57.1873V62.8941C137.025 64.2346 136.141 65.5751 134.384 66.5953C130.847 68.6516 125.076 68.6516 121.516 66.5953C119.716 65.5628 118.825 64.2013 118.825 62.8398L118.841 57.1331C118.841 58.4911 119.731 59.8526 121.523 60.8868C125.083 62.9413 130.854 62.9413 134.391 60.8868C136.15 59.8648 137.025 58.5296 137.025 57.1873Z" fill="black"/>
<path d="M134.351 53.4353C137.911 55.4898 137.928 58.834 134.391 60.8885C130.855 62.943 125.083 62.9448 121.524 60.8885C117.964 58.8323 117.95 55.4898 121.482 53.4353C125.013 51.3808 130.792 51.3808 134.351 53.4353ZM122.264 60.4598C125.414 62.278 130.52 62.278 133.648 60.4598C136.775 58.6415 136.759 55.684 133.611 53.8658C130.463 52.0475 125.354 52.0475 122.236 53.8658C119.117 55.684 119.123 58.6415 122.273 60.4598" fill="black"/>
<path d="M31.8587 83.2622L31.8412 88.9672C31.8412 87.7649 31.0537 86.5627 29.47 85.6422C26.32 83.8239 21.2117 83.8239 18.0845 85.6422C16.5305 86.5504 15.75 87.7334 15.75 88.9147L15.7657 83.2097C15.7657 82.0232 16.5462 80.8385 18.1002 79.9355C21.2292 78.1172 26.3357 78.1172 29.4857 79.9355C31.0695 80.8647 31.8622 82.06 31.8587 83.2622Z" fill="black"/>
<path d="M31.8498 88.9672C31.839 89.5902 31.6375 90.1948 31.2723 90.6997L31.2881 84.993C31.6544 84.4893 31.8567 83.8849 31.8673 83.2622L31.8498 88.9672Z" fill="#FF9480"/>
<path d="M16.3485 90.6997C15.9662 90.1825 15.7568 89.5579 15.75 88.9147L15.7657 83.208C15.7737 83.8488 15.9831 84.4708 16.3643 84.986L16.3485 90.6997Z" fill="#FF9480"/>
<path d="M30.6529 91.4015L30.6686 85.6948C30.8963 85.4836 31.101 85.249 31.2794 84.9948L31.2636 90.7015C31.0848 90.9554 30.8802 91.19 30.6529 91.4015V91.4015Z" fill="#FF9480"/>
<path d="M30.6532 91.4015C30.613 91.4382 30.5745 91.475 30.5325 91.51C30.5325 89.6071 30.5383 87.7055 30.55 85.805L30.669 85.6947L30.6532 91.4015Z" fill="#FF9480"/>
<path d="M18.1231 92.2397C17.4272 91.86 16.8218 91.334 16.3486 90.698L16.3643 84.9912C16.8371 85.6276 17.4426 86.1537 18.1388 86.533C21.2888 88.3512 26.3953 88.3512 29.5138 86.533C29.8789 86.3234 30.2229 86.079 30.5411 85.8032C30.5411 86.7529 30.5411 87.7037 30.5411 88.6557C30.5411 89.6077 30.5381 90.5586 30.5323 91.5082C30.2153 91.7851 29.8718 92.0302 29.5068 92.2397C26.3778 94.0598 21.2713 94.0598 18.1231 92.2397Z" fill="#FF9480"/>
<path d="M29.4855 79.9407C32.6355 81.759 32.6513 84.7182 29.5223 86.5347C26.3933 88.3512 21.2868 88.353 18.1473 86.5347C15.0078 84.7165 14.9815 81.759 18.1088 79.9407C21.236 78.1225 26.3355 78.1225 29.4855 79.9407Z" fill="#FF9480"/>
<path d="M32.9 83.264L32.8842 88.969C32.8842 90.3113 32.0092 91.65 30.2435 92.672C26.7067 94.7265 20.9335 94.7265 17.3757 92.672C15.5907 91.6378 14.7 90.2763 14.7 88.9148L14.7157 83.208C14.7157 84.5678 15.6065 85.9275 17.3985 86.9618C20.9562 89.0163 26.7295 89.0163 30.2662 86.9618C32.025 85.9398 32.9 84.6045 32.9 83.264Z" fill="black"/>
<path d="M30.2261 79.5102C33.7856 81.5665 33.8031 84.909 30.2663 86.9652C26.7296 89.0215 20.9563 89.0197 17.3986 86.9652C13.8408 84.9107 13.8251 81.5647 17.3566 79.5102C20.8881 77.4557 26.6666 77.4557 30.2261 79.5102ZM18.1388 86.5347C21.2888 88.353 26.3953 88.353 29.5138 86.5347C32.6323 84.7165 32.6253 81.759 29.4771 79.9407C26.3288 78.1225 21.2206 78.1225 18.0916 79.9407C14.9626 81.759 14.9801 84.7165 18.1301 86.5347" fill="black"/>
<path d="M100.786 85.798L81.9039 74.8903" stroke="black" stroke-width="2" stroke-miterlimit="10"/>
<path d="M74.6445 91.0042C75.2588 91.3542 75.2623 91.9387 74.6445 92.294L61.446 99.9642C61.1013 100.14 60.7199 100.232 60.333 100.232C59.9461 100.232 59.5647 100.14 59.22 99.9642L39.1143 88.353C38.4983 88.003 38.4965 87.4185 39.1143 87.0632L52.311 79.393C52.6559 79.2169 53.0377 79.1251 53.4249 79.1251C53.8121 79.1251 54.1939 79.2169 54.5388 79.393L74.6445 91.0042Z" fill="#FF9480"/>
<path d="M75.3847 90.5737C76.4102 91.167 76.4155 92.1312 75.3952 92.7245L62.1985 100.393C61.1782 100.986 59.5122 100.988 58.485 100.393L38.374 88.7835C37.3468 88.1902 37.3415 87.2242 38.3618 86.6327L51.5602 78.9625C52.5787 78.3693 54.2465 78.3693 55.272 78.9625L75.3847 90.5737ZM61.453 99.9642L74.6515 92.294C75.2622 91.944 75.2587 91.3595 74.6515 91.0042L54.5317 79.393C54.1868 79.217 53.8051 79.1252 53.4179 79.1252C53.0306 79.1252 52.6489 79.217 52.304 79.393L39.1073 87.0632C38.4965 87.4132 38.4983 87.996 39.1073 88.353L59.22 99.9642C59.5647 100.14 59.9461 100.232 60.333 100.232C60.7199 100.232 61.1013 100.14 61.446 99.9642" fill="black"/>
<path d="M130.554 87.3153C132.004 87.3153 133.179 86.1401 133.179 84.6903C133.179 83.2406 132.004 82.0653 130.554 82.0653C129.104 82.0653 127.929 83.2406 127.929 84.6903C127.929 86.1401 129.104 87.3153 130.554 87.3153Z" fill="black"/>
<path d="M138.837 40.4039L137.41 38.9771C136.95 38.5171 136.204 38.5171 135.744 38.9771L134.318 40.4039C133.858 40.8638 133.858 41.6095 134.318 42.0694L135.744 43.4962C136.204 43.9561 136.95 43.9561 137.41 43.4962L138.837 42.0694C139.297 41.6095 139.297 40.8638 138.837 40.4039Z" fill="black"/>
<path d="M27.3039 105.34C28.7536 105.34 29.9289 104.165 29.9289 102.715C29.9289 101.265 28.7536 100.09 27.3039 100.09C25.8541 100.09 24.6789 101.265 24.6789 102.715C24.6789 104.165 25.8541 105.34 27.3039 105.34Z" fill="black"/>
<path d="M41.0584 109.708C41.7349 109.708 42.2834 109.16 42.2834 108.483C42.2834 107.807 41.7349 107.258 41.0584 107.258C40.3818 107.258 39.8334 107.807 39.8334 108.483C39.8334 109.16 40.3818 109.708 41.0584 109.708Z" fill="black"/>
<path d="M11.6577 2.65958L10.2309 1.23282C9.77099 0.772879 9.02528 0.772879 8.56534 1.23282L7.13857 2.65958C6.67863 3.11952 6.67863 3.86523 7.13857 4.32517L8.56534 5.75194C9.02528 6.21188 9.77099 6.21188 10.2309 5.75194L11.6577 4.32517C12.1176 3.86523 12.1176 3.11952 11.6577 2.65958Z" fill="black"/>
<path d="M21.4414 6.99023C22.1663 6.99023 22.7539 6.40261 22.7539 5.67773C22.7539 4.95286 22.1663 4.36523 21.4414 4.36523C20.7165 4.36523 20.1289 4.95286 20.1289 5.67773C20.1289 6.40261 20.7165 6.99023 21.4414 6.99023Z" fill="black"/>
</g>
<defs>
<filter id="filter0_d" x="-3.47501" y="0.887817" width="146.657" height="116.82" filterUnits="userSpaceOnUse" color-interpolation-filters="sRGB">
<feFlood flood-opacity="0" result="BackgroundImageFix"/>
<feColorMatrix in="SourceAlpha" type="matrix" values="0 0 0 0 0 0 0 0 0 0 0 0 0 0 0 0 0 0 127 0"/>
<feOffset dy="4"/>
<feGaussianBlur stdDeviation="2"/>
<feColorMatrix type="matrix" values="0 0 0 0 0 0 0 0 0 0 0 0 0 0 0 0 0 0 0.25 0"/>
<feBlend mode="normal" in2="BackgroundImageFix" result="effect1_dropShadow"/>
<feBlend mode="normal" in="SourceGraphic" in2="effect1_dropShadow" result="shape"/>
</filter>
</defs>
</svg>
