<svg width="80" height="80" viewBox="0 0 80 80" fill="none" xmlns="http://www.w3.org/2000/svg">
<circle cx="40" cy="40" r="40" fill="#5865F2"/>
<g clip-path="url(#clip0)">
<path d="M55.9664 23.0025C52.9496 21.5814 49.7582 20.5717 46.4763 20C46.0676 20.7441 45.5899 21.7448 45.2606 22.541C41.7222 22.0053 38.2163 22.0053 34.7429 22.541C34.4137 21.745 33.9254 20.7441 33.5128 20C30.2277 20.572 27.0335 21.5843 24.0154 23.0099C18.0095 32.1472 16.3814 41.0573 17.1954 49.8413C21.1789 52.8362 25.0393 54.6555 28.8346 55.846C29.7779 54.5401 30.6117 53.1575 31.3274 51.7126C29.9647 51.1903 28.651 50.5466 27.402 49.7892C27.7307 49.5439 28.0516 49.2883 28.3644 49.0227C35.9332 52.5869 44.1571 52.5869 51.6357 49.0227C51.9498 49.2865 52.2707 49.5421 52.5979 49.7892C51.3469 50.5486 50.0307 51.1935 48.6653 51.7164C49.3851 53.1672 50.2174 54.5511 51.1581 55.8497C54.9571 54.6593 58.8211 52.84 62.8045 49.8413C63.7598 39.6585 61.173 30.83 55.9664 23.0023V23.0025ZM32.3587 44.4393C30.0865 44.4393 28.2232 42.3037 28.2232 39.7032C28.2232 37.1027 30.0468 34.9635 32.3587 34.9635C34.6707 34.9635 36.5339 37.0989 36.4942 39.7032C36.4978 42.3037 34.6707 44.4393 32.3587 44.4393ZM47.6413 44.4393C45.3691 44.4393 43.5059 42.3037 43.5059 39.7032C43.5059 37.1027 45.3294 34.9635 47.6413 34.9635C49.9533 34.9635 51.8165 37.0989 51.7768 39.7032C51.7768 42.3037 49.9533 44.4393 47.6413 44.4393Z" fill="white"/>
</g>
<defs>
<clipPath id="clip0">
<rect width="46" height="36" fill="white" transform="translate(17 20)"/>
</clipPath>
</defs>
</svg>
