<svg width="138" height="94" viewBox="0 0 138 94" fill="none" xmlns="http://www.w3.org/2000/svg">
<path d="M109.735 59.2469L70.2042 82.0833H70.0467L30.5162 59.2469" stroke="black" stroke-width="2" stroke-linecap="round" stroke-linejoin="round"/>
<path d="M55.0849 59.1698L55.0723 63.0268C55.0566 60.1132 53.1226 57.1996 49.2735 54.9806C45.4244 52.7615 40.3941 51.648 35.3638 51.648C30.3335 51.648 25.3174 52.7584 21.4935 54.9806C17.6695 57.2028 15.7686 60.1069 15.7844 63.0268L15.7954 59.1746C15.7796 56.2625 17.6853 53.3474 21.5045 51.1299C25.3237 48.9124 30.3461 47.7974 35.3748 47.7974C40.4035 47.7974 45.4354 48.9077 49.2845 51.1283C53.1336 53.3489 55.0676 56.2547 55.0849 59.1698Z" fill="black"/>
<path d="M15.8801 64.1136C15.8184 63.7524 15.7863 63.3869 15.784 63.0206L15.7951 59.1683C15.7973 59.5347 15.8294 59.9002 15.8911 60.2613C15.888 61.5454 15.8843 62.8295 15.8801 64.1136Z" fill="white"/>
<path d="M49.7114 67.4083L49.7003 71.259L49.3649 71.0653L49.3759 67.2146L49.7114 67.4083Z" fill="white"/>
<path d="M55.0724 63.027C55.0881 65.939 53.1825 68.8542 49.3649 71.0717L49.3759 67.221C53.1951 64.9925 55.0992 62.0821 55.085 59.17C55.085 60.3245 55.0708 61.8647 55.0724 63.027Z" fill="white"/>
<path d="M21.5829 71.067C18.2157 69.122 16.3147 66.6494 15.8801 64.1137C15.8801 62.8286 15.8837 61.5445 15.8911 60.2615C16.3258 62.8003 18.2267 65.2713 21.5939 67.2148C25.443 69.437 30.4749 70.5473 35.5036 70.5473C40.5323 70.5473 45.55 69.437 49.3755 67.2148L49.3644 71.0592C45.539 73.283 40.5213 74.3917 35.4925 74.3933C30.4638 74.3949 25.432 73.2893 21.5829 71.067Z" fill="white"/>
<path d="M49.2844 51.1222C53.1335 53.346 55.0675 56.2565 55.0832 59.1701C55.099 62.0837 53.1933 64.9973 49.3757 67.2148L49.7096 67.4085L49.3757 67.2148C45.5502 69.437 40.5325 70.5473 35.5038 70.5473C30.4751 70.5473 25.4432 69.437 21.5941 67.2148C17.745 64.9926 15.8126 62.0821 15.7953 59.1685C15.7779 56.2549 17.6852 53.3413 21.5043 51.1238C25.3235 48.9063 30.3459 47.7913 35.3747 47.7913C40.4034 47.7913 45.4353 48.9016 49.2844 51.1222Z" fill="white"/>
<path d="M56.0298 59.1683L56.0172 63.0269C56.0345 66.0775 54.0406 69.1312 50.0325 71.459C46.0243 73.7867 40.7593 74.9521 35.4912 74.9521C30.2231 74.9521 24.9393 73.7867 20.9138 71.459C16.8883 69.1312 14.8551 66.0712 14.8393 63.0269L14.8503 59.1762C14.8661 62.2268 16.8977 65.2806 20.928 67.6083C24.9582 69.936 30.2389 71.1015 35.5054 71.1015C40.7719 71.1015 46.0385 69.936 50.0466 67.6083C54.0548 65.2806 56.0455 62.2205 56.0298 59.1683Z" fill="black"/>
<path d="M56.0296 59.1683C56.047 62.2205 54.0531 65.2743 50.0449 67.602C46.0368 69.9298 40.7718 71.0952 35.5037 71.0952C30.2356 71.0952 24.9517 69.9298 20.9262 67.602C16.9008 65.2743 14.8644 62.2205 14.8486 59.1699C14.8329 56.1193 16.8252 53.0639 20.8333 50.7362C24.8415 48.4085 30.1049 47.243 35.373 47.243C40.6411 47.243 45.9249 48.4085 49.9504 50.7362C53.9759 53.0639 56.0123 56.1177 56.0296 59.1683ZM35.5037 70.5471C40.5324 70.5471 45.5501 69.4368 49.3756 67.2146C53.2011 64.9924 55.0988 62.0819 55.0847 59.1699C55.0705 56.2579 53.1349 53.3427 49.2858 51.1221C45.4367 48.9014 40.4049 47.7911 35.3761 47.7911C30.3474 47.7911 25.3297 48.8936 21.5058 51.1236C17.6819 53.3537 15.7794 56.2547 15.7952 59.1683C15.8109 62.0819 17.7449 64.9955 21.594 67.2146C25.4431 69.4337 30.475 70.5471 35.5037 70.5471" fill="black"/>
<path d="M27.8389 44.7278L35.3985 32.1537L42.9581 44.7278L35.3985 49.2116L27.8389 44.7278Z" stroke="#231F20" stroke-width="2" stroke-linecap="round" stroke-linejoin="round"/>
<path d="M27.8389 44.7278L35.3985 32.1537L42.9581 44.7278L35.3985 49.2116L27.8389 44.7278Z" stroke="#231F20" stroke-width="2" stroke-linecap="round" stroke-linejoin="round"/>
<path d="M27.8389 46.1342L35.3985 50.6542L42.9581 46.1342L35.3985 56.7711L27.8389 46.1342Z" stroke="#231F20" stroke-width="2" stroke-linecap="round" stroke-linejoin="round"/>
<path d="M27.8389 46.1342L35.3985 50.6542L42.9581 46.1342L35.3985 56.7711L27.8389 46.1342Z" stroke="#231F20" stroke-width="2" stroke-linecap="round" stroke-linejoin="round"/>
<path d="M35.3985 49.1721L27.8389 44.6899L35.3985 41.3479L42.9581 44.7277L35.3985 49.1721Z" stroke="#231F20" stroke-width="2" stroke-linecap="round" stroke-linejoin="round"/>
<path d="M35.3985 49.1721L27.8389 44.6899L35.3985 41.3479L42.9581 44.7277L35.3985 49.1721Z" stroke="#231F20" stroke-width="2" stroke-linecap="round" stroke-linejoin="round"/>
<path d="M35.3985 32.1537V49.2116L42.9581 44.7278L35.3985 32.1537Z" stroke="#231F20" stroke-width="2" stroke-linecap="round" stroke-linejoin="round"/>
<path d="M35.3985 32.1537V49.2116L42.9581 44.7278L35.3985 32.1537Z" stroke="#231F20" stroke-width="2" stroke-linecap="round" stroke-linejoin="round"/>
<path d="M35.3985 50.6542V56.7711L42.9581 46.1342L35.3985 50.6542Z" stroke="#231F20" stroke-width="2" stroke-linecap="round" stroke-linejoin="round"/>
<path d="M35.3985 50.6542V56.7711L42.9581 46.1342L35.3985 50.6542Z" stroke="#231F20" stroke-width="2" stroke-linecap="round" stroke-linejoin="round"/>
<path d="M27.8389 44.7278L35.3985 32.1537L42.9581 44.7278L35.3985 49.2116L27.8389 44.7278Z" fill="#F4BAED"/>
<path d="M27.8389 46.1342L35.3985 50.6542L42.9581 46.1342L35.3985 56.7711L27.8389 46.1342Z" fill="#F4BAED"/>
<g style="mix-blend-mode:multiply">
<g style="mix-blend-mode:multiply">
<path d="M35.3985 49.1721L27.8389 44.6899L35.3985 41.3479L42.9581 44.7277L35.3985 49.1721Z" fill="#F4BAED"/>
</g>
</g>
<g style="mix-blend-mode:multiply">
<g style="mix-blend-mode:multiply">
<path d="M35.3985 32.1537V49.2116L42.9581 44.7278L35.3985 32.1537Z" fill="#F4BAED"/>
</g>
</g>
<g style="mix-blend-mode:multiply">
<g style="mix-blend-mode:multiply">
<path d="M35.3985 50.6542V56.7711L42.9581 46.1342L35.3985 50.6542Z" fill="#F4BAED"/>
</g>
</g>
<path d="M123.437 59.1698L123.424 63.0268C123.407 60.1132 121.474 57.1996 117.625 54.9806C113.776 52.7615 108.744 51.648 103.715 51.648C98.6866 51.648 93.6689 52.7584 89.845 54.9806C86.0211 57.2028 84.1202 60.1069 84.1359 63.0268L84.147 59.1746C84.1312 56.2625 86.0369 53.3474 89.8561 51.1299C93.6752 48.9124 98.6977 47.7974 103.726 47.7974C108.755 47.7974 113.785 48.9077 117.636 51.1283C121.487 53.3489 123.418 56.2547 123.437 59.1698Z" fill="black"/>
<path d="M84.5075 65.194C84.2672 64.4943 84.1417 63.7603 84.1358 63.0206L84.1469 59.1683C84.1518 59.9082 84.2774 60.6423 84.5186 61.3417C84.5154 62.6268 84.5117 63.9109 84.5075 65.194Z" fill="white"/>
<path d="M118.062 67.4083L118.051 71.259L117.716 71.0653L117.727 67.2146L118.062 67.4083Z" fill="white"/>
<path d="M123.423 63.027C123.439 65.9406 121.534 68.8542 117.716 71.0717L117.727 67.221C121.546 64.9925 123.45 62.0821 123.436 59.17C123.436 60.3245 123.422 61.8647 123.423 63.027Z" fill="white"/>
<path d="M89.935 71.0667C87.0482 69.3988 85.2386 67.3451 84.5078 65.1938C84.5078 63.9108 84.5115 62.6267 84.5188 61.3416C85.2496 63.4992 87.056 65.5466 89.946 67.2144C93.7951 69.4366 98.8254 70.547 103.856 70.547C108.886 70.547 113.902 69.4366 117.728 67.2144L117.717 71.0588C113.891 73.2826 108.873 74.3929 103.845 74.3929C98.816 74.3929 93.7841 73.2889 89.935 71.0667Z" fill="white"/>
<path d="M117.636 51.1222C121.485 53.346 123.417 56.2565 123.435 59.1701C123.452 62.0837 121.545 64.9973 117.727 67.2148L118.063 67.4085L117.727 67.2148C113.902 69.437 108.884 70.5473 103.855 70.5473C98.8266 70.5473 93.7948 69.437 89.9457 67.2148C86.0966 64.9925 84.1626 62.0821 84.1468 59.1685C84.1311 56.2549 86.0367 53.3413 89.8559 51.1238C93.6751 48.9063 98.6975 47.7913 103.726 47.7913C108.755 47.7913 113.785 48.9016 117.636 51.1222Z" fill="white"/>
<path d="M124.381 59.1683L124.369 63.0269C124.388 66.0775 122.392 69.1312 118.384 71.459C114.376 73.7867 109.112 74.9537 103.843 74.9521C98.5731 74.9506 93.2909 73.7867 89.2654 71.459C85.2399 69.1312 83.2082 66.0728 83.1909 63.0269L83.2019 59.1762C83.2193 62.2268 85.2493 65.2806 89.2795 67.6083C93.3097 69.936 98.5905 71.1015 103.857 71.1015C109.124 71.1015 114.39 69.936 118.397 67.6083C122.403 65.2806 124.397 62.2205 124.381 59.1683Z" fill="black"/>
<path d="M124.382 59.1683C124.399 62.2205 122.405 65.2743 118.397 67.602C114.389 69.9298 109.127 71.0952 103.858 71.0952C98.5878 71.0952 93.3055 69.9298 89.28 67.602C85.2545 65.2743 83.2198 62.2205 83.2024 59.1699C83.1851 56.1193 85.179 53.0639 89.1871 50.7362C93.1953 48.4085 98.4587 47.243 103.727 47.243C108.995 47.243 114.271 48.4085 118.304 50.7362C122.338 53.0639 124.365 56.1177 124.382 59.1683ZM103.856 70.5471C108.885 70.5471 113.902 69.4368 117.728 67.2146C121.553 64.9924 123.451 62.0819 123.437 59.1699C123.423 56.2579 121.487 53.3427 117.638 51.1221C113.789 48.9014 108.757 47.7911 103.728 47.7911C98.6996 47.7911 93.6819 48.8936 89.858 51.1236C86.0341 53.3537 84.1316 56.2547 84.1474 59.1683C84.1631 62.0819 86.0971 64.9956 89.9462 67.2146C93.7953 69.4337 98.8256 70.5471 103.856 70.5471" fill="black"/>
<path d="M100.015 57.116L96.6855 55.182C98.3534 56.127 100.651 55.9884 103.187 54.5237C105.722 53.059 108.014 50.5549 109.671 47.6838L113.002 49.6194C111.345 52.4905 109.053 54.9946 106.516 56.4593C103.979 57.924 101.684 58.0673 100.015 57.116Z" fill="black"/>
<path d="M109.735 49.8244L107.207 48.355L109.735 49.8244Z" fill="#003399"/>
<path d="M106.159 48.4857C106.205 48.4581 106.247 48.423 106.282 48.3817L109.611 50.3173C109.576 50.358 109.535 50.3926 109.488 50.4197C109.461 50.44 109.428 50.4527 109.394 50.4563C109.36 50.4599 109.326 50.4543 109.295 50.4401L105.965 48.5046C105.996 48.5186 106.031 48.5243 106.065 48.521C106.099 48.5176 106.131 48.5055 106.159 48.4857V48.4857Z" fill="#003399"/>
<path d="M106.402 47.8887C106.389 47.8678 106.372 47.8504 106.351 47.8383L109.682 49.7738C109.703 49.7861 109.719 49.8035 109.731 49.8242L106.402 47.8902L109.734 49.8242C109.802 49.9408 109.748 50.1597 109.614 50.3172L106.282 48.38C106.416 48.2225 106.469 48.0052 106.402 47.8887Z" fill="#003399"/>
<path d="M106.351 47.8383L109.682 49.7739C109.651 49.7598 109.616 49.7542 109.582 49.7575C109.548 49.7608 109.515 49.773 109.487 49.7928L106.156 47.8572C106.184 47.8374 106.217 47.8253 106.251 47.822C106.285 47.8187 106.32 47.8243 106.351 47.8383V47.8383Z" fill="white"/>
<path d="M109.295 50.4402L105.966 48.5046C105.944 48.4927 105.926 48.4746 105.915 48.4526C105.846 48.3377 105.899 48.1187 106.035 47.9628C106.069 47.9208 106.11 47.8851 106.156 47.8573L109.487 49.7976C109.44 49.8253 109.399 49.861 109.364 49.9032C109.23 50.0607 109.177 50.278 109.245 50.393C109.258 50.4119 109.275 50.4279 109.295 50.4402V50.4402Z" fill="white"/>
<path d="M111.003 46.7169C110.903 46.6689 110.806 46.6131 110.715 46.5499L109.77 46.0034L108.474 45.249L110.994 46.7169H111.003Z" fill="#003399"/>
<path d="M113.002 49.6197L109.671 47.6841C111.328 44.8146 112.348 41.586 112.341 38.6708C112.333 35.7557 111.296 33.7146 109.629 32.7633L112.96 34.6989C114.626 35.6438 115.662 37.6912 115.67 40.6064C115.678 43.5216 114.657 46.7502 113.002 49.6197Z" fill="black"/>
<path d="M108.159 44.3892C108.249 44.1766 108.227 43.9813 108.114 43.9167L111.445 45.8523C111.558 45.9185 111.58 46.1138 111.489 46.3248L108.159 44.3892Z" fill="#003399"/>
<path d="M107.863 44.7372C107.995 44.6547 108.097 44.5329 108.155 44.3892L111.484 46.3326C111.426 46.4762 111.325 46.5979 111.194 46.6807C111.138 46.7174 111.071 46.733 111.004 46.7248L107.674 44.7908L111.004 46.7248C110.984 46.722 110.964 46.715 110.947 46.7043L107.618 44.7577C107.635 44.7687 107.654 44.7761 107.674 44.7797C107.74 44.7875 107.807 44.7725 107.863 44.7372V44.7372Z" fill="#003399"/>
<path d="M108.109 43.9152L111.44 45.8508C111.422 45.8405 111.402 45.8335 111.382 45.8303C111.316 45.822 111.249 45.8377 111.193 45.8744L107.862 43.9388C107.918 43.9021 107.986 43.8865 108.052 43.8947C108.072 43.8989 108.091 43.9058 108.109 43.9152V43.9152Z" fill="white"/>
<path d="M110.947 46.6964L107.617 44.7577C107.504 44.6915 107.48 44.4962 107.572 44.2852C107.63 44.1414 107.731 44.0192 107.862 43.9355L111.193 45.8711C111.061 45.9543 110.959 46.0766 110.901 46.2208C110.81 46.4365 110.837 46.6302 110.947 46.6964Z" fill="white"/>
<path d="M111.193 45.8745C111.249 45.8378 111.316 45.8221 111.382 45.8304C111.539 45.8588 111.588 46.0808 111.484 46.3249C111.427 46.4685 111.325 46.5903 111.194 46.673C111.138 46.7097 111.071 46.7253 111.004 46.7171C110.846 46.6887 110.798 46.4682 110.901 46.2241C110.96 46.08 111.062 45.9577 111.193 45.8745V45.8745Z" fill="white"/>
<path d="M108.887 49.3252L105.557 47.3896C105.764 47.1486 105.847 46.8085 105.74 46.6305L109.071 48.5661C109.176 48.7393 109.094 49.0795 108.887 49.3252Z" fill="#003399"/>
<path d="M105.367 47.5468C105.439 47.5054 105.503 47.4521 105.557 47.3893L108.887 49.3249C108.832 49.3873 108.768 49.4405 108.696 49.4824C108.653 49.5136 108.603 49.5328 108.55 49.5381C108.497 49.5434 108.444 49.5344 108.395 49.5123L105.065 47.5767C105.113 47.5988 105.167 47.6077 105.22 47.6025C105.273 47.5972 105.324 47.578 105.367 47.5468Z" fill="#003399"/>
<path d="M105.74 46.6256C105.721 46.5932 105.695 46.5661 105.663 46.5469L108.994 48.4824C109.025 48.5021 109.052 48.5291 109.071 48.5612C108.071 47.98 106.56 47.4351 105.74 46.6256Z" fill="#003399"/>
<path d="M109.13 40.7843C109.206 40.7341 109.271 40.6672 109.318 40.5887C109.365 40.5101 109.394 40.4219 109.402 40.3307L112.727 42.2647C112.719 42.3563 112.691 42.4449 112.643 42.5238C112.596 42.6027 112.531 42.6698 112.454 42.7198L112.44 42.7277C112.414 42.7446 112.383 42.7545 112.352 42.7564C112.32 42.7583 112.289 42.7523 112.261 42.7387L108.931 40.8032C108.959 40.8167 108.99 40.8228 109.022 40.8208C109.053 40.8189 109.083 40.809 109.109 40.7921L109.13 40.7843Z" fill="#003399"/>
<path d="M109.402 40.3307C109.407 40.2941 109.403 40.2567 109.389 40.2224C109.375 40.1882 109.351 40.1587 109.321 40.137L112.652 42.0804C112.682 42.102 112.705 42.1315 112.719 42.1654C112.733 42.1993 112.737 42.2364 112.731 42.2726L109.402 40.3307Z" fill="#003399"/>
<path d="M103.12 50.6212C103.218 50.5575 103.3 50.4724 103.36 50.3723C103.42 50.2721 103.457 50.1596 103.468 50.0432L106.797 51.9772C106.787 52.0937 106.75 52.2064 106.69 52.3068C106.63 52.4072 106.548 52.4927 106.451 52.5568L106.432 52.5662L104.55 51.4732L104.117 51.2212L103.904 51.0968L103.694 50.9756L103.298 50.7425C103.239 50.7094 103.173 50.6307 103.105 50.6307L103.12 50.6212Z" fill="#003399"/>
<path d="M103.105 50.6306L104.772 51.5992L106.436 52.5662L103.105 50.6306V50.6306Z" fill="#003399"/>
<path d="M109.322 40.137L112.653 42.0804C112.624 42.067 112.593 42.0608 112.562 42.0624C112.53 42.0641 112.5 42.0735 112.473 42.0899L112.459 42.0978L109.128 40.1637L109.144 40.1543C109.169 40.1367 109.199 40.1259 109.23 40.1228C109.262 40.1198 109.293 40.1247 109.322 40.137V40.137Z" fill="white"/>
<path d="M105.665 46.5468L108.994 48.4824C108.946 48.4602 108.893 48.4513 108.84 48.4566C108.787 48.4618 108.736 48.4811 108.693 48.5123L105.362 46.5767C105.406 46.5458 105.457 46.5268 105.51 46.5215C105.563 46.5163 105.616 46.525 105.665 46.5468V46.5468Z" fill="white"/>
<path d="M112.265 42.7386L108.936 40.8031C108.906 40.7811 108.883 40.7515 108.869 40.7174C108.855 40.6832 108.85 40.6459 108.856 40.6093C108.864 40.518 108.893 40.4297 108.94 40.3512C108.987 40.2726 109.051 40.2058 109.128 40.1558L112.459 42.0898C112.382 42.1398 112.317 42.2069 112.27 42.2858C112.223 42.3647 112.194 42.4533 112.187 42.5449C112.181 42.5813 112.185 42.6186 112.199 42.6527C112.213 42.6868 112.236 42.7165 112.265 42.7386V42.7386Z" fill="white"/>
<path d="M112.459 42.0899L112.473 42.0821C112.631 42.0065 112.739 42.0821 112.731 42.2647C112.724 42.3564 112.695 42.445 112.648 42.5239C112.601 42.6028 112.536 42.6698 112.459 42.7199L112.445 42.7278C112.287 42.8049 112.179 42.7278 112.186 42.5451C112.194 42.4535 112.223 42.3648 112.27 42.2859C112.317 42.2071 112.382 42.14 112.459 42.0899V42.0899Z" fill="white"/>
<path d="M103.472 50.0432C103.48 49.9969 103.474 49.9496 103.456 49.9063C103.439 49.863 103.409 49.8254 103.372 49.7975L106.701 51.733C106.739 51.7602 106.769 51.7975 106.786 51.8406C106.804 51.8838 106.81 51.9311 106.802 51.9771L103.472 50.0432Z" fill="#003399"/>
<path d="M102.879 50.6448C102.915 50.6617 102.954 50.6692 102.994 50.6668C103.034 50.6643 103.072 50.6519 103.105 50.6306L106.436 52.5662C106.403 52.5876 106.364 52.6 106.325 52.6022C106.285 52.6044 106.245 52.5963 106.21 52.5788L102.879 50.6448Z" fill="#003399"/>
<path d="M108.395 49.5125L105.064 47.5769C105.033 47.5582 105.007 47.5316 104.989 47.4997C104.882 47.3218 104.965 46.9816 105.173 46.7406C105.227 46.678 105.291 46.6247 105.362 46.5831L108.693 48.5187C108.621 48.5598 108.556 48.613 108.503 48.6762C108.295 48.9172 108.213 49.2558 108.318 49.4353C108.337 49.467 108.364 49.4935 108.395 49.5125V49.5125Z" fill="white"/>
<path d="M108.693 48.5123C108.851 48.4241 108.996 48.4352 109.071 48.5596C109.177 48.7391 109.095 49.0793 108.887 49.3202C108.832 49.3827 108.768 49.4358 108.696 49.4777C108.539 49.5659 108.394 49.5549 108.319 49.4305C108.213 49.251 108.295 48.9123 108.503 48.6714C108.557 48.6077 108.621 48.5538 108.693 48.5123V48.5123Z" fill="white"/>
<path d="M103.371 49.7975L106.701 51.7331C106.665 51.7155 106.625 51.7075 106.586 51.7097C106.546 51.7119 106.508 51.7243 106.474 51.7457L106.454 51.7567L103.119 49.8227L103.14 49.8101C103.174 49.7884 103.214 49.7759 103.254 49.7737C103.295 49.7715 103.335 49.7797 103.371 49.7975V49.7975Z" fill="white"/>
<path d="M106.209 52.5788L102.878 50.6449C102.841 50.6166 102.811 50.5787 102.794 50.5352C102.776 50.4916 102.77 50.4441 102.777 50.3976C102.787 50.2818 102.823 50.1698 102.883 50.0702C102.943 49.9706 103.025 49.8859 103.122 49.8228L106.453 51.7567C106.356 51.8204 106.274 51.9054 106.214 52.0052C106.154 52.105 106.117 52.2171 106.107 52.3331C106.099 52.3796 106.105 52.4271 106.123 52.4705C106.141 52.5139 106.171 52.5514 106.209 52.5788Z" fill="white"/>
<path d="M106.093 44.7578C106.279 44.6386 106.424 44.4648 106.508 44.2601L109.838 46.1942C109.755 46.3989 109.61 46.5728 109.424 46.6918C109.343 46.7448 109.247 46.7671 109.151 46.7548C109.123 46.7506 109.096 46.741 109.071 46.7265L105.74 44.7909C105.765 44.8052 105.793 44.8148 105.822 44.8192C105.916 44.8315 106.012 44.8097 106.093 44.7578V44.7578Z" fill="#003399"/>
<path d="M106.509 44.2664C106.638 43.9609 106.606 43.6806 106.444 43.5876L109.773 45.5216C109.931 45.6161 109.967 45.8965 109.838 46.2004L106.509 44.2664Z" fill="#003399"/>
<path d="M107.977 41.1669C107.985 41.1108 107.978 41.0536 107.956 41.0012C107.935 40.9488 107.899 40.9032 107.854 40.8693L111.183 42.8048C111.229 42.8388 111.264 42.8844 111.285 42.9368C111.307 42.9892 111.314 43.0464 111.306 43.1025C111.294 43.2435 111.249 43.3799 111.176 43.5013C111.103 43.6227 111.004 43.7259 110.886 43.8033L110.862 43.8159C110.821 43.842 110.774 43.8571 110.726 43.8598C110.678 43.8626 110.63 43.8529 110.586 43.8317L107.257 41.8977C107.301 41.9182 107.349 41.9274 107.397 41.9244C107.445 41.9214 107.492 41.9062 107.533 41.8804L107.556 41.8678C107.674 41.7899 107.773 41.6865 107.846 41.5652C107.919 41.4439 107.963 41.3078 107.977 41.1669V41.1669Z" fill="#003399"/>
<path d="M106.444 43.5876L109.773 45.5216C109.749 45.5071 109.721 45.4974 109.693 45.4933C109.598 45.4824 109.502 45.5047 109.421 45.5563L106.091 43.6223C106.172 43.5694 106.268 43.5465 106.364 43.5577C106.392 43.5627 106.419 43.5728 106.444 43.5876V43.5876Z" fill="white"/>
<path d="M107.854 40.8692L111.183 42.8048C111.14 42.7839 111.092 42.7743 111.043 42.7771C110.995 42.7799 110.949 42.7948 110.908 42.8206L110.884 42.8347L107.553 40.8992L107.577 40.8866C107.618 40.8603 107.665 40.8449 107.713 40.8419C107.762 40.8388 107.81 40.8483 107.854 40.8692V40.8692Z" fill="white"/>
<path d="M103.606 47.6353L106.936 49.5693L103.606 47.6353Z" fill="#003399"/>
<path d="M109.071 46.7327L105.742 44.7971C105.585 44.7026 105.547 44.4238 105.677 44.1183C105.76 43.9136 105.905 43.7401 106.092 43.6222L109.42 45.5562C109.234 45.6756 109.089 45.8494 109.005 46.0539C108.876 46.3578 108.909 46.6382 109.071 46.7327Z" fill="white"/>
<path d="M109.419 45.5563C109.5 45.5047 109.596 45.4824 109.692 45.4933C109.922 45.5342 109.986 45.8508 109.837 46.2004C109.753 46.4052 109.609 46.5791 109.422 46.6981C109.342 46.7511 109.245 46.7734 109.15 46.7611C108.92 46.7201 108.855 46.4036 109.005 46.0539C109.089 45.8495 109.233 45.6757 109.419 45.5563V45.5563Z" fill="white"/>
<path d="M110.586 43.8331L107.257 41.8975C107.211 41.8634 107.176 41.8176 107.154 41.7649C107.132 41.7122 107.125 41.6546 107.134 41.5983C107.146 41.4576 107.19 41.3216 107.263 41.2005C107.335 41.0793 107.435 40.9763 107.553 40.899L110.884 42.8346C110.765 42.9116 110.666 43.0146 110.593 43.1358C110.521 43.257 110.477 43.3931 110.465 43.5339C110.456 43.5901 110.463 43.6475 110.484 43.7002C110.506 43.7529 110.541 43.7988 110.586 43.8331Z" fill="white"/>
<path d="M110.884 42.8349L110.907 42.8207C111.139 42.7026 111.318 42.8286 111.306 43.1026C111.293 43.2436 111.249 43.38 111.176 43.5014C111.103 43.6228 111.004 43.7261 110.885 43.8034L110.862 43.816C110.628 43.9357 110.452 43.816 110.465 43.5341C110.477 43.3934 110.521 43.2572 110.593 43.136C110.666 43.0148 110.765 42.9118 110.884 42.8349V42.8349Z" fill="white"/>
<path d="M103.12 48.4526C103.258 48.3627 103.375 48.2424 103.46 48.1008C103.546 47.9592 103.598 47.8 103.612 47.6353L106.943 49.5708C106.928 49.7353 106.875 49.8941 106.79 50.0356C106.705 50.1771 106.589 50.2976 106.45 50.3882L106.419 50.4055C106.372 50.4341 106.319 50.4508 106.264 50.4541C106.209 50.4574 106.154 50.4472 106.104 50.4244L102.775 48.4889C102.825 48.5121 102.88 48.5225 102.935 48.5192C102.989 48.5159 103.043 48.499 103.09 48.47L103.12 48.4526Z" fill="#003399"/>
<path d="M103.608 47.6319C103.619 47.5653 103.611 47.4969 103.585 47.4344C103.56 47.3719 103.517 47.3176 103.463 47.2776L106.792 49.2132C106.847 49.253 106.889 49.3069 106.914 49.3692C106.94 49.4314 106.948 49.4995 106.937 49.566L103.62 47.6383L106.937 49.566L103.608 47.6319Z" fill="#003399"/>
<path d="M103.463 47.2776L106.794 49.2132C106.743 49.1886 106.686 49.1774 106.629 49.1807C106.573 49.184 106.518 49.2017 106.47 49.2321L106.438 49.2494L103.109 47.3138L103.14 47.2965C103.188 47.2666 103.243 47.2491 103.299 47.2458C103.356 47.2425 103.412 47.2535 103.463 47.2776V47.2776Z" fill="white"/>
<path d="M108.405 45.7265L105.075 43.7909L105.124 43.7626C105.369 43.6031 105.573 43.3878 105.72 43.1344C105.866 42.8809 105.95 42.5964 105.965 42.3042L109.296 44.2398C109.28 44.5321 109.196 44.8166 109.05 45.0701C108.903 45.3235 108.699 45.5388 108.453 45.6981L108.405 45.7265Z" fill="#003399"/>
<path d="M104.888 44.4774C104.85 44.4122 104.796 44.3579 104.73 44.3199L108.06 46.2555C108.125 46.2935 108.179 46.3478 108.217 46.413C108.427 46.7705 108.263 47.4493 107.847 47.9297L104.518 45.9941C104.932 45.5137 105.097 44.8365 104.888 44.4774Z" fill="#003399"/>
<path d="M104.138 46.3201C104.282 46.233 104.41 46.1228 104.518 45.9941L107.844 47.9297C107.737 48.0588 107.608 48.1689 107.464 48.2557C107.379 48.3179 107.278 48.3562 107.172 48.3664C107.067 48.3767 106.961 48.3585 106.864 48.314L103.533 46.3784C103.63 46.4236 103.737 46.442 103.844 46.4317C103.95 46.4215 104.052 46.383 104.138 46.3201V46.3201Z" fill="#003399"/>
<path d="M106.089 50.4273L102.76 48.4918C102.705 48.4519 102.663 48.3977 102.637 48.3351C102.612 48.2725 102.604 48.2041 102.615 48.1374C102.63 47.9724 102.683 47.8129 102.768 47.6709C102.853 47.5288 102.97 47.4078 103.108 47.3169L106.437 49.2525C106.299 49.3434 106.183 49.4644 106.097 49.6064C106.012 49.7485 105.96 49.908 105.945 50.073C105.934 50.1397 105.942 50.208 105.967 50.2706C105.993 50.3331 106.035 50.3873 106.089 50.4273Z" fill="white"/>
<path d="M100.162 51.963C100.264 51.8979 100.343 51.8027 100.389 51.6906L103.718 53.6245C103.673 53.7371 103.594 53.8328 103.492 53.8986C103.445 53.9288 103.389 53.9411 103.334 53.9332L100.011 52.0024C100.064 52.0082 100.118 51.9942 100.162 51.963Z" fill="#003399"/>
<path d="M100.011 52.0023L103.34 53.9379L100.011 52.0023Z" fill="#003399"/>
<path d="M100.388 51.6876C100.461 51.5191 100.443 51.3726 100.354 51.3143L103.685 53.2483C103.773 53.3003 103.79 53.4547 103.718 53.6216L100.388 51.6876Z" fill="#003399"/>
<path d="M99.9695 51.9818C99.9829 51.9903 99.998 51.9957 100.014 51.9976L103.343 53.9332C103.328 53.9303 103.313 53.925 103.299 53.9174L99.9695 51.9818Z" fill="#003399"/>
<path d="M111.466 39.663L108.946 38.1936L111.466 39.663Z" fill="#003399"/>
<path d="M105.75 41.7828L109.079 43.7184C109.154 43.7817 109.213 43.8621 109.251 43.9527C109.289 44.0434 109.304 44.1418 109.297 44.2397L105.966 42.3041C105.974 42.2064 105.958 42.1081 105.921 42.0175C105.883 41.9268 105.825 41.8464 105.75 41.7828Z" fill="#003399"/>
<path d="M100.354 51.3173L103.683 53.2513C103.67 53.2435 103.655 53.2382 103.639 53.2356C103.587 53.2299 103.534 53.2421 103.49 53.2702L100.159 51.3362C100.203 51.3073 100.256 51.2945 100.308 51.2999C100.325 51.3028 100.34 51.3087 100.354 51.3173V51.3173Z" fill="white"/>
<path d="M104.523 43.8238C104.61 43.8653 104.707 43.884 104.804 43.8783C104.9 43.8725 104.994 43.8424 105.076 43.7908L108.405 45.7264C108.324 45.7782 108.23 45.8082 108.134 45.8138C108.037 45.8193 107.941 45.8 107.854 45.7579L104.523 43.8238Z" fill="#003399"/>
<path d="M105.748 41.7827L105.718 41.7638L109.049 43.6978L109.079 43.7183L108.118 43.1608L106.816 42.4032L106.658 42.3103L106.501 42.2174L106.343 42.1276L106.039 41.9512C105.95 41.8844 105.853 41.8278 105.751 41.7827H105.748Z" fill="#003399"/>
<path d="M108.142 37.7273C108.127 37.7007 108.105 37.6784 108.079 37.6627L111.408 39.5983C111.435 39.614 111.457 39.6362 111.473 39.6629L108.142 37.7273Z" fill="#003399"/>
<path d="M108.142 37.7273L111.466 39.6629C111.553 39.8109 111.485 40.0897 111.309 40.2928C111.264 40.3454 111.211 40.3902 111.152 40.4251C111.116 40.4508 111.075 40.4666 111.031 40.4711C110.988 40.4755 110.944 40.4683 110.904 40.4503L107.575 38.5148C107.614 38.5327 107.658 38.5399 107.701 38.5358C107.744 38.5316 107.785 38.5162 107.821 38.4911C107.88 38.4555 107.933 38.4103 107.978 38.3573C108.159 38.1541 108.23 37.8753 108.142 37.7273Z" fill="#003399"/>
<path d="M104.734 44.32L108.063 46.2555C107.967 46.2117 107.861 46.1941 107.755 46.2046C107.65 46.2151 107.549 46.2533 107.463 46.3154L104.132 44.3798C104.219 44.3176 104.32 44.2793 104.425 44.2688C104.531 44.2583 104.637 44.276 104.734 44.32V44.32Z" fill="white"/>
<path d="M103.296 53.9174L99.9695 51.9819C99.8797 51.9299 99.8624 51.7772 99.9333 51.6086C99.9794 51.4964 100.059 51.4012 100.162 51.3362L103.493 53.2702C103.39 53.3357 103.31 53.4314 103.264 53.5442C103.19 53.7127 103.208 53.8655 103.296 53.9174Z" fill="white"/>
<path d="M103.49 53.2701C103.534 53.242 103.587 53.2298 103.64 53.2355C103.766 53.2575 103.797 53.4324 103.718 53.6245C103.673 53.737 103.594 53.8327 103.492 53.8985C103.445 53.9287 103.389 53.941 103.334 53.9332C103.208 53.9111 103.177 53.7379 103.255 53.5442C103.303 53.4305 103.385 53.3347 103.49 53.2701V53.2701Z" fill="white"/>
<path d="M100.941 50.1125C101.099 50.0109 101.222 49.8629 101.292 49.6888L104.623 51.6244C104.552 51.7986 104.429 51.9465 104.271 52.048C104.202 52.0924 104.12 52.1113 104.039 52.1016C104.015 52.0975 103.992 52.089 103.971 52.0764L100.64 50.1408C100.662 50.1534 100.685 50.1619 100.71 50.166C100.791 50.1755 100.872 50.1566 100.941 50.1125V50.1125Z" fill="#003399"/>
<path d="M101.292 49.6904C101.404 49.4306 101.376 49.1943 101.237 49.114L104.568 51.0575C104.705 51.1378 104.726 51.3725 104.623 51.6339L101.292 49.6904Z" fill="#003399"/>
<path d="M102.146 47.4744L105.482 49.4084L102.146 47.4744Z" fill="#003399"/>
<path d="M108.079 37.6706L111.408 39.6061C111.369 39.5882 111.325 39.5809 111.282 39.5851C111.239 39.5892 111.198 39.6046 111.163 39.6297L107.832 37.6958C107.867 37.6701 107.908 37.6543 107.952 37.6498C107.995 37.6454 108.039 37.6526 108.079 37.6706V37.6706Z" fill="white"/>
<path d="M110.917 40.4456L107.587 38.51C107.561 38.4944 107.538 38.4722 107.523 38.4455C107.436 38.299 107.504 38.0187 107.68 37.8155C107.725 37.7625 107.778 37.7173 107.838 37.6816L111.169 39.6156C111.109 39.6513 111.056 39.6965 111.011 39.7495C110.841 39.9464 110.772 40.222 110.854 40.3795C110.869 40.4065 110.89 40.4293 110.917 40.4456Z" fill="white"/>
<path d="M106.868 48.314L103.537 46.3784C103.472 46.3406 103.417 46.2863 103.38 46.2209C103.169 45.8634 103.334 45.1831 103.75 44.7027C103.858 44.5745 103.986 44.4649 104.129 44.3783L107.46 46.3139C107.316 46.3999 107.188 46.509 107.079 46.6367C106.665 47.1186 106.499 47.7974 106.709 48.1549C106.747 48.2209 106.802 48.2757 106.868 48.314Z" fill="white"/>
<path d="M107.463 46.3154C107.77 46.1374 108.069 46.1579 108.217 46.413C108.427 46.7705 108.263 47.4493 107.847 47.9296C107.74 48.0587 107.611 48.1689 107.468 48.2556C107.153 48.4399 106.856 48.4005 106.712 48.1564C106.502 47.7989 106.667 47.1201 107.082 46.6382C107.19 46.5104 107.319 46.4014 107.463 46.3154Z" fill="white"/>
<path d="M101.237 49.114L104.568 51.0574C104.547 51.0449 104.523 51.0363 104.499 51.0322C104.418 51.0226 104.337 51.0416 104.269 51.0858L100.94 49.1518C101.008 49.1076 101.089 49.0887 101.17 49.0983C101.193 49.0994 101.216 49.1047 101.237 49.114V49.114Z" fill="white"/>
<path d="M106.3 40.663C106.544 40.3795 106.641 39.9795 106.519 39.77L109.848 41.704C109.971 41.9151 109.873 42.3151 109.631 42.5986C109.567 42.6734 109.491 42.7373 109.407 42.7876C109.357 42.8241 109.297 42.8466 109.235 42.8527C109.173 42.8588 109.111 42.8482 109.054 42.8222L105.723 40.8882C105.78 40.9137 105.843 40.924 105.905 40.9179C105.967 40.9118 106.027 40.8896 106.078 40.8536C106.162 40.8026 106.237 40.7383 106.3 40.663V40.663Z" fill="#003399"/>
<path d="M106.518 39.7669C106.496 39.7286 106.465 39.6966 106.427 39.674L109.756 41.608C109.794 41.6306 109.825 41.6626 109.847 41.7009C108.849 41.1213 107.337 40.5811 106.518 39.7669Z" fill="#003399"/>
<path d="M105.718 41.7654L109.049 43.6994C108.962 43.6577 108.865 43.639 108.768 43.645C108.672 43.6511 108.578 43.6817 108.496 43.734L108.448 43.7608L105.117 41.8252L105.167 41.7984C105.248 41.7464 105.342 41.716 105.438 41.7102C105.535 41.7045 105.631 41.7234 105.718 41.7654V41.7654Z" fill="white"/>
<path d="M103.972 52.0781L100.641 50.1425C100.504 50.0638 100.483 49.8276 100.586 49.5677C100.657 49.3931 100.781 49.2451 100.94 49.144L104.27 51.078C104.111 51.1802 103.988 51.3286 103.917 51.5032C103.805 51.7615 103.833 52.0025 103.972 52.0781Z" fill="white"/>
<path d="M104.269 51.0778C104.337 51.0336 104.419 51.0147 104.499 51.0243C104.695 51.0589 104.751 51.3283 104.624 51.6259C104.553 51.8001 104.429 51.9481 104.271 52.0496C104.202 52.0939 104.12 52.1129 104.039 52.1031C103.846 52.0685 103.789 51.7992 103.917 51.5031C103.988 51.3285 104.111 51.18 104.269 51.0778V51.0778Z" fill="white"/>
<path d="M102.853 46.6258C103.074 46.1076 103.019 45.6336 102.743 45.4745L106.074 47.4085C106.348 47.566 106.403 48.0385 106.183 48.5613C106.041 48.9102 105.795 49.2064 105.477 49.4086L102.148 47.4731C102.465 47.2703 102.712 46.9743 102.853 46.6258V46.6258Z" fill="#003399"/>
<path d="M101.685 47.5815C101.846 47.6001 102.009 47.5623 102.146 47.4744L105.482 49.4084C105.346 49.4979 105.182 49.5359 105.02 49.5155L101.691 47.5815L105.009 49.5155C104.961 49.5078 104.914 49.4913 104.871 49.4666L101.545 47.5311C101.588 47.5559 101.635 47.573 101.685 47.5815V47.5815Z" fill="#003399"/>
<path d="M106.427 39.674L109.756 41.608C109.699 41.5824 109.637 41.5722 109.575 41.5783C109.513 41.5843 109.454 41.6065 109.403 41.6426L106.074 39.7071C106.124 39.6708 106.184 39.6486 106.246 39.6428C106.308 39.637 106.37 39.6477 106.427 39.674V39.674Z" fill="white"/>
<path d="M107.854 45.7578L104.523 43.8238C104.365 43.7277 104.264 43.5198 104.277 43.2253C104.302 42.9434 104.39 42.6708 104.536 42.4281C104.681 42.1853 104.88 41.9786 105.116 41.8236L108.447 43.7592C108.21 43.9138 108.011 44.1203 107.866 44.3632C107.721 44.6061 107.632 44.8788 107.608 45.1609C107.594 45.4538 107.687 45.6633 107.854 45.7578Z" fill="white"/>
<path d="M106.454 51.7569L106.474 51.7459C106.665 51.6482 106.813 51.7459 106.802 51.9774C106.792 52.0939 106.755 52.2066 106.695 52.307C106.635 52.4074 106.553 52.4929 106.455 52.557L106.437 52.5664C106.244 52.6641 106.098 52.5664 106.107 52.3333C106.118 52.2173 106.155 52.1052 106.215 52.0054C106.275 51.9056 106.356 51.8206 106.454 51.7569V51.7569Z" fill="white"/>
<path d="M106.438 49.2495L106.469 49.2321C106.743 49.0935 106.953 49.2416 106.942 49.5644C106.927 49.73 106.875 49.8901 106.79 50.0328C106.704 50.1754 106.588 50.2969 106.449 50.3881L106.417 50.4055C106.143 50.5441 105.935 50.3944 105.945 50.07C105.96 49.905 106.012 49.7455 106.098 49.6034C106.183 49.4614 106.299 49.3404 106.438 49.2495Z" fill="white"/>
<path d="M109.403 41.6426C109.585 41.5387 109.759 41.5529 109.848 41.7009C109.97 41.9119 109.873 42.312 109.63 42.5955C109.567 42.6703 109.491 42.7342 109.407 42.7845C109.225 42.89 109.051 42.8758 108.962 42.7262C108.838 42.5167 108.936 42.1167 109.18 41.8332C109.244 41.7582 109.319 41.6939 109.403 41.6426V41.6426Z" fill="white"/>
<path d="M109.054 42.819L105.723 40.885C105.686 40.8614 105.655 40.8296 105.632 40.792C105.507 40.581 105.605 40.1825 105.851 39.8975C105.914 39.8222 105.99 39.7578 106.074 39.7069L109.404 41.6425C109.32 41.6938 109.244 41.7581 109.18 41.8331C108.936 42.1165 108.838 42.5166 108.963 42.726C108.984 42.7646 109.016 42.7967 109.054 42.819V42.819Z" fill="white"/>
<path d="M102.743 45.4745L106.074 47.4085C106.031 47.3841 105.984 47.3676 105.936 47.3597C105.774 47.3405 105.61 47.3784 105.473 47.4668L102.143 45.5328C102.28 45.4432 102.444 45.4047 102.606 45.4241C102.655 45.4323 102.701 45.4494 102.743 45.4745V45.4745Z" fill="white"/>
<path d="M104.875 49.4669L101.544 47.5313C101.269 47.3738 101.214 46.9013 101.436 46.3784C101.577 46.0299 101.824 45.7342 102.141 45.5327L105.471 47.4667C105.153 47.6689 104.906 47.9651 104.765 48.314C104.546 48.8322 104.6 49.3062 104.875 49.4669Z" fill="white"/>
<path d="M105.472 47.4665C105.61 47.378 105.773 47.3402 105.935 47.3594C106.326 47.4271 106.436 47.9657 106.183 48.561C106.042 48.9089 105.796 49.2044 105.48 49.4068C105.341 49.4979 105.173 49.5364 105.008 49.5154C104.617 49.4477 104.507 48.9091 104.761 48.3138C104.904 47.9639 105.152 47.6676 105.472 47.4665Z" fill="white"/>
<path d="M104.825 41.5166C105.046 40.9969 104.983 40.5228 104.715 40.3638L108.045 42.2978C108.32 42.4553 108.375 42.9277 108.155 43.4506C108.012 43.7989 107.766 44.0948 107.449 44.2979C107.312 44.3863 107.148 44.4242 106.986 44.405C106.937 44.3974 106.89 44.3808 106.848 44.3562L103.518 42.4206C103.561 42.4453 103.608 42.4624 103.657 42.471C103.819 42.4894 103.982 42.451 104.118 42.3623C104.436 42.1604 104.683 41.8649 104.825 41.5166V41.5166Z" fill="#003399"/>
<path d="M103.959 49.04L101.431 47.5706L103.959 49.04Z" fill="#003399"/>
<path d="M104.425 48.0368L101.094 46.1012L101.141 46.076L104.47 48.01L104.425 48.0368Z" fill="#003399"/>
<path d="M100.629 47.1044L103.959 49.0399C104.083 49.2494 103.985 49.6494 103.741 49.9314C103.679 50.007 103.603 50.0715 103.519 50.1219C103.469 50.1587 103.409 50.1814 103.347 50.1875C103.284 50.1936 103.222 50.1829 103.165 50.1566L99.8355 48.2226C99.8922 48.2481 99.9546 48.2584 100.016 48.2523C100.078 48.2462 100.138 48.224 100.188 48.1879C100.273 48.137 100.348 48.0727 100.412 47.9974C100.656 47.7139 100.757 47.3154 100.629 47.1044Z" fill="#003399"/>
<path d="M100.63 47.1045C100.608 47.0659 100.577 47.0338 100.538 47.0116L103.869 48.9472C103.907 48.97 103.938 49.002 103.959 49.0401L100.63 47.1045Z" fill="#003399"/>
<path d="M105.093 38.8077C105.108 38.8135 105.121 38.8209 105.134 38.8298C106.23 39.4671 107.327 40.1044 108.424 40.7417L105.095 38.8062L105.093 38.8077Z" fill="#003399"/>
<path d="M105.089 38.8062L108.418 40.7417L105.089 38.8062Z" fill="#003399"/>
<path d="M104.715 40.3636L108.044 42.2976C108.002 42.2728 107.955 42.2562 107.906 42.2488C107.744 42.2292 107.581 42.2671 107.444 42.3559L104.115 40.4219C104.251 40.3327 104.415 40.2942 104.576 40.3132C104.625 40.3214 104.672 40.3385 104.715 40.3636V40.3636Z" fill="white"/>
<path d="M105.676 38.3274C105.786 38.0691 105.758 37.8329 105.621 37.7526L108.947 39.6881C109.085 39.7669 109.112 40.0031 109.002 40.263C108.931 40.4376 108.808 40.5861 108.649 40.6882L105.324 38.7526L108.654 40.6882C108.586 40.7309 108.505 40.7497 108.425 40.7418L105.095 38.8078C105.175 38.8154 105.256 38.796 105.324 38.7526C105.482 38.6502 105.605 38.5018 105.676 38.3274V38.3274Z" fill="#003399"/>
<path d="M105.022 38.7826C105.042 38.794 105.065 38.8019 105.088 38.8062L108.419 40.7418C108.395 40.7377 108.372 40.7292 108.351 40.7166L105.022 38.7826Z" fill="#003399"/>
<path d="M100.538 47.0115L103.869 48.947C103.812 48.921 103.749 48.9105 103.687 48.9166C103.625 48.9227 103.565 48.9451 103.515 48.9817L100.184 47.0477C100.234 47.0106 100.294 46.9877 100.356 46.9813C100.418 46.9749 100.481 46.9854 100.538 47.0115V47.0115Z" fill="white"/>
<path d="M102.125 43.5199L105.456 45.4555L102.127 43.5199H102.125Z" fill="#003399"/>
<path d="M98.4293 50.2085C98.489 50.1738 98.5423 50.1291 98.5868 50.0762L101.918 52.0102C101.873 52.0632 101.82 52.1084 101.76 52.144C101.725 52.1699 101.683 52.1858 101.64 52.1899C101.596 52.1941 101.552 52.1864 101.513 52.1677L98.182 50.2337C98.2218 50.2517 98.2656 50.2588 98.309 50.2544C98.3525 50.25 98.3939 50.2341 98.4293 50.2085V50.2085Z" fill="#003399"/>
<path d="M98.7381 49.451C98.723 49.4245 98.7013 49.4022 98.6751 49.3865L102.004 51.322C102.031 51.3371 102.053 51.3588 102.069 51.385C102.156 51.5315 102.086 51.8118 101.912 52.015L98.5806 50.081C98.757 49.8778 98.8247 49.5975 98.7381 49.451Z" fill="#003399"/>
<path d="M100.541 46.1326C100.628 46.1752 100.725 46.1946 100.822 46.1891C100.918 46.1836 101.012 46.1533 101.094 46.1011L104.425 48.0367C104.343 48.0886 104.249 48.1187 104.152 48.1242C104.055 48.1297 103.958 48.1104 103.871 48.0682L100.541 46.1326Z" fill="#003399"/>
<path d="M101.982 44.6161C101.992 44.5123 101.974 44.4077 101.931 44.3129C101.888 44.218 101.82 44.1363 101.735 44.0759L105.066 46.0178C105.151 46.0782 105.218 46.1599 105.262 46.2548C105.305 46.3497 105.322 46.4543 105.312 46.558C105.296 46.8501 105.212 47.1345 105.066 47.3879C104.92 47.6413 104.716 47.8566 104.471 48.0164L101.141 46.0808C101.387 45.9207 101.592 45.7045 101.738 45.4498C101.884 45.1952 101.968 44.9094 101.982 44.6161V44.6161Z" fill="#003399"/>
<path d="M106.847 44.3563L103.518 42.4207C103.242 42.2632 103.187 41.7907 103.409 41.2678C103.551 40.9194 103.798 40.6238 104.115 40.4221L107.444 42.3561C107.127 42.5584 106.88 42.8546 106.739 43.2034C106.518 43.7216 106.572 44.1956 106.847 44.3563Z" fill="white"/>
<path d="M103.166 50.1566L99.8362 48.2226C99.7983 48.2 99.7668 48.168 99.7448 48.1297C99.6204 47.9202 99.718 47.5186 99.9622 47.2367C100.025 47.1615 100.1 47.0976 100.184 47.0477L103.515 48.9817C103.431 49.0325 103.356 49.0963 103.292 49.1707C103.049 49.4542 102.951 49.8542 103.076 50.0653C103.097 50.103 103.128 50.1344 103.166 50.1566V50.1566Z" fill="white"/>
<path d="M103.515 48.9818C103.696 48.8778 103.872 48.8904 103.959 49.04C104.083 49.2495 103.986 49.6495 103.742 49.9315C103.679 50.0071 103.604 50.0716 103.52 50.122C103.337 50.2276 103.164 50.2134 103.075 50.0653C102.951 49.8543 103.049 49.4542 103.291 49.1708C103.355 49.0963 103.431 49.0325 103.515 48.9818Z" fill="white"/>
<path d="M105.621 37.7525L108.947 39.6881C108.926 39.6752 108.902 39.6667 108.878 39.6629C108.797 39.6532 108.716 39.6722 108.648 39.7164L105.325 37.7808C105.393 37.7366 105.474 37.7177 105.555 37.7273C105.578 37.7318 105.6 37.7403 105.621 37.7525V37.7525Z" fill="white"/>
<path d="M109.282 38.5307C109.182 38.4822 109.086 38.4259 108.994 38.3622L108.69 38.1858L108.375 38.0031L108.06 37.8157L106.761 37.0613L109.281 38.5307H109.282Z" fill="#003399"/>
<path d="M106.331 36.2863C106.402 36.1194 106.385 35.9714 106.295 35.9131L109.626 37.8486C109.714 37.9006 109.733 38.0534 109.66 38.2219C109.614 38.3346 109.535 38.4304 109.432 38.4959C109.385 38.5259 109.329 38.5381 109.275 38.5306L105.955 36.595L109.284 38.5306C109.268 38.527 109.253 38.5217 109.238 38.5148L105.907 36.5793C105.922 36.5871 105.937 36.5924 105.953 36.595C106.008 36.603 106.064 36.5907 106.111 36.5604C106.21 36.4935 106.287 36.398 106.331 36.2863V36.2863Z" fill="#003399"/>
<path d="M98.6747 49.3865L102.004 51.322C101.965 51.3033 101.921 51.2956 101.877 51.2998C101.834 51.3039 101.792 51.3198 101.757 51.3456L98.4259 49.4101C98.4615 49.3842 98.5033 49.3684 98.5471 49.3643C98.5909 49.3601 98.6349 49.3678 98.6747 49.3865V49.3865Z" fill="white"/>
<path d="M108.351 40.7165L105.022 38.7809C104.883 38.7006 104.856 38.466 104.967 38.2061C105.038 38.0311 105.162 37.8825 105.321 37.7809L108.65 39.718C108.491 39.8187 108.368 39.9669 108.298 40.1417C108.187 40.3999 108.214 40.6362 108.351 40.7165Z" fill="white"/>
<path d="M101.513 52.1678L98.1819 50.2338C98.1557 50.2174 98.134 50.1947 98.1189 50.1676C98.0323 50.0212 98.1 49.7424 98.2764 49.5377C98.3216 49.4851 98.3747 49.4399 98.4339 49.4038L101.765 51.3394C101.705 51.3746 101.652 51.4198 101.607 51.4732C101.437 51.6701 101.37 51.9457 101.45 52.1032C101.465 52.1297 101.487 52.1519 101.513 52.1678Z" fill="white"/>
<path d="M101.757 51.3455C101.883 51.2715 102.007 51.2825 102.072 51.3849C102.159 51.5314 102.089 51.8133 101.915 52.0149C101.87 52.0679 101.817 52.1131 101.757 52.1488C101.629 52.2212 101.507 52.2118 101.442 52.1078C101.355 51.9613 101.423 51.681 101.6 51.4778C101.644 51.425 101.697 51.3802 101.757 51.3455V51.3455Z" fill="white"/>
<path d="M106.294 35.913L109.625 37.8486C109.612 37.841 109.597 37.8357 109.581 37.8328C109.526 37.825 109.47 37.8373 109.424 37.8675L106.101 35.9382C106.147 35.9074 106.203 35.8946 106.258 35.9019C106.271 35.9037 106.283 35.9074 106.294 35.913V35.913Z" fill="white"/>
<path d="M109.237 38.5149L105.907 36.5793C105.819 36.5273 105.8 36.3746 105.873 36.2061C105.919 36.0938 105.999 35.9986 106.101 35.9336L109.43 37.8676C109.328 37.9337 109.249 38.0292 109.202 38.1416C109.131 38.3101 109.149 38.4582 109.237 38.5149Z" fill="white"/>
<path d="M101.529 43.5782C101.624 43.622 101.73 43.6397 101.835 43.6294C101.94 43.6192 102.04 43.5814 102.126 43.5199L105.455 45.4555C105.369 45.5172 105.269 45.555 105.164 45.5649C105.059 45.5749 104.954 45.5567 104.858 45.5122L101.529 43.5782Z" fill="#003399"/>
<path d="M102.878 41.6726C102.841 41.6071 102.786 41.5528 102.721 41.5151L106.05 43.4507C106.116 43.4885 106.17 43.5428 106.208 43.6082C106.272 43.7265 106.304 43.8595 106.301 43.994C106.285 44.2869 106.2 44.5718 106.053 44.8255C105.906 45.0793 105.701 45.2946 105.455 45.454L102.124 43.5184C102.37 43.3592 102.575 43.1439 102.722 42.8902C102.869 42.6364 102.954 42.3514 102.97 42.0585C102.975 41.924 102.943 41.7906 102.878 41.6726V41.6726Z" fill="#003399"/>
<path d="M101.735 44.076L105.066 46.0179C104.97 45.973 104.863 45.9548 104.757 45.965C104.651 45.9753 104.549 46.0136 104.463 46.0761L101.134 44.1421C101.219 44.078 101.32 44.038 101.425 44.0264C101.531 44.0147 101.638 44.0319 101.735 44.076V44.076Z" fill="white"/>
<path d="M104.463 46.0696C104.935 45.8003 105.308 46.016 105.311 46.5515C105.296 46.8436 105.212 47.128 105.066 47.3814C104.919 47.6348 104.715 47.8501 104.47 48.0099L104.425 48.0366C103.952 48.2745 103.601 48.0209 103.626 47.4697C103.65 47.1881 103.738 46.9158 103.883 46.6732C104.028 46.4306 104.226 46.2242 104.463 46.0696V46.0696Z" fill="white"/>
<path d="M103.872 48.065L100.541 46.131C100.384 46.035 100.283 45.8255 100.297 45.531C100.321 45.2495 100.408 44.9772 100.553 44.7348C100.698 44.4924 100.897 44.2864 101.133 44.1324L104.463 46.0665C104.226 46.2211 104.028 46.4275 103.883 46.6701C103.738 46.9126 103.65 47.185 103.626 47.4666C103.612 47.7642 103.708 47.9737 103.872 48.065Z" fill="white"/>
<path d="M102.761 40.6394C102.812 40.6644 102.868 40.6758 102.925 40.6725C102.982 40.6692 103.037 40.6513 103.085 40.6205L106.416 42.5529C106.368 42.5833 106.312 42.601 106.255 42.6043C106.198 42.6076 106.142 42.5964 106.09 42.5718L102.761 40.6394Z" fill="#003399"/>
<path d="M103.607 39.7809C103.618 39.7147 103.61 39.6469 103.584 39.585C103.559 39.523 103.517 39.4693 103.463 39.4297L106.794 41.3653C106.847 41.405 106.889 41.4587 106.915 41.5207C106.94 41.5827 106.948 41.6504 106.937 41.7165C106.922 41.8822 106.87 42.0424 106.784 42.185C106.698 42.3277 106.582 42.4491 106.442 42.5402C106.434 42.5463 106.425 42.5515 106.416 42.5559L103.089 40.6235L106.416 42.5528L103.085 40.6172L103.113 40.6014C103.252 40.5107 103.368 40.3898 103.454 40.2477C103.54 40.1056 103.592 39.9461 103.607 39.7809Z" fill="#003399"/>
<path d="M102.726 41.5165L106.055 43.452C105.959 43.4079 105.854 43.39 105.749 43.4003C105.644 43.4105 105.544 43.4485 105.458 43.5103L102.127 41.5747C102.213 41.5132 102.314 41.4755 102.419 41.4652C102.524 41.455 102.63 41.4727 102.726 41.5165Z" fill="white"/>
<path d="M103.463 39.4299L106.794 41.3655C106.743 41.3409 106.686 41.3297 106.629 41.333C106.572 41.3363 106.516 41.354 106.468 41.3844L106.44 41.4001L103.11 39.4645L103.137 39.4488C103.185 39.4184 103.241 39.4007 103.298 39.3974C103.355 39.3941 103.412 39.4053 103.463 39.4299V39.4299Z" fill="white"/>
<path d="M98.7097 46.9974C98.8282 46.9204 98.9275 46.8174 99.0001 46.6962C99.0727 46.575 99.1166 46.4389 99.1286 46.2981L102.46 48.2337C102.447 48.3744 102.403 48.5105 102.33 48.6317C102.257 48.7528 102.158 48.8558 102.039 48.9329L102.015 48.9455L98.6861 47.0115L98.7097 46.9974Z" fill="#003399"/>
<path d="M98.6841 47.0116L102.017 48.9456L98.6872 47.0116H98.6841Z" fill="#003399"/>
<path d="M104.852 45.512L101.529 43.5765C101.463 43.5391 101.408 43.4847 101.371 43.419C101.307 43.3028 101.276 43.1717 101.281 43.0394C101.296 42.7471 101.38 42.4624 101.526 42.2087C101.672 41.955 101.876 41.7394 102.121 41.5795V41.5795L105.452 43.515C105.206 43.6749 105.003 43.8905 104.857 44.1443C104.711 44.398 104.627 44.6827 104.612 44.975C104.608 45.1074 104.639 45.2386 104.704 45.3545C104.738 45.4191 104.789 45.4734 104.852 45.512V45.512Z" fill="white"/>
<path d="M105.458 43.5104C105.773 43.3277 106.064 43.3655 106.209 43.6081C106.273 43.7264 106.305 43.8594 106.302 43.9939C106.287 44.2864 106.202 44.571 106.055 44.8245C105.909 45.0779 105.704 45.2931 105.458 45.4523C105.143 45.6381 104.847 45.5987 104.704 45.3531C104.64 45.2371 104.608 45.1059 104.612 44.9735C104.627 44.6812 104.711 44.3965 104.857 44.1428C105.003 43.8891 105.207 43.6735 105.452 43.5136L105.458 43.5104Z" fill="white"/>
<path d="M106.089 42.5749L102.76 40.6394C102.706 40.6 102.664 40.5463 102.638 40.4843C102.612 40.4223 102.604 40.3544 102.615 40.2882C102.63 40.1224 102.682 39.9623 102.768 39.8196C102.854 39.677 102.971 39.5556 103.11 39.4645L106.439 41.4001C106.3 41.4913 106.184 41.6128 106.098 41.7554C106.013 41.8981 105.961 42.0582 105.946 42.2237C105.935 42.2898 105.943 42.3577 105.968 42.4197C105.993 42.4817 106.035 42.5355 106.089 42.5749V42.5749Z" fill="white"/>
<path d="M107.444 42.3559C107.581 42.2671 107.744 42.2292 107.906 42.2488C108.298 42.3181 108.408 42.8552 108.155 43.4505C108.012 43.7988 107.766 44.0947 107.449 44.2978C107.312 44.3862 107.148 44.4241 106.986 44.4049C106.595 44.3372 106.485 43.7986 106.739 43.2032C106.88 42.8544 107.127 42.5582 107.444 42.3559V42.3559Z" fill="white"/>
<path d="M106.44 41.4L106.468 41.3843C106.742 41.2441 106.953 41.3937 106.94 41.7166C106.925 41.8825 106.873 42.0427 106.787 42.1854C106.701 42.328 106.584 42.4494 106.444 42.5403C106.436 42.5464 106.427 42.5517 106.418 42.556C106.144 42.6962 105.933 42.5466 105.945 42.2237C105.96 42.058 106.012 41.8978 106.098 41.7552C106.184 41.6125 106.3 41.4911 106.44 41.4V41.4Z" fill="white"/>
<path d="M98.4073 47.0273C98.4511 47.0483 98.4995 47.0578 98.5479 47.055C98.5964 47.0523 98.6433 47.0373 98.6845 47.0116L102.017 48.9456C101.976 48.9719 101.93 48.9873 101.881 48.9903C101.833 48.9934 101.785 48.9839 101.741 48.9629L98.4073 47.0273Z" fill="#003399"/>
<path d="M99.1269 46.298C99.1351 46.2419 99.128 46.1847 99.1064 46.1323C99.0847 46.0799 99.0494 46.0343 99.004 46.0004L102.332 47.9344C102.377 47.9685 102.413 48.0143 102.435 48.067C102.456 48.1197 102.463 48.1773 102.455 48.2336L99.1269 46.298Z" fill="#003399"/>
<path d="M100.584 43.7766C100.715 43.471 100.683 43.1923 100.521 43.0994L103.852 45.0334C104.009 45.1279 104.046 45.4066 103.915 45.7106C103.832 45.9162 103.686 46.0907 103.499 46.2098C103.419 46.2614 103.323 46.2837 103.228 46.2728L99.9068 44.3435L103.228 46.2728L99.8989 44.3372C99.9943 44.349 100.091 44.3267 100.171 44.2742C100.357 44.1555 100.502 43.9814 100.584 43.7766Z" fill="#003399"/>
<path d="M99.8973 44.3373C100.033 44.4021 100.163 44.478 100.286 44.5641L100.699 44.8035L101.562 45.3043L102.214 45.6838L102.427 45.8067L103.227 46.2792C103.198 46.2745 103.171 46.2643 103.146 46.2492L99.8123 44.3074C99.8385 44.3225 99.8674 44.3327 99.8973 44.3373V44.3373Z" fill="#003399"/>
<path d="M99.0046 46.0004L102.332 47.9344C102.289 47.9134 102.24 47.9039 102.192 47.9067C102.143 47.9094 102.096 47.9244 102.055 47.9501L102.032 47.9643L98.7101 46.0287L98.7337 46.0161C98.7739 45.9909 98.8198 45.9763 98.8671 45.9735C98.9145 45.9707 98.9617 45.98 99.0046 46.0004V46.0004Z" fill="white"/>
<path d="M101.738 48.9628L98.4074 47.0272C98.3623 46.993 98.3273 46.9474 98.3059 46.895C98.2846 46.8426 98.2778 46.7855 98.2861 46.7295C98.2979 46.5885 98.3417 46.452 98.4143 46.3305C98.4869 46.2091 98.5864 46.1058 98.705 46.0287L102.034 47.9643C101.916 48.0416 101.817 48.145 101.744 48.2664C101.672 48.3878 101.628 48.5242 101.615 48.6651C101.607 48.7212 101.614 48.7784 101.636 48.8308C101.658 48.8832 101.693 48.9288 101.738 48.9628V48.9628Z" fill="white"/>
<path d="M102.034 47.9642L102.058 47.9501C102.291 47.832 102.469 47.9579 102.458 48.2336C102.445 48.3743 102.401 48.5104 102.328 48.6315C102.255 48.7527 102.156 48.8557 102.037 48.9328L102.014 48.9454C101.782 49.0651 101.602 48.9454 101.615 48.6651C101.627 48.5241 101.671 48.3878 101.744 48.2664C101.816 48.1449 101.916 48.0416 102.034 47.9642V47.9642Z" fill="white"/>
<path d="M100.521 43.0995L103.852 45.0335C103.827 45.0191 103.799 45.0095 103.77 45.0051C103.675 44.9934 103.578 45.0157 103.498 45.0681L100.168 43.1325C100.248 43.0802 100.344 43.0579 100.439 43.0695C100.468 43.0742 100.496 43.0844 100.521 43.0995V43.0995Z" fill="white"/>
<path d="M103.081 38.1069L106.412 40.0409L103.081 38.1069Z" fill="#003399"/>
<path d="M103.146 46.2445L99.8118 44.3089C99.6544 44.2144 99.6181 43.9357 99.7473 43.6301C99.8306 43.4249 99.9759 43.2509 100.163 43.1324L103.497 45.0727C103.31 45.1917 103.165 45.3655 103.081 45.5704C102.952 45.8697 102.984 46.15 103.146 46.2445Z" fill="white"/>
<path d="M103.497 45.0727C103.578 45.0202 103.675 44.9979 103.77 45.0097C104 45.049 104.064 45.3656 103.915 45.7152C103.832 45.9208 103.686 46.0954 103.499 46.2145C103.419 46.2661 103.323 46.2883 103.228 46.2775C102.998 46.2381 102.934 45.92 103.082 45.5703C103.165 45.3655 103.311 45.1916 103.497 45.0727Z" fill="white"/>
<path d="M102.855 38.1195C102.89 38.1371 102.93 38.1452 102.97 38.143C103.009 38.1407 103.048 38.1283 103.081 38.1069L106.412 40.0409C106.379 40.0626 106.34 40.0753 106.3 40.0777C106.26 40.0802 106.22 40.0724 106.184 40.0551L102.855 38.1195Z" fill="#003399"/>
<path d="M103.447 37.5131C103.455 37.4669 103.449 37.4193 103.432 37.3759C103.414 37.3325 103.384 37.295 103.346 37.2675L106.676 39.203C106.714 39.2306 106.743 39.2681 106.761 39.3115C106.779 39.3548 106.785 39.4023 106.778 39.4487C106.768 39.5665 106.731 39.6804 106.67 39.7817C106.609 39.883 106.526 39.969 106.427 40.033L106.408 40.0424L103.077 38.1085L103.096 38.0974C103.195 38.0337 103.279 37.9478 103.34 37.8465C103.401 37.7451 103.437 37.631 103.447 37.5131V37.5131Z" fill="#003399"/>
<path d="M101.082 41.1655L101.09 41.156L104.419 43.0916V43.0995L101.082 41.1655Z" fill="#003399"/>
<path d="M103.347 37.2722L106.676 39.2078C106.64 39.1904 106.601 39.1826 106.561 39.1851C106.521 39.1876 106.483 39.2003 106.449 39.2219L106.429 39.233L103.099 37.2974L103.12 37.2864C103.153 37.2651 103.192 37.2527 103.231 37.2502C103.271 37.2477 103.311 37.2553 103.347 37.2722V37.2722Z" fill="white"/>
<path d="M104.603 42.3323L102.083 40.8629L104.603 42.3323Z" fill="#003399"/>
<path d="M97.1348 47.75C97.2115 47.7 97.2758 47.6331 97.3227 47.5545C97.3697 47.4759 97.3981 47.3876 97.4057 47.2964L100.737 49.232C100.729 49.3231 100.7 49.4112 100.653 49.4895C100.606 49.5679 100.541 49.6344 100.464 49.684H100.45C100.424 49.7009 100.393 49.7107 100.362 49.7127C100.33 49.7146 100.299 49.7085 100.271 49.695L96.9411 47.7594C96.9692 47.7729 97.0002 47.7791 97.0313 47.7774C97.0624 47.7758 97.0926 47.7663 97.1191 47.75H97.1348Z" fill="#003399"/>
<path d="M97.4039 47.2887C97.4103 47.2523 97.4063 47.2148 97.3924 47.1805C97.3784 47.1462 97.3551 47.1166 97.3251 47.095L100.656 49.0306C100.686 49.0524 100.709 49.0821 100.723 49.1163C100.737 49.1505 100.741 49.1879 100.735 49.2243L97.4039 47.2887Z" fill="#003399"/>
<path d="M106.184 40.0552L102.855 38.1196C102.817 38.0922 102.787 38.0547 102.769 38.0112C102.751 37.9678 102.746 37.9202 102.754 37.8739C102.764 37.7579 102.8 37.6457 102.86 37.5458C102.92 37.446 103.001 37.361 103.099 37.2975L106.427 39.2331C106.329 39.2966 106.247 39.3815 106.188 39.4814C106.128 39.5813 106.092 39.6935 106.082 39.8095C106.075 39.8559 106.081 39.9033 106.099 39.9466C106.117 39.99 106.146 40.0275 106.184 40.0552V40.0552Z" fill="white"/>
<path d="M101.274 40.3967C101.254 40.3646 101.227 40.3375 101.195 40.318L104.526 42.2536C104.558 42.2727 104.585 42.2999 104.603 42.3323L101.274 40.3983L104.603 42.3323C104.709 42.5103 104.627 42.8489 104.421 43.0898L101.101 41.1606L104.421 43.0898L101.091 41.1543C101.297 40.9149 101.387 40.5763 101.274 40.3967Z" fill="#003399"/>
<path d="M101.082 41.1654L104.411 43.0994C104.36 43.1617 104.299 43.2149 104.23 43.2569L100.9 41.3229L104.23 43.2569C104.187 43.2881 104.136 43.3073 104.083 43.3126C104.03 43.3178 103.976 43.309 103.928 43.2868L100.6 41.3465C100.648 41.3692 100.702 41.3783 100.755 41.3731C100.808 41.3678 100.859 41.3483 100.902 41.3166C100.97 41.2765 101.031 41.2254 101.082 41.1654V41.1654Z" fill="#003399"/>
<path d="M97.325 47.0948L100.656 49.0304C100.628 49.0169 100.596 49.0108 100.565 49.0124C100.534 49.0141 100.503 49.0235 100.476 49.0399L100.462 49.0493L97.1344 47.12H97.1486C97.1734 47.1011 97.2026 47.0889 97.2335 47.0845C97.2644 47.0801 97.2959 47.0836 97.325 47.0948Z" fill="white"/>
<path d="M100.269 49.6951L96.9398 47.7595C96.9102 47.7379 96.8872 47.7085 96.8733 47.6746C96.8594 47.6407 96.8552 47.6036 96.8611 47.5674C96.8701 47.477 96.8995 47.3899 96.9469 47.3124C96.9944 47.235 97.0587 47.1692 97.1351 47.1201L100.465 49.0557C100.387 49.1053 100.323 49.1721 100.275 49.2507C100.228 49.3294 100.2 49.4178 100.192 49.5093C100.187 49.5443 100.192 49.5799 100.206 49.6126C100.219 49.6452 100.241 49.6737 100.269 49.6951Z" fill="white"/>
<path d="M100.463 49.0494L100.477 49.0399C100.634 48.9643 100.743 49.0399 100.735 49.2242C100.727 49.3153 100.698 49.4034 100.651 49.4818C100.604 49.5601 100.539 49.6266 100.463 49.6762H100.448C100.299 49.7534 100.182 49.6762 100.19 49.4951C100.199 49.405 100.228 49.3181 100.275 49.2409C100.322 49.1637 100.386 49.0982 100.463 49.0494V49.0494Z" fill="white"/>
<path d="M101.195 40.318L104.526 42.2536C104.478 42.2319 104.425 42.2232 104.372 42.2284C104.32 42.2337 104.27 42.2527 104.227 42.2835L100.896 40.3479C100.939 40.3171 100.989 40.2981 101.042 40.2929C101.094 40.2876 101.147 40.2963 101.195 40.318Z" fill="white"/>
<path d="M103.927 43.2822L100.599 41.3466C100.567 41.328 100.541 41.3014 100.522 41.2694C100.417 41.0899 100.5 40.7512 100.708 40.5103C100.762 40.4482 100.826 40.3951 100.897 40.3528L104.222 42.2836C104.15 42.325 104.085 42.3783 104.031 42.4411C103.823 42.6821 103.741 43.0207 103.847 43.2003C103.866 43.2341 103.894 43.2624 103.927 43.2822V43.2822Z" fill="white"/>
<path d="M104.222 42.2835C104.379 42.1937 104.524 42.2063 104.598 42.3323C104.704 42.5103 104.622 42.8505 104.414 43.0899C104.361 43.1534 104.297 43.2068 104.225 43.2473C104.068 43.3371 103.921 43.3245 103.847 43.2001C103.742 43.0206 103.823 42.6819 104.031 42.441C104.086 42.3781 104.15 42.3249 104.222 42.2835V42.2835Z" fill="white"/>
<path d="M101.545 45.9358C101.444 45.8884 101.347 45.8326 101.255 45.7688L100.797 45.5011L100.31 45.2302L99.0108 44.4758L101.545 45.9358Z" fill="#003399"/>
<path d="M98.6893 43.6081C98.7806 43.3955 98.7586 43.2002 98.6452 43.1356L101.976 45.0728C102.09 45.1389 102.112 45.3342 102.02 45.5452C101.962 45.6886 101.86 45.8102 101.729 45.8933C101.673 45.9303 101.605 45.9459 101.538 45.9374L98.209 44.0018L101.545 45.9358C101.525 45.933 101.505 45.9261 101.488 45.9153L98.1586 43.9813C98.1762 43.9912 98.1954 43.9982 98.2152 44.0018C98.2821 44.0085 98.3493 43.9924 98.4058 43.9561C98.5342 43.8724 98.6333 43.7508 98.6893 43.6081Z" fill="#003399"/>
<path d="M98.6451 43.1342L101.976 45.0729C101.958 45.0626 101.938 45.0557 101.918 45.0525C101.851 45.0442 101.784 45.0598 101.727 45.0966L98.3947 43.1578C98.451 43.1211 98.5185 43.1055 98.5853 43.1137C98.6061 43.1176 98.6263 43.1245 98.6451 43.1342V43.1342Z" fill="white"/>
<path d="M103.556 41.8726L100.225 39.937L100.228 39.9338L103.557 41.8694L103.556 41.8726Z" fill="#003399"/>
<path d="M101.482 45.9153L98.1525 43.9813C98.0391 43.9152 98.017 43.7199 98.1068 43.5088C98.1664 43.366 98.268 43.2446 98.3981 43.1608L101.727 45.0963C101.597 45.1795 101.496 45.3011 101.438 45.4444C101.346 45.6554 101.368 45.8507 101.482 45.9153Z" fill="white"/>
<path d="M101.727 45.0931C101.783 45.0564 101.851 45.0408 101.917 45.049C102.075 45.0774 102.124 45.2994 102.02 45.5436C101.961 45.6869 101.859 45.8086 101.728 45.8916C101.672 45.9286 101.605 45.9442 101.538 45.9357C101.38 45.9089 101.333 45.6869 101.437 45.4412C101.495 45.2979 101.596 45.1763 101.727 45.0931Z" fill="white"/>
<path d="M100.104 40.041C100.149 40.0123 100.19 39.9773 100.225 39.937L103.556 41.871C103.521 41.9123 103.479 41.9474 103.433 41.975C103.405 41.9953 103.373 42.008 103.339 42.0116C103.305 42.0152 103.27 42.0096 103.239 41.9954L99.9083 40.0599C99.9397 40.0739 99.9742 40.0795 100.008 40.0762C100.043 40.0729 100.076 40.0608 100.104 40.041V40.041Z" fill="#003399"/>
<path d="M100.343 39.4441C100.332 39.4233 100.315 39.406 100.294 39.3937L103.625 41.3293C103.645 41.3414 103.662 41.3581 103.674 41.3781C103.744 41.493 103.692 41.712 103.558 41.8694L100.228 39.9339C100.361 39.778 100.414 39.5606 100.343 39.4441Z" fill="#003399"/>
<path d="M100.294 39.3934L103.625 41.329C103.593 41.315 103.559 41.3093 103.525 41.3126C103.49 41.316 103.458 41.3281 103.43 41.3479L100.1 39.4123C100.128 39.3925 100.161 39.3803 100.195 39.377C100.229 39.3737 100.263 39.3794 100.294 39.3934Z" fill="white"/>
<path d="M103.239 41.9954L99.9083 40.0598C99.8877 40.0466 99.8705 40.0288 99.8579 40.0078C99.7902 39.8928 99.8422 39.6755 99.9761 39.5196C100.011 39.477 100.053 39.4408 100.1 39.4125L103.435 41.3481C103.388 41.3763 103.347 41.4119 103.312 41.4536C103.178 41.6111 103.124 41.8284 103.192 41.9434C103.204 41.9641 103.22 41.9818 103.239 41.9954Z" fill="white"/>
<path d="M103.435 41.3481C103.534 41.2914 103.63 41.2977 103.679 41.378C103.748 41.493 103.696 41.7119 103.562 41.8694C103.527 41.9107 103.486 41.9458 103.439 41.9734C103.34 42.0316 103.242 42.0238 103.194 41.9419C103.126 41.8269 103.179 41.608 103.313 41.4521C103.348 41.4111 103.389 41.376 103.435 41.3481Z" fill="white"/>
<path d="M107.294 32.1583C107.332 32.1745 107.367 32.1951 107.4 32.2197L107.455 32.2512L107.745 32.4213L108.195 32.6828L110.624 34.1002C109.373 34.0908 107.957 34.4939 106.458 35.3601L103.127 33.4183C104.626 32.5568 106.042 32.1583 107.294 32.1583Z" fill="#003399"/>
<path d="M112.959 34.6988C111.291 33.7538 108.994 33.8924 106.458 35.3571C103.922 36.8218 101.631 39.3259 99.974 42.1954C98.3172 45.0649 97.292 48.2951 97.3061 51.215C97.3203 54.1349 98.3487 56.1728 100.015 57.1225C101.681 58.0722 103.981 57.9289 106.516 56.4658C109.052 55.0027 111.345 52.497 113 49.6259C114.655 46.7548 115.678 43.5278 115.678 40.6126C115.678 37.6974 114.626 35.65 112.959 34.6988ZM111.005 39.7559C111.05 39.7029 111.103 39.6576 111.162 39.622C111.288 39.5495 111.411 39.559 111.477 39.6629C111.564 39.811 111.496 40.0897 111.32 40.2929C111.275 40.3455 111.222 40.3902 111.162 40.4252C111.035 40.4992 110.912 40.4898 110.847 40.3858C110.761 40.2394 110.83 39.9574 111.005 39.7559ZM109.847 41.7009C109.97 41.9119 109.872 42.312 109.63 42.5954C109.566 42.6703 109.491 42.7342 109.406 42.7844C109.225 42.8899 109.05 42.8758 108.962 42.7262C108.838 42.5167 108.935 42.1167 109.181 41.8332C109.244 41.7579 109.319 41.6935 109.403 41.6426C109.584 41.5387 109.759 41.5528 109.847 41.7009ZM109.296 44.2397C109.281 44.532 109.196 44.8165 109.05 45.07C108.903 45.3234 108.699 45.5387 108.453 45.698L108.405 45.7264C107.932 45.9642 107.582 45.7106 107.608 45.161C107.632 44.879 107.72 44.6062 107.866 44.3633C108.011 44.1205 108.21 43.9139 108.447 43.7593L108.496 43.7325C108.582 43.6759 108.682 43.6446 108.785 43.6421C108.888 43.6396 108.99 43.666 109.079 43.7184C109.154 43.7817 109.213 43.862 109.25 43.9527C109.288 44.0434 109.304 44.1417 109.296 44.2397V44.2397ZM109.203 38.1431C109.249 38.0306 109.328 37.9349 109.43 37.8691C109.476 37.8389 109.532 37.8266 109.587 37.8345C109.713 37.8565 109.745 38.0297 109.666 38.2235C109.62 38.3362 109.54 38.4319 109.438 38.4975C109.391 38.5274 109.335 38.5397 109.28 38.5321C109.154 38.5101 109.123 38.3369 109.202 38.1431H109.203ZM108.296 40.1417C108.366 39.9669 108.49 39.8187 108.649 39.7181C108.717 39.6738 108.798 39.6549 108.879 39.6645C109.074 39.6976 109.131 39.9669 109.003 40.2646C108.932 40.4392 108.809 40.5876 108.65 40.6898C108.582 40.7341 108.5 40.7531 108.419 40.7433C108.223 40.7087 108.168 40.4409 108.296 40.1417ZM107.442 42.3576C107.579 42.2688 107.742 42.2309 107.904 42.2505L107.94 42.2584C107.963 42.2637 107.985 42.2716 108.006 42.282L108.038 42.2978C108.058 42.3085 108.077 42.3212 108.094 42.3356L108.12 42.3576C108.236 42.4867 108.296 42.6565 108.288 42.8301C108.29 42.8458 108.29 42.8616 108.288 42.8773C108.279 43.0762 108.233 43.2716 108.153 43.4538C108.113 43.5469 108.066 43.6369 108.012 43.7231C108 43.7451 107.986 43.7656 107.973 43.7861C107.838 43.9949 107.659 44.1709 107.447 44.3011C107.31 44.3892 107.146 44.4276 106.984 44.4097C106.903 44.3954 106.828 44.3576 106.768 44.3011L106.745 44.2759C106.713 44.2401 106.687 44.1998 106.667 44.1562C106.594 43.9747 106.578 43.7753 106.622 43.5845C106.639 43.4941 106.662 43.4052 106.693 43.3183C106.707 43.2805 106.721 43.2443 106.737 43.2065C106.878 42.8577 107.125 42.5615 107.442 42.3592V42.3576ZM106.426 39.233L106.447 39.222C106.639 39.1227 106.786 39.222 106.776 39.4535C106.766 39.5703 106.729 39.6832 106.668 39.7836C106.608 39.8841 106.525 39.9694 106.426 40.033L106.408 40.0425C106.215 40.1417 106.069 40.0425 106.078 39.811C106.088 39.695 106.125 39.5828 106.184 39.4829C106.244 39.383 106.326 39.2981 106.423 39.2346L106.426 39.233ZM105.941 42.2269C105.956 42.0613 106.008 41.9012 106.094 41.7586C106.179 41.616 106.295 41.4945 106.434 41.4032L106.463 41.3875C106.737 41.2473 106.946 41.3969 106.935 41.7198C106.92 41.8855 106.868 42.0457 106.782 42.1883C106.697 42.331 106.58 42.4524 106.441 42.5435C106.432 42.5496 106.423 42.5549 106.414 42.5592C106.14 42.6994 105.929 42.5498 105.941 42.2269ZM105.447 43.5168C105.762 43.3341 106.053 43.3719 106.198 43.6144C106.262 43.7327 106.294 43.8657 106.291 44.0003C106.275 44.2931 106.19 44.578 106.043 44.8318C105.896 45.0855 105.691 45.3009 105.445 45.4602C105.13 45.6445 104.836 45.6051 104.693 45.3594C104.628 45.2434 104.597 45.1123 104.601 44.9799C104.616 44.6876 104.7 44.4029 104.846 44.1492C104.992 43.8954 105.195 43.6798 105.441 43.5199L105.447 43.5168ZM105.3 46.5579C105.285 46.8501 105.201 47.1344 105.055 47.3878C104.908 47.6412 104.704 47.8566 104.459 48.0163L104.414 48.0431C103.941 48.2809 103.59 48.0273 103.614 47.4777C103.638 47.1959 103.726 46.9233 103.871 46.6804C104.016 46.4376 104.215 46.231 104.452 46.076C104.924 45.8067 105.297 46.0225 105.3 46.5579V46.5579ZM104.025 42.4521C104.079 42.3893 104.143 42.336 104.215 42.2946C104.373 42.2049 104.518 42.2175 104.592 42.3435C104.697 42.5214 104.615 42.8616 104.407 43.1026C104.354 43.1658 104.29 43.2191 104.218 43.2601C104.061 43.3498 103.914 43.3372 103.84 43.2128C103.735 43.0333 103.817 42.6947 104.025 42.4537V42.4521ZM103.296 41.4615C103.33 41.4198 103.372 41.3842 103.418 41.356C103.518 41.2993 103.614 41.3056 103.663 41.3859C103.732 41.5009 103.68 41.7198 103.546 41.8773C103.511 41.9185 103.47 41.9537 103.423 41.9812C103.322 42.0395 103.226 42.0316 103.177 41.9497C103.11 41.8348 103.163 41.6158 103.297 41.4599L103.296 41.4615ZM100.725 49.2306C100.717 49.3217 100.689 49.4098 100.641 49.4881C100.594 49.5665 100.53 49.633 100.453 49.6826H100.439C100.289 49.7598 100.172 49.6826 100.18 49.5015C100.188 49.41 100.216 49.3216 100.264 49.2429C100.311 49.1643 100.376 49.0975 100.453 49.0479L100.469 49.0384C100.618 48.9628 100.733 49.0384 100.725 49.2227V49.2306ZM101.428 45.4429C101.486 45.2996 101.587 45.178 101.717 45.0948C101.774 45.0581 101.841 45.0425 101.908 45.0507C102.066 45.0791 102.114 45.3012 102.01 45.5453C101.952 45.6887 101.85 45.8103 101.719 45.8933C101.663 45.9303 101.595 45.9459 101.528 45.9374C101.371 45.9106 101.324 45.6886 101.428 45.4429ZM101.9 52.0119C101.855 52.0649 101.802 52.1101 101.743 52.1458C101.615 52.2182 101.492 52.2088 101.428 52.1048C101.341 51.9583 101.409 51.678 101.585 51.4748C101.63 51.4219 101.683 51.3771 101.743 51.3425C101.869 51.2685 101.992 51.2796 102.058 51.3819C102.144 51.5284 102.075 51.8103 101.9 52.0119V52.0119ZM102.442 48.2321C102.429 48.3729 102.385 48.5089 102.312 48.6301C102.239 48.7512 102.14 48.8542 102.021 48.9313L101.998 48.9439C101.766 49.0636 101.587 48.9439 101.599 48.6636C101.611 48.5227 101.655 48.3863 101.728 48.2649C101.801 48.1435 101.9 48.0402 102.018 47.9628L102.042 47.9486C102.275 47.8305 102.453 47.9565 102.442 48.2321V48.2321ZM103.072 45.5642C103.159 45.3603 103.308 45.1886 103.497 45.0728C103.578 45.0203 103.674 44.998 103.77 45.0098C104 45.0492 104.064 45.3657 103.914 45.7154C103.831 45.921 103.686 46.0955 103.499 46.2146C103.418 46.2663 103.322 46.2886 103.226 46.2776C102.998 46.2382 102.933 45.9201 103.081 45.5705L103.072 45.5642ZM103.081 50.07C102.957 49.859 103.055 49.4589 103.297 49.1755C103.361 49.101 103.437 49.0372 103.521 48.9865C103.702 48.8825 103.878 48.8951 103.965 49.0447C104.089 49.2542 103.992 49.6542 103.748 49.9361C103.685 50.0118 103.61 50.0763 103.525 50.1267C103.343 50.2322 103.17 50.2181 103.081 50.07ZM103.724 53.6293C103.678 53.7419 103.599 53.8376 103.497 53.9034C103.451 53.9336 103.395 53.9459 103.34 53.938C103.214 53.916 103.182 53.7427 103.261 53.549C103.307 53.4363 103.387 53.3405 103.489 53.275C103.534 53.2469 103.587 53.2346 103.639 53.2403C103.765 53.2624 103.796 53.4372 103.718 53.6293H103.724ZM104.623 51.6308C104.552 51.8049 104.429 51.9529 104.27 52.0544C104.202 52.0987 104.12 52.1177 104.039 52.108C103.845 52.0733 103.789 51.804 103.916 51.5079C103.987 51.3333 104.11 51.1848 104.269 51.0827C104.337 51.0385 104.418 51.0195 104.499 51.0291C104.694 51.0638 104.751 51.3331 104.623 51.6308ZM105.482 49.4085C105.344 49.4973 105.181 49.5352 105.019 49.5156C104.628 49.4479 104.518 48.9093 104.771 48.314C104.913 47.965 105.159 47.6688 105.477 47.4667C105.614 47.3783 105.778 47.3404 105.94 47.3596C106.33 47.4273 106.441 47.9659 106.187 48.5612C106.046 48.9101 105.799 49.2063 105.482 49.4085V49.4085ZM106.806 51.9772C106.796 52.0938 106.759 52.2065 106.699 52.3068C106.639 52.4072 106.557 52.4927 106.46 52.5568L106.441 52.5663C106.249 52.6639 106.102 52.5663 106.112 52.3332C106.122 52.2172 106.159 52.1051 106.219 52.0052C106.279 51.9054 106.36 51.8205 106.458 51.7568L106.478 51.7457C106.669 51.6481 106.817 51.7457 106.806 51.9772ZM106.941 49.566C106.927 49.7313 106.874 49.8911 106.789 50.0335C106.704 50.1758 106.587 50.2971 106.449 50.3881L106.417 50.4055C106.143 50.5441 105.935 50.3944 105.945 50.07C105.96 49.905 106.012 49.7455 106.097 49.6035C106.183 49.4614 106.299 49.3404 106.438 49.2495L106.469 49.2322C106.743 49.0936 106.953 49.2416 106.941 49.566V49.566ZM107.472 48.2557C107.157 48.44 106.861 48.4006 106.716 48.1565C106.507 47.799 106.672 47.1202 107.086 46.6383C107.195 46.5105 107.324 46.4014 107.468 46.3154C107.775 46.1374 108.074 46.1579 108.222 46.413C108.431 46.7706 108.268 47.4493 107.852 47.9297C107.744 48.0588 107.616 48.1689 107.472 48.2557V48.2557ZM108.89 49.3204C108.835 49.3828 108.771 49.4359 108.699 49.4778C108.542 49.566 108.397 49.555 108.321 49.4306C108.216 49.2511 108.298 48.9124 108.505 48.6699C108.56 48.6071 108.624 48.5538 108.696 48.5124C108.853 48.4242 108.998 48.4352 109.072 48.5612C109.179 48.7392 109.098 49.0794 108.89 49.3204ZM109.614 50.3173C109.579 50.358 109.538 50.3926 109.491 50.4196C109.392 50.4779 109.296 50.47 109.247 50.3881C109.179 50.2732 109.233 50.0527 109.368 49.8968C109.402 49.8552 109.443 49.8201 109.49 49.7928C109.589 49.7346 109.685 49.7424 109.734 49.8243C109.802 49.9409 109.748 50.1598 109.614 50.3173V50.3173ZM109.841 46.2004C109.758 46.4052 109.613 46.5791 109.427 46.6981C109.346 46.7511 109.25 46.7734 109.154 46.7611C108.924 46.7202 108.86 46.4036 109.009 46.054C109.093 45.8495 109.238 45.6757 109.424 45.5563C109.504 45.5047 109.601 45.4825 109.696 45.4933C109.926 45.5342 109.991 45.8508 109.841 46.2004ZM110.471 43.5341C110.483 43.3933 110.527 43.2572 110.599 43.136C110.672 43.0148 110.771 42.9118 110.89 42.8348L110.913 42.8207C111.145 42.7025 111.325 42.8285 111.312 43.1026C111.299 43.2436 111.255 43.3799 111.182 43.5013C111.109 43.6227 111.01 43.726 110.891 43.8034L110.868 43.816C110.635 43.9357 110.458 43.816 110.471 43.5341ZM111.484 46.3327C111.426 46.4763 111.325 46.5981 111.194 46.6808C111.137 46.7175 111.07 46.7331 111.003 46.7249C110.846 46.6965 110.797 46.476 110.901 46.2319C110.959 46.0878 111.061 45.9655 111.192 45.8823C111.248 45.8456 111.315 45.8299 111.381 45.8382C111.539 45.8665 111.588 46.0886 111.484 46.3327V46.3327ZM112.458 42.7277L112.444 42.7356C112.287 42.8128 112.178 42.7356 112.186 42.5529C112.194 42.4613 112.222 42.3727 112.269 42.2938C112.317 42.2149 112.381 42.1478 112.458 42.0978L112.473 42.0899C112.63 42.0143 112.739 42.0899 112.731 42.2726C112.723 42.3642 112.695 42.4528 112.647 42.5317C112.6 42.6106 112.536 42.6776 112.458 42.7277Z" fill="#003399"/>
<path d="M109.079 43.7182C108.99 43.6659 108.889 43.6395 108.786 43.642C108.683 43.6445 108.582 43.6758 108.496 43.7324L108.448 43.7592C108.21 43.9138 108.012 44.1203 107.866 44.3632C107.721 44.6061 107.632 44.8788 107.608 45.1609C107.583 45.7105 107.939 45.9641 108.405 45.7263L108.454 45.6979C108.699 45.5385 108.904 45.3233 109.05 45.0699C109.197 44.8164 109.281 44.5319 109.296 44.2395C109.304 44.1416 109.289 44.0433 109.251 43.9526C109.213 43.8619 109.154 43.7816 109.079 43.7182V43.7182Z" fill="white"/>
<path d="M108.65 39.7179C108.718 39.6736 108.8 39.6547 108.88 39.6643C109.076 39.6974 109.132 39.9667 109.005 40.2644C108.934 40.439 108.811 40.5874 108.652 40.6896C108.584 40.7338 108.503 40.7527 108.422 40.7431C108.225 40.7085 108.17 40.4407 108.298 40.1415C108.368 39.9667 108.491 39.8185 108.65 39.7179V39.7179Z" fill="white"/>
<path d="M107.295 32.1584C108.112 32.1545 108.916 32.3617 109.629 32.76L112.96 34.6956C112.247 34.2964 111.442 34.0891 110.624 34.094L107.295 32.1584Z" fill="#003399"/>
<path d="M99.1901 36.7147C100.32 35.4151 101.649 34.3035 103.127 33.4215L106.458 35.3571C104.979 36.2387 103.65 37.3504 102.521 38.6502L99.1901 36.7147Z" fill="#003399"/>
<path d="M99.19 36.7147L102.519 38.6503C101.553 39.7435 100.698 40.9312 99.9696 42.1955C98.3175 45.0728 97.2922 48.2951 97.3064 51.215C97.3205 54.1349 98.349 56.1729 100.015 57.1226L96.6858 55.1886C95.018 54.2436 93.9849 52.1962 93.9754 49.2794C93.966 46.3627 94.9865 43.1373 96.6433 40.2662C97.3707 38.9998 98.2239 37.81 99.19 36.7147V36.7147Z" fill="#003399"/>
<path d="M113.432 33.8798C111.645 32.8609 109.18 33.0168 106.456 34.587C103.731 36.1572 101.274 38.8471 99.4976 41.9229C97.7211 44.9988 96.6249 48.4699 96.6344 51.5945C96.6438 54.7192 97.7542 56.9162 99.5433 57.9336C101.332 58.951 103.796 58.7982 106.519 57.228C109.242 55.6578 111.7 52.9663 113.477 49.8889C115.253 46.8115 116.349 43.3404 116.349 40.2189C116.349 37.0974 115.22 34.8988 113.432 33.8798ZM113.003 49.6196C111.346 52.4906 109.054 54.9948 106.517 56.4594C103.98 57.9241 101.685 58.0674 100.016 57.1162C98.3463 56.1649 97.3148 54.1238 97.3069 51.2087C97.299 48.2935 98.318 45.0665 99.9732 42.1954C101.628 39.3243 103.922 36.8218 106.457 35.3571C108.993 33.8924 111.292 33.7475 112.96 34.6988C114.628 35.65 115.663 37.6911 115.67 40.6063C115.678 43.5215 114.658 46.7485 113.003 49.6196" fill="black"/>
<path d="M109.734 49.8242C109.723 49.8033 109.705 49.7859 109.685 49.7737C109.664 49.7616 109.64 49.7551 109.616 49.7549C109.572 49.7563 109.529 49.7693 109.492 49.7927C109.445 49.8204 109.403 49.8561 109.369 49.8982C109.344 49.9268 109.322 49.9579 109.303 49.9911C109.268 50.043 109.244 50.1014 109.232 50.1628C109.219 50.2241 109.22 50.2873 109.232 50.3486C109.237 50.3621 109.243 50.3753 109.249 50.388C109.255 50.3978 109.262 50.4068 109.27 50.4148L109.284 50.4289L109.301 50.44C109.311 50.4458 109.322 50.45 109.333 50.4526H109.353C109.403 50.4558 109.452 50.4425 109.493 50.4148C109.54 50.3877 109.581 50.3531 109.616 50.3124C109.67 50.2538 109.711 50.1841 109.735 50.1082C109.76 50.0324 109.768 49.9521 109.758 49.873C109.752 49.8557 109.744 49.8393 109.734 49.8242Z" fill="white"/>
<path d="M111.163 39.622C111.289 39.5495 111.412 39.559 111.478 39.6629C111.564 39.811 111.497 40.0897 111.32 40.2929C111.276 40.3455 111.222 40.3902 111.163 40.4252C111.035 40.4992 110.912 40.4898 110.848 40.3858C110.761 40.2393 110.83 39.9574 111.005 39.7558C111.05 39.7029 111.103 39.6576 111.163 39.622V39.622Z" fill="white"/>
<path d="M109.43 37.8674C109.477 37.8372 109.533 37.8249 109.587 37.8328C109.713 37.8548 109.745 38.028 109.666 38.2217C109.62 38.3345 109.54 38.4302 109.438 38.4958C109.391 38.5257 109.335 38.538 109.28 38.5304C109.154 38.5084 109.123 38.3351 109.2 38.1414C109.247 38.0288 109.327 37.9332 109.43 37.8674V37.8674Z" fill="white"/>
<path d="M106.427 39.2331L106.447 39.222C106.639 39.1228 106.786 39.222 106.776 39.4535C106.766 39.5704 106.729 39.6833 106.669 39.7837C106.608 39.8841 106.525 39.9694 106.427 40.0331L106.408 40.0426C106.216 40.1418 106.069 40.0426 106.079 39.8111C106.089 39.6945 106.125 39.5818 106.186 39.4816C106.246 39.3814 106.329 39.2964 106.427 39.2331V39.2331Z" fill="white"/>
<path d="M99.5444 57.9352L96.2134 56.0012C94.4259 54.9822 93.314 52.7868 93.3045 49.6606C93.2951 46.5343 94.3912 43.0664 96.1677 39.989C97.9442 36.9116 100.406 34.2216 103.119 32.6514C105.833 31.0812 108.317 30.919 110.096 31.9443L113.426 33.8799C111.638 32.8609 109.173 33.0168 106.449 34.587C103.724 36.1572 101.274 38.8472 99.4971 41.923C97.7206 44.9988 96.6245 48.4699 96.6339 51.5946C96.6434 54.7192 97.7553 56.9178 99.5444 57.9352Z" fill="black"/>
<path d="M55.1482 15.4203V17.9874C55.1325 15.0753 53.1985 12.1602 49.3494 9.94269C45.5003 7.7252 40.4684 6.61016 35.4397 6.61016C30.411 6.61016 25.3917 7.7126 21.5678 9.94269C17.7439 12.1728 15.8367 15.0753 15.8508 17.9842L15.8587 15.4155C15.843 12.5035 17.7486 9.58833 21.5678 7.37085C25.387 5.15336 30.411 4.03832 35.4397 4.03674C40.4684 4.03517 45.4987 5.14706 49.3478 7.36927C53.1969 9.59148 55.1309 12.5067 55.1482 15.4203Z" fill="black"/>
<path d="M15.9642 19.1699C15.892 18.7802 15.8541 18.385 15.8508 17.9887L15.8586 15.42C15.8614 15.8168 15.8988 16.2126 15.9705 16.6028C15.9694 17.4585 15.9673 18.3142 15.9642 19.1699Z" fill="white"/>
<path d="M49.7726 23.66L49.7663 26.2271L49.4308 26.0334L49.4387 23.4663L49.7726 23.66Z" fill="white"/>
<path d="M55.14 17.9841C55.1557 20.8977 53.25 23.8113 49.4308 26.0304V23.4633C53.2548 21.241 55.1541 18.3306 55.14 15.417C55.1447 16.1903 55.1384 17.2171 55.14 17.9841Z" fill="white"/>
<path d="M15.964 19.17C15.9632 19.1616 15.9632 19.1532 15.964 19.1448V18.9589C15.964 18.1736 15.964 17.3861 15.964 16.5966C16.4365 19.1023 18.3264 21.5387 21.651 23.4601C25.5064 25.6886 30.5383 26.8036 35.567 26.8036C40.5957 26.8036 45.615 25.6933 49.4389 23.4711V26.0382C45.6071 28.2557 40.5957 29.366 35.556 29.3676C30.5163 29.3692 25.497 28.2557 21.6479 26.0335C18.3232 24.1121 16.427 21.6773 15.964 19.17Z" fill="white"/>
<path d="M56.0912 15.4202C56.1101 18.4708 54.1146 21.5261 50.1065 23.8539C46.0983 26.1816 40.8333 27.347 35.5668 27.3455C30.3003 27.3439 25.0148 26.1816 20.9878 23.8539C16.9607 21.5261 14.9243 18.4708 14.9149 15.4202C14.9054 12.3695 16.8898 9.31578 20.8996 6.98804C24.9093 4.66031 30.168 3.49487 35.4361 3.49487C40.7042 3.49487 45.988 4.65874 50.0135 6.98804C54.039 9.31735 56.0754 12.3695 56.0912 15.4202ZM35.5668 26.8037C40.5955 26.8037 45.6148 25.6934 49.4387 23.4712C53.2626 21.2489 55.162 18.3385 55.1478 15.4249C55.1336 12.5113 53.1965 9.59769 49.3474 7.37862C45.4982 5.15956 40.468 4.04609 35.4392 4.04609C30.4105 4.04609 25.3913 5.15641 21.5673 7.3802C17.7434 9.60399 15.8425 12.5081 15.8583 15.4202C15.874 18.3322 17.808 21.2474 21.6571 23.4664C25.5062 25.6855 30.5381 26.8037 35.5668 26.8037Z" fill="black"/>
<path d="M49.3473 7.37379C53.1949 9.59757 55.1304 12.5064 55.1478 15.42C55.1651 18.3336 53.2579 21.2472 49.4387 23.4663L49.7726 23.66L49.4387 23.4663C45.6148 25.6885 40.5955 26.8036 35.5668 26.8036C30.5381 26.8036 25.5062 25.6932 21.6571 23.471C17.808 21.2488 15.8693 18.3336 15.8583 15.42C15.8472 12.5064 17.7482 9.59285 21.5673 7.37536C25.3865 5.15788 30.4105 4.04284 35.4392 4.04126C40.468 4.03969 45.4982 5.15158 49.3473 7.37379Z" fill="white"/>
<path d="M56.0914 15.4203L56.0835 17.9874C56.1024 21.0396 54.1086 24.0933 50.0988 26.4211C46.0891 28.7488 40.8304 29.9143 35.556 29.9143C30.2816 29.9143 25.0041 28.7488 20.9786 26.4211C16.9531 24.0933 14.9246 21.0396 14.9073 17.9842V15.4155C14.923 18.4662 16.9547 21.5215 20.9833 23.8492C25.0119 26.177 30.2958 27.3424 35.5623 27.3408C40.8288 27.3393 46.0954 26.177 50.102 23.8492C54.1086 21.5215 56.1103 18.4709 56.0914 15.4203Z" fill="black"/>
<path d="M123.498 15.4203V17.9874C123.48 15.0753 121.546 12.1602 117.697 9.94269C113.848 7.7252 108.818 6.61016 103.789 6.61016C98.7603 6.61016 93.741 7.7126 89.9171 9.94269C86.0932 12.1728 84.186 15.0753 84.2018 17.9842V15.4155C84.186 12.5035 86.0917 9.58833 89.9108 7.37085C93.73 5.15336 98.754 4.03832 103.781 4.03674C108.808 4.03517 113.842 5.14706 117.691 7.36927C121.54 9.59148 123.482 12.5067 123.498 15.4203Z" fill="black"/>
<path d="M85.0301 21.2301C84.4998 20.2294 84.2158 19.1167 84.2017 17.9842V15.4155C84.2159 16.547 84.4999 17.6587 85.0301 18.6583C85.0322 19.5161 85.0322 20.3734 85.0301 21.2301Z" fill="white"/>
<path d="M118.124 23.66L118.118 26.2271L117.782 26.0334L117.79 23.4663L118.124 23.66Z" fill="white"/>
<path d="M123.491 17.9841C123.506 20.8977 121.601 23.8113 117.782 26.0304V23.4633C121.606 21.241 123.506 18.3306 123.49 15.417C123.496 16.1903 123.49 17.2171 123.491 17.9841Z" fill="white"/>
<path d="M90.0007 26.0334C87.5958 24.6459 85.939 22.9875 85.0302 21.2298C85.0302 20.3731 85.0329 19.5174 85.0381 18.6627C85.9468 20.4203 87.6037 22.0772 90.0086 23.4662C93.8577 25.6885 98.8895 26.8035 103.918 26.8035C108.947 26.8035 113.965 25.6932 117.79 23.471V26.0381C113.958 28.2556 108.947 29.3659 103.907 29.3675C98.8675 29.3691 93.8514 28.2556 90.0007 26.0334Z" fill="white"/>
<path d="M124.442 15.4202C124.46 18.4708 122.466 21.5261 118.458 23.8539C114.45 26.1816 109.186 27.347 103.92 27.3455C98.6531 27.3439 93.3677 26.1816 89.3406 23.8539C85.3135 21.5261 83.2756 18.4708 83.2646 15.4202C83.2535 12.3695 85.2411 9.31578 89.2493 6.98804C93.2574 4.66031 98.5192 3.49487 103.786 3.49487C109.052 3.49487 114.338 4.65874 118.365 6.98804C122.392 9.31735 124.427 12.3695 124.442 15.4202ZM103.918 26.8037C108.947 26.8037 113.964 25.6934 117.79 23.4712C121.615 21.2489 123.513 18.3385 123.497 15.4249C123.482 12.5113 121.548 9.59769 117.699 7.37862C113.85 5.15956 108.819 4.04609 103.789 4.04609C98.7586 4.04609 93.7425 5.15641 89.9186 7.3802C86.0947 9.60399 84.1938 12.5129 84.2095 15.4249C84.2253 18.3369 86.1593 21.2521 90.0084 23.4712C93.8575 25.6902 98.8894 26.8037 103.918 26.8037Z" fill="black"/>
<path d="M117.699 7.37379C121.546 9.59757 123.482 12.5064 123.498 15.42C123.513 18.3336 121.608 21.2472 117.79 23.4663L118.124 23.66L117.79 23.4663C113.965 25.6885 108.947 26.8036 103.918 26.8036C98.8895 26.8036 93.8577 25.6932 90.0086 23.471C86.1595 21.2488 84.2207 18.3336 84.2097 15.42C84.1987 12.5064 86.0996 9.59285 89.9188 7.37536C93.738 5.15788 98.762 4.04284 103.789 4.04126C108.816 4.03969 113.85 5.15158 117.699 7.37379Z" fill="white"/>
<path d="M124.443 15.4203V17.9874C124.462 21.0396 122.466 24.0933 118.458 26.4211C114.45 28.7488 109.18 29.9143 103.907 29.9143C98.6346 29.9143 93.3555 28.7488 89.3285 26.4211C85.3014 24.0933 83.2761 21.0396 83.2587 17.9842V15.4155C83.2761 18.4662 85.3061 21.5215 89.3363 23.8492C93.3665 26.177 98.6472 27.3424 103.915 27.3408C109.183 27.3393 114.448 26.177 118.453 23.8492C122.458 21.5215 124.46 18.4709 124.443 15.4203Z" fill="black"/>
<path d="M15.2393 61.1368L15.3968 16.7241" stroke="black" stroke-linecap="round" stroke-linejoin="round"/>
<path d="M55.5575 61.1368V16.7241" stroke="black" stroke-linecap="round" stroke-linejoin="round"/>
<path d="M83.5905 61.1368L83.748 16.7241" stroke="black" stroke-linecap="round" stroke-linejoin="round"/>
<path d="M123.909 61.1368V16.7241" stroke="black" stroke-linecap="round" stroke-linejoin="round"/>
<path d="M20.3901 64.3512L20.3538 77.1899C20.0434 77.0315 19.6999 76.9489 19.3514 76.9489C19.0029 76.9489 18.6594 77.0315 18.349 77.1899L18.3852 64.3512C18.6959 64.1936 19.0393 64.1115 19.3876 64.1115C19.736 64.1115 20.0794 64.1936 20.3901 64.3512V64.3512Z" fill="black"/>
<path d="M32.5692 71.3832L32.5329 84.2204L20.3541 77.19L20.3903 64.3512L32.5692 71.3832Z" fill="black"/>
<path d="M18.3851 64.3512L18.3489 77.19L6.24881 84.222L6.28661 71.3832L18.3851 64.3512Z" fill="black"/>
<path d="M32.9864 71.9675L32.9502 84.8047C32.9502 84.5936 32.8116 84.381 32.5329 84.2204L32.5691 71.3832C32.8479 71.5438 32.9864 71.7549 32.9864 71.9675Z" fill="black"/>
<path d="M5.8382 84.7983L5.87442 71.9596C5.87442 71.7501 6.01301 71.5422 6.28705 71.3832L6.25082 84.2219C5.97679 84.381 5.83977 84.5889 5.8382 84.7983Z" fill="black"/>
<path d="M32.9043 85.0094C32.9169 80.7309 32.929 76.4519 32.9405 72.1723C32.9699 72.108 32.9854 72.0382 32.9862 71.9675L32.95 84.8047C32.9495 84.8754 32.9339 84.9452 32.9043 85.0094V85.0094Z" fill="#F4BAED"/>
<path d="M32.9044 85.0095C32.8895 85.0452 32.8704 85.079 32.8477 85.1103C32.8603 80.8318 32.8724 76.5522 32.8839 72.2716C32.9066 72.2409 32.9257 72.2075 32.9406 72.1724L32.917 80.7415C32.917 81.4533 32.917 82.1647 32.917 82.8755V83.1558C32.917 83.3228 32.917 83.5448 32.917 83.7102V84.2504C32.917 84.4079 32.917 84.6111 32.917 84.7654C32.9199 84.847 32.9157 84.9287 32.9044 85.0095Z" fill="#F4BAED"/>
<path d="M32.8478 85.1102C32.7647 85.2232 32.657 85.3158 32.5329 85.3811L32.5691 72.5439C32.693 72.4777 32.8006 72.3846 32.8841 72.2715C32.8736 76.5521 32.8615 80.8317 32.8478 85.1102Z" fill="#F4BAED"/>
<path d="M6.2617 85.3905C5.98137 85.233 5.84277 85.0173 5.84277 84.8062L5.879 71.9675C5.879 72.1786 6.01917 72.3912 6.29793 72.5518C6.28218 76.3962 6.2617 81.5304 6.2617 85.3905Z" fill="#F4BAED"/>
<path d="M33.9298 71.9692L33.8936 84.808C33.8936 85.156 33.6652 85.5041 33.2085 85.7687L33.2447 72.9299C33.7014 72.6654 33.9298 72.3189 33.9298 71.9692Z" fill="black"/>
<path d="M4.89469 84.7936L4.93091 71.9564C4.93091 72.3092 5.16243 72.662 5.62703 72.9313L5.59081 85.7685C5.12621 85.5007 4.89312 85.1464 4.89469 84.7936Z" fill="black"/>
<path d="M32.5758 72.5439L32.5396 85.3811L20.4395 92.4132L20.4757 79.5744L32.5758 72.5439Z" fill="#F4BAED"/>
<path d="M18.4706 79.576L18.4343 92.4132L6.25705 85.3827L6.29327 72.5439L18.4706 79.576Z" fill="#F4BAED"/>
<path d="M20.4753 79.5759L20.4359 92.4131C20.1252 92.5706 19.7818 92.6528 19.4335 92.6528C19.0851 92.6528 18.7417 92.5706 18.431 92.4131L18.4673 79.5759C18.7783 79.734 19.1223 79.8164 19.4713 79.8164C19.8202 79.8164 20.1642 79.734 20.4753 79.5759V79.5759Z" fill="#F4BAED"/>
<path d="M32.5631 71.3832C33.1175 71.6982 33.1191 72.2242 32.5631 72.5439L20.463 79.5759C20.1524 79.7335 19.8089 79.8156 19.4606 79.8156C19.1122 79.8156 18.7688 79.7335 18.4581 79.5759L6.29347 72.5439C5.73752 72.2289 5.73594 71.7029 6.29347 71.3832L18.3888 64.3512C18.6995 64.1936 19.0429 64.1115 19.3913 64.1115C19.7396 64.1115 20.0831 64.1936 20.3937 64.3512L32.5631 71.3832Z" fill="#F4BAED"/>
<path d="M33.2447 72.9299L33.2084 85.7687L21.1083 92.8007L21.1446 79.9619L33.2447 72.9299Z" fill="black"/>
<path d="M17.806 79.9618L17.7697 92.8005L5.59088 85.7685L5.6271 72.9314L17.806 79.9618Z" fill="black"/>
<path d="M33.2335 70.9958C34.158 71.5297 34.1628 72.3959 33.2446 72.9298L21.1445 79.9618C20.2263 80.4957 18.7301 80.4957 17.8056 79.9618L5.63151 72.9314C4.70861 72.3975 4.70231 71.5297 5.62049 70.9958L17.7159 63.9716C18.634 63.4393 20.1318 63.4393 21.0563 63.9716L33.2335 70.9958ZM20.4767 79.5759L32.5768 72.5439C33.1265 72.2289 33.1249 71.7029 32.5768 71.3832L20.398 64.3512C20.0873 64.1936 19.7439 64.1115 19.3955 64.1115C19.0472 64.1115 18.7037 64.1936 18.3931 64.3512L6.28668 71.3832C5.73545 71.6982 5.73703 72.2242 6.28668 72.5439L18.464 79.5759C18.7746 79.7335 19.118 79.8156 19.4664 79.8156C19.8147 79.8156 20.1582 79.7335 20.4688 79.5759" fill="black"/>
<path d="M21.1447 79.9618L21.1085 92.8005C20.1903 93.3329 18.6926 93.3329 17.7697 92.8005L17.8059 79.9618C18.7304 80.4957 20.2266 80.4957 21.1447 79.9618Z" fill="black"/>
<path d="M47.4082 74.681L47.3862 82.3839C47.0758 82.2255 46.7322 82.1429 46.3837 82.1429C46.0352 82.1429 45.6917 82.2255 45.3813 82.3839L45.4033 74.681C45.7137 74.5226 46.0573 74.4399 46.4058 74.4399C46.7543 74.4399 47.0978 74.5226 47.4082 74.681Z" fill="black"/>
<path d="M55.0058 79.069L54.9838 86.7719L47.3864 82.3858L47.4084 74.6829L55.0058 79.069Z" fill="black"/>
<path d="M45.4036 74.6829L45.3816 82.3858L37.8346 86.7719L37.855 79.069L45.4036 74.6829Z" fill="black"/>
<path d="M55.4235 79.653L55.3999 87.3559C55.3999 87.1449 55.2613 86.9323 54.9825 86.7716L55.0046 79.0687C55.2849 79.2294 55.4235 79.442 55.4235 79.653Z" fill="black"/>
<path d="M37.422 87.3481L37.444 79.6451C37.444 79.4373 37.5826 79.2278 37.8551 79.0687L37.8346 86.7716C37.5606 86.9307 37.4235 87.1402 37.422 87.3481Z" fill="black"/>
<path d="M55.3993 87.356C55.3993 87.5654 55.2623 87.7733 54.9883 87.9324L55.0103 80.2295C55.2844 80.072 55.4214 79.8625 55.4214 79.6531C55.4166 81.9635 55.4072 85.0456 55.3993 87.356Z" fill="white"/>
<path d="M37.8409 87.9324C37.5606 87.775 37.422 87.5608 37.422 87.3482L37.444 79.6453C37.444 79.8579 37.5826 80.0689 37.8629 80.2311C37.8551 82.5415 37.8472 85.6221 37.8409 87.9324Z" fill="white"/>
<path d="M56.368 79.6562L56.3444 87.3592C56.3444 87.7072 56.1144 88.0553 55.6593 88.3199L55.6814 80.617C56.1381 80.3508 56.3664 80.0043 56.368 79.6562Z" fill="black"/>
<path d="M36.477 87.3466L36.4991 79.6437C36.4991 79.9965 36.7306 80.3492 37.1952 80.617L37.1747 88.3199C36.7085 88.0522 36.477 87.6994 36.477 87.3466Z" fill="black"/>
<path d="M55.0122 80.2295L54.9901 87.9324L47.4416 92.3186L47.4636 84.6156L55.0122 80.2295Z" fill="white"/>
<path d="M45.4585 84.6155L45.4364 92.3185L37.8406 87.9323L37.8626 80.231L45.4585 84.6155Z" fill="white"/>
<path d="M47.4636 84.6156L47.4416 92.3201C47.1312 92.4786 46.7876 92.5612 46.4391 92.5612C46.0906 92.5612 45.7471 92.4786 45.4367 92.3201L45.4588 84.6172C45.7693 84.7754 46.1129 84.8577 46.4614 84.8574C46.8099 84.8572 47.1534 84.7743 47.4636 84.6156V84.6156Z" fill="white"/>
<path d="M55.6705 78.6815C56.595 79.2154 56.6013 80.0832 55.6831 80.6171L48.1345 85.0032C47.2163 85.5371 45.717 85.5371 44.7925 85.0032L37.1951 80.6171C36.2722 80.0848 36.2675 79.2154 37.1856 78.6815L44.7327 74.2953C45.6508 73.7614 47.1502 73.763 48.0746 74.2953L55.6705 78.6815ZM47.4636 84.6158L55.0122 80.2296C55.5618 79.9147 55.5602 79.3886 55.0122 79.0689L47.4084 74.6812C47.098 74.5228 46.7545 74.4401 46.406 74.4401C46.0575 74.4401 45.714 74.5228 45.4036 74.6812L37.855 79.0689C37.3053 79.3839 37.3069 79.9099 37.8628 80.2312L45.4587 84.6158C45.7691 84.7743 46.1126 84.8569 46.4611 84.8569C46.8096 84.8569 47.1532 84.7743 47.4636 84.6158" fill="black"/>
<path d="M55.0056 79.0687C55.5599 79.3837 55.5615 79.9097 55.0056 80.2295L47.457 84.6156C47.1466 84.7741 46.803 84.8567 46.4545 84.8567C46.106 84.8567 45.7625 84.7741 45.4521 84.6156L37.8563 80.231C37.3003 79.916 37.2987 79.3884 37.8484 79.0687L45.4033 74.681C45.7137 74.5226 46.0572 74.4399 46.4057 74.4399C46.7542 74.4399 47.0977 74.5226 47.4081 74.681L55.0056 79.0687Z" fill="white"/>
<path d="M55.6832 80.6169L55.6612 88.3199L48.1126 92.7061L48.1346 85.0031L55.6832 80.6169Z" fill="black"/>
<path d="M44.7923 85.0031L44.7702 92.7061L37.1744 88.3199L37.1949 80.6169L44.7923 85.0031Z" fill="black"/>
<path d="M48.1346 85.0031L48.1125 92.706C47.1943 93.2399 45.6966 93.2399 44.7705 92.706L44.7926 85.0031C45.7171 85.5369 47.2101 85.5369 48.1346 85.0031Z" fill="black"/>
<path d="M80.2835 49.9941L80.2709 56.4119C80.2709 55.3882 79.6 54.3645 78.2519 53.5849C75.5745 52.0383 71.2262 52.0383 68.563 53.5849C67.2401 54.3535 66.5786 55.363 66.5754 56.3725L66.5943 49.9532C66.5943 48.9436 67.259 47.9341 68.5819 47.1655C71.2435 45.619 75.5903 45.619 78.2692 47.1655C79.6189 47.9467 80.2914 48.9704 80.2835 49.9941Z" fill="black"/>
<path d="M66.5819 56.6009C66.5743 56.5255 66.5706 56.4498 66.5709 56.3741L66.5898 49.9547C66.589 50.0304 66.5921 50.1061 66.5992 50.1815C66.5961 52.3213 66.5903 54.4611 66.5819 56.6009Z" fill="white"/>
<path d="M80.1559 57.1347C80.1622 54.9949 80.1679 52.8551 80.1732 50.7153C80.2489 50.4823 80.2882 50.239 80.2897 49.994L80.2708 56.4118C80.27 56.6573 80.2312 56.9011 80.1559 57.1347Z" fill="white"/>
<path d="M66.582 56.601C66.582 56.5396 66.582 56.4577 66.582 56.3963V56.1789C66.582 56.0214 66.582 55.8766 66.582 55.7254C66.582 55.434 66.582 55.1411 66.582 54.8497C66.582 53.2937 66.5862 51.7377 66.5946 50.1816C66.6844 51.1266 67.3553 52.0589 68.6026 52.7803C71.28 54.3268 75.6299 54.3268 78.2931 52.7803C79.2995 52.196 79.9232 51.4731 80.1641 50.7155C80.1578 52.8564 80.152 54.9962 80.1468 57.1349C79.9043 57.8909 79.2806 58.6138 78.2742 59.1996C75.6126 60.7462 71.2643 60.7462 68.5853 59.1996C67.3459 58.4783 66.6765 57.5476 66.582 56.601Z" fill="white"/>
<path d="M78.2694 47.1672C80.9468 48.7154 80.9641 51.2321 78.3025 52.7802C75.6409 54.3284 71.2926 54.3268 68.612 52.7802C65.9315 51.2337 65.9189 48.7154 68.5821 47.1672C71.2453 45.6191 75.5905 45.6207 78.2694 47.1672Z" fill="white"/>
<path d="M81.2284 49.9957L81.2158 56.4119C81.2158 57.5601 80.4583 58.7082 78.9542 59.5822C75.9241 61.343 70.9788 61.343 67.9298 59.5822C66.3958 58.6971 65.6288 57.5349 65.632 56.3663L65.6509 49.9485C65.6509 51.1123 66.4147 52.2778 67.9487 53.1629C70.9977 54.9236 75.943 54.9236 78.9731 53.1629C80.4772 52.292 81.2284 51.1454 81.2284 49.9957Z" fill="black"/>
<path d="M78.9349 46.7798C81.9855 48.5406 81.9997 51.4069 78.9711 53.1661C75.9425 54.9253 70.9957 54.9269 67.9467 53.1661C64.8976 51.4053 64.8803 48.5421 67.9104 46.7798C70.9406 45.0175 75.8858 45.0206 78.9349 46.7798ZM68.6113 52.7803C71.2886 54.3268 75.6386 54.3268 78.3017 52.7803C80.9649 51.2337 80.9492 48.7154 78.2687 47.1672C75.5882 45.6191 71.243 45.6207 68.5813 47.1672C65.9197 48.7138 65.9323 51.2321 68.6113 52.7803Z" fill="black"/>
<path d="M136.367 66.7658L136.331 79.6045C136.331 78.0517 135.293 76.5004 133.24 75.3144C131.186 74.1285 128.515 73.5379 125.823 73.5379C123.132 73.5379 120.468 74.1301 118.429 75.3144C116.389 76.4988 115.377 78.0517 115.385 79.6045L115.421 66.7658C115.413 65.2129 116.426 63.6632 118.465 62.4757C120.505 61.2882 123.179 60.7008 125.859 60.6992C128.54 60.6976 131.224 61.2914 133.277 62.4757C135.331 63.6601 136.359 65.2129 136.367 66.7658Z" fill="black"/>
<path d="M115.512 80.5291C115.429 80.2279 115.387 79.917 115.385 79.6046L115.421 66.7659C115.424 67.0782 115.467 67.3888 115.548 67.6903C115.538 71.971 115.526 76.2506 115.512 80.5291Z" fill="#003399"/>
<path d="M133.661 71.2496L133.625 84.0868L133.289 83.8946L133.325 71.0559L133.661 71.2496Z" fill="#003399"/>
<path d="M136.332 79.6046C136.341 81.1591 135.329 82.7088 133.289 83.8931L133.325 71.056C135.373 69.8716 136.377 68.3203 136.368 66.7659C136.351 70.6181 136.351 75.7539 136.332 79.6046Z" fill="#003399"/>
<path d="M115.512 80.5291C115.509 80.4792 115.509 80.4293 115.512 80.3794C115.512 80.0498 115.512 79.7206 115.512 79.392C115.512 79.0014 115.512 78.6045 115.512 78.2186C115.523 74.7097 115.533 71.2003 115.542 67.6903C115.876 68.9235 116.87 70.1141 118.514 71.0591C120.562 72.245 123.239 72.8356 125.929 72.8356C128.619 72.8356 131.284 72.245 133.331 71.0591L133.295 83.8962C131.255 85.0821 128.581 85.6743 125.893 85.6743C123.204 85.6743 120.53 85.0758 118.478 83.8947C116.834 82.945 115.846 81.7685 115.512 80.5291Z" fill="#003399"/>
<path d="M137.312 66.7658C137.323 68.4589 136.21 70.1519 133.996 71.4433C131.781 72.7348 128.854 73.3805 125.932 73.3789C123.011 73.3773 120.084 72.7348 117.848 71.4433C115.612 70.1519 114.486 68.4589 114.478 66.7658C114.47 65.0728 115.58 63.3797 117.796 62.0899C120.012 60.8 122.938 60.1527 125.858 60.1527C128.778 60.1527 131.707 60.7984 133.942 62.0899C136.177 63.3813 137.305 65.0743 137.312 66.7658ZM125.929 72.8324C128.606 72.8324 131.284 72.2418 133.331 71.0559C135.378 69.87 136.383 68.3203 136.374 66.7658C136.364 65.2114 135.33 63.6569 133.278 62.4757C131.225 61.2945 128.543 60.7008 125.86 60.6992C123.176 60.6976 120.505 61.2914 118.465 62.4757C116.426 63.6601 115.413 65.2129 115.421 66.7658C115.429 68.3187 116.462 69.8716 118.514 71.0559C120.566 72.2402 123.239 72.8324 125.929 72.8324" fill="black"/>
<path d="M133.277 62.4758C135.325 63.6617 136.36 65.213 136.367 66.7658C136.375 68.3187 135.364 69.8716 133.325 71.0559L133.66 71.2497L133.325 71.0591C131.285 72.245 128.611 72.8356 125.923 72.8356C123.234 72.8356 120.56 72.245 118.508 71.0591C116.456 69.8732 115.426 68.3234 115.415 66.769C115.404 65.2146 116.42 63.6664 118.459 62.4789C120.499 61.2914 123.173 60.704 125.853 60.7024C128.534 60.7008 131.224 61.2946 133.277 62.4758Z" fill="#003399"/>
<path d="M137.313 66.7659L137.276 79.6046C137.287 81.2961 136.174 82.9907 133.96 84.2806C131.745 85.5704 128.818 86.2193 125.896 86.2177C122.975 86.2161 120.047 85.572 117.81 84.2806C115.574 82.9891 114.45 81.2882 114.442 79.6046L114.478 66.7659C114.478 68.4589 115.612 70.152 117.848 71.4434C120.085 72.7348 123.012 73.3805 125.932 73.379C128.852 73.3774 131.774 72.7348 133.996 71.4434C136.218 70.152 137.324 68.4589 137.313 66.7659Z" fill="black"/>
<path d="M79.4963 5.69974C80.801 5.69974 81.8587 4.64207 81.8587 3.33736C81.8587 2.03265 80.801 0.974976 79.4963 0.974976C78.1916 0.974976 77.1339 2.03265 77.1339 3.33736C77.1339 4.64207 78.1916 5.69974 79.4963 5.69974Z" fill="black"/>
<path d="M8.70708 3.44061L7.42306 2.15658C7.00914 1.74266 6.33803 1.74266 5.92411 2.15658L4.64008 3.44061C4.22616 3.85453 4.22616 4.52563 4.64008 4.93956L5.92411 6.22358C6.33803 6.63751 7.00914 6.63751 7.42306 6.22358L8.70708 4.93956C9.12101 4.52563 9.12101 3.85453 8.70708 3.44061Z" fill="black"/>
<path d="M3.11238 62.397C4.41709 62.397 5.47476 61.3393 5.47476 60.0346C5.47476 58.7299 4.41709 57.6722 3.11238 57.6722C1.80767 57.6722 0.75 58.7299 0.75 60.0346C0.75 61.3393 1.80767 62.397 3.11238 62.397Z" fill="black"/>
<path d="M9.09723 53.2624C9.70609 53.2624 10.1997 52.7688 10.1997 52.1599C10.1997 51.5511 9.70609 51.0575 9.09723 51.0575C8.48836 51.0575 7.99478 51.5511 7.99478 52.1599C7.99478 52.7688 8.48836 53.2624 9.09723 53.2624Z" fill="black"/>
<path d="M136.096 28.3686L134.812 27.0846C134.398 26.6706 133.727 26.6706 133.313 27.0846L132.029 28.3686C131.615 28.7825 131.615 29.4536 132.029 29.8676L133.313 31.1516C133.727 31.5655 134.398 31.5655 134.812 31.1516L136.096 29.8676C136.51 29.4536 136.51 28.7825 136.096 28.3686Z" fill="black"/>
<path d="M129.657 44.2852C130.31 44.2852 130.839 43.7564 130.839 43.104C130.839 42.4517 130.31 41.9229 129.657 41.9229C129.005 41.9229 128.476 42.4517 128.476 43.104C128.476 43.7564 129.005 44.2852 129.657 44.2852Z" fill="black"/>
</svg>
