<svg width="140" height="102" viewBox="0 0 140 102" fill="none" xmlns="http://www.w3.org/2000/svg">
<path d="M109.702 25.8113L103.807 29.2417L109.702 25.8196V25.8113Z" fill="#F091ED"/>
<path d="M109.702 25.8113C109.762 25.9212 109.85 26.0138 109.956 26.0803L104.062 29.5024C103.955 29.4359 103.868 29.3433 103.807 29.2334L109.702 25.8113Z" fill="#F091ED"/>
<path d="M109.956 26.0803L104.063 29.5024L109.958 26.0803H109.956Z" fill="#F091ED"/>
<path d="M109.956 26.0803C110 26.1071 110.05 26.1236 110.102 26.1288L104.206 29.5509C104.155 29.546 104.105 29.5294 104.062 29.5024L109.956 26.0803Z" fill="#F091ED"/>
<path d="M109.637 25.3135C109.607 25.3963 109.598 25.4848 109.61 25.5719C109.621 25.6589 109.652 25.7421 109.702 25.8148L103.807 29.2419C103.758 29.1692 103.726 29.0861 103.715 28.999C103.704 28.9119 103.713 28.8234 103.742 28.7406L109.637 25.3135Z" fill="#F091ED"/>
<path d="M92.9988 9.93729L98.8865 6.51685C96.0347 8.14101 94.265 11.6316 94.25 16.6127C94.2349 21.5939 95.9811 27.1113 98.8146 32.0156C101.648 36.9198 105.569 41.2058 109.908 43.7123C114.246 46.2187 118.175 46.4593 121.029 44.8368L115.135 48.2589C112.281 49.8814 108.35 49.6358 104.013 47.1344C99.676 44.633 95.7553 40.3503 92.9202 35.4461C90.0851 30.5418 88.3422 25.0227 88.3556 20.0432C88.369 15.0638 90.1403 11.5631 92.9988 9.93729Z" fill="black"/>
<path d="M110.01 7.64139C108.13 8.72584 105.982 9.98072 104.115 11.0635C99.7764 8.55707 95.8457 8.31478 92.9922 9.93895L98.8865 6.51684C101.74 4.89267 105.671 5.1383 110.01 7.64139Z" fill="#F091ED"/>
<path d="M125.665 34.7324C125.652 39.7118 123.881 43.2025 121.029 44.8283L115.135 48.2504C117.978 46.6246 119.758 43.1339 119.771 38.1545C119.749 35.5682 119.352 32.9987 118.59 30.5266L124.485 27.1045C125.246 29.5766 125.644 32.1461 125.665 34.7324Z" fill="#F091ED"/>
<path d="M119.092 30.114L124.986 26.6919C125.883 29.5492 126.378 32.4233 126.371 35.1436C126.356 40.3453 124.505 43.9996 121.521 45.6973L115.636 49.1261C118.617 47.4284 120.469 43.7791 120.487 38.5724C120.49 35.8454 119.995 32.9713 119.092 30.114Z" fill="black"/>
<path d="M104.207 29.5508L110.102 26.1287L124.481 27.1045L118.587 30.5266L104.207 29.5508Z" fill="#F091ED"/>
<path d="M110.468 16.27L116.362 12.8479L109.637 25.3132L103.742 28.7353L110.468 16.27Z" fill="#F091ED"/>
<path d="M116.362 12.848C114.596 13.869 112.234 15.2442 110.468 16.2702C108.526 14.1597 106.38 12.3651 104.115 11.0635L110.01 7.64136C112.273 8.94637 114.42 10.7376 116.362 12.848Z" fill="#F091ED"/>
<path d="M104.115 11.0635C106.378 12.3685 108.526 14.1598 110.471 16.2702L103.742 28.7405C103.713 28.8234 103.704 28.9119 103.715 28.9989C103.726 29.086 103.758 29.1692 103.807 29.2418C103.868 29.3517 103.955 29.4443 104.062 29.5108C104.106 29.5376 104.156 29.5541 104.207 29.5593L118.592 30.5351C119.354 33.0071 119.753 35.5765 119.776 38.163C119.763 43.1425 117.991 46.6331 115.14 48.2589C112.288 49.8848 108.35 49.6274 104.013 47.121C99.676 44.6146 95.7553 40.3369 92.9202 35.4327C90.0851 30.5284 88.3422 25.0093 88.3556 20.0298C88.369 15.0504 90.1403 11.5631 92.9988 9.93896C95.8574 8.31479 99.7764 8.56042 104.115 11.0635Z" fill="#F091ED"/>
<path d="M104.794 28.697L110.689 25.2749L124.523 26.214L118.629 29.6361L104.794 28.697Z" fill="black"/>
<path d="M111.266 16.7046L117.16 13.2825L110.689 25.2749L104.794 28.697L111.266 16.7046Z" fill="black"/>
<path d="M118.629 29.636L124.523 26.2139C124.575 26.2185 124.625 26.2351 124.669 26.2623C124.824 26.3625 124.939 26.5147 124.993 26.6918L119.092 30.1139C119.038 29.9368 118.923 29.7846 118.768 29.6844C118.725 29.6582 118.678 29.6416 118.629 29.636Z" fill="black"/>
<path d="M92.497 9.06997L98.3864 5.64786C101.365 3.95184 105.478 4.20917 110.011 6.81753C112.508 8.25789 114.875 10.2647 116.991 12.6341C117.168 12.833 117.244 13.1187 117.158 13.2758L111.266 16.7096C111.349 16.5525 111.266 16.2668 111.098 16.0679C108.981 13.7019 106.614 11.6867 104.117 10.2463C99.584 7.63128 95.471 7.37229 92.497 9.06997Z" fill="black"/>
<path d="M119.092 30.1139C119.989 32.9713 120.484 35.8453 120.477 38.5656C120.462 43.7673 118.61 47.4217 115.626 49.1194C112.642 50.817 108.533 50.5564 104 47.9497C99.4669 45.343 95.3656 40.8548 92.405 35.7334C89.4445 30.6119 87.6297 24.827 87.6464 19.6237C87.6631 14.4204 89.5147 10.7676 92.497 9.06996C95.4794 7.37227 99.589 7.63127 104.122 10.2396C106.614 11.6867 108.981 13.7018 111.097 16.0629C111.274 16.2617 111.349 16.5475 111.264 16.7045L104.793 28.697L118.627 29.636C118.679 29.6407 118.728 29.6573 118.773 29.6845C118.926 29.7856 119.04 29.9377 119.092 30.1139ZM115.128 48.2505C117.971 46.6246 119.751 43.134 119.764 38.1546C119.745 35.5686 119.349 32.9991 118.59 30.5267L104.206 29.5508C104.154 29.5457 104.104 29.5291 104.06 29.5024C103.954 29.4359 103.866 29.3433 103.806 29.2334C103.756 29.1607 103.725 29.0775 103.713 28.9905C103.702 28.9034 103.711 28.8149 103.741 28.7321L110.466 16.2668C108.526 14.1597 106.38 12.3651 104.115 11.0634C99.7764 8.55698 95.8457 8.31469 92.9921 9.93718C90.1386 11.5597 88.3706 15.0536 88.3556 20.0348C88.3405 25.0159 90.0868 30.5334 92.9202 35.4376C95.7537 40.3418 99.6743 44.6278 104.013 47.1259C108.352 49.624 112.281 49.873 115.135 48.2505" fill="black"/>
<path d="M114.089 23.4868L119.984 20.0664L133.373 20.9737L127.477 24.3958L114.089 23.4868Z" fill="black"/>
<path d="M120.358 11.8738L126.253 8.45166L119.984 20.0665L114.089 23.4869L120.358 11.8738Z" fill="black"/>
<path d="M132.563 18.783C132.859 19.5104 133.129 20.2406 133.373 20.9736L127.479 24.3957C127.234 23.6627 126.965 22.9325 126.669 22.2051L132.563 18.783Z" fill="white"/>
<path d="M134.099 21.8893L128.205 25.3114C128.241 25.2894 128.268 25.2559 128.283 25.2162C128.32 25.1135 128.32 25.0013 128.283 24.8987L134.178 21.4766C134.214 21.5792 134.214 21.6914 134.178 21.794C134.163 21.8338 134.135 21.8673 134.099 21.8893Z" fill="black"/>
<path d="M132.563 18.7832L126.669 22.2053C125.135 18.4449 123.004 14.9563 120.358 11.8738L126.253 8.45166C128.899 11.5341 131.03 15.0228 132.563 18.7832Z" fill="white"/>
<path d="M119.938 10.7926L125.833 7.37046C125.874 7.34823 125.921 7.34113 125.967 7.3504C126.008 7.35828 126.049 7.37356 126.085 7.39552C126.143 7.42948 126.195 7.47298 126.239 7.52418C129.817 11.578 132.518 16.3271 134.171 21.4733L128.276 24.8971C126.623 19.7509 123.923 15.0018 120.345 10.948C120.301 10.8972 120.25 10.8538 120.193 10.8193C120.155 10.7976 120.115 10.7823 120.072 10.7742C120.027 10.7644 119.979 10.7709 119.938 10.7926Z" fill="black"/>
<path d="M128.276 24.8972C128.313 24.9998 128.313 25.112 128.276 25.2147C128.263 25.2524 128.237 25.2846 128.203 25.3061C128.169 25.3276 128.129 25.3372 128.089 25.3333L113.497 24.3424C113.446 24.3373 113.396 24.3208 113.351 24.294C113.245 24.228 113.157 24.1352 113.097 24.025C113.048 23.9525 113.016 23.8693 113.004 23.7821C112.993 23.695 113.003 23.6064 113.032 23.5237L119.868 10.8612C119.887 10.8253 119.917 10.7966 119.954 10.7797C119.991 10.7628 120.033 10.7585 120.072 10.7676C120.115 10.7758 120.155 10.791 120.193 10.8127C120.25 10.8472 120.301 10.8906 120.345 10.9414C123.924 14.9971 126.624 19.7486 128.276 24.8972ZM114.089 23.4886L127.47 24.3976C125.925 19.8048 123.508 15.553 120.35 11.8755L114.081 23.4886" fill="black"/>
<path d="M120.358 11.8738C123.516 15.5514 125.934 19.8031 127.479 24.3959L114.098 23.4869L120.358 11.8738Z" fill="white"/>
<path d="M67.4944 42.265L67.4827 46.3505C67.1528 46.1833 66.788 46.0962 66.4181 46.0962C66.0481 46.0962 65.6834 46.1833 65.3534 46.3505L65.3651 42.265C65.6948 42.0969 66.0596 42.0093 66.4298 42.0093C66.7999 42.0093 67.1647 42.0969 67.4944 42.265Z" fill="black"/>
<path d="M102.083 62.2146L102.071 66.3001L67.4827 46.3506L67.4944 42.2651L102.083 62.2146Z" fill="black"/>
<path d="M65.3651 42.2651L65.3534 46.3506L30.989 66.3001L31.0007 62.2146L65.3651 42.2651Z" fill="black"/>
<path d="M102.533 62.8279L102.521 66.9134C102.521 66.6895 102.374 66.4656 102.076 66.2935L102.088 62.208C102.381 62.3851 102.533 62.6107 102.533 62.8279Z" fill="black"/>
<path d="M30.5525 66.9117L30.5642 62.8262C30.5642 62.6039 30.7114 62.3834 31.0008 62.2146L30.9891 66.3001C30.6997 66.4689 30.5542 66.6911 30.5525 66.9117Z" fill="black"/>
<path d="M30.5525 66.9167L30.5641 62.8296C30.5608 64.1931 30.5569 65.5555 30.5525 66.9167Z" fill="white"/>
<path d="M30.5708 67.0502C30.5598 67.0065 30.5537 66.9616 30.5525 66.9165C30.5525 65.5541 30.5564 64.1923 30.5641 62.8311C30.5653 62.8756 30.5714 62.9199 30.5824 62.9631C30.5791 64.3266 30.5752 65.6889 30.5708 67.0502Z" fill="white"/>
<path d="M30.5708 67.0503C30.5683 67.0191 30.5683 66.9879 30.5708 66.9567V66.5523C30.5708 66.4454 30.5708 66.3385 30.5708 66.2332C30.5708 65.9608 30.5708 65.6885 30.5708 65.4178C30.5708 64.599 30.5708 63.7808 30.5708 62.9631C30.5908 63.033 30.6222 63.0991 30.6638 63.1586L30.6539 67.2458C30.6153 67.1859 30.5872 67.1198 30.5708 67.0503Z" fill="white"/>
<path d="M102.516 66.9199C102.516 67.1422 102.369 67.3628 102.078 67.5315L102.09 63.446C102.381 63.2789 102.526 63.055 102.528 62.8345C102.533 64.0593 102.519 65.6951 102.516 66.9199Z" fill="white"/>
<path d="M30.9957 67.5333C30.8651 67.4623 30.751 67.3643 30.6612 67.2459L30.6762 63.1621C30.7662 63.2804 30.8802 63.3784 31.0108 63.4495C31.0041 64.666 31.0007 66.3068 30.9957 67.5333Z" fill="white"/>
<path d="M103.536 62.8379L103.525 66.9234C103.525 67.2927 103.282 67.6619 102.797 67.9426L102.809 63.8572C103.287 63.5765 103.536 63.2072 103.536 62.8379Z" fill="black"/>
<path d="M29.5505 66.9099L29.5623 62.8228C29.5623 63.197 29.8081 63.5713 30.3016 63.8571L30.2899 67.9426C29.7964 67.6585 29.5489 67.2842 29.5505 66.9099Z" fill="black"/>
<path d="M102.09 63.446L102.078 67.5315L67.7135 87.4827L67.7252 83.3955L102.09 63.446Z" fill="white"/>
<path d="M65.5976 83.3955L65.5859 87.4827L30.9957 67.5332L31.0074 63.446L65.5976 83.3955Z" fill="white"/>
<path d="M67.7252 83.3958L67.7152 87.4829C67.3852 87.6501 67.0205 87.7372 66.6505 87.7372C66.2806 87.7372 65.9158 87.6501 65.5859 87.4829L65.5976 83.3958C65.927 83.5636 66.2916 83.6511 66.6614 83.6511C67.0312 83.6511 67.3958 83.5636 67.7252 83.3958Z" fill="white"/>
<path d="M102.792 61.8036C103.773 62.37 103.778 63.2907 102.803 63.8572L68.4389 83.8067C67.4638 84.3731 65.8731 84.3731 64.8913 83.8067L30.3027 63.8572C29.3209 63.2907 29.3159 62.37 30.291 61.8036L64.6554 41.854C65.6306 41.2876 67.2213 41.2876 68.2031 41.854L102.792 61.8036ZM67.7264 83.3956L102.091 63.4461C102.676 63.1119 102.675 62.5538 102.091 62.2146L67.4956 42.2651C67.1659 42.097 66.8011 42.0093 66.4309 42.0093C66.0608 42.0093 65.696 42.097 65.3663 42.2651L31.0019 62.2146C30.4181 62.5488 30.4215 63.1069 31.0019 63.4461L65.5921 83.3956C65.9216 83.5634 66.2861 83.6509 66.6559 83.6509C67.0257 83.6509 67.3903 83.5634 67.7197 83.3956" fill="black"/>
<path d="M102.083 62.2145C102.673 62.5487 102.675 63.1052 102.083 63.446L67.7252 83.3955C67.3958 83.5634 67.0312 83.6508 66.6614 83.6508C66.2916 83.6508 65.9271 83.5634 65.5976 83.3955L31.0074 63.446C30.4203 63.1118 30.417 62.5537 31.0074 62.2145L65.3651 42.265C65.6948 42.0969 66.0597 42.0093 66.4298 42.0093C66.7999 42.0093 67.1648 42.0969 67.4944 42.265L102.083 62.2145Z" fill="white"/>
<path d="M102.802 63.8572L102.79 67.9427L68.426 87.8939L68.4378 83.8067L102.802 63.8572Z" fill="black"/>
<path d="M64.8901 83.8067L64.8784 87.8922L30.2899 67.9427L30.3016 63.8572L64.8901 83.8067Z" fill="black"/>
<path d="M68.4378 83.8066L68.426 87.8921C67.4509 88.4569 65.8602 88.4569 64.8784 87.8921L64.8901 83.8066C65.8719 84.3731 67.4626 84.3731 68.4378 83.8066Z" fill="black"/>
<path d="M67.5279 39.3158L67.5078 46.1266C67.1778 45.9595 66.8131 45.8723 66.4431 45.8723C66.0732 45.8723 65.7084 45.9595 65.3785 46.1266L65.3986 39.3158C65.7285 39.1487 66.0933 39.0615 66.4632 39.0615C66.8332 39.0615 67.1979 39.1487 67.5279 39.3158Z" fill="black"/>
<path d="M93.3785 54.2275L93.3601 61.0383L67.5078 46.1267L67.5262 39.3159L93.3785 54.2275Z" fill="black"/>
<path d="M65.3985 39.3159L65.3785 46.1267L39.6951 61.0366L39.7151 54.2275L65.3985 39.3159Z" fill="black"/>
<path d="M93.8234 54.8475L93.8034 61.6583C93.8034 61.4327 93.6562 61.2088 93.3601 61.0383L93.3802 54.2275C93.6763 54.398 93.8234 54.6236 93.8234 54.8475Z" fill="black"/>
<path d="M93.7867 61.7852L93.8066 54.9744C93.817 54.9329 93.8226 54.8902 93.8232 54.8474L93.8033 61.6582C93.8035 61.7011 93.7979 61.7438 93.7867 61.7852Z" fill="white"/>
<path d="M39.2586 61.6482L39.2786 54.8391C39.2786 54.6169 39.4242 54.3963 39.7152 54.2275L39.6951 61.0367C39.4041 61.2054 39.2602 61.4277 39.2586 61.6482Z" fill="black"/>
<path d="M39.2636 61.7201C39.2619 61.6967 39.2619 61.6733 39.2636 61.6499L39.2835 54.8391C39.2819 54.863 39.2819 54.887 39.2835 54.911L39.2636 61.7201Z" fill="white"/>
<path d="M93.786 61.7852C93.7679 61.8552 93.7376 61.9214 93.6963 61.9807C93.6963 59.7115 93.7024 57.4413 93.7146 55.1699C93.7566 55.1109 93.7876 55.0446 93.8059 54.9744L93.786 61.7852Z" fill="white"/>
<path d="M93.6963 61.9807C93.6075 62.1005 93.4933 62.1992 93.3618 62.2698L93.3819 55.459C93.5135 55.3887 93.6278 55.2899 93.7164 55.1699V56.8091C93.7164 57.0715 93.7164 57.4207 93.7164 57.6847C93.7164 57.9487 93.7164 58.308 93.7164 58.5753C93.7164 59.4442 93.7164 60.3142 93.7164 61.1854C93.698 61.4243 93.7666 61.7535 93.6963 61.9807Z" fill="white"/>
<path d="M39.2636 61.72C39.2636 61.6732 39.2636 61.6097 39.2636 61.5613V61.0383C39.2636 60.811 39.2636 60.5838 39.2636 60.3549C39.2636 58.5402 39.2692 56.7255 39.2803 54.9109C39.3066 55.0296 39.3597 55.1408 39.4357 55.2358C39.5117 55.3308 39.6084 55.4072 39.7186 55.459L39.6985 62.2698C39.5891 62.217 39.4931 62.1401 39.4178 62.0448C39.3424 61.9496 39.2897 61.8386 39.2636 61.72Z" fill="white"/>
<path d="M94.8253 54.8491L94.807 61.6583C94.807 62.0275 94.5627 62.3968 94.0777 62.6775L94.0978 55.8684C94.5828 55.5877 94.8253 55.2184 94.8253 54.8491Z" fill="black"/>
<path d="M38.2566 61.6465L38.275 54.8357C38.275 55.21 38.5209 55.5843 39.0143 55.87L38.9943 62.6808C38.5008 62.3951 38.255 62.0208 38.2566 61.6465Z" fill="black"/>
<path d="M93.3868 55.459L93.3667 62.2698L67.6834 77.1797L67.7034 70.3689L93.3868 55.459Z" fill="white"/>
<path d="M65.5742 70.3689L65.5541 77.1797L39.7018 62.2698L39.7219 55.459L65.5742 70.3689Z" fill="white"/>
<path d="M67.7034 70.3689L67.6834 77.1797C67.3537 77.3478 66.9889 77.4354 66.6187 77.4354C66.2486 77.4354 65.8838 77.3478 65.5541 77.1797L65.5742 70.3689C65.9038 70.537 66.2687 70.6246 66.6388 70.6246C67.0089 70.6246 67.3738 70.537 67.7034 70.3689Z" fill="white"/>
<path d="M93.3801 54.2274C93.9672 54.5616 93.9706 55.1197 93.3801 55.4589L67.7034 70.3688C67.3738 70.5369 67.0089 70.6246 66.6388 70.6246C66.2687 70.6246 65.9038 70.5369 65.5742 70.3688L39.7219 55.4589C39.1331 55.1247 39.1297 54.5666 39.7219 54.2274L65.4002 39.3158C65.7302 39.1487 66.0949 39.0615 66.4649 39.0615C66.8348 39.0615 67.1996 39.1487 67.5295 39.3158L93.3801 54.2274Z" fill="white"/>
<path d="M94.0977 55.8701L94.0776 62.6792L68.3943 77.5908L68.4143 70.78L94.0977 55.8701Z" fill="black"/>
<path d="M64.8667 70.78L64.8466 77.5908L38.9943 62.6809L39.0143 55.8701L64.8667 70.78Z" fill="black"/>
<path d="M94.0871 53.8164C95.0673 54.3829 95.0723 55.3036 94.0972 55.87L68.4104 70.7799C67.4353 71.3464 65.8446 71.3464 64.8628 70.7799L39.0138 55.87C38.0319 55.3036 38.0286 54.3829 39.0037 53.8164L64.6871 38.9065C65.6606 38.3401 67.253 38.3401 68.2348 38.9065L94.0871 53.8164ZM67.7029 70.3689L93.3863 55.459C93.9701 55.1248 93.9667 54.5667 93.3863 54.2275L67.5273 39.3159C67.1973 39.1487 66.8326 39.0616 66.4626 39.0616C66.0927 39.0616 65.7279 39.1487 65.398 39.3159L39.7146 54.2275C39.1292 54.5617 39.1325 55.1198 39.7146 55.459L65.5669 70.3689C65.8966 70.537 66.2615 70.6246 66.6316 70.6246C67.0017 70.6246 67.3666 70.537 67.6962 70.3689" fill="black"/>
<path d="M68.411 70.78L68.3909 77.5908C67.4174 78.1556 65.8251 78.1573 64.8432 77.5908L64.8633 70.78C65.8485 71.3498 67.4392 71.3498 68.411 70.78Z" fill="black"/>
<path d="M74.5998 26.2808L78.1358 28.3327C79.1644 28.9309 79.9874 29.8867 80.5828 31.0731C81.3104 32.5234 81.6935 34.3164 81.7002 36.1929C81.7002 37.8421 81.3205 39.6384 80.6966 41.4062L77.1606 39.3526C77.7895 37.5848 78.1642 35.7902 78.1642 34.1393C78.1642 32.2628 77.7761 30.4632 77.0469 29.0195C76.4397 27.8347 75.6184 26.8773 74.5998 26.2808Z" fill="black"/>
<path d="M73.8404 25.9231C74.0972 26.0214 74.3456 26.1404 74.5831 26.279L78.1123 28.3309C77.8749 28.1933 77.6272 28.0743 77.3714 27.975L73.8404 25.9231Z" fill="#F091ED"/>
<path d="M75.1016 25.4119L78.6376 27.4655C78.3951 27.3241 78.1417 27.2023 77.8798 27.1012L74.3372 25.0476C74.6008 25.1497 74.8563 25.2715 75.1016 25.4119Z" fill="black"/>
<path d="M73.7635 25.8997L73.8387 25.9314L77.3764 27.9833L77.3011 27.9533L73.7635 25.8997Z" fill="#F091ED"/>
<path d="M73.7635 25.8997L73.827 25.9364L77.3011 27.9533L73.7635 25.8997Z" fill="#F091ED"/>
<path d="M76.6521 25.4671L73.1145 23.4135C73.0981 23.4037 73.0834 23.3912 73.071 23.3767L76.6069 25.4303C76.6195 25.4453 76.6348 25.4578 76.6521 25.4671Z" fill="black"/>
<path d="M73.0559 23.3682L76.5918 25.4201L76.6086 25.4301L73.071 23.3765L73.0559 23.3682Z" fill="black"/>
<path d="M57.9537 56.9643L54.4177 54.9107C54.508 54.9642 54.6017 55.0143 54.697 55.0611C55.6287 55.5307 57.0136 55.8548 58.7264 55.7295C60.4392 55.6042 62.4848 55.0344 64.7479 53.7244C66.9135 52.4674 68.9143 50.9463 70.7042 49.1961C72.2068 47.744 73.5395 46.1262 74.6767 44.3737C75.6826 42.7955 76.5105 41.111 77.1455 39.3508L80.6815 41.4044C80.0461 43.1644 79.2182 44.8489 78.2127 46.4273C77.076 48.1802 75.7433 49.7981 74.2401 51.2497C72.4509 52.9999 70.4507 54.521 68.2855 55.778C66.0208 57.083 63.9752 57.6544 62.264 57.7831C60.5529 57.9118 59.168 57.5859 58.2347 57.1147C58.1393 57.0679 58.0406 57.0161 57.9537 56.9643Z" fill="black"/>
<path d="M73.4624 25.7845C73.5912 25.8263 73.6949 25.8647 73.7634 25.8915L77.2994 27.9434C77.2308 27.9167 77.1321 27.8799 76.9983 27.8365C76.6386 27.7202 76.2714 27.6281 75.8994 27.5608C74.755 27.3404 73.5754 27.3838 72.4504 27.6878L68.9128 25.6341C70.0378 25.3303 71.2174 25.2869 72.3618 25.5072C72.7346 25.5741 73.1023 25.6668 73.4624 25.7845Z" fill="#F091ED"/>
<path d="M72.5324 26.8205L68.9948 24.7669L69.0851 24.7401C70.281 24.4142 71.5356 24.3656 72.7532 24.5981C73.2953 24.693 73.8261 24.8437 74.3372 25.0476L77.8731 27.1012C77.3625 26.896 76.8315 26.7454 76.2891 26.6517C75.0721 26.4192 73.818 26.4678 72.6227 26.7937L72.5324 26.8205Z" fill="black"/>
<path d="M66.8839 26.3225C67.1682 26.2172 68.1651 25.8462 68.9128 25.634L72.4504 27.6876L68.9128 25.639L72.4437 27.6876C71.6961 27.8999 70.7008 28.2691 70.4165 28.3761C70.4036 28.3815 70.3901 28.3854 70.3764 28.3878L66.8404 26.3358L66.8839 26.3225Z" fill="#F091ED"/>
<path d="M66.8438 26.336C66.8657 26.3442 66.8861 26.356 66.904 26.3711L67.3673 26.6402L67.8908 26.9443L70.3797 28.388C70.329 28.403 70.2743 28.3976 70.2275 28.3729L66.6916 26.3193C66.7384 26.3439 66.7927 26.3499 66.8438 26.336Z" fill="#F091ED"/>
<path d="M71.6793 17.4683L75.2153 19.5219C75.4849 19.6776 75.7231 19.8822 75.9178 20.1251C76.2835 20.6106 76.5356 21.1719 76.6554 21.7676C76.747 22.1852 76.7913 22.6117 76.7876 23.0392C76.8039 23.5019 76.7475 23.9642 76.6203 24.4094L73.0793 22.3575C73.2058 21.9116 73.2622 21.4488 73.2466 20.9856C73.2503 20.5581 73.206 20.1316 73.1144 19.714C72.9942 19.1186 72.7415 18.5579 72.3751 18.0731C72.1826 17.8303 71.9467 17.6252 71.6793 17.4683Z" fill="black"/>
<path d="M70.4064 27.579L66.8688 25.5271C66.8688 25.5271 67.3104 25.1678 67.9259 24.71C68.6081 24.1906 69.3196 23.7109 70.0569 23.273C70.3328 23.1096 70.6195 22.965 70.9149 22.8402C71.9954 22.4057 72.6662 22.3205 73.0793 22.3573L76.6153 24.4092C76.2021 24.3741 75.5331 24.4593 74.4509 24.8938C74.1553 25.0176 73.8686 25.1617 73.5928 25.3249C72.8564 25.7647 72.145 26.245 71.4619 26.7636C70.8463 27.2214 70.4181 27.5706 70.4064 27.579Z" fill="black"/>
<path d="M70.2225 28.361L66.6865 26.3091C66.6527 26.2856 66.6256 26.2536 66.608 26.2164C66.5904 26.1791 66.5829 26.1379 66.5862 26.0969C66.5912 25.9875 66.6189 25.8804 66.6676 25.7823C66.7163 25.6843 66.7848 25.5973 66.8688 25.5271L70.4065 27.579C70.3221 27.6493 70.2533 27.7365 70.2046 27.8349C70.1559 27.9333 70.1284 28.0408 70.1238 28.1505C70.1201 28.1912 70.1273 28.2321 70.1446 28.2691C70.162 28.3061 70.1888 28.3378 70.2225 28.361Z" fill="black"/>
<path d="M71.3917 17.3245C71.4906 17.366 71.5868 17.414 71.6794 17.4682L75.2153 19.5201C75.12 19.4666 75.0247 19.4182 74.9293 19.3764L71.3917 17.3245Z" fill="#F091ED"/>
<path d="M65.4823 26.7971L69.0182 28.8491V28.8658C68.993 28.9249 68.961 28.981 68.9229 29.0329L65.3853 26.9793C65.4248 26.9281 65.4574 26.8719 65.4823 26.8122V26.7971Z" fill="#F091ED"/>
<path d="M70.6691 17.0703C70.9161 17.1362 71.1577 17.2212 71.3916 17.3243L74.9343 19.3829L71.4 17.3276L74.9343 19.3829C74.7004 19.2801 74.4588 19.1958 74.2117 19.1306L70.6691 17.0703Z" fill="#F091ED"/>
<path d="M70.6674 17.072L74.2034 19.1256L70.6674 17.072Z" fill="#F091ED"/>
<path d="M70.6674 17.072L74.2034 19.124L74.1432 19.2042L70.6072 17.1506L70.6674 17.072Z" fill="#F091ED"/>
<path d="M70.6072 17.1506L74.1432 19.2042L70.6072 17.1506Z" fill="#F091ED"/>
<path d="M70.6038 17.1555L74.1398 19.2158L74.0696 19.3094C73.9692 19.4447 73.8488 19.6118 73.7166 19.8107L70.1907 17.7621L73.7166 19.8107L70.1807 17.7587C70.3128 17.5666 70.4332 17.4011 70.5336 17.2574L70.6038 17.1555Z" fill="#F091ED"/>
<path d="M69.7491 18.3805C69.898 18.1466 70.0418 17.9327 70.174 17.7422L73.7099 19.7941C73.5778 19.9846 73.4339 20.2002 73.2851 20.4341L69.7491 18.3805Z" fill="#F091ED"/>
<path d="M69.7491 18.3804L73.2851 20.434L69.7491 18.3804Z" fill="#F091ED"/>
<path d="M67.9661 21.5252C68.5866 20.3689 69.2139 19.236 69.7542 18.3855L73.2901 20.4391C73.0208 20.8635 72.7298 21.3598 72.427 21.8928L68.8944 19.8426L72.4254 21.8895L68.8927 19.8392L72.4254 21.8895C72.1226 22.4242 71.8115 22.9957 71.5021 23.5721C70.92 24.6516 70.3312 25.8864 69.8779 26.889C69.4246 27.8915 69.1102 28.6251 69.0165 28.844L65.4806 26.7921C65.5726 26.5732 65.8954 25.8145 66.3403 24.8354C66.7852 23.8562 67.3857 22.6047 67.9661 21.5252Z" fill="#F091ED"/>
<path d="M72.1812 16.5992L75.7188 18.6528C75.6154 18.5905 75.5081 18.5346 75.3977 18.4857C75.0815 18.3392 74.7483 18.2326 74.4058 18.1683L70.8698 16.1213C71.2115 16.1868 71.544 16.2934 71.86 16.4388C71.9705 16.4852 72.0778 16.5388 72.1812 16.5992Z" fill="black"/>
<path d="M68.5147 28.5248L64.9788 26.4712C65.1092 26.1654 65.3551 25.599 65.6712 24.9022C66.1479 23.8461 66.7852 22.4927 67.4359 21.2829C68.0648 20.1132 68.7021 18.9586 69.2875 18.0346C69.6616 17.4403 70.0687 16.8673 70.5068 16.3185C70.5529 16.2586 70.6096 16.2076 70.6741 16.1681C70.7307 16.1318 70.7978 16.1153 70.8648 16.1213L74.4007 18.1749C74.3339 18.1684 74.2669 18.1843 74.2101 18.22C74.1462 18.2604 74.0897 18.3112 74.0428 18.3704C73.6035 18.9194 73.1958 19.4929 72.8218 20.0882C72.2364 21.0105 71.5991 22.1685 70.9702 23.3365C70.3195 24.5463 69.6839 25.8997 69.2055 26.9541C68.8927 27.6526 68.6469 28.219 68.5147 28.5248Z" fill="black"/>
<path d="M65.3785 26.9807L68.9128 29.0343C68.8475 29.1225 68.7643 29.1959 68.6686 29.2499C68.3742 29.417 66.2383 30.6952 63.818 33.1967L60.282 31.1431C62.7073 28.6366 64.8433 27.3667 65.1327 27.1979C65.2293 27.144 65.3131 27.0699 65.3785 26.9807Z" fill="#F091ED"/>
<path d="M60.2803 31.1433L63.8163 33.1969C63.7946 33.2186 63.7728 33.2404 63.7527 33.2638C62.3435 34.7395 61.0658 36.3352 59.9341 38.0326L56.3981 35.979C57.5296 34.2818 58.8068 32.6862 60.2151 31.2101L60.2803 31.1433Z" fill="#F091ED"/>
<path d="M56.3981 35.979L59.9341 38.0326C59.5996 38.5339 59.4172 38.8413 59.4156 38.8447L55.8779 36.7928C55.8779 36.7928 56.0619 36.4836 56.3981 35.979Z" fill="#F091ED"/>
<path d="M55.448 37.0952C56.6256 37.7781 57.8031 38.4621 58.9806 39.1471L55.448 37.0952Z" fill="#F091ED"/>
<path d="M55.6321 37.0484C55.7343 36.9853 55.8189 36.8973 55.8779 36.7927L59.4156 38.8447C59.356 38.9498 59.2708 39.0383 59.168 39.102C59.1133 39.1369 59.0488 39.1533 58.984 39.1488L55.4481 37.0952L58.984 39.1488C58.9599 39.1455 58.9366 39.1376 58.9155 39.1254L55.3795 37.0718C55.4001 37.085 55.4237 37.093 55.4481 37.0952C55.5128 37.0997 55.5773 37.0833 55.6321 37.0484Z" fill="#F091ED"/>
<path d="M60.3823 36.3749L56.8413 34.3213C57.7932 33.0147 58.8309 31.7727 59.9474 30.6035C62.2891 28.1856 64.3415 26.8572 64.9787 26.4712L68.5147 28.5248C67.8791 28.9091 65.8167 30.2392 63.4851 32.6571C62.3683 33.8252 61.3317 35.0673 60.3823 36.3749Z" fill="black"/>
<path d="M58.9154 39.1253L55.3795 37.0717C55.2892 37.0199 55.2524 36.8879 55.2892 36.7225C55.4295 36.1597 55.6169 35.6096 55.8495 35.0782C56.4353 33.7137 57.1815 32.4235 58.0724 31.235C59.6748 29.0728 60.946 27.8931 61.5281 27.3918L65.0657 29.4404C64.482 29.9334 63.2108 31.1197 61.6101 33.2836C60.7177 34.4742 59.9714 35.7672 59.3871 37.1352C59.1543 37.6667 58.9663 38.2166 58.8251 38.7794C58.79 38.9415 58.8251 39.0735 58.9154 39.1253Z" fill="black"/>
<path d="M51.2731 48.0214C51.2631 44.6995 52.0208 40.7427 52.9558 37.4727L56.4918 39.5246C55.5584 42.7963 54.7991 46.7531 54.8108 50.075C54.8208 53.2264 55.8645 55.7562 57.9553 56.9643L54.4194 54.9107C52.3269 53.6976 51.2832 51.1728 51.2731 48.0214Z" fill="#F091ED"/>
<path d="M52.9558 37.4727V37.4443L56.4918 39.4963L56.4834 39.5247L52.9558 37.4727Z" fill="#F091ED"/>
<path d="M60.4158 24.5813L63.9518 26.6332L63.9836 26.6533C64.23 26.826 64.4211 27.0662 64.5339 27.3451C64.7541 27.8505 64.9075 28.3824 64.9905 28.9274C65.0239 29.1229 65.0474 29.3001 65.0658 29.4404L61.5281 27.3885C61.5114 27.2465 61.488 27.071 61.4529 26.8755C61.371 26.3305 61.218 25.7985 60.9979 25.2931C60.8845 25.0142 60.6936 24.7736 60.4476 24.5997L60.4158 24.5813Z" fill="black"/>
<path d="M57.4485 57.8317L53.9126 55.7781C51.6863 54.4865 50.5673 51.7879 50.5673 48.4259C50.5589 44.9587 51.3384 40.9066 52.2985 37.5447L55.8311 39.6016C54.8693 42.9686 54.0899 47.0156 54.0982 50.4829C54.1066 53.8415 55.2239 56.5384 57.4485 57.8317Z" fill="black"/>
<path d="M54.5967 32.3396C56.7009 33.5594 57.5506 34.054 58.1344 34.3899C57.8818 35.1435 57.6108 35.9789 57.3633 36.7492C56.9635 38.0041 56.6223 39.0986 56.5002 39.4963L52.9642 37.4444C53.0863 37.0467 53.4259 35.9505 53.8273 34.6973C54.0749 33.9203 54.3442 33.0848 54.5967 32.3396Z" fill="#F091ED"/>
<path d="M59.5276 24.274C59.8421 24.3092 60.1449 24.4136 60.4141 24.5798L63.9517 26.6334C63.6818 26.4674 63.3785 26.363 63.0636 26.3276C62.8595 26.31 62.654 26.3315 62.4581 26.3911L58.9221 24.3391C59.1179 24.2789 59.3235 24.2568 59.5276 24.274Z" fill="#F091ED"/>
<path d="M58.6094 24.436C58.7147 24.4059 58.8118 24.3709 58.9205 24.3391L62.4564 26.391C62.3477 26.4228 62.2507 26.4595 62.1453 26.488L58.6094 24.436Z" fill="#F091ED"/>
<path d="M58.6094 24.436L62.1453 26.488C62.0881 26.5078 62.0323 26.5313 61.9781 26.5581C61.8944 26.5966 61.7941 26.6467 61.6887 26.7018L58.1678 24.6583L61.6887 26.7018L58.1678 24.6583L61.6887 26.7018C61.4746 26.8138 61.2387 26.9475 61.0581 27.0527L60.9561 27.1112L57.4034 25.0643L57.5071 25.0042C57.6877 24.8989 57.9236 24.7652 58.1393 24.6533C58.2447 24.5981 58.3451 24.5463 58.4304 24.5079C58.4849 24.4817 58.5408 24.4583 58.5976 24.4377L58.6094 24.436Z" fill="#F091ED"/>
<path d="M57.38 25.1011L60.916 27.1547L60.7587 27.539C60.5915 27.9517 60.3556 28.5265 60.0997 29.1648C59.5862 30.4431 58.9757 31.9904 58.6027 33.0348C58.4622 33.4224 58.3016 33.8886 58.1344 34.3899C57.5506 34.0557 56.7009 33.5544 54.5967 32.3396C54.764 31.8384 54.9313 31.3705 55.0651 30.9812C55.4397 29.9368 56.0503 28.3912 56.5705 27.1129C56.828 26.4729 57.0622 25.8981 57.2311 25.4854C57.283 25.335 57.3365 25.2047 57.38 25.1011Z" fill="#F091ED"/>
<path d="M57.4034 25.0642L60.941 27.1161H60.9293L57.3933 25.0642H57.4034Z" fill="#F091ED"/>
<path d="M57.3934 25.0642L60.9293 27.1178L60.9159 27.1512L57.38 25.0976L57.3934 25.0642Z" fill="#F091ED"/>
<path d="M60.9226 23.7141L64.4603 25.7677C64.0608 25.5159 63.5942 25.3912 63.1222 25.4101C62.9555 25.4213 62.7905 25.451 62.6304 25.4987C62.4933 25.5388 62.3845 25.5789 62.3226 25.5939C62.2244 25.6233 62.1287 25.6607 62.0366 25.7059C61.8827 25.7761 61.7021 25.873 61.5348 25.9632C61.3676 26.0534 61.1869 26.157 61.0464 26.2372C60.8591 26.3459 60.7269 26.4244 60.7269 26.4261L57.1893 24.3725C57.1893 24.3725 57.3215 24.2923 57.5088 24.1853C57.6493 24.1034 57.8232 24.0065 57.9989 23.9096C58.1745 23.8127 58.3501 23.7225 58.5007 23.6523C58.5931 23.6084 58.6887 23.5715 58.7867 23.542C58.8502 23.5253 58.9539 23.4852 59.0961 23.4468C59.2559 23.3975 59.421 23.3678 59.5879 23.3582C60.0587 23.3387 60.5242 23.4628 60.9226 23.7141Z" fill="black"/>
<path d="M81.2234 30.3644C81.9912 31.895 82.3943 33.7798 82.3943 35.7816C82.3943 37.5795 81.9828 39.5229 81.3087 41.4177C80.6337 43.2986 79.7524 45.0992 78.681 46.7865C77.4784 48.6435 76.0682 50.3577 74.4777 51.8963C72.6183 53.7159 70.5394 55.2971 68.2889 56.6034C65.9121 57.9735 63.7728 58.5701 61.9797 58.7021C60.1867 58.8341 58.7432 58.4982 57.7479 57.9986C55.3226 56.7805 54.1083 53.9883 54.0982 50.491C54.0899 47.0238 54.8693 42.9717 55.8311 39.6098C55.8662 39.4911 55.883 39.4427 55.903 39.3725L56.0703 38.8278C56.2125 38.3749 56.4048 37.76 56.6206 37.0816C57.0538 35.7214 57.579 34.1106 57.9687 33.0262C58.3585 31.9418 58.9723 30.3878 59.4875 29.0995C60.0027 27.8112 60.4242 26.7952 60.4258 26.7935C60.4844 26.6458 60.5872 26.5197 60.7202 26.4326C60.7202 26.4326 60.8524 26.3524 61.0397 26.2438C61.1802 26.1636 61.3525 26.065 61.5281 25.9698C61.7037 25.8745 61.881 25.7826 62.0299 25.7124C62.122 25.6673 62.2177 25.6298 62.3159 25.6005C62.3778 25.5854 62.4832 25.5453 62.6237 25.5052C62.7838 25.4576 62.9487 25.4279 63.1154 25.4167C63.5995 25.3976 64.0775 25.529 64.4837 25.7926C64.7949 26.0064 65.0372 26.306 65.1812 26.6549C65.3518 27.03 65.4824 27.4221 65.5709 27.8245C65.6832 28.3159 65.7609 28.8145 65.8034 29.3167C65.802 29.4365 65.7731 29.5545 65.7189 29.6614C65.6646 29.7683 65.5865 29.8613 65.4906 29.9333C65.4003 30.0034 65.3384 30.0502 65.2581 30.1187C65.0908 30.2541 64.8516 30.4696 64.5422 30.7704C63.6181 31.6904 62.7686 32.6822 62.0015 33.7364C61.3851 34.5665 60.8433 35.4494 60.3824 36.3748C61.3328 35.0671 62.3705 33.825 63.4884 32.6569C65.8168 30.2441 67.8791 28.9073 68.5147 28.5247C68.6469 28.2189 68.8927 27.6524 69.2072 26.954C69.6856 25.8996 70.3212 24.5461 70.9718 23.3363C71.6007 22.1667 72.238 21.0104 72.8234 20.088C73.1975 19.4927 73.6052 18.9192 74.0445 18.3703C74.0913 18.3111 74.1479 18.2602 74.2117 18.2199C74.2685 18.1841 74.3356 18.1683 74.4024 18.1748C74.7449 18.2391 75.0781 18.3457 75.3943 18.4922C75.8328 18.6783 76.218 18.9706 76.515 19.3428C76.9278 19.8853 77.2136 20.5134 77.3513 21.1808C77.456 21.6565 77.507 22.1425 77.5035 22.6295C77.4991 23.4159 77.4139 24.1998 77.2493 24.9689C77.2057 25.1507 77.1005 25.3118 76.9515 25.425C76.7843 25.5219 76.6772 25.5169 76.617 25.4384C76.512 25.3737 76.3923 25.3369 76.2691 25.3315C75.953 25.3031 75.3675 25.3649 74.3556 25.7709C74.0969 25.8813 73.8455 26.0079 73.6029 26.1502C73.2684 26.3457 72.897 26.5847 72.5408 26.8286L72.6311 26.8019C73.8264 26.476 75.0805 26.4274 76.2975 26.6599C76.8399 26.7535 77.3708 26.9042 77.8815 27.1094C79.3317 27.6658 80.454 28.8405 81.2234 30.3644ZM80.6832 41.406C81.3121 39.6382 81.6951 37.8419 81.6868 36.1927C81.6868 34.3162 81.297 32.5166 80.5694 31.0729C79.8418 29.6292 78.7814 28.5146 77.4098 27.9883L77.2994 27.9432C77.2309 27.9164 77.1322 27.8797 76.9984 27.8362C76.6386 27.7199 76.2715 27.6278 75.8994 27.5605C74.7545 27.3402 73.5744 27.3836 72.4488 27.6875C71.7011 27.8997 70.7042 28.269 70.4717 28.3559C70.2392 28.4428 70.1271 28.3425 70.1238 28.1487C70.1284 28.039 70.156 27.9315 70.2046 27.8331C70.2533 27.7347 70.3221 27.6475 70.4065 27.5772C70.4065 27.5772 70.8464 27.2196 71.4619 26.7618C72.1462 26.2437 72.8587 25.764 73.5962 25.3248C73.872 25.1616 74.1587 25.0175 74.4543 24.8937C75.5365 24.4592 76.2055 24.374 76.6187 24.4091C76.7459 23.9639 76.8023 23.5016 76.7859 23.0389C76.7896 22.6114 76.7453 22.1849 76.6538 21.7673C76.5339 21.1716 76.2819 20.6103 75.9162 20.1248C75.6538 19.8017 75.3169 19.5471 74.9343 19.3829C74.6995 19.281 74.4574 19.1967 74.2101 19.1305L74.0746 19.3093C73.8739 19.5817 73.5945 19.9777 73.2968 20.4439C72.7565 21.2944 72.126 22.4273 71.5088 23.5836C70.9267 24.6631 70.3379 25.8979 69.8846 26.9005C69.4313 27.9031 69.1002 28.675 69.0299 28.8405C68.9712 29.0009 68.8628 29.1385 68.7205 29.2331C68.3859 29.4286 66.2115 30.7253 63.7561 33.2702C62.1229 34.9768 60.67 36.847 59.4206 38.8511C59.361 38.9563 59.2759 39.0448 59.173 39.1085C59.1183 39.1434 59.0538 39.1598 58.989 39.1553C58.8502 39.1385 58.7867 38.9882 58.8301 38.7826C58.9713 38.2199 59.1593 37.6699 59.3921 37.1384C59.9765 35.7705 60.7228 34.4774 61.6151 33.2869C63.2158 31.1263 64.487 29.945 65.0708 29.4437C65.0524 29.3033 65.0289 29.1262 64.9955 28.9307C64.9126 28.3857 64.7591 27.8538 64.5389 27.3483C64.4261 27.0695 64.235 26.8292 63.9886 26.6565C63.7109 26.4791 63.3961 26.3677 63.0686 26.3307C62.8646 26.3131 62.659 26.3346 62.4631 26.3942C62.3527 26.4276 62.254 26.4644 62.1453 26.4928C62.0881 26.5126 62.0323 26.5361 61.9781 26.563C61.8944 26.6014 61.7941 26.6515 61.687 26.7083C61.4729 26.8203 61.2354 26.954 61.0548 27.0592L60.941 27.1244C60.8975 27.233 60.839 27.375 60.7737 27.5421C60.6065 27.9549 60.3706 28.5297 60.1147 29.168C59.6012 30.4462 58.9907 31.9936 58.6177 33.0379C58.2681 34.0087 57.7898 35.4691 57.3783 36.7524C56.9668 38.0357 56.6206 39.1569 56.5286 39.4594C55.5735 42.8013 54.8141 46.7564 54.8258 50.0783C54.8359 53.3667 55.9716 55.9717 58.2481 57.118C59.1814 57.5875 60.5647 57.91 62.2774 57.7864C63.9902 57.6627 66.0375 57.0896 68.299 55.7812C70.4641 54.5243 72.4643 53.0032 74.2536 51.253C75.7567 49.8014 77.0894 48.1835 78.2261 46.4306C79.2316 44.8522 80.0596 43.1677 80.6949 41.4077" fill="black"/>
<path d="M80.5745 31.0797C81.302 32.5301 81.6851 34.3231 81.6918 36.1995C81.6918 37.8488 81.3121 39.6451 80.6882 41.4129C80.0529 43.1729 79.2249 44.8574 78.2194 46.4358C77.0827 48.1887 75.75 49.8066 74.2469 51.2582C72.458 53.0084 70.4577 54.5289 68.2923 55.7848C66.0275 57.0915 63.9819 57.6629 62.2708 57.7899C60.5597 57.9169 59.1747 57.5928 58.2414 57.1215C55.9649 55.9753 54.8292 53.3703 54.8191 50.0818C54.8074 46.76 55.5668 42.8032 56.5002 39.5314C56.6139 39.1605 56.9618 38.0426 57.3716 36.756C57.7814 35.4693 58.2614 34.0123 58.611 33.0414C58.984 31.9971 59.5945 30.4498 60.108 29.1715C60.3639 28.5332 60.5981 27.9584 60.7671 27.5457C60.8356 27.3786 60.8925 27.2366 60.9343 27.1279L61.0481 27.0628C61.2304 26.9575 61.4662 26.8238 61.6803 26.7119C61.7874 26.6551 61.8877 26.6049 61.9714 26.5665C62.0256 26.5396 62.0815 26.5162 62.1386 26.4963C62.2473 26.4679 62.346 26.4312 62.4564 26.3977C62.6524 26.3382 62.8579 26.3166 63.0619 26.3342C63.3895 26.3712 63.7042 26.4827 63.9819 26.6601C64.2283 26.8328 64.4194 27.073 64.5322 27.3519C64.7524 27.8573 64.9059 28.3892 64.9888 28.9342C65.0223 29.1297 65.0457 29.3069 65.0641 29.4472C64.4803 29.9402 63.2091 31.1265 61.6084 33.2904C60.7161 34.4809 59.9698 35.774 59.3855 37.142C59.1526 37.6734 58.9646 38.2234 58.8234 38.7862C58.78 38.9884 58.8435 39.1421 58.9824 39.1588C59.0471 39.1633 59.1116 39.1469 59.1663 39.112C59.2692 39.0483 59.3543 38.9599 59.4139 38.8547C60.6636 36.8503 62.117 34.9801 63.751 33.2737C66.2015 30.7288 68.3725 29.4305 68.6703 29.2634C68.8216 29.1762 68.9393 29.0409 69.0048 28.8791C69.0884 28.6819 69.4163 27.9116 69.8729 26.9074C70.3295 25.9031 70.915 24.67 71.497 23.5905C72.1176 22.4342 72.7448 21.3013 73.2851 20.4508C73.5828 19.9813 73.8622 19.5886 74.0629 19.3162L74.1984 19.1375C74.4495 19.2008 74.6955 19.283 74.9343 19.3831C75.32 19.5483 75.6594 19.8053 75.9228 20.1317C76.2886 20.6172 76.5406 21.1785 76.6605 21.7742C76.752 22.1918 76.7963 22.6183 76.7926 23.0458C76.7917 23.5071 76.7582 23.9678 76.6923 24.4243C76.2072 24.3809 75.5381 24.4661 74.4559 24.9006C74.1604 25.0244 73.8737 25.1685 73.5979 25.3317C72.8615 25.7715 72.1501 26.2518 71.4669 26.7704C70.8514 27.2282 70.4148 27.5824 70.4115 27.5858C70.3272 27.6562 70.2586 27.7434 70.2099 27.8418C70.1613 27.9402 70.1336 28.0476 70.1288 28.1573C70.1288 28.3511 70.2559 28.4463 70.4249 28.3828C70.7092 28.2759 71.7061 27.9066 72.4555 27.6944C73.5805 27.3905 74.7601 27.347 75.9044 27.5674C76.2765 27.6347 76.6436 27.7268 77.0034 27.8431C77.1338 27.8866 77.2359 27.9233 77.3044 27.9501L77.3831 27.9818C78.7814 28.5148 79.8469 29.6227 80.5745 31.0797Z" fill="#F091ED"/>
<path d="M55.8311 39.6015L52.2934 37.5479C52.3302 37.4293 52.3453 37.3808 52.367 37.3106C52.4072 37.1769 52.464 36.9931 52.5343 36.7659C52.6748 36.3147 52.8688 35.6998 53.0846 35.0197C53.5178 33.6596 54.0413 32.0488 54.4311 30.9643C54.8208 29.8799 55.4346 28.3276 55.9515 27.0393C56.4683 25.751 56.8882 24.7334 56.8882 24.7317L60.4258 26.7853C60.4258 26.7853 60.0043 27.8062 59.4874 29.0912C58.9706 30.3762 58.3567 31.9318 57.9687 33.0179C57.5806 34.1041 57.0538 35.7132 56.6205 37.0733C56.4048 37.7518 56.2124 38.3667 56.0702 38.8195L55.903 39.3642C55.8829 39.4344 55.8662 39.4845 55.8311 39.6015Z" fill="black"/>
<path d="M60.4275 26.787L56.8899 24.7301C56.9484 24.5823 57.0512 24.4562 57.1842 24.3691L60.7169 26.4261C60.5857 26.514 60.4847 26.6399 60.4275 26.787Z" fill="black"/>
<path d="M31.2449 37.8186L31.198 54.1638C31.1897 52.9608 30.3918 51.7593 28.8011 50.842C27.2104 49.9246 25.1314 49.4601 23.0523 49.4601C20.9732 49.4601 18.8991 49.9196 17.3184 50.837C15.7378 51.7543 14.9517 52.9691 14.96 54.1638L15.0052 37.8186C15.0052 36.6155 15.783 35.4158 17.3653 34.4967C18.9476 33.5777 21.0183 33.1215 23.0991 33.1199C25.1799 33.1182 27.264 33.5861 28.848 34.4967C30.4319 35.4074 31.2365 36.6155 31.2449 37.8186Z" fill="black"/>
<path d="M31.1563 54.6568C31.1718 49.2073 31.1873 43.7588 31.2028 38.3115C31.2307 38.1487 31.2446 37.9838 31.2443 37.8186L31.1978 54.1639C31.1989 54.3291 31.185 54.4941 31.1563 54.6568Z" fill="#F091ED"/>
<path d="M31.1562 54.6568C31.1319 54.7938 31.0978 54.9289 31.0542 55.0611C31.0698 49.6138 31.0854 44.1654 31.101 38.7159C31.1439 38.5835 31.178 38.4484 31.2031 38.3115L31.178 47.2561C31.178 48.4893 31.1741 49.723 31.1663 50.9573C31.1663 52.049 31.1635 53.1407 31.1579 54.2323C31.1562 54.3593 31.1679 54.5298 31.1562 54.6568Z" fill="#F091ED"/>
<path d="M29.2411 41.3462L29.1943 57.6914L28.838 57.4859L28.8848 41.1406L29.2411 41.3462Z" fill="#F091ED"/>
<path d="M31.0542 55.0611C30.7615 55.95 30.0239 56.7972 28.838 57.4856L28.8848 41.1404C30.0707 40.4519 30.8084 39.6048 31.1011 38.7158C31.0843 44.1654 31.0687 49.6138 31.0542 55.0611Z" fill="#F091ED"/>
<path d="M28.848 34.4967C30.4387 35.4158 31.2365 36.6155 31.2449 37.8186C31.2532 39.0217 30.4654 40.2231 28.8848 41.1405L29.241 41.346L28.8848 41.1405C27.3025 42.0595 25.2301 42.5173 23.151 42.5173C21.0719 42.5173 18.9928 42.0595 17.4021 41.1421C15.8114 40.2248 15.0119 39.0234 15.0052 37.8186C14.9985 36.6138 15.783 35.4158 17.3653 34.4967C18.9476 33.5777 21.0183 33.1215 23.0991 33.1199C25.1799 33.1182 27.264 33.5861 28.848 34.4967Z" fill="#F091ED"/>
<path d="M17.3553 57.4808C15.7629 56.5618 14.9667 55.362 14.9601 54.1573L15.0052 37.812C15.0052 39.0168 15.8098 40.2165 17.4021 41.1355C18.9945 42.0546 21.0702 42.5107 23.151 42.5107C25.2317 42.5107 27.3025 42.0529 28.8848 41.1339L28.8379 57.4808C27.2556 58.3998 25.1849 58.8577 23.1058 58.8577C21.0267 58.8577 18.9476 58.4049 17.3553 57.4808Z" fill="#F091ED"/>
<path d="M32.2485 37.8186L32.2016 54.1639C32.2016 55.514 31.3252 56.8675 29.5505 57.8968C27.7758 58.9261 25.4408 59.4441 23.1075 59.4441C20.7742 59.4441 18.4341 58.9277 16.6478 57.8968C14.8614 56.8658 13.9615 55.514 13.9548 54.1639L14.0016 37.8186C14.0016 39.1687 14.9082 40.5222 16.6946 41.5532C18.481 42.5842 20.821 43.0988 23.1543 43.0988C25.4877 43.0988 27.8227 42.5825 29.5973 41.5515C31.372 40.5205 32.2552 39.1687 32.2485 37.8186Z" fill="black"/>
<path d="M32.2481 37.8186C32.2481 39.1687 31.37 40.5222 29.597 41.5515C27.824 42.5808 25.4873 43.0988 23.154 43.0988C20.8206 43.0988 18.4806 42.5825 16.6942 41.5532C14.9079 40.5239 14.008 39.1687 14.0013 37.8186C13.9946 36.4685 14.8861 35.1167 16.6524 34.0874C18.4187 33.0581 20.7604 32.5417 23.0938 32.5417C25.4271 32.5417 27.7654 33.0564 29.5552 34.0874C31.3449 35.1184 32.2398 36.4685 32.2481 37.8186ZM23.1506 42.5173C25.2297 42.5173 27.3021 42.0595 28.8844 41.1405C30.4668 40.2214 31.2496 39.0234 31.2445 37.8186C31.2395 36.6139 30.4417 35.4241 28.8476 34.4968C27.2536 33.5694 25.1779 33.1216 23.0988 33.1199C21.0197 33.1182 18.9456 33.5794 17.365 34.4968C15.7843 35.4141 14.9982 36.6155 15.0049 37.8186C15.0116 39.0217 15.8094 40.2231 17.4018 41.1421C18.9941 42.0612 21.0699 42.5173 23.1506 42.5173Z" fill="black"/>
<path d="M23.3752 32.4819L21.0184 31.1134L22.87 30.0457L25.2268 31.4142L23.3752 32.4819Z" fill="black"/>
<path d="M25.21 25.2467L22.8516 23.8782L28.2241 20.7803L30.5809 22.1488L25.21 25.2467Z" fill="black"/>
<path d="M25.2034 23.1212L22.8466 21.7527L28.2175 18.6548L30.5759 20.0233L25.2034 23.1212Z" fill="white"/>
<path d="M30.5809 22.1487L28.2242 20.7802L28.2175 18.6548L30.5759 20.0233L30.5809 22.1487Z" fill="black"/>
<path d="M25.2268 31.4142L22.87 30.0457L22.8516 23.8782L25.2101 25.2467L25.2268 31.4142Z" fill="black"/>
<path d="M23.3752 32.4818L21.0184 31.1133L21 24.9458L23.3584 26.3143L23.3752 32.4818Z" fill="white"/>
<path d="M22.6659 33.7101L20.3075 32.3399L20.2908 26.1741L22.6475 27.5426L22.6659 33.7101Z" fill="black"/>
<path d="M25.9126 21.8929L23.5541 20.5244L28.9267 17.4248L31.2851 18.7933L25.9126 21.8929Z" fill="black"/>
<path d="M17.9859 29.4139L15.6275 28.0454L21 24.9458L23.3584 26.3143L17.9859 29.4139Z" fill="black"/>
<path d="M25.2034 23.121L22.8466 21.7524L22.8282 15.585L25.1866 16.9551L25.2034 23.121Z" fill="black"/>
<path d="M17.9792 27.2884L15.6208 25.9183L20.9933 22.8203L23.3517 24.1888L17.9792 27.2884Z" fill="white"/>
<path d="M17.9859 29.4138L15.6275 28.0453L15.6208 25.9182L17.9792 27.2884L17.9859 29.4138Z" fill="white"/>
<path d="M23.335 18.0229L20.9766 16.6544L22.8282 15.585L25.1866 16.9551L23.335 18.0229Z" fill="white"/>
<path d="M25.1867 16.9553L25.2034 23.1211L30.5759 20.0232L30.5809 22.1486L25.2101 25.2466L25.2268 31.4141L23.3752 32.4818L23.3585 26.3143L17.9859 29.414L17.9792 27.2885L23.3518 24.1889L23.335 18.0231L25.1867 16.9553Z" fill="white"/>
<path d="M23.3517 24.1889L20.9933 22.8204L20.9766 16.6545L23.335 18.0231L23.3517 24.1889Z" fill="white"/>
<path d="M17.265 26.8807L14.9083 25.5122L20.2791 22.4126L22.6375 23.7811L17.265 26.8807Z" fill="black"/>
<path d="M17.2767 30.642L14.9183 29.2719L14.9083 25.5122L17.265 26.8807L17.2767 30.642Z" fill="black"/>
<path d="M25.9126 21.8898L31.2784 18.7935L31.2951 22.5581L25.926 25.6544L25.9444 31.8202L22.6693 33.7101L22.6509 27.5426L17.2801 30.6422L17.2684 26.8809L22.6409 23.783L22.6225 17.6155L25.8975 15.7273L25.9126 21.8898ZM30.5809 22.1454V20.02L25.2084 23.1179L25.1917 16.9521L23.3401 18.0198L23.3568 24.1857L17.9843 27.2853V29.4107L23.3568 26.3111L23.3735 32.4786L25.2268 31.4142L25.2101 25.2467L30.5809 22.1488" fill="black"/>
<path d="M22.6375 23.7812L20.2791 22.4126L20.2624 16.2468L22.6191 17.6153L22.6375 23.7812Z" fill="black"/>
<path d="M22.6191 17.6153L20.2624 16.2468L23.5374 14.3586L25.8942 15.7272L22.6191 17.6153Z" fill="black"/>
<path d="M22.6342 63.9189L22.589 80.2642C22.5807 79.0611 21.7828 77.8614 20.1921 76.9423C18.6015 76.0233 16.5224 75.5672 14.4416 75.5655C12.3608 75.5638 10.2901 76.0283 8.70947 76.9423C7.12882 77.8564 6.34268 79.0611 6.35606 80.2642L6.4029 63.9189C6.4029 62.7159 7.18068 61.5161 8.76299 60.5971C10.3453 59.6781 12.416 59.2219 14.4951 59.2202C16.5742 59.2185 18.6516 59.6797 20.244 60.5971C21.8363 61.5144 22.6275 62.7159 22.6342 63.9189Z" fill="black"/>
<path d="M20.6321 67.448L20.5852 83.7932L20.229 83.5877L20.2758 67.2424L20.6321 67.448Z" fill="white"/>
<path d="M22.5891 80.2642C22.5891 81.469 21.8096 82.6687 20.229 83.5877L20.2758 67.2425C21.8565 66.3234 22.6409 65.1237 22.6342 63.9189C22.6209 68.8232 22.5807 75.36 22.5891 80.2642Z" fill="white"/>
<path d="M8.74628 83.5877C7.15393 82.6687 6.35608 81.469 6.35608 80.2642L6.40291 63.9189C6.40291 65.1237 7.20745 66.3234 8.79813 67.2425C10.3888 68.1615 12.4679 68.6177 14.5487 68.6177C16.6294 68.6177 18.7002 68.1598 20.2825 67.2425L20.2357 83.5877C18.6533 84.5051 16.5826 84.9629 14.5018 84.9629C12.4211 84.9629 10.3386 84.5051 8.74628 83.5877Z" fill="white"/>
<path d="M20.239 60.5971C21.8313 61.5161 22.6292 62.7159 22.6359 63.9189C22.6425 65.122 21.8581 66.3234 20.2774 67.2425L20.6337 67.448L20.2774 67.2425C18.6951 68.1598 16.6227 68.6177 14.5436 68.6177C12.4645 68.6177 10.3854 68.1598 8.79309 67.2425C7.20074 66.3251 6.40456 65.1237 6.39787 63.9189C6.39118 62.7142 7.17565 61.5161 8.75796 60.5971C10.3403 59.6781 12.411 59.2219 14.4901 59.2202C16.5692 59.2185 18.6449 59.6797 20.239 60.5971Z" fill="white"/>
<path d="M23.6378 63.9207L23.5926 80.2659C23.5926 81.6144 22.7145 82.9678 20.9415 83.9972C19.1685 85.0265 16.8318 85.5528 14.4985 85.5528C12.1651 85.5528 9.82512 85.0365 8.03874 84.0055C6.25236 82.9745 5.35248 81.616 5.35248 80.2659L5.39764 63.9207C5.406 65.2708 6.30588 66.6226 8.09059 67.6536C9.8753 68.6845 12.2103 69.1992 14.552 69.1992C16.8937 69.1992 19.2187 68.6829 20.995 67.6519C22.7713 66.6209 23.6478 65.2691 23.6378 63.9207Z" fill="black"/>
<path d="M23.6378 63.9206C23.6478 65.2691 22.7613 66.6225 20.9883 67.6518C19.2153 68.6811 16.8786 69.1991 14.5453 69.1991C12.212 69.1991 9.86861 68.6761 8.0839 67.6535C6.29919 66.6309 5.40767 65.2707 5.39095 63.9206C5.37422 62.5705 6.26908 61.217 8.04375 60.186C9.81843 59.155 12.1534 58.6404 14.4851 58.6404C16.8168 58.6404 19.1585 59.1567 20.9448 60.186C22.7312 61.2153 23.6311 62.5705 23.6378 63.9206ZM14.542 68.6176C16.6211 68.6176 18.6935 68.1598 20.2758 67.2424C21.8581 66.3251 22.6409 65.1237 22.6342 63.9189C22.6275 62.7142 21.8297 61.5161 20.2373 60.5971C18.6449 59.678 16.5692 59.2219 14.4884 59.2202C12.4077 59.2185 10.3369 59.6797 8.7563 60.5971C7.17565 61.5144 6.38951 62.7158 6.3962 63.9189C6.40289 65.122 7.20074 66.3234 8.79143 67.2424C10.3821 68.1615 12.4612 68.6176 14.542 68.6176Z" fill="black"/>
<path d="M14.7644 58.582L12.4076 57.2135L14.2592 56.1458L16.616 57.5143L14.7644 58.582Z" fill="black"/>
<path d="M16.5993 51.3483L14.2408 49.9781L19.6134 46.8801L21.9718 48.2486L16.5993 51.3483Z" fill="black"/>
<path d="M16.5926 49.2213L14.2359 47.8528L19.6084 44.7549L21.9651 46.1234L16.5926 49.2213Z" fill="white"/>
<path d="M21.9718 48.2488L19.6134 46.8803L19.6084 44.7549L21.9652 46.1234L21.9718 48.2488Z" fill="black"/>
<path d="M16.616 57.5143L14.2592 56.1458L14.2408 49.9783L16.5993 51.3485L16.616 57.5143Z" fill="black"/>
<path d="M14.7644 58.5819L12.4076 57.2134L12.3892 51.0476L14.7476 52.4161L14.7644 58.5819Z" fill="white"/>
<path d="M14.0551 59.8102L11.6984 58.4417L11.68 52.2742L14.0384 53.6444L14.0551 59.8102Z" fill="black"/>
<path d="M17.3035 47.9931L14.9451 46.6246L20.3176 43.5266L22.676 44.8951L17.3035 47.9931Z" fill="black"/>
<path d="M9.37518 55.5141L7.01843 54.1456L12.3893 51.0476L14.7477 52.4161L9.37518 55.5141Z" fill="black"/>
<path d="M16.5926 49.2213L14.2358 47.8528L14.2174 41.687L16.5759 43.0555L16.5926 49.2213Z" fill="black"/>
<path d="M9.37011 53.3885L7.01169 52.02L12.3842 48.9204L14.741 50.2906L9.37011 53.3885Z" fill="white"/>
<path d="M9.37513 55.514L7.01838 54.1455L7.01169 52.02L9.37011 53.3885L9.37513 55.514Z" fill="white"/>
<path d="M14.7242 44.1232L12.3658 42.7547L14.2174 41.687L16.5758 43.0555L14.7242 44.1232Z" fill="white"/>
<path d="M14.7409 50.2906L12.3842 48.9205L12.3658 42.7546L14.7242 44.1232L14.7409 50.2906Z" fill="white"/>
<path d="M17.3035 47.993L22.676 44.895L22.686 48.6547L17.3135 51.7543L17.3319 57.9201L14.0502 59.8099L14.0335 53.6441L8.66597 56.7421L8.65427 52.9808L14.0285 49.8828L14.0101 43.7153L17.2851 41.8271L17.3035 47.993ZM21.9718 48.2486V46.1232L16.5926 49.2211L16.5759 43.0553L14.7193 44.123L14.736 50.2905L9.36681 53.3885V55.5139L14.7393 52.416L14.7561 58.5818L16.6077 57.514L16.5909 51.3482L21.9635 48.2486" fill="black"/>
<path d="M16.5759 43.0554L16.5926 49.2212L21.9651 46.1233L21.9718 48.2487L16.5993 51.3484L16.616 57.5142L14.7644 58.5819L14.7477 52.4161L9.37517 55.514L9.37015 53.3886L14.741 50.2906L14.7243 44.1232L16.5759 43.0554Z" fill="white"/>
<path d="M8.65424 52.9809L6.29749 51.6124L11.67 48.5144L14.0284 49.8829L8.65424 52.9809Z" fill="black"/>
<path d="M8.66594 56.7421L6.30752 55.3736L6.29749 51.6123L8.65424 52.9808L8.66594 56.7421Z" fill="black"/>
<path d="M14.0284 49.8829L11.67 48.5144L11.6533 42.3469L14.01 43.7171L14.0284 49.8829Z" fill="black"/>
<path d="M14.01 43.7171L11.6533 42.3469L14.9283 40.4587L17.285 41.8273L14.01 43.7171Z" fill="black"/>
<path d="M92.4351 89.9105L92.4167 96.7197C92.4066 95.5166 91.6088 94.3169 90.0181 93.3978C88.4274 92.4788 86.3483 92.0226 84.2692 92.021C82.1902 92.0193 80.1194 92.4805 78.5354 93.4062C76.9514 94.3319 76.1703 95.5249 76.1753 96.728L76.1937 89.9189C76.1937 88.7141 76.9732 87.5144 78.5538 86.597C80.1345 85.6797 82.2086 85.2185 84.2876 85.2185C86.3667 85.2185 88.4458 85.678 90.0382 86.597C91.6305 87.5161 92.4267 88.7058 92.4351 89.9105Z" fill="black"/>
<path d="M92.4167 96.7198C92.417 97.0248 92.3679 97.3278 92.2712 97.6171L92.2913 90.8079C92.3873 90.5185 92.4358 90.2155 92.4351 89.9106C92.4301 91.9526 92.415 94.6779 92.4167 96.7198Z" fill="#F091ED"/>
<path d="M92.1441 97.9412L92.1641 91.1304C92.2126 91.0253 92.255 90.9177 92.2913 90.8079L92.2712 97.617C92.2357 97.7276 92.1932 97.8359 92.1441 97.9412Z" fill="#F091ED"/>
<path d="M92.1441 97.9412C92.0566 98.1324 91.9519 98.3153 91.8313 98.4876C91.8313 96.2184 91.8374 93.9487 91.8497 91.6784C91.9705 91.5054 92.0757 91.322 92.1642 91.1304C92.1642 92.5696 92.1603 94.0089 92.1524 95.4481V96.6946V97.7975C92.1547 97.8455 92.1519 97.8937 92.1441 97.9412Z" fill="#F091ED"/>
<path d="M90.4313 93.4379L90.4112 100.249L90.055 100.043L90.0734 93.2324L90.4313 93.4379Z" fill="#F091ED"/>
<path d="M91.8279 98.4876C91.3565 99.1294 90.7502 99.6604 90.0516 100.043L90.07 93.2325C90.7682 92.8497 91.3744 92.3193 91.8463 91.6785C91.8463 91.9157 91.8463 92.2349 91.8463 92.4738C91.8463 92.7128 91.8463 93.0637 91.8463 93.3093C91.8463 93.555 91.8463 93.9226 91.8463 94.1849C91.8463 94.4472 91.8463 94.8082 91.8463 95.0755V95.5233V96.8417C91.8463 97.2583 91.8463 97.6744 91.8463 98.0899C91.8584 98.2227 91.8522 98.3565 91.8279 98.4876Z" fill="#F091ED"/>
<path d="M93.4382 89.9106C93.4382 91.2607 92.5617 92.6125 90.7853 93.6435C89.009 94.6745 86.6773 95.1891 84.344 95.1891C82.0107 95.1891 79.6706 94.6728 77.8843 93.6435C76.0979 92.6142 75.198 91.2607 75.1913 89.9106C75.1846 88.5605 76.0678 87.207 77.8408 86.1777C79.6138 85.1484 81.9504 84.6304 84.2838 84.6304C86.6171 84.6304 88.9672 85.1467 90.7452 86.1777C92.5232 87.2087 93.4298 88.5605 93.4382 89.9106ZM84.3407 94.6093C86.4214 94.6093 88.4922 94.1498 90.0728 93.2325C91.6534 92.3151 92.4396 91.1137 92.4346 89.9106C92.4296 88.7075 91.6284 87.5061 90.0377 86.5887C88.447 85.6714 86.3679 85.2185 84.2871 85.2185C82.2064 85.2185 80.1356 85.6781 78.5533 86.5971C76.971 87.5161 76.1882 88.7142 76.1932 89.9189C76.1982 91.1237 76.9994 92.3218 78.5918 93.2408C80.1841 94.1598 82.2616 94.616 84.3407 94.6177" fill="black"/>
<path d="M90.0382 86.5887C91.6289 87.506 92.4267 88.7058 92.4351 89.9106C92.4434 91.1153 91.6606 92.3134 90.0733 93.2391L90.4313 93.4446L90.0733 93.2391C88.4927 94.1564 86.4219 94.6143 84.3412 94.616C82.2604 94.6176 80.1847 94.1564 78.5923 93.2391C77 92.3217 76.2038 91.1203 76.1938 89.9172C76.1837 88.7141 76.9732 87.5127 78.5539 86.5954C80.1345 85.678 82.2086 85.2185 84.2877 85.2185C86.3667 85.2185 88.4458 85.6697 90.0382 86.5887Z" fill="#F091ED"/>
<path d="M78.5739 100.043C76.9816 99.1243 76.1837 97.9245 76.1754 96.7198L76.1938 89.9106C76.2038 91.1137 77 92.3135 78.5923 93.2325C80.1847 94.1515 82.2621 94.6077 84.3412 94.6094C86.4203 94.611 88.4926 94.1499 90.0733 93.2325L90.0549 100.043C88.4826 100.961 86.4019 101.427 84.3211 101.427C82.2403 101.427 80.1646 100.961 78.5739 100.043Z" fill="#F091ED"/>
<path d="M93.4387 89.9106L93.4186 96.7198C93.4186 98.0699 92.5422 99.4234 90.7675 100.454C88.9928 101.485 86.6578 102 84.3245 102C81.9911 102 79.6511 101.484 77.8664 100.454C76.0817 99.4251 75.1801 98.0699 75.1718 96.7198L75.1919 89.9106C75.1919 91.2608 76.0984 92.6126 77.8848 93.6435C79.6712 94.6745 82.0112 95.1892 84.3445 95.1892C86.6779 95.1892 89.0129 94.6729 90.7859 93.6435C92.5589 92.6142 93.4454 91.2608 93.4387 89.9106Z" fill="black"/>
<path d="M132.998 60.5336L132.951 76.8788C132.951 75.6757 132.147 74.4743 130.555 73.557C128.962 72.6396 126.885 72.1851 124.806 72.1851C122.727 72.1851 120.653 72.6446 119.072 73.562C117.491 74.4793 116.707 75.6807 116.712 76.8838L116.759 60.5386C116.759 59.3355 117.536 58.1357 119.117 57.2167C120.698 56.2977 122.773 55.8415 124.851 55.8398C126.928 55.8382 129.009 56.2994 130.601 57.2167C132.194 58.1341 132.992 59.3305 132.998 60.5336Z" fill="black"/>
<path d="M132.925 77.28L132.97 60.9364C132.989 60.803 132.998 60.6684 132.998 60.5337L132.951 76.879C132.952 77.0131 132.943 77.1471 132.925 77.28Z" fill="white"/>
<path d="M130.994 64.061L130.948 80.4063L130.591 80.2007L130.638 63.8555L130.994 64.061Z" fill="white"/>
<path d="M132.925 77.2799C132.774 78.3459 131.996 79.3853 130.583 80.2007L130.63 63.8554C132.035 63.04 132.804 62.0007 132.962 60.9363L132.936 69.9945L132.926 73.6372V75.527C132.926 75.7977 132.926 76.1587 132.926 76.4294C132.926 76.7001 132.943 77.0309 132.925 77.2799Z" fill="white"/>
<path d="M119.109 80.2057C117.518 79.2883 116.719 78.0869 116.712 76.8838L116.759 60.5386C116.759 61.7417 117.563 62.9431 119.156 63.8604C120.748 64.7778 122.825 65.2373 124.904 65.2373C126.984 65.2373 129.056 64.7795 130.638 63.8604L130.591 80.2057C129.011 81.1247 126.938 81.5826 124.858 81.5826C122.777 81.5826 120.701 81.1197 119.109 80.2057Z" fill="white"/>
<path d="M130.601 57.2118C132.194 58.1292 132.992 59.3306 132.998 60.5337C133.005 61.7368 132.219 62.9382 130.638 63.8555L130.995 64.0611L130.633 63.8555C129.051 64.7746 126.98 65.2324 124.899 65.2324C122.819 65.2324 120.743 64.7746 119.151 63.8555C117.558 62.9365 116.76 61.7368 116.754 60.5337C116.747 59.3306 117.531 58.1309 119.112 57.2118C120.693 56.2928 122.768 55.8366 124.846 55.835C126.923 55.8333 129.009 56.2945 130.601 57.2118Z" fill="white"/>
<path d="M134.002 60.5337L133.955 76.879C133.955 78.2291 133.079 79.5826 131.304 80.6119C129.529 81.6412 127.194 82.1592 124.861 82.1592C122.528 82.1592 120.188 81.6428 118.401 80.6119C116.615 79.5809 115.715 78.2291 115.708 76.879L115.755 60.5354C115.755 61.8838 116.662 63.2373 118.448 64.2666C120.234 65.2959 122.574 65.8139 124.908 65.8139C127.241 65.8139 129.576 65.2976 131.351 64.2666C133.125 63.2356 134.01 61.8838 134.002 60.5337Z" fill="black"/>
<path d="M134.002 60.5337C134.01 61.8838 133.125 63.2373 131.351 64.2666C129.576 65.2959 127.241 65.8139 124.908 65.8139C122.574 65.8139 120.234 65.2975 118.448 64.2666C116.662 63.2356 115.762 61.8838 115.755 60.5353C115.748 59.1869 116.632 57.8317 118.406 56.8008C120.181 55.7698 122.516 55.2551 124.849 55.2551C127.183 55.2551 129.523 55.7715 131.307 56.8008C133.092 57.8301 133.995 59.1852 134.002 60.5337ZM124.904 65.2324C126.985 65.2324 129.056 64.7745 130.638 63.8555C132.221 62.9365 133.005 61.7367 132.998 60.5337C132.992 59.3306 132.194 58.1292 130.601 57.2118C129.009 56.2945 126.932 55.8349 124.851 55.8349C122.77 55.8349 120.699 56.2945 119.117 57.2118C117.535 58.1292 116.752 59.3306 116.759 60.5337C116.765 61.7367 117.563 62.9382 119.156 63.8555C120.748 64.7729 122.825 65.2324 124.904 65.2324Z" fill="black"/>
<path d="M14.552 100.758C15.9376 100.758 17.0609 99.6363 17.0609 98.252C17.0609 96.8678 15.9376 95.7456 14.552 95.7456C13.1663 95.7456 12.043 96.8678 12.043 98.252C12.043 99.6363 13.1663 100.758 14.552 100.758Z" fill="black"/>
<path d="M137.491 50.2958C138.877 50.2958 140 49.1737 140 47.7894C140 46.4051 138.877 45.283 137.491 45.283C136.105 45.283 134.982 46.4051 134.982 47.7894C134.982 49.1737 136.105 50.2958 137.491 50.2958Z" fill="black"/>
<path d="M90.1553 2.33933C90.802 2.33933 91.3262 1.81566 91.3262 1.16967C91.3262 0.523678 90.802 0 90.1553 0C89.5087 0 88.9845 0.523678 88.9845 1.16967C88.9845 1.81566 89.5087 2.33933 90.1553 2.33933Z" fill="black"/>
<path d="M75.7029 4.55276L74.3392 3.19044C73.8996 2.75128 73.1868 2.75128 72.7472 3.19044L71.3835 4.55276C70.9439 4.99192 70.9439 5.70395 71.3835 6.14312L72.7472 7.50543C73.1868 7.9446 73.8996 7.9446 74.3392 7.50543L75.7029 6.14311C76.1425 5.70395 76.1425 4.99193 75.7029 4.55276Z" fill="black"/>
<path d="M1.25448 29.91C1.94731 29.91 2.50896 29.3489 2.50896 28.6568C2.50896 27.9646 1.94731 27.4036 1.25448 27.4036C0.56165 27.4036 0 27.9646 0 28.6568C0 29.3489 0.56165 29.91 1.25448 29.91Z" fill="black"/>
</svg>
