<svg width="80" height="80" viewBox="0 0 80 80" fill="none" xmlns="http://www.w3.org/2000/svg">
<circle cx="40" cy="40" r="40" fill="black"/>
<path d="M40.0002 18C27.8514 18 18 27.8568 18 40.0162C18 49.7435 24.3037 57.9962 33.0451 60.9073C34.1446 61.1111 34.5483 60.4296 34.5483 59.8481C34.5483 59.3232 34.5277 57.5889 34.5184 55.7494C28.3979 57.081 27.1065 53.1516 27.1065 53.1516C26.1056 50.6069 24.6636 49.9301 24.6636 49.9301C22.6676 48.5637 24.8142 48.5919 24.8142 48.5919C27.0233 48.7471 28.1865 50.8606 28.1865 50.8606C30.1488 54.2263 33.3333 53.2533 34.5887 52.6907C34.7862 51.2679 35.3563 50.2964 35.9855 49.7467C31.0989 49.1901 25.9621 47.3023 25.9621 38.8664C25.9621 36.4627 26.8215 34.4986 28.2288 32.9568C28.0004 32.4022 27.2474 30.1632 28.4419 27.1304C28.4419 27.1304 30.2894 26.5388 34.4936 29.3873C36.2485 28.8995 38.1305 28.6549 40.0002 28.6465C41.8698 28.6549 43.7534 28.8993 45.5115 29.3873C49.7106 26.5389 51.5555 27.1306 51.5555 27.1306C52.753 30.163 51.9996 32.4024 51.7712 32.9568C53.1818 34.4986 54.0353 36.4627 54.0353 38.8664C54.0353 47.3224 48.8887 49.1843 43.9897 49.7294C44.7788 50.4125 45.482 51.7524 45.482 53.8064C45.482 56.7521 45.4565 59.123 45.4565 59.8481C45.4565 60.4341 45.8525 61.1206 46.9676 60.9042C55.7042 57.99 62 49.7404 62 40.0163C62 27.8568 52.15 18 40.0002 18ZM26.2399 49.3625C26.1914 49.4719 26.0193 49.5047 25.8628 49.4296C25.7031 49.3578 25.6135 49.2087 25.6651 49.099C25.7125 48.9863 25.8849 48.9548 26.0441 49.0303C26.2039 49.1022 26.295 49.2527 26.2399 49.3625ZM27.322 50.3288C27.2171 50.4261 27.0119 50.3809 26.8727 50.2271C26.7288 50.0737 26.7019 49.8683 26.8083 49.7696C26.9165 49.6723 27.1154 49.7178 27.2596 49.8713C27.4036 50.0266 27.4315 50.2304 27.322 50.3288ZM28.0645 51.5651C27.9296 51.6589 27.7092 51.571 27.5729 51.3752C27.4382 51.1795 27.4382 50.9447 27.5758 50.8506C27.7125 50.7565 27.9296 50.8412 28.0676 51.0355C28.202 51.2345 28.202 51.4693 28.0643 51.5653L28.0645 51.5651ZM29.3199 52.997C29.1994 53.1301 28.9424 53.0944 28.7544 52.9127C28.5621 52.7352 28.5086 52.4834 28.6296 52.3503C28.7516 52.2168 29.01 52.2543 29.1994 52.4346C29.3902 52.6117 29.4486 52.8654 29.3199 52.997ZM30.9427 53.4803C30.8894 53.6529 30.6419 53.7313 30.3929 53.658C30.144 53.5825 29.9812 53.3806 30.0314 53.2063C30.0832 53.0326 30.3317 52.9511 30.5826 53.0295C30.8312 53.1045 30.9944 53.3051 30.9427 53.4805V53.4803ZM32.7893 53.6855C32.7955 53.867 32.5843 54.0175 32.3227 54.0209C32.0597 54.0268 31.8468 53.8799 31.8438 53.701C31.8438 53.5178 32.0504 53.3687 32.3136 53.3642C32.5752 53.3591 32.7893 53.5049 32.7893 53.6855ZM34.6035 53.6159C34.6348 53.793 34.4531 53.975 34.1932 54.0235C33.938 54.0701 33.7015 53.9607 33.669 53.7851C33.6374 53.6035 33.8225 53.4215 34.0774 53.3746C34.3376 53.3293 34.5703 53.4358 34.6035 53.6159Z" fill="white"/>
</svg>
