<svg width="137" height="120" viewBox="0 0 137 120" fill="none" xmlns="http://www.w3.org/2000/svg">
<path d="M85.2206 7.43985L85.1429 34.9748C84.8097 34.8058 84.4413 34.7177 84.0677 34.7177C83.6941 34.7177 83.3257 34.8058 82.9925 34.9748L83.0702 7.43985C83.4034 7.27082 83.7718 7.18274 84.1454 7.18274C84.519 7.18274 84.8874 7.27082 85.2206 7.43985V7.43985Z" fill="black"/>
<path d="M107.741 20.4438L107.664 47.9838L85.1425 34.9799L85.2202 7.43982L107.741 20.4438Z" fill="black"/>
<path d="M83.0698 7.43982L82.9921 34.9799L60.6161 47.9838L60.6939 20.4438L83.0698 7.43982Z" fill="black"/>
<path d="M108.191 21.0706L108.113 48.6056C108.113 48.3792 107.964 48.1511 107.664 47.9788L107.741 20.4438C108.042 20.6162 108.191 20.8425 108.191 21.0706Z" fill="black"/>
<path d="M60.175 48.6021L60.2527 21.0671C60.2527 20.8425 60.4014 20.6195 60.6936 20.4489L60.6159 47.9839C60.3186 48.1545 60.175 48.3775 60.175 48.6021Z" fill="black"/>
<path d="M60.175 48.6073L60.2527 21.0723C60.2279 30.245 60.202 39.4233 60.175 48.6073Z" fill="white"/>
<path d="M108.113 48.6106C108.113 48.8335 107.965 49.0582 107.671 49.2288L107.75 21.6938C108.044 21.5249 108.191 21.2985 108.191 21.0756C108.168 29.3327 108.134 40.3484 108.113 48.6106Z" fill="white"/>
<path d="M60.6227 49.2289C60.3254 49.06 60.1767 48.8319 60.175 48.6072C60.2009 39.4255 60.2268 30.2472 60.2527 21.0723C60.2527 21.2986 60.4048 21.5233 60.7021 21.6956C60.6784 29.951 60.6463 40.9667 60.6227 49.2289Z" fill="white"/>
<path d="M109.204 21.0723L109.127 48.6073C109.127 48.9806 108.88 49.3539 108.39 49.6377L108.468 22.1027C108.958 21.824 109.203 21.4473 109.204 21.0723Z" fill="black"/>
<path d="M59.1617 48.5987L59.2394 21.0637C59.2394 21.4421 59.4877 21.8205 59.986 22.1094L59.9083 49.6443C59.41 49.3589 59.1617 48.9771 59.1617 48.5987Z" fill="black"/>
<path d="M107.75 21.6888L107.67 49.2289L85.296 62.2329L85.3737 34.6911L107.75 21.6888Z" fill="white"/>
<path d="M83.2232 34.6911L83.1455 62.2329L60.6226 49.2289L60.702 21.6888L83.2232 34.6911Z" fill="white"/>
<path d="M85.3741 34.691L85.2964 62.226C84.9632 62.3951 84.5948 62.4831 84.2212 62.4831C83.8475 62.4831 83.4792 62.3951 83.1459 62.226L83.2236 34.691C83.5566 34.861 83.9251 34.9496 84.2989 34.9496C84.6727 34.9496 85.0412 34.861 85.3741 34.691V34.691Z" fill="white"/>
<path d="M108.463 20.0283C109.455 20.6009 109.458 21.5317 108.473 22.1044L86.0991 35.1117C85.1142 35.6843 83.5061 35.6843 82.5145 35.1117L59.9814 22.1044C58.9915 21.5317 58.9864 20.6009 59.9713 20.0283L82.3455 7.02093C83.3304 6.44827 84.9386 6.44827 85.9302 7.02093L108.463 20.0283ZM85.3795 34.6911L107.755 21.6837C108.347 21.3459 108.343 20.7817 107.755 20.4387L85.2342 7.43142C84.901 7.26239 84.5326 7.17431 84.159 7.17431C83.7853 7.17431 83.417 7.26239 83.0838 7.43142L60.7078 20.4387C60.1165 20.7766 60.1216 21.3408 60.7078 21.6837L83.229 34.6911C83.562 34.861 83.9304 34.9496 84.3042 34.9496C84.678 34.9496 85.0465 34.861 85.3795 34.6911" fill="black"/>
<path d="M107.741 20.4438C108.338 20.7816 108.341 21.3441 107.741 21.6888L85.3655 34.6961C85.0325 34.866 84.664 34.9546 84.2902 34.9546C83.9164 34.9546 83.548 34.866 83.215 34.6961L60.6937 21.6888C60.0991 21.3509 60.0941 20.7867 60.6937 20.4438L83.0697 7.43643C83.403 7.26741 83.7713 7.17932 84.145 7.17932C84.5186 7.17932 84.887 7.26741 85.2202 7.43643L107.741 20.4438Z" fill="white"/>
<path d="M108.468 22.1044L108.39 49.6445L86.0139 62.6484L86.0933 35.1066L108.468 22.1044Z" fill="black"/>
<path d="M82.5089 35.1066L82.4312 62.6484L59.9082 49.6445L59.9876 22.1044L82.5089 35.1066Z" fill="black"/>
<path d="M86.0939 35.1066L86.0145 62.6416C85.0313 63.2125 83.4232 63.2142 82.4316 62.6416L82.5093 35.1066C83.5009 35.6758 85.1091 35.6758 86.0939 35.1066Z" fill="black"/>
<path d="M55.8853 30.8514L55.8262 51.5077C55.4934 51.338 55.1253 51.2496 54.7518 51.2496C54.3783 51.2496 54.0101 51.338 53.6774 51.5077L53.7315 30.8514C54.0651 30.6818 54.4341 30.5934 54.8084 30.5934C55.1827 30.5934 55.5516 30.6818 55.8853 30.8514V30.8514Z" fill="black"/>
<path d="M78.4065 43.8553L78.349 64.5099L55.8261 51.5076L55.8852 30.8513L78.4065 43.8553Z" fill="black"/>
<path d="M53.7347 30.8513L53.6773 51.5076L31.2996 64.5116L31.3587 43.8553L53.7347 30.8513Z" fill="black"/>
<path d="M78.8554 44.4819L78.7963 65.1383C78.7963 64.9102 78.6476 64.6838 78.3486 64.5098L78.4078 43.8552C78.7068 44.0275 78.8554 44.2556 78.8554 44.4819Z" fill="black"/>
<path d="M30.8586 65.1298L30.9262 44.4752C30.9262 44.2505 31.0732 44.0258 31.3671 43.8552L31.308 64.5116C31.0073 64.6822 30.8586 64.9001 30.8586 65.1298Z" fill="black"/>
<path d="M30.8586 65.1332L30.9262 44.4752C30.9003 51.3629 30.8778 58.2489 30.8586 65.1332Z" fill="white"/>
<path d="M78.7968 65.1384C78.7968 65.3614 78.6498 65.5861 78.3559 65.7567L78.415 45.1003C78.7072 44.9314 78.8542 44.7067 78.8559 44.4821C78.8373 50.6783 78.8137 58.9405 78.7968 65.1384Z" fill="white"/>
<path d="M31.3063 65.7566C31.009 65.5877 30.8603 65.3596 30.8586 65.1332C30.8789 58.2478 30.8986 51.3629 30.9177 44.4786C30.9177 44.7033 31.0681 44.9297 31.3654 45.102C31.3485 51.2982 31.3249 59.5604 31.3063 65.7566Z" fill="white"/>
<path d="M79.8691 44.4854L79.81 65.14C79.81 65.5133 79.5633 65.8867 79.0751 66.1704L79.1343 45.5158C79.6225 45.232 79.8674 44.8587 79.8691 44.4854Z" fill="black"/>
<path d="M29.8466 65.1265L29.9125 44.4702C29.9125 44.8486 30.1608 45.2287 30.6608 45.5159L30.5882 66.1722C30.0949 65.8833 29.8449 65.5049 29.8466 65.1265Z" fill="black"/>
<path d="M78.4147 45.1003L78.3555 65.7567L55.9796 78.7606L56.037 58.1043L78.4147 45.1003Z" fill="white"/>
<path d="M53.8881 58.1042L53.829 78.7605L31.306 65.7566L31.3652 45.1019L53.8881 58.1042Z" fill="white"/>
<path d="M78.4079 43.8552C79.0025 44.1931 79.0042 44.7573 78.4079 45.1002L56.0302 58.1075C55.6975 58.2772 55.3293 58.3657 54.9559 58.3657C54.5824 58.3657 54.2142 58.2772 53.8815 58.1075L31.3585 45.1002C30.7639 44.7624 30.7606 44.1982 31.3585 43.8535L53.7345 30.8462C54.0677 30.6772 54.4361 30.5891 54.8097 30.5891C55.1834 30.5891 55.5517 30.6772 55.885 30.8462L78.4079 43.8552Z" fill="white"/>
<path d="M56.0373 58.1042L55.9798 78.7605C55.6466 78.9296 55.2783 79.0177 54.9046 79.0177C54.531 79.0177 54.1626 78.9296 53.8294 78.7605L53.8885 58.1042C54.2212 58.2739 54.5894 58.3624 54.9629 58.3624C55.3364 58.3624 55.7046 58.2739 56.0373 58.1042V58.1042Z" fill="white"/>
<path d="M79.1343 45.5159L79.0751 66.1705L56.6974 79.1744L56.7566 58.5198L79.1343 45.5159Z" fill="black"/>
<path d="M53.1736 58.5198L53.1144 79.1744L30.5932 66.1722L30.6523 45.5159L53.1736 58.5198Z" fill="black"/>
<path d="M79.1223 43.4465C80.1123 44.0192 80.1173 44.9499 79.1342 45.5226L56.7565 58.5299C55.7717 59.1026 54.1652 59.1009 53.1736 58.5299L30.6523 45.5226C29.6607 44.9499 29.654 44.0192 30.6388 43.4482L53.0148 30.4408C53.9996 29.8682 55.6078 29.8682 56.5994 30.4408L79.1223 43.4465ZM56.0369 58.1042L78.4145 45.0969C79.0041 44.759 79.0024 44.1948 78.4145 43.8519L55.8916 30.8446C55.5584 30.6756 55.19 30.5875 54.8164 30.5875C54.4427 30.5875 54.0744 30.6756 53.7412 30.8446L31.3652 43.8519C30.7739 44.1898 30.7773 44.754 31.3652 45.0986L53.8864 58.1059C54.2194 58.2759 54.5879 58.3645 54.9617 58.3645C55.3355 58.3645 55.7039 58.2759 56.0369 58.1059" fill="black"/>
<path d="M56.7564 58.5198L56.6973 79.1744C55.7142 79.7471 54.106 79.7471 53.1144 79.1744L53.1735 58.5198C54.1651 59.0907 55.7716 59.0924 56.7564 58.5198Z" fill="black"/>
<path d="M26.3647 53.9047L26.3259 67.6756C25.9932 67.5059 25.625 67.4175 25.2515 67.4175C24.878 67.4175 24.5099 67.5059 24.1771 67.6756L24.216 53.9047C24.5487 53.7351 24.9169 53.6466 25.2904 53.6466C25.6638 53.6466 26.032 53.7351 26.3647 53.9047V53.9047Z" fill="black"/>
<path d="M48.8929 66.9087L48.8524 80.6796L26.3295 67.6756L26.3683 53.9048L48.8929 66.9087Z" fill="black"/>
<path d="M24.2194 53.9048L24.1788 67.6756L1.80452 80.6779L1.84337 66.9087L24.2194 53.9048Z" fill="black"/>
<path d="M49.3389 67.5354L49.3 81.3063C49.3 81.0782 49.1496 80.8519 48.8506 80.6796L48.8895 66.9087C49.1919 67.081 49.3389 67.309 49.3389 67.5354Z" fill="black"/>
<path d="M1.36337 81.2961L1.40223 67.527C1.40223 67.3023 1.54919 67.0793 1.84312 66.9087L1.80427 80.6779C1.51034 80.8485 1.36337 81.0732 1.36337 81.2961Z" fill="black"/>
<path d="M49.3015 81.3063C49.3015 81.5293 49.1529 81.754 48.8606 81.9246L48.8995 68.1537C49.1934 67.9847 49.3387 67.7601 49.3404 67.5354C49.3286 71.6673 49.3117 77.1744 49.3015 81.3063Z" fill="white"/>
<path d="M1.36337 81.2962L1.40223 67.527C1.40223 67.7533 1.55088 67.9814 1.84988 68.1537L1.81103 81.9246C1.51203 81.7506 1.36337 81.5242 1.36337 81.2962Z" fill="white"/>
<path d="M50.3525 67.5388L50.3137 81.308C50.3137 81.683 50.067 82.0546 49.5771 82.3401L49.616 68.5693C50.1076 68.2787 50.3525 67.9121 50.3525 67.5388Z" fill="black"/>
<path d="M0.350006 81.2944L0.388859 67.5253C0.388859 67.902 0.637181 68.2804 1.13551 68.5692L1.09666 82.3384C0.598328 82.0512 0.350006 81.6728 0.350006 81.2944Z" fill="black"/>
<path d="M48.8991 68.1537L48.8603 81.9245L26.4843 94.9268L26.5232 81.1576L48.8991 68.1537Z" fill="white"/>
<path d="M24.3727 81.1576L24.3339 94.9268L1.81094 81.9245L1.8498 68.1537L24.3727 81.1576Z" fill="white"/>
<path d="M48.8912 66.9086C49.4858 67.2465 49.4909 67.8107 48.8912 68.1536L26.5152 81.161C26.182 81.33 25.8137 81.4181 25.44 81.4181C25.0664 81.4181 24.698 81.33 24.3648 81.161L1.84187 68.1536C1.24725 67.8158 1.24387 67.2516 1.84187 66.9086L24.2178 53.9013C24.5506 53.7316 24.9187 53.6432 25.2922 53.6432C25.6657 53.6432 26.0339 53.7316 26.3666 53.9013L48.8912 66.9086Z" fill="white"/>
<path d="M26.5236 81.1576L26.4847 94.9268C26.1518 95.0967 25.7833 95.1853 25.4095 95.1853C25.0357 95.1853 24.6672 95.0967 24.3343 94.9268L24.3731 81.1576C24.7064 81.3266 25.0747 81.4147 25.4484 81.4147C25.822 81.4147 26.1904 81.3266 26.5236 81.1576V81.1576Z" fill="white"/>
<path d="M49.6175 68.5692L49.5787 82.3401L27.2044 95.3424L27.2432 81.5732L49.6175 68.5692Z" fill="black"/>
<path d="M23.6584 81.5732L23.6195 95.3424L1.09659 82.3384L1.13544 68.5692L23.6584 81.5732Z" fill="black"/>
<path d="M49.607 66.4931C50.5969 67.0658 50.602 67.9966 49.6171 68.5692L27.2429 81.5766C26.258 82.1475 24.6498 82.1475 23.6582 81.5766L1.13529 68.5692C0.143697 67.9966 0.140318 67.0658 1.12516 66.4931L23.4994 53.4858C24.4843 52.9131 26.0925 52.9114 27.0824 53.4858L49.607 66.4931ZM26.5232 81.1576L48.8992 68.1503C49.4904 67.8124 49.4854 67.2482 48.8992 66.9053L26.3644 53.9047C26.0317 53.7351 25.6635 53.6466 25.2901 53.6466C24.9166 53.6466 24.5484 53.7351 24.2157 53.9047L1.83972 66.9121C1.24847 67.2499 1.25185 67.8141 1.83972 68.157L24.3627 81.1644C24.6959 81.3334 25.0642 81.4215 25.4379 81.4215C25.8115 81.4215 26.1799 81.3334 26.5131 81.1644" fill="black"/>
<path d="M27.2434 81.5732L27.2096 95.3424C26.2248 95.9151 24.6166 95.9151 23.625 95.3424L23.6621 81.5732C24.6504 82.1442 26.2585 82.1442 27.2434 81.5732Z" fill="black"/>
<path d="M106.58 38.5477L110.152 36.475C107.461 38.0105 105.789 41.3096 105.776 46.0159C105.762 50.7222 107.411 55.9387 110.085 60.5723C112.759 65.206 116.46 69.2535 120.558 71.6167C124.656 73.98 128.364 74.2148 131.057 72.681L127.486 74.7554C124.783 76.2892 121.082 76.0578 116.986 73.6928C112.889 71.3279 109.19 67.2821 106.512 62.6484C103.835 58.0148 102.191 52.8 102.204 48.092C102.218 43.3841 103.887 40.0866 106.58 38.5477Z" fill="black"/>
<path d="M135.43 63.1399C135.419 67.8462 133.741 71.1453 131.054 72.6809L127.482 74.7553C130.175 73.2214 131.846 69.9223 131.859 65.2143L135.43 63.1399Z" fill="#90A8EE"/>
<path d="M110.153 36.4749C112.856 34.941 116.557 35.1742 120.653 37.5391L117.079 39.6136C112.984 37.2486 109.273 37.0155 106.58 38.551C107.651 37.9277 109.077 37.0932 110.153 36.4749Z" fill="#90A8EE"/>
<path d="M131.859 65.2143L135.43 63.1399L135.79 63.346L132.219 65.4221L131.859 65.2143Z" fill="#90A8EE"/>
<path d="M128.753 44.9922L125.187 47.0683C122.86 43.9702 120.078 41.3434 117.078 39.6135L120.651 37.5341C123.646 39.2672 126.428 41.8941 128.753 44.9922Z" fill="#90A8EE"/>
<path d="M131.123 48.5836C133.799 53.2172 135.444 58.432 135.431 63.1399L131.86 65.2143C131.873 60.5081 130.226 55.2933 127.55 50.658C126.834 49.4156 126.044 48.2169 125.185 47.0683L128.756 44.9922C129.617 46.1407 130.407 47.34 131.123 48.5836V48.5836Z" fill="#90A8EE"/>
<path d="M117.078 39.6136C121.175 41.9786 124.874 46.0244 127.552 50.658C130.229 55.2917 131.873 60.5081 131.859 65.2144L132.219 65.4222L131.859 65.2144C131.846 69.9224 130.17 73.2215 127.482 74.7554C124.795 76.2892 121.078 76.0578 116.982 73.6928C112.885 71.3279 109.186 67.2821 106.508 62.6484C103.831 58.0148 102.187 52.8 102.201 48.092C102.214 43.3841 103.89 40.0866 106.578 38.5511C109.265 37.0155 112.983 37.2487 117.078 39.6136Z" fill="#90A8EE"/>
<path d="M128.059 50.3725L131.63 48.2964C134.438 53.148 136.167 58.6229 136.15 63.5488C136.134 68.4746 134.383 71.9461 131.562 73.5526L127.99 75.6287C130.812 74.0222 132.566 70.5609 132.579 65.6249C132.593 60.6888 130.865 55.2241 128.059 50.3725Z" fill="black"/>
<path d="M106.073 37.6743L109.646 35.5982C112.467 33.9884 116.362 34.235 120.653 36.7115C124.944 39.1879 128.829 43.4364 131.633 48.293L128.059 50.3725C125.255 45.5142 121.371 41.2691 117.079 38.7909C112.786 36.3128 108.896 36.0645 106.073 37.6743Z" fill="black"/>
<path d="M128.059 50.3725C130.861 55.2275 132.589 60.7007 132.576 65.6334C132.562 70.566 130.812 74.0223 127.989 75.6338C125.167 77.2454 121.273 76.9987 116.981 74.5189C112.688 72.0391 108.804 67.7939 106 62.939C103.196 58.084 101.468 52.6091 101.482 47.6782C101.495 42.7472 103.25 39.2808 106.071 37.6743C108.892 36.0678 112.788 36.3094 117.08 38.7876C121.373 41.2657 125.258 45.5108 128.059 50.3725ZM127.479 74.7588C130.172 73.2249 131.843 69.9258 131.856 65.2178C131.87 60.5098 130.223 55.2967 127.547 50.6614C124.871 46.0261 121.172 41.982 117.073 39.617C112.975 37.252 109.267 37.0189 106.575 38.5544C103.882 40.09 102.213 43.3857 102.203 48.092C102.193 52.7983 103.836 58.0148 106.51 62.6484C109.185 67.2821 112.887 71.3279 116.984 73.6928C121.08 76.0578 124.79 76.2892 127.484 74.7554" fill="black"/>
<path d="M77.5052 9.48385L75.1234 8.10034L76.3244 8.78449L78.7063 10.168L77.5052 9.48385Z" fill="black"/>
<path d="M58.3305 42.1086L55.9487 40.7251L74.615 8.39429L76.9952 9.77779L58.3305 42.1086Z" fill="black"/>
<path d="M76.9951 9.77777L74.6149 8.39426C74.6747 8.28431 74.762 8.19176 74.8683 8.12567C74.9049 8.09947 74.9477 8.08334 74.9925 8.07889C75.0372 8.07445 75.0824 8.08184 75.1234 8.10033L77.5052 9.49228C77.4639 9.47381 77.4185 9.46643 77.3735 9.47088C77.3285 9.47532 77.2854 9.49143 77.2485 9.51762C77.144 9.58233 77.057 9.67165 76.9951 9.77777V9.77777Z" fill="black"/>
<path d="M78.7068 10.1681L76.325 8.78458L76.3047 1.95996L78.6865 3.34347L78.7068 10.1681Z" fill="black"/>
<path d="M79.0444 2.3096L76.6625 0.926095C76.699 0.899736 76.7418 0.883507 76.7866 0.879057C76.8314 0.874607 76.8766 0.882093 76.9176 0.900756L79.2978 2.28426C79.257 2.26592 79.2122 2.2586 79.1677 2.26305C79.1232 2.26749 79.0807 2.28355 79.0444 2.3096V2.3096Z" fill="black"/>
<path d="M56.488 33.142L56.4964 33.1268L58.8783 34.5103L58.8682 34.5256L56.488 33.142Z" fill="#90A8EE"/>
<path d="M56.4879 33.1421L58.8681 34.5256C58.8086 34.6286 58.7244 34.7151 58.6231 34.7773L56.2412 33.3938C56.3427 33.3312 56.4274 33.2448 56.4879 33.1421Z" fill="#90A8EE"/>
<path d="M58.8776 34.5121L56.4958 33.1286L72.0404 6.20508L74.4222 7.58858L58.8776 34.5121Z" fill="#90A8EE"/>
<path d="M56.239 33.3971L58.6209 34.7806C58.5847 34.8064 58.5424 34.8222 58.4982 34.8263C58.454 34.8305 58.4095 34.8229 58.3692 34.8043L55.9873 33.4191C56.0275 33.4377 56.0719 33.4455 56.1161 33.4417C56.1603 33.4378 56.2026 33.4225 56.239 33.3971V33.3971Z" fill="#90A8EE"/>
<path d="M58.3678 34.8026L55.9859 33.4191L58.3678 34.8042V34.8026Z" fill="black"/>
<path d="M74.4223 7.58857L72.0405 6.20507C72.1056 6.09852 72.1417 5.97682 72.1452 5.85201C72.1502 5.80717 72.1429 5.76182 72.1241 5.72078C72.1054 5.67974 72.0759 5.64454 72.0388 5.6189L74.4206 7.0024C74.4571 7.02861 74.4859 7.06397 74.5043 7.1049C74.5227 7.14583 74.53 7.19088 74.5254 7.23552C74.5225 7.36019 74.487 7.48193 74.4223 7.58857V7.58857Z" fill="#90A8EE"/>
<path d="M58.6282 33.7722L56.2463 32.3887L71.2791 6.35205L73.6592 7.73556L58.6282 33.7722Z" fill="black"/>
<path d="M73.3771 6.40939L70.9952 5.02588L72.0392 5.61881L74.4211 7.00401L73.3771 6.40939Z" fill="black"/>
<path d="M73.3771 6.40948L70.9952 5.02597L76.3046 1.95996L78.6865 3.34347L73.3771 6.40948Z" fill="#90A8EE"/>
<path d="M72.5055 6.08347L70.1254 4.69997L76.6628 0.926147L79.0447 2.30966L72.5055 6.08347Z" fill="black"/>
<path d="M72.2549 6.93485L69.873 5.55134C69.77 5.49391 69.7379 5.33343 69.7936 5.14761C69.8485 4.96247 69.9685 4.80345 70.1315 4.69995L72.5134 6.08346C72.3506 6.18718 72.2306 6.34612 72.1755 6.53112C72.1198 6.71693 72.1434 6.87741 72.2549 6.93485Z" fill="black"/>
<path d="M25.3054 66.4205L22.9236 65.0353L25.3021 66.4205H25.3054Z" fill="black"/>
<path d="M44.0462 33.9681L41.6644 32.5846L55.9488 40.7251L58.3306 42.1087L44.0462 33.9681Z" fill="black"/>
<path d="M25.5641 65.3901L23.1839 64.0066L41.156 32.8785L43.5362 34.262L25.5641 65.3901Z" fill="black"/>
<path d="M43.5361 34.262L41.1559 32.8785C41.2162 32.7689 41.3034 32.6765 41.4093 32.6099C41.4459 32.5839 41.4887 32.5678 41.5335 32.5634C41.5782 32.559 41.6233 32.5663 41.6644 32.5846L44.0463 33.9681C44.0051 33.95 43.9599 33.943 43.9151 33.9477C43.8704 33.9525 43.8277 33.9688 43.7912 33.9951C43.6844 34.0605 43.5965 34.1524 43.5361 34.262V34.262Z" fill="black"/>
<path d="M25.5638 65.3901L23.1836 64.0066L19.8102 61.9271L22.192 63.3106L25.5638 65.3901Z" fill="#90A8EE"/>
<path d="M58.3644 34.8009L55.9826 33.4174L41.46 24.4323L43.8418 25.8158L58.3644 34.8009Z" fill="black"/>
<path d="M22.192 63.3106L19.8102 61.9271L41.4598 24.4323L43.8416 25.8158L22.192 63.3106Z" fill="#90A8EE"/>
<path d="M78.6861 3.34338L78.7063 10.168L77.5053 9.4923C77.464 9.47383 77.4186 9.46645 77.3735 9.4709C77.3285 9.47534 77.2854 9.49145 77.2485 9.51764C77.143 9.58471 77.0559 9.67703 76.9951 9.78624L58.3304 42.1086L44.046 33.968C44.0048 33.95 43.9596 33.9429 43.9149 33.9477C43.8702 33.9524 43.8274 33.9688 43.791 33.9951C43.6842 34.0604 43.5963 34.1524 43.5359 34.262L25.5655 65.39L22.187 63.3106L43.8366 25.8089L58.3642 34.7958C58.4047 34.8156 58.4499 34.8241 58.4948 34.8202C58.5398 34.8163 58.5828 34.8003 58.6193 34.7738C58.7268 34.7076 58.8157 34.6152 58.8778 34.5052L74.419 7.58175C74.4836 7.4751 74.5192 7.35336 74.522 7.22869C74.5266 7.18405 74.5194 7.139 74.501 7.09807C74.4826 7.05714 74.4537 7.02178 74.4173 6.99557L73.3733 6.40264L78.6861 3.34338Z" fill="#90A8EE"/>
<path d="M25.3019 66.4206L22.9217 65.0371L19.0499 62.6484L21.4301 64.0336L25.3019 66.4206Z" fill="black"/>
<path d="M21.4304 64.0337L19.0503 62.6485C18.9151 62.564 18.9151 62.3106 19.0503 62.0674L21.4304 63.4509C21.297 63.6891 21.297 63.9475 21.4304 64.0337Z" fill="black"/>
<path d="M21.4338 63.4508L19.0536 62.0673L41.2083 23.6923L43.5902 25.0758L21.4338 63.4508Z" fill="black"/>
<path d="M41.7201 23.4001L44.1019 24.7836C44.0604 24.7648 44.0147 24.7573 43.9693 24.7617C43.9239 24.7662 43.8805 24.7825 43.8435 24.8089C43.7372 24.8744 43.6499 24.9664 43.5901 25.0758L41.2082 23.6923C41.2685 23.5832 41.3557 23.4913 41.4616 23.4254C41.4985 23.3986 41.542 23.3821 41.5874 23.3777C41.6328 23.3732 41.6786 23.381 41.7201 23.4001V23.4001Z" fill="black"/>
<path d="M79.2979 2.28428C79.335 2.30936 79.3647 2.34386 79.384 2.38425C79.4033 2.42463 79.4115 2.46943 79.4077 2.51402L79.4314 10.7509C79.4209 10.9409 79.3423 11.1208 79.2101 11.2576C78.9803 11.4266 78.8874 11.4266 78.8182 11.3945L77.2522 10.5059L58.5859 42.8384C58.526 42.9479 58.4387 43.0399 58.3325 43.1053C58.2961 43.1318 58.2532 43.1482 58.2084 43.1526C58.1635 43.1571 58.1183 43.1495 58.0774 43.1307L43.7947 35.0002L25.8159 66.13C25.7556 66.2391 25.6683 66.331 25.5625 66.3969C25.5251 66.4236 25.4813 66.4398 25.4356 66.444C25.3899 66.4481 25.3439 66.44 25.3023 66.4205L21.4305 64.0336C21.2954 63.9474 21.2971 63.6957 21.4305 63.4508L43.5953 25.0758C43.6552 24.9663 43.7425 24.8744 43.8487 24.8089C43.8859 24.7819 43.9298 24.7654 43.9756 24.7613C44.0214 24.7571 44.0674 24.7654 44.1089 24.7853L58.6365 33.7721L73.6642 7.73553L72.2605 6.93482C72.1557 6.87739 72.1253 6.71691 72.1794 6.53109C72.2345 6.34609 72.3544 6.18716 72.5172 6.08344L79.0547 2.30962C79.0898 2.28536 79.1306 2.27033 79.1731 2.2659C79.2156 2.26147 79.2585 2.26779 79.2979 2.28428V2.28428ZM78.7067 10.1681L78.6864 3.34345L73.3771 6.40946L74.421 7.00239C74.4574 7.02861 74.4863 7.06396 74.5047 7.10489C74.5231 7.14582 74.5303 7.19088 74.5258 7.23551C74.5229 7.36019 74.4873 7.48192 74.4227 7.58857L58.8815 34.512C58.8202 34.6205 58.7332 34.7121 58.6281 34.7789C58.5909 34.806 58.5471 34.8224 58.5013 34.8266C58.4555 34.8308 58.4094 34.8225 58.368 34.8026L43.8403 25.8157L22.1907 63.3173L25.5692 65.3968L43.5362 34.262C43.5967 34.1524 43.6846 34.0605 43.7913 33.9951C43.8278 33.9688 43.8705 33.9525 43.9153 33.9477C43.96 33.943 44.0052 33.95 44.0464 33.9681L58.3308 42.1086L76.9955 9.77785C77.0563 9.66865 77.1434 9.57633 77.2488 9.50926C77.2857 9.48307 77.3288 9.46696 77.3739 9.46251C77.4189 9.45807 77.4643 9.46545 77.5056 9.48392L78.7067 10.1596" fill="black"/>
<path d="M68.6092 77.5781L68.5957 81.7084C68.2638 81.5333 67.8931 81.4449 67.5179 81.4516C67.1443 81.4445 66.7751 81.5329 66.4453 81.7084L66.4571 77.5781C66.7904 77.4093 67.1587 77.3214 67.5323 77.3214C67.9059 77.3214 68.2742 77.4093 68.6075 77.5781H68.6092Z" fill="black"/>
<path d="M99.3 95.2968L99.2882 99.4271L68.5976 81.7084L68.6094 77.5781L99.3 95.2968Z" fill="black"/>
<path d="M66.4592 77.5781L66.4473 81.7084L35.9561 99.4288L35.968 95.2968L66.4592 77.5781Z" fill="black"/>
<path d="M99.746 95.9201L99.7342 100.05C99.7342 99.824 99.5838 99.5993 99.2882 99.4287L99.3 95.2968C99.5957 95.4758 99.7443 95.692 99.746 95.9201Z" fill="black"/>
<path d="M35.9676 95.2968L35.9557 99.4287C35.6601 99.5976 35.5148 99.824 35.5165 100.05L35.5284 95.9201C35.5267 95.6937 35.6719 95.4758 35.9676 95.2968Z" fill="black"/>
<path d="M99.2946 100.674C99.2946 99.2976 99.2986 97.9202 99.3064 96.5418C99.6004 96.3729 99.7457 96.1465 99.7457 95.9202V97.9844V100.05C99.7338 100.278 99.5885 100.503 99.2946 100.674Z" fill="#90A8EE"/>
<path d="M35.9625 100.674C35.6652 100.505 35.5165 100.278 35.5165 100.05C35.5165 98.8122 35.5165 97.1601 35.5283 95.9202C35.5283 97.2975 35.5244 98.6737 35.5165 100.049C35.5165 98.6737 35.5205 97.2975 35.5283 95.9202C35.5283 96.1482 35.677 96.3712 35.9743 96.5418C35.9709 97.7817 35.9659 99.4338 35.9625 100.674Z" fill="#90A8EE"/>
<path d="M100.76 95.9202L100.748 100.052C100.748 100.425 100.505 100.804 100.015 101.089L100.027 96.9574C100.523 96.6719 100.761 96.2952 100.76 95.9202Z" fill="black"/>
<path d="M35.2599 96.9574L35.2481 101.089C34.7532 100.804 34.5031 100.425 34.5031 100.052L34.5133 95.9202C34.515 96.2952 34.765 96.6719 35.2599 96.9574Z" fill="black"/>
<path d="M99.3064 96.5417L99.2945 100.674L68.8033 118.392L68.8152 114.262L99.3064 96.5417Z" fill="#90A8EE"/>
<path d="M66.6649 114.262L66.6531 118.392L35.9626 100.674L35.9744 96.5435L66.6649 114.262Z" fill="#90A8EE"/>
<path d="M68.8039 118.392C68.4745 118.569 68.105 118.658 67.7313 118.649C67.7313 117.272 67.7352 115.895 67.7431 114.519C68.1167 114.526 68.486 114.438 68.8158 114.262C68.8124 115.502 68.8073 117.154 68.8039 118.392Z" fill="#90A8EE"/>
<path d="M67.7313 118.649C67.7313 117.272 67.7352 115.895 67.7431 114.519C67.7386 115.901 67.7346 117.277 67.7313 118.649Z" fill="#90A8EE"/>
<path d="M99.3002 95.2968C99.5958 95.4657 99.7445 95.6921 99.7461 95.9201C99.7478 96.1482 99.6009 96.3712 99.3069 96.5418L68.8157 114.262C68.4824 114.431 68.1141 114.519 67.7405 114.519C67.3669 114.519 66.9986 114.431 66.6653 114.262L35.9748 96.5418C35.6774 96.3728 35.5288 96.1482 35.5288 95.9201C35.5288 95.6921 35.6724 95.4691 35.968 95.2968L66.4592 77.5781C66.7925 77.4093 67.1608 77.3214 67.5344 77.3214C67.908 77.3214 68.2763 77.4093 68.6096 77.5781L99.3002 95.2968Z" fill="#90A8EE"/>
<path d="M66.6533 118.392C66.6533 117.015 66.6573 115.638 66.6651 114.262C66.996 114.438 67.3665 114.527 67.7412 114.519C67.7412 115.895 67.7373 117.272 67.7294 118.649C67.3546 118.658 66.984 118.569 66.6533 118.392Z" fill="#90A8EE"/>
<path d="M100.026 96.9573L100.015 101.089L69.5234 118.808L69.5353 114.678L100.026 96.9573Z" fill="black"/>
<path d="M65.9507 114.678L65.9389 118.808L35.2484 101.089L35.2602 96.9573L65.9507 114.678Z" fill="black"/>
<path d="M100.759 95.9201C100.759 96.2951 100.516 96.6718 100.026 96.9573L69.5347 114.678C68.9793 114.96 68.3653 115.107 67.7424 115.107C67.1195 115.107 66.5054 114.96 65.9501 114.678L35.2596 96.9573C34.7646 96.6718 34.5146 96.2951 34.5129 95.9201C34.5112 95.5451 34.7562 95.1684 35.2477 94.8812L65.7389 77.1625C66.2943 76.8815 66.908 76.7351 67.5304 76.7351C68.1528 76.7351 68.7665 76.8815 69.3218 77.1625L100.016 94.8829C100.507 95.1684 100.757 95.5451 100.759 95.9201ZM68.8151 114.262L99.3062 96.5417C99.6002 96.3728 99.7455 96.1465 99.7455 95.9201C99.7455 95.6937 99.5951 95.4674 99.2995 95.2968L68.609 77.5781C68.2757 77.4093 67.9073 77.3214 67.5338 77.3214C67.1602 77.3214 66.7918 77.4093 66.4585 77.5781L35.9674 95.2968C35.6717 95.4657 35.5265 95.6937 35.5281 95.9201C35.5298 96.1465 35.6768 96.3711 35.9741 96.5417L66.6646 114.262C66.9979 114.431 67.3663 114.519 67.7398 114.519C68.1134 114.519 68.4818 114.431 68.8151 114.262Z" fill="black"/>
<path d="M69.5354 114.678L69.5236 118.808C68.9682 119.09 68.3542 119.237 67.7313 119.237C67.1084 119.237 66.4943 119.09 65.939 118.808L65.9508 114.678C66.5061 114.96 67.1202 115.107 67.7431 115.107C68.366 115.107 68.9801 114.96 69.5354 114.678V114.678Z" fill="black"/>
<path d="M61.4164 88.06L61.4249 85.3064C61.4243 85.1518 61.4328 84.9972 61.4502 84.8436C61.4752 84.6345 61.5233 84.4288 61.5938 84.2303L61.5853 86.9839C61.5157 87.1832 61.4676 87.3893 61.4417 87.5988C61.4252 87.752 61.4167 87.9059 61.4164 88.06Z" fill="black"/>
<path d="M67.351 85.5497L67.3425 88.3032C67.1388 88.1463 66.9249 88.003 66.7023 87.8741C66.4066 87.7033 66.0962 87.5591 65.7749 87.4434C64.7052 87.0591 63.5708 86.887 62.4352 86.9366C62.067 86.9501 61.7815 86.9687 61.5906 86.9856L61.5991 84.2321C61.795 84.2152 62.0805 84.1949 62.4437 84.1831C63.5793 84.1328 64.7138 84.305 65.7834 84.6899C66.1045 84.8048 66.4143 84.949 66.7091 85.1206C66.9325 85.2489 67.147 85.3923 67.351 85.5497V85.5497Z" fill="black"/>
<path d="M69.2755 86.32L69.267 89.0735L68.0964 88.8201L68.1048 86.0667L69.2755 86.32Z" fill="black"/>
<path d="M61.4806 89.1293C61.4468 88.7915 61.4164 88.408 61.4164 88.06L61.4249 85.3065C61.4277 85.6638 61.4491 86.0207 61.489 86.3758C61.4857 87.1985 61.4823 88.3033 61.4806 89.1293Z" fill="white"/>
<path d="M67.3512 85.5497L67.3427 88.3032C66.6525 88.4367 65.9797 88.6487 65.3376 88.935C64.0909 89.4671 62.6348 90.7493 62.5739 90.8033V88.0481C62.6348 87.9941 64.0943 86.7119 65.3376 86.1798C65.9827 85.894 66.6583 85.6826 67.3512 85.5497Z" fill="white"/>
<path d="M68.1042 86.0666V88.8201C67.9961 88.8201 67.3069 88.8202 65.9488 89.408C65.6761 89.5287 65.4129 89.6699 65.1616 89.8303L65.17 87.0751C65.4218 86.9154 65.6849 86.7742 65.9572 86.6528C67.3052 86.0734 67.9961 86.065 68.1042 86.0666Z" fill="black"/>
<path d="M61.481 89.1292C61.481 89.0329 61.481 88.9046 61.481 88.8066V88.4687C61.481 88.3623 61.481 88.2204 61.481 88.114V86.3774C61.5787 87.1183 61.7554 87.8466 62.008 88.5498L61.9996 91.3033C61.7497 90.5992 61.5758 89.8703 61.481 89.1292V89.1292Z" fill="white"/>
<path d="M61.4894 86.3758C61.4248 85.8676 61.4118 85.3543 61.4505 84.8436C61.4755 84.6345 61.5237 84.4288 61.5941 84.2304C61.7901 84.2135 62.0756 84.1932 62.4387 84.1814C63.5744 84.1311 64.7089 84.3033 65.7784 84.6882C66.0995 84.8031 66.4094 84.9473 66.7041 85.1189C66.9276 85.2472 67.1421 85.3906 67.3461 85.548C66.6575 85.6841 65.9865 85.8978 65.346 86.1849C64.0993 86.717 62.6432 87.9991 62.5823 88.0532L62.008 88.5499C61.7581 87.8457 61.5842 87.1169 61.4894 86.3758V86.3758Z" fill="white"/>
<path d="M62.5825 88.0481L62.574 90.8033L62.0081 91.305L62.0149 88.5498L62.5825 88.0481Z" fill="white"/>
<path d="M60.4044 88.0599V85.3047C60.4044 85.6679 60.4348 86.053 60.4686 86.4061C60.5766 87.2297 60.7778 88.0384 61.0683 88.8167L61.0598 91.5702C60.7701 90.7918 60.5695 89.9831 60.4618 89.1596C60.4239 88.7943 60.4047 88.4272 60.4044 88.0599V88.0599Z" fill="black"/>
<path d="M62.1818 89.006L62.1733 91.7595L62.1429 91.6751L62.1497 88.9215L62.1818 89.006Z" fill="white"/>
<path d="M63.3001 88.4502L63.2916 91.2037L62.1429 91.675L62.1497 88.9215L63.3001 88.4502Z" fill="black"/>
<path d="M62.1819 89.006L62.1735 91.7595L61.9707 91.8744L61.9775 89.1209L62.1819 89.006Z" fill="black"/>
<path d="M53.1412 89.4486V92.2021L52.9959 92.2545V89.501C53.0398 89.4858 53.0905 89.4689 53.1412 89.4486Z" fill="black"/>
<path d="M57.8372 89.9266L57.8288 92.6817C57.1531 92.3861 55.9435 91.9435 55.0449 91.9368C53.8624 91.9368 53.4249 92.0939 53.1343 92.202V89.4485C53.4265 89.3404 53.8691 89.1748 55.0449 89.1833C55.952 89.1884 57.1615 89.6326 57.8372 89.9266Z" fill="black"/>
<path d="M51.1003 89.9215L51.0919 92.675L51.0294 92.5196L51.0378 89.7661L51.1003 89.9215Z" fill="black"/>
<path d="M52.9956 89.5009V92.2543C52.7049 92.3849 52.4228 92.5338 52.151 92.7003V89.9451C52.4227 89.779 52.7048 89.6306 52.9956 89.5009V89.5009Z" fill="black"/>
<path d="M59.2106 89.8253L59.2038 92.5788L58.9048 92.8001L58.9133 90.0466L59.2106 89.8253Z" fill="black"/>
<path d="M57.3908 93.1751C57.3908 92.2584 57.3936 91.3405 57.3993 90.4216C57.5335 90.2467 57.6797 90.0813 57.8368 89.9266L57.8283 92.6818C57.6716 92.8363 57.5255 93.0011 57.3908 93.1751V93.1751Z" fill="white"/>
<path d="M56.7712 94.2088C56.7712 93.2899 56.7712 92.3715 56.7712 91.4536C56.9421 91.0876 57.1529 90.7414 57.3996 90.4215C57.3996 91.3405 57.3968 92.2583 57.3912 93.175C57.1474 93.4959 56.9395 93.8426 56.7712 94.2088Z" fill="white"/>
<path d="M56.386 95.4268C56.386 94.5078 56.386 93.5894 56.386 92.6716C56.4121 92.4583 56.4602 92.2482 56.5296 92.0449C56.5971 91.8436 56.6754 91.6463 56.7644 91.4536C56.7644 92.3726 56.7644 93.291 56.7644 94.2088C56.6747 94.4006 56.5963 94.5975 56.5296 94.7984C56.46 95.0023 56.4119 95.2129 56.386 95.4268V95.4268Z" fill="white"/>
<path d="M58.9128 90.0465L58.9044 92.8C58.2582 93.3633 57.7801 94.094 57.5226 94.9116C57.451 95.1215 57.4051 95.3393 57.3857 95.5603L57.3942 92.8068C57.4134 92.5858 57.4593 92.368 57.531 92.1581C57.788 91.3402 58.2662 90.6094 58.9128 90.0465V90.0465Z" fill="black"/>
<path d="M83.1741 92.9875V95.7427C83.1741 94.1869 82.1977 92.702 80.4814 91.7138C77.9475 90.2542 74.1011 89.4265 70.6584 89.6005C70.6127 89.6005 67.4031 89.7221 65.0838 90.5245C64.3067 90.7914 63.3134 91.2002 63.3033 91.2002V88.4467C63.3134 88.4467 64.3067 88.0346 65.0821 87.771C67.4082 86.9669 70.6178 86.8487 70.6567 86.847C74.0977 86.6781 77.9526 87.5007 80.478 88.9586C82.1994 89.9502 83.1792 91.4334 83.1741 92.9875Z" fill="black"/>
<path d="M56.3862 95.4268C56.373 95.5356 56.3662 95.645 56.366 95.7546V93.0011C56.3659 92.8881 56.3726 92.7753 56.3862 92.6632C56.3896 93.5878 56.3896 94.509 56.3862 95.4268Z" fill="white"/>
<path d="M83.1678 95.7411C83.1672 95.8867 83.1582 96.0323 83.1407 96.1769V93.4217C83.1576 93.2776 83.166 93.1326 83.1661 92.9875C83.1729 93.8136 83.1695 94.915 83.1678 95.7411Z" fill="white"/>
<path d="M84.1882 92.9926V95.7461C84.1873 95.9042 84.1771 96.0621 84.1578 96.2191L84.1662 93.4639C84.1828 93.3073 84.1901 93.15 84.1882 92.9926Z" fill="black"/>
<path d="M83.1405 96.1768C83.1008 96.4804 83.023 96.7778 82.9091 97.062C82.9091 96.143 82.9091 95.2246 82.9091 94.3068C83.0216 94.0222 83.0993 93.7249 83.1405 93.4216C83.1455 94.2477 83.1421 95.3491 83.1405 96.1768Z" fill="white"/>
<path d="M61.9779 89.1208V91.8743C61.961 91.8845 60.2717 92.8423 59.1382 94.3863C58.0047 95.9303 57.9388 97.334 57.9388 97.334V94.5789C57.9388 94.5653 57.9963 93.1734 59.1315 91.6277C60.2666 90.082 61.9627 89.1293 61.9779 89.1208Z" fill="black"/>
<path d="M56.366 95.7546V93.0011C56.3598 93.6299 56.5805 94.2399 56.9876 94.7191V97.4726C56.5793 96.9941 56.3584 96.3837 56.366 95.7546V95.7546Z" fill="black"/>
<path d="M57.9469 94.5856L57.9384 97.3391L57.9029 98.4354L57.9114 95.6819L57.9469 94.5856Z" fill="black"/>
<path d="M57.911 95.6819L57.9025 98.4354L56.9869 97.4725L56.9937 94.719L57.911 95.6819Z" fill="black"/>
<path d="M53.335 95.3322C52.9161 94.5636 52.3333 93.1649 52.1424 92.7004V89.9452C52.335 90.4114 52.9161 91.8034 53.335 92.5787C53.8418 93.4926 55.0834 95.3255 55.1527 95.4201C55.9422 96.4515 56.855 97.3824 57.8707 98.1922C57.8707 99.1111 57.8679 100.029 57.8622 100.946C56.8497 100.137 55.9398 99.2079 55.1527 98.1786C55.0817 98.079 53.8333 96.2478 53.335 95.3322Z" fill="white"/>
<path d="M57.8692 100.946C57.8692 100.029 57.872 99.1111 57.8776 98.1921C58.5486 98.7341 59.2602 99.2238 60.0061 99.6567C60.5606 99.9749 61.1396 100.248 61.7376 100.474C61.7376 101.391 61.7376 102.309 61.7376 103.228C61.1399 103.001 60.5609 102.728 60.0061 102.41C59.2571 101.978 58.5427 101.488 57.8692 100.946V100.946Z" fill="white"/>
<path d="M70.0234 104.155C70.0234 103.239 70.0234 102.321 70.0234 101.402C72.608 101.131 75.7298 100.388 78.24 98.927C81.3246 97.1347 82.4817 95.4167 82.9108 94.3069C82.9108 95.2258 82.9108 96.1442 82.9108 97.0621C82.4817 98.1702 81.3263 99.8882 78.24 101.682C75.7281 103.14 72.608 103.887 70.0234 104.155Z" fill="white"/>
<path d="M61.7291 103.228C61.7291 102.311 61.7291 101.393 61.7291 100.474C63.7834 101.226 65.9617 101.58 68.1483 101.518C68.7243 101.518 69.3578 101.471 70.0267 101.402C70.0267 102.318 70.0267 103.236 70.0267 104.155C69.351 104.225 68.7243 104.263 68.1466 104.274C65.9605 104.334 63.7828 103.979 61.7291 103.228V103.228Z" fill="white"/>
<path d="M83.1488 93.4217C83.0441 94.2815 82.3599 96.5367 78.2499 98.927C75.0893 100.763 70.9625 101.471 68.1549 101.518C65.0754 101.572 62.1833 100.91 60.0093 99.6602C58.1347 98.5751 56.4887 97.1362 55.1628 95.4235C55.0935 95.3289 53.8451 93.496 53.3451 92.5821C52.9262 91.8118 52.3451 90.4148 52.1525 89.9486C52.4242 89.7825 52.7063 89.6341 52.9971 89.5043C53.041 89.4891 53.0917 89.4722 53.1424 89.4519C53.4346 89.3438 53.8772 89.1783 55.053 89.1867C55.9533 89.1867 57.1629 89.6361 57.8386 89.93C57.245 90.5245 56.7995 91.2501 56.5378 92.0483C56.0006 93.6498 56.9568 94.6802 56.9956 94.7224L57.9129 95.6853L57.9484 94.5873C57.9484 94.5738 58.0058 93.1818 59.141 91.6362C60.2762 90.0905 61.9637 89.1327 61.9789 89.1242L62.1833 89.0093L62.1513 88.9249L63.3016 88.4536C63.3118 88.4536 64.3051 88.0414 65.0804 87.7779C67.4066 86.9738 70.6162 86.8555 70.655 86.8538C74.096 86.6849 77.9509 87.5076 80.4764 88.9654C82.3582 90.0432 83.3549 91.7122 83.1488 93.4217Z" fill="white"/>
<path d="M84.1588 93.4639C83.924 95.4184 82.0303 97.5621 78.9643 99.3426C75.5959 101.3 71.1937 102.054 68.1851 102.106C64.8235 102.164 61.6663 101.442 59.2912 100.079C57.33 98.9494 55.6122 97.4422 54.2369 95.6448C54.1913 95.5823 52.9074 93.7038 52.3787 92.746C51.85 91.7882 51.1303 89.9908 51.1016 89.9148L51.0391 89.7594L51.2283 89.6462C51.6302 89.394 52.051 89.1732 52.4868 88.9857L52.5932 88.9468C52.9395 88.8185 53.5798 88.5803 55.0613 88.5887C56.7505 88.6005 58.7591 89.6023 58.8452 89.6361L59.2118 89.8185L58.9145 90.0398C58.2678 90.6027 57.7896 91.3335 57.5326 92.1514C57.4609 92.3613 57.415 92.5791 57.3958 92.8001C57.6118 92.3023 57.8838 91.8307 58.2067 91.3946C58.9993 90.3661 59.9724 89.4903 61.0784 88.81C60.788 88.0318 60.5868 87.2231 60.4787 86.3994C60.4128 85.8671 60.4004 85.3295 60.4416 84.7946C60.4778 84.4807 60.5622 84.1742 60.6916 83.8858L60.7743 83.7169L61.0666 83.6797C61.0852 83.6797 61.5446 83.6172 62.3775 83.5868C63.7162 83.5274 65.0537 83.7293 66.3151 84.1814C66.7019 84.3203 67.0756 84.4933 67.4317 84.6984C67.8844 84.9506 68.299 85.2657 68.6632 85.6342L69.2781 86.3099L68.1074 86.0565C67.9993 86.0565 67.3084 86.0565 65.9519 86.6427C65.6796 86.7641 65.4165 86.9052 65.1647 87.065C67.6007 86.3606 70.4555 86.2559 70.5856 86.2508C74.302 86.0616 78.4694 86.9586 81.1992 88.5347C83.277 89.7476 84.3852 91.5906 84.1588 93.4639ZM68.1513 101.518C70.9589 101.471 75.0858 100.763 78.2464 98.927C82.3597 96.5367 83.0439 94.2815 83.1452 93.4217C83.3513 91.7122 82.3547 90.0432 80.4779 88.9587C77.9525 87.5008 74.0976 86.6714 70.6565 86.8471C70.6109 86.8471 67.4013 86.967 65.082 87.7711C64.3066 88.038 63.3133 88.4468 63.3032 88.4468L62.1528 88.9181L62.1849 89.0026L61.9805 89.1175C61.9653 89.1175 60.276 90.0854 59.1425 91.6294C58.009 93.1734 57.9533 94.5704 57.9533 94.5839L57.9178 95.6819L57.0005 94.7191C56.9617 94.6768 56.0056 93.6464 56.5427 92.045C56.8044 91.2467 57.2499 90.5211 57.8435 89.9266C57.1678 89.6327 55.9583 89.1884 55.0579 89.1833C53.8754 89.1833 53.4396 89.3404 53.1473 89.4486C53.0966 89.4688 53.046 89.4857 53.002 89.5009C52.7112 89.6307 52.4291 89.7791 52.1574 89.9452C52.35 90.4114 52.9311 91.8034 53.35 92.5788C53.8568 93.4927 55.0984 95.3255 55.1677 95.4201C56.4936 97.1328 58.1396 98.5717 60.0142 99.6568C62.1883 100.91 65.082 101.572 68.1598 101.515L68.1513 101.518ZM62.5819 88.0431C62.6427 87.989 64.1022 86.7069 65.3455 86.1748C65.9879 85.8896 66.6606 85.6783 67.3506 85.5447C67.1467 85.3872 66.9322 85.2439 66.7087 85.1156C66.414 84.944 66.1041 84.7998 65.783 84.6848C64.7134 84.2999 63.5789 84.1278 62.4433 84.1781C62.0751 84.1899 61.7896 84.2102 61.5987 84.2271C61.5283 84.4255 61.4801 84.6312 61.4551 84.8403C61.4164 85.351 61.4294 85.8643 61.494 86.3724C61.5869 87.1145 61.7591 87.8445 62.0075 88.5499L62.5751 88.0431" fill="black"/>
<path d="M84.1591 93.464L84.1506 96.2192C83.9158 98.1736 82.0222 100.316 78.9579 102.096C75.5878 104.054 71.1872 104.799 68.177 104.86C64.817 104.919 61.6581 104.196 59.2847 102.833C57.3205 101.708 55.5982 100.205 54.2169 98.4118C54.1713 98.351 52.8875 96.4725 52.3587 95.5147C51.83 94.5569 51.112 92.7579 51.0816 92.6819L51.0901 89.9283C51.1188 90.0044 51.8486 91.8102 52.3672 92.7596C52.8858 93.7089 54.173 95.5958 54.2254 95.6583C55.6061 97.4517 57.3285 98.9536 59.2931 100.077C61.6682 101.449 64.8255 102.17 68.1871 102.105C71.1889 102.052 75.5979 101.299 78.9663 99.3409C82.0306 97.5621 83.9243 95.4185 84.1591 93.464Z" fill="black"/>
<path d="M125.078 58.3458C125.111 58.6307 125.127 58.9172 125.127 59.204C125.139 60.2198 124.89 61.2217 124.406 62.1146C123.964 62.925 123.28 63.5775 122.45 63.9812C121.525 64.4069 120.485 64.5133 119.493 64.2836C118.743 64.1195 118.022 63.8391 117.358 63.4525C117.191 63.3578 117.028 63.2546 116.872 63.1434C116.71 63.0186 116.601 62.8378 116.566 62.6366C116.512 62.2821 116.486 61.9241 116.486 61.5656C116.479 60.651 116.688 59.7476 117.095 58.9286C117.476 58.1561 118.075 57.5122 118.819 57.0766C119.562 56.641 120.417 56.4327 121.277 56.4775C122.231 56.5253 123.159 56.8047 123.98 57.2917C124.257 57.4524 124.523 57.6313 124.776 57.8272C124.938 57.9556 125.046 58.1409 125.078 58.3458V58.3458ZM123.76 61.3865C124.193 60.5917 124.415 59.6999 124.407 58.7952C124.407 58.6584 124.407 58.5215 124.396 58.3847C124.26 58.2918 124.125 58.2056 123.985 58.1246C123.254 57.694 122.429 57.4482 121.581 57.4083C120.795 57.3693 120.014 57.5603 119.334 57.9577C118.654 58.3552 118.105 58.9421 117.753 59.6466C117.392 60.3713 117.206 61.1711 117.211 61.9811C117.21 62.1712 117.218 62.3612 117.237 62.5504C117.275 62.5758 117.319 62.6011 117.365 62.6281C117.959 62.9722 118.603 63.2224 119.274 63.3697C120.176 63.5774 121.122 63.4799 121.963 63.0927C122.726 62.7226 123.354 62.1238 123.76 61.3798" fill="black"/>
<path d="M123.986 58.1178C124.126 58.1989 124.261 58.2867 124.396 58.3779C124.396 58.5148 124.408 58.6516 124.408 58.7884C124.416 59.6931 124.193 60.5849 123.761 61.3798C123.355 62.1238 122.726 62.7226 121.964 63.0927C121.122 63.4799 120.177 63.5774 119.274 63.3697C118.602 63.2229 117.956 62.9727 117.36 62.6281C117.315 62.6011 117.271 62.5758 117.232 62.5504C117.213 62.3612 117.205 62.1712 117.207 61.9811C117.203 61.1707 117.39 60.3709 117.754 59.6466C118.105 58.94 118.655 58.3512 119.336 57.9524C120.016 57.5536 120.799 57.3622 121.587 57.4015C122.433 57.4422 123.256 57.6881 123.986 58.1178V58.1178Z" fill="black"/>
<path d="M108.848 49.5144C109.818 50.1147 110.687 50.865 111.422 51.7375C112.34 52.7914 113.14 53.9431 113.806 55.1718C114.508 56.4305 115.04 57.7767 115.387 59.1753C115.583 59.9539 115.687 60.7527 115.696 61.5555C115.696 61.6078 115.696 61.6568 115.696 61.7008C115.533 61.6278 115.374 61.5454 115.22 61.4541C114.361 60.9254 113.587 60.2705 112.923 59.5115C112.082 58.5759 111.339 57.5571 110.705 56.4708C110.032 55.3372 109.481 54.1356 109.061 52.8862C108.708 51.8893 108.514 50.8434 108.485 49.7864C108.484 49.6335 108.492 49.4807 108.507 49.3286C108.613 49.3844 108.73 49.4469 108.848 49.5144Z" fill="black"/>
<path d="M116.064 59.3154C116.281 60.1837 116.394 61.0744 116.402 61.9693C116.403 62.1509 116.394 62.3325 116.375 62.5132C116.376 62.5477 116.368 62.5818 116.352 62.6123C116.336 62.6428 116.312 62.6686 116.283 62.6873C116.254 62.706 116.221 62.7169 116.186 62.7189C116.152 62.721 116.117 62.7141 116.086 62.699C115.777 62.5865 115.479 62.4463 115.196 62.2801C114.226 61.6858 113.352 60.9483 112.603 60.0925C111.684 59.0715 110.873 57.9592 110.181 56.7731C109.447 55.5362 108.846 54.2254 108.388 52.8624C107.993 51.7391 107.776 50.561 107.745 49.3707C107.745 49.0772 107.767 48.7841 107.812 48.494C107.813 48.459 107.824 48.4249 107.842 48.3949C107.86 48.365 107.886 48.3404 107.916 48.3234C107.947 48.3063 107.982 48.2976 108.017 48.2979C108.052 48.2982 108.086 48.3075 108.116 48.3251C108.369 48.4275 108.615 48.5472 108.851 48.6832C109.804 49.2339 110.794 50.0971 111.738 51.1681C112.739 52.3169 113.61 53.5722 114.336 54.9115C115.105 56.2964 115.686 57.7774 116.064 59.3154V59.3154ZM115.686 61.7007C115.686 61.6567 115.686 61.6078 115.686 61.5554C115.68 60.7531 115.58 59.9543 115.389 59.1752C115.041 57.7766 114.509 56.4304 113.807 55.1717C113.141 53.943 112.342 52.7913 111.424 51.7374C110.689 50.8649 109.82 50.1146 108.849 49.5143C108.731 49.4467 108.615 49.3842 108.5 49.3285C108.485 49.4806 108.477 49.6334 108.478 49.7863C108.507 50.8433 108.701 51.8892 109.054 52.8861C109.474 54.1355 110.025 55.3371 110.697 56.4707C111.332 57.557 112.075 58.5758 112.915 59.5114C113.582 60.2709 114.358 60.9258 115.22 61.454C115.375 61.5455 115.536 61.6279 115.701 61.7007" fill="black"/>
<path d="M41.7419 15.0027C43.1413 15.0027 44.2758 13.8683 44.2758 12.4688C44.2758 11.0694 43.1413 9.93494 41.7419 9.93494C40.3425 9.93494 39.208 11.0694 39.208 12.4688C39.208 13.8683 40.3425 15.0027 41.7419 15.0027Z" fill="black"/>
<path d="M115.518 12.4642L114.141 11.087C113.697 10.643 112.977 10.643 112.533 11.087L111.156 12.4642C110.712 12.9082 110.712 13.628 111.156 14.072L112.533 15.4492C112.977 15.8932 113.697 15.8932 114.141 15.4492L115.518 14.072C115.962 13.628 115.962 12.9082 115.518 12.4642Z" fill="black"/>
<path d="M15.2203 102C16.6197 102 17.7542 100.865 17.7542 99.4659C17.7542 98.0665 16.6197 96.932 15.2203 96.932C13.8208 96.932 12.6864 98.0665 12.6864 99.4659C12.6864 100.865 13.8208 102 15.2203 102Z" fill="black"/>
<path d="M127.388 8.92137C128.041 8.92137 128.57 8.39195 128.57 7.73888C128.57 7.08581 128.041 6.5564 127.388 6.5564C126.735 6.5564 126.205 7.08581 126.205 7.73888C126.205 8.39195 126.735 8.92137 127.388 8.92137Z" fill="black"/>
<path d="M10.9296 30.5868L9.55231 29.2095C9.10833 28.7656 8.3885 28.7656 7.94452 29.2095L6.56727 30.5868C6.1233 31.0308 6.1233 31.7506 6.56727 32.1946L7.94452 33.5718C8.3885 34.0158 9.10833 34.0158 9.55231 33.5718L10.9296 32.1946C11.3735 31.7506 11.3735 31.0308 10.9296 30.5868Z" fill="black"/>
<path d="M15.6431 17.5366C16.3428 17.5366 16.91 16.9693 16.91 16.2696C16.91 15.5699 16.3428 15.0027 15.6431 15.0027C14.9433 15.0027 14.3761 15.5699 14.3761 16.2696C14.3761 16.9693 14.9433 17.5366 15.6431 17.5366Z" fill="black"/>
</svg>
