<?xml version="1.0" encoding="UTF-8"?>
<svg width="293px" height="293px" viewBox="0 0 293 293" version="1.1" xmlns="http://www.w3.org/2000/svg" xmlns:xlink="http://www.w3.org/1999/xlink">
    <title>logo_icon</title>
    <defs>
        <polygon id="path-1" points="1.07901814e-14 0 200 0 200 215 1.07901814e-14 215"></polygon>
    </defs>
    <g id="logo_icon" stroke="none" stroke-width="1" fill="none" fill-rule="evenodd">
        <g id="Group-16" transform="translate(46.000000, 39.000000)">
            <g id="Group-3" transform="translate(0.000000, 0.000000)">
                <mask id="mask-2" fill="white">
                    <use xlink:href="#path-1"></use>
                </mask>
                <g id="Clip-2"></g>
                <path d="M196.105776,111.384049 C184.64503,74.9811783 152.924108,50.0341275 116.283737,45.1659039 C151.3463,37.1357571 163.441814,50.0764198 163.441814,50.0764198 C171.508527,14.7600757 143.581785,-0.000692055166 143.581785,-0.000692055166 C126.538728,10.6615712 110.355189,33.6370338 103.416024,44.3092934 C62.5433613,44.2347052 34.2491224,71.7177538 34.2491224,71.7177538 C42.7250935,46.4785019 80.1657581,36.5613513 80.1657581,36.5613513 C77.8613083,-3.03035578 46.0895142,2.81981722 46.0895142,2.81981722 C46.0895142,2.81981722 -35.767426,117.179627 18.6973136,179.050127 C61.6291744,227.819255 132.12028,219.313897 164.904969,198.290799 C188.455154,183.188617 208.777592,151.633977 196.105776,111.384049" id="Fill-1" fill="#7CC6DC" mask="url(#mask-2)"></path>
            </g>
            <path d="M116.767937,59.0097754 C115.047382,58.1139485 116.064074,55.4679909 117.930412,55.9808807 C143.624078,63.0506087 197.015179,86.0214575 182.04271,152.982409 C177.11263,175.030517 157.667934,194.055883 132.836823,197.212423 C102.712692,201.041795 80.7562591,188.800877 81.8481203,171.998547 C84.7767077,126.903463 164.171265,178.733781 158.002022,112.68865 C155.595827,86.9326635 146.309692,74.3872412 116.767937,59.0097754" id="Fill-4" fill="#446670" opacity="0.150076003"></path>
            <path d="M63.1133615,115.787442 C63.1338623,115.79667 63.2037172,115.867413 63.2705348,115.932774 L63.4763028,116.131163 C63.6236054,116.268805 63.7617964,116.407216 63.9220069,116.544089 C64.2226864,116.825525 64.5408295,117.099271 64.8635284,117.369173 C65.1824309,117.639843 65.524112,117.894366 65.8475702,118.160423 L66.868058,118.902459 C68.2454128,119.868261 69.7100861,120.666431 71.1998161,121.327728 C74.1861096,122.664933 77.3607074,123.248566 80.5618805,123.177822 C80.9498784,123.192433 81.3902675,123.15014 81.8192672,123.121689 L83.1077849,123.035567 C83.9581914,122.916379 84.8177094,122.84256 85.6597637,122.679543 C87.3628545,122.431941 89.0188693,121.979798 90.671847,121.511507 C92.3066016,120.994004 93.9185775,120.383458 95.4705693,119.655262 C96.2579546,119.310772 97.0096532,118.903997 97.7537589,118.49953 C98.1197374,118.294989 98.4925496,118.085834 98.8357493,117.86899 C99.0126642,117.763644 99.1903385,117.659067 99.3497897,117.553721 L99.5882072,117.401469 C99.6542656,117.359176 99.754492,117.288433 99.7582885,117.299198 C101.227518,115.958918 103.492484,116.079643 104.815929,117.568331 C106.138615,119.057018 106.019406,121.350028 104.549418,122.691077 L104.164457,123.059404 L103.835684,123.362371 C103.619286,123.562298 103.405166,123.745308 103.192564,123.92678 C102.760527,124.292031 102.326972,124.621142 101.885823,124.954097 C101.003527,125.599247 100.09921,126.202873 99.168319,126.749596 C97.3027398,127.840736 95.3528791,128.765783 93.3362009,129.512434 C89.2793063,130.96575 85.0508119,131.796985 80.7122202,131.837739 C76.2043065,131.870804 71.6105928,130.824263 67.6789813,128.664282 C65.6995084,127.617741 63.8673379,126.338208 62.2120824,124.882585 C61.3981219,124.135165 60.6016251,123.376981 59.8704274,122.544208 C59.5052082,122.128974 59.1430262,121.709128 58.7975485,121.263137 C58.6251893,121.04783 58.455108,120.807918 58.2865453,120.577233 L58.0291455,120.211982 L57.7375776,119.782138 C56.7603694,118.342664 57.1210329,116.374151 58.5424266,115.385281 C59.465725,114.742439 60.6107366,114.671696 61.5666847,115.095387 L63.1133615,115.787442 Z" id="Fill-6" fill="#1A2B31"></path>
            <path d="M149.819365,114.567195 L150.656864,115.026258 C150.965895,115.198503 151.284798,115.366134 151.608256,115.529152 C152.253654,115.857494 152.918793,116.153539 153.58621,116.436513 C154.917248,117.007843 156.27638,117.469982 157.625641,117.83062 C158.978699,118.192795 160.324922,118.43117 161.640775,118.503451 C162.96346,118.632635 164.232996,118.518061 165.468363,118.313521 C166.69386,118.124359 167.92619,117.659144 169.164594,117.150868 C170.397684,116.581845 171.613309,115.881331 172.814509,115.088543 C173.999003,114.264229 175.166794,113.360712 176.283711,112.372611 C176.847865,111.884328 177.400629,111.375283 177.929096,110.848552 C178.198645,110.587109 178.453007,110.319514 178.709648,110.053458 L179.409715,109.316803 L179.645854,109.068432 C181.005745,107.638185 183.253248,107.595124 184.665531,108.972314 C185.924436,110.199558 186.093758,112.141157 185.153755,113.561408 C184.829537,114.051999 184.592639,114.393412 184.310941,114.787115 C184.035319,115.160056 183.752862,115.527614 183.46585,115.883638 C182.893344,116.603375 182.2973,117.297737 181.677718,117.975951 C180.427925,119.319307 179.073349,120.58423 177.602601,121.74919 C176.121223,122.909536 174.502414,123.939929 172.768951,124.844983 C171.867672,125.253296 170.993728,125.698518 170.022594,126.001484 C169.54424,126.159888 169.076516,126.342129 168.583736,126.472851 L167.085654,126.831182 C163.045464,127.647807 158.963513,127.240263 155.331821,126.138358 C153.503448,125.59471 151.757077,124.887276 150.09271,124.050658 C149.266601,123.617739 148.454918,123.167134 147.660699,122.674237 C147.26359,122.43048 146.86724,122.177495 146.474686,121.911438 C146.068465,121.628465 145.73134,121.383939 145.235522,121.002539 C143.515727,119.680714 143.18012,117.197774 144.485342,115.456871 C145.668318,113.878216 147.792816,113.451449 149.46022,114.368806 L149.819365,114.567195 Z" id="Fill-8" fill="#1A2B31"></path>
            <path d="M138.135767,129.339497 C140.920089,129.339497 143.176703,131.787066 143.176703,134.805964 L143.176703,135.186594 C143.176703,136.747563 142.561677,138.233944 141.48652,139.271258 L137.858626,141.957201 C135.211663,144.027009 134.288565,146.82975 134.207269,148.908626 L133.904387,158.828737 C134.020559,158.901787 134.163306,158.960227 134.284792,159.035584 C134.452596,159.095563 134.601417,159.175533 134.776054,159.230898 C135.461694,159.461583 136.239968,159.610759 137.09493,159.607683 C138.763853,159.653051 140.736492,159.212443 142.491215,158.575752 C144.196584,157.936755 145.661257,157.041697 146.619483,155.879813 C147.122134,155.315403 147.504057,154.683326 147.77968,154.018184 C147.916353,153.685998 148.02645,153.346891 148.107694,153.013167 C148.140344,152.847842 148.181345,152.681749 148.197291,152.532573 C148.212476,152.451833 148.213995,152.390317 148.218551,152.326494 C148.223107,152.291122 148.224625,152.264978 148.221588,152.25652 C148.221588,152.246523 148.220829,152.233451 148.218551,152.244985 C148.377243,149.977351 150.299769,148.247982 152.550309,148.369476 C154.825146,148.493277 156.570757,150.461021 156.448511,152.764027 C156.429529,153.022394 156.411306,153.12774 156.393843,153.254617 C156.376379,153.388414 156.356637,153.504526 156.335377,153.609103 C156.295135,153.830561 156.251855,154.052787 156.200223,154.249638 C156.106071,154.66564 155.983066,155.050116 155.860061,155.436129 C155.601142,156.198927 155.286036,156.927123 154.91778,157.623792 C154.185063,159.016361 153.233671,160.280515 152.126624,161.336283 C149.93379,163.507799 147.220082,164.769646 144.622546,165.500918 C143.961963,165.706227 143.321121,165.837718 142.684075,165.954598 C142.053863,166.096085 141.391761,166.179132 140.728899,166.254489 C139.407732,166.412892 138.022025,166.435192 136.608224,166.292936 C135.19822,166.161446 133.731269,165.795425 132.318986,165.157197 C132.07905,165.045699 131.841392,164.925743 131.604493,164.79579 C130.76092,164.333651 129.763211,164.305969 128.877118,164.679679 L128.877118,164.679679 L128.862692,164.68583 C128.271203,164.963421 127.650103,165.155659 127.041151,165.390958 C126.424606,165.603188 125.789839,165.77005 125.160386,165.957674 C122.616,166.618202 119.889384,166.865035 117.157454,166.570527 C114.436153,166.285247 111.682202,165.487845 109.276767,164.134493 C108.004954,163.540095 106.944223,162.695787 105.814398,161.90992 L105.814398,161.90992 L105.396028,161.61003 L105.021697,161.273998 L104.275314,160.59886 L102.786343,159.22936 C100.880521,157.47846 100.866854,154.403428 102.871384,152.639457 C104.583586,151.133083 107.23731,151.263036 108.819673,152.90782 C108.843971,152.934734 108.869027,152.960109 108.893325,152.986253 L108.893325,152.986253 L109.200838,153.32536 L110.154508,154.373439 L110.629065,154.905553 L110.866723,155.174686 L111.128679,155.395374 C111.83482,155.970549 112.494644,156.661066 113.275955,157.093985 C114.755814,158.153599 116.428534,158.803361 118.196924,159.180147 C119.964554,159.556933 121.859746,159.597687 123.768605,159.297027 C124.241643,159.198602 124.722275,159.127089 125.196832,159.014823 C125.665315,158.87795 126.151262,158.78952 126.612151,158.619582 C126.992557,158.502702 127.360813,158.364291 127.72831,158.222035 L127.72831,158.222035 L127.432497,148.528676 C127.357568,146.519337 127.106179,144.591877 124.230861,142.267088 L120.09576,138.822191 C119.062364,137.787184 118.474672,136.331561 118.474672,134.805964 C118.474672,131.787066 120.732046,129.339497 123.515609,129.339497 L138.135767,129.339497 Z" id="Combined-Shape" fill="#1A2B31"></path>
            <path d="M148.218475,152.244985 C148.216956,152.253444 148.215438,152.270361 148.210882,152.318036 C148.212401,152.29266 148.216956,152.269592 148.218475,152.244985" id="Fill-14" fill="#010202"></path>
        </g>
    </g>
</svg>