<svg width="26" height="26" viewBox="0 0 26 26" fill="none" xmlns="http://www.w3.org/2000/svg">
    <path d="M6.75508 1.00896C6.75508 1.00896 5.34146 3.26602 4.69692 4.49634C4.05238 5.72667 2.93023 8.30274 2.90579 8.36462C2.10603 10.3846 1.45291 12.9762 1.45291 15.4533C1.45291 17.9303 2.42947 20.3888 4.3922 22.2372C6.00134 23.7527 9.11795 25.5683 13.0055 25.5683C16.893 25.5683 19.8466 24.305 21.5233 22.8565C23.2 21.408 24.558 19.1502 24.558 16.635C24.558 13.8051 23.2536 10.6139 20.892 8.63217C20.892 8.63217 18.876 6.83998 16.628 6.26851C15.8943 6.08182 14.9068 5.91282 14.9068 5.91282C14.9068 5.91282 17.0094 5.47888 18.1906 5.65854C19.9438 5.9253 20.2867 6.49705 20.2867 6.49705C20.2867 6.49705 20.6806 5.23942 20.3757 3.94358C20.0707 2.64774 19.4519 1.85734 18.8422 1.32148C18.3534 0.891964 18.052 0.701904 18.052 0.701904C17.7063 0.904943 17.3804 1.13997 17.0786 1.4039C16.6057 1.81314 16.0748 2.38228 15.5493 2.9665C14.4833 4.15262 13.4246 5.81065 13.4246 5.81065C13.4246 5.81065 11.4429 5.7719 9.15617 6.68762C6.86948 7.60334 5.42102 8.99331 5.42102 8.99331C5.42102 8.99331 5.85002 7.52612 7.64115 6.32544C9.43229 5.12476 10.6995 4.97344 10.6995 4.97344C10.6995 4.97344 10.5472 2.91528 9.68969 2.03882C8.83221 1.16236 8.29869 1.14234 8.01269 1.0659C7.72669 0.989464 6.75508 1.00896 6.75508 1.00896Z" fill="#7CC6DC" />
    <path d="M11.2756 20.3281C11.2756 20.3281 11.2376 19.3373 12.0252 18.6121C12.0252 18.6121 12.3936 18.2058 13.6515 17.9897C14.9094 17.7736 15.7718 17.8891 16.4969 17.8251C17.2221 17.7612 18.5551 17.6218 19.3049 16.8215C20.0548 16.0212 20.0925 14.9669 20.0925 13.9633C20.0925 12.9597 19.813 11.4861 19.0761 10.2539C18.3393 9.02178 17.2977 8.47526 16.98 8.25946C16.6623 8.04366 15.5859 7.43006 15.3857 7.33802C15.1855 7.24598 15.1792 7.12196 15.1951 7.05202C15.211 6.98208 15.2554 6.90928 15.4842 6.941C15.713 6.97272 17.0944 7.47764 17.6162 7.71268C18.138 7.94772 19.3949 8.56392 20.4502 9.5293C21.5056 10.4947 22.2198 11.588 22.5726 12.5599C22.9254 13.5317 23.2684 14.7511 23.0968 16.5511C22.9252 18.3511 22.6288 18.9806 22.2583 19.7047C21.8878 20.4288 20.7529 21.9352 19.2298 22.631C17.7067 23.3267 16.3128 23.4411 14.7885 23.2789C13.2641 23.1166 12.254 22.4011 11.7108 21.7735C11.1677 21.1458 11.2753 20.3822 11.2753 20.3822" fill="#72B6CD" />
    <path d="M13.5644 14.3101C13.6175 14.389 13.6459 14.4818 13.6459 14.5769C13.6459 14.6719 13.6175 14.7648 13.5644 14.8436C13.4755 14.9708 13.2246 15.2503 12.3614 15.6216C11.8154 15.8556 11.167 15.9401 10.8235 15.9427C10.2702 15.9463 9.7627 15.8015 9.27676 15.5742C8.48896 15.2058 8.27238 14.815 8.13978 14.6024C8.04592 14.4518 8.09272 14.1957 8.16578 14.1006C8.21986 14.0293 8.42968 13.8962 8.72192 14.0746C9.01416 14.2529 9.22034 14.5647 9.62698 14.7298C10.0371 14.8889 10.4738 14.9683 10.9137 14.9638C11.2473 14.958 11.6001 14.8626 11.9277 14.761C12.7917 14.4942 12.8897 14.2428 13.0941 14.1827C13.4183 14.0878 13.5644 14.3101 13.5644 14.3101Z" fill="#1A2B31" />
    <path d="M22.7526 13.2786C22.9286 13.4086 22.9302 13.6091 22.881 13.7502C22.8319 13.8914 22.692 14.2006 22.0282 14.7291C21.6083 15.0638 21.138 15.2619 20.8421 15.3295C20.3658 15.4397 19.7501 15.4153 19.2891 15.2629C18.5411 15.0159 18.3303 14.816 18.1696 14.634C18.056 14.504 18.0575 14.192 18.1436 14.0599C18.2416 13.9075 18.4792 13.8306 18.7702 13.9478C19.0611 14.0651 19.0455 14.1317 19.4228 14.25C19.6656 14.3261 20.04 14.4455 20.5169 14.3893C20.7605 14.3607 21.3426 14.0773 21.5904 13.894C22.0953 13.5225 22.1364 13.3514 22.2979 13.2523C22.4739 13.1452 22.6582 13.2094 22.7526 13.2786Z" fill="#1A2B31" />
    <path d="M15.5969 15.6822C16.0987 15.6754 17.0318 15.6793 17.5295 15.6793C17.6135 15.6793 17.7266 15.7573 17.817 15.8728C17.9075 15.9882 17.979 16.0966 17.9743 16.3015C17.9697 16.5064 17.8932 16.7256 17.7598 16.8215C17.6265 16.9175 17.3121 17.1312 17.1977 17.2742C17.0833 17.4172 16.9468 17.628 16.9468 17.8007C16.9468 17.9733 16.9406 19.0614 16.9406 19.0614C16.9406 19.0614 17.1343 19.179 17.3407 19.179C17.5472 19.179 17.7307 19.1163 17.9387 19.0336C18.1467 18.9509 18.415 18.7908 18.4889 18.5882C18.5627 18.3857 18.6007 18.1878 18.6415 18.0942C18.6715 18.0297 18.7182 17.9745 18.7769 17.9343C18.8355 17.8941 18.9039 17.8704 18.9748 17.8657C19.1048 17.8587 19.2106 17.868 19.3227 17.9419C19.4348 18.0157 19.4966 18.0937 19.5047 18.2318C19.518 18.3909 19.4977 18.5511 19.4452 18.7018C19.3552 18.9439 19.2775 19.103 19.1165 19.264C18.9259 19.4546 18.6116 19.7213 18.2351 19.8141C17.8586 19.907 17.7229 19.9382 17.4848 19.9405C17.2466 19.9428 17.0428 19.9051 16.8927 19.8456C16.7427 19.7861 16.6681 19.7179 16.5324 19.7179C16.3967 19.7179 16.2128 19.7832 16.0644 19.8404C15.8161 19.9261 15.5554 19.9707 15.2927 19.9722C14.9893 19.9707 14.6427 19.9405 14.3603 19.8214C14.1113 19.7214 13.8786 19.5849 13.6698 19.4163C13.4576 19.2473 13.226 19.0263 13.1997 18.9002C13.1734 18.7741 13.1737 18.6342 13.2059 18.5461C13.2382 18.458 13.344 18.3121 13.4672 18.2708C13.5862 18.2333 13.7133 18.23 13.8341 18.2611C13.9121 18.2871 14.0866 18.485 14.201 18.5755C14.3154 18.666 14.4914 18.9067 14.7631 19.0066C15.0348 19.1064 15.2181 19.1626 15.4729 19.1626C15.7277 19.1626 16.1819 19.0378 16.1819 19.0378C16.1819 19.0378 16.178 17.9931 16.1731 17.7666C16.1681 17.5402 16.0373 17.3189 15.8634 17.1832C15.6895 17.0475 15.4419 16.8543 15.3062 16.7152C15.1705 16.5761 15.1656 16.4242 15.1671 16.2308C15.1654 16.157 15.179 16.0836 15.2071 16.0153C15.2351 15.9471 15.277 15.8853 15.3301 15.834C15.4128 15.756 15.5202 15.6832 15.5969 15.6822Z" fill="#1A2B31" />
</svg>