<svg width="80" height="80" viewBox="0 0 80 80" fill="none" xmlns="http://www.w3.org/2000/svg">
<circle cx="40" cy="40" r="40" fill="black"/>
<path d="M29.9862 28C37.1432 28 42.9725 33.5865 42.9725 40.5002C42.9725 47.4138 37.1432 53 29.9862 53C22.8293 53 17 47.4695 17 40.5005C17 33.5314 22.8293 28 29.9862 28ZM50.7642 28.7191C54.2847 28.7191 57.2286 34.0289 57.2286 40.5002C57.2286 47.0268 54.3425 52.2812 50.7642 52.2812C47.1859 52.2812 44.2998 47.0268 44.2998 40.5002C44.2998 33.9735 47.1859 28.7191 50.7642 28.7191ZM60.6916 29.9361C62.0189 29.9361 63 34.6926 63 40.5002C63 46.3077 61.9611 51.0643 60.6916 51.0643C59.4345 51.0643 58.4038 46.4023 58.3831 40.6742L58.3828 40.5002C58.3828 34.6926 59.4217 29.9361 60.6916 29.9361Z" fill="white"/>
</svg>
