<svg width="140" height="131" viewBox="0 0 140 131" fill="none" xmlns="http://www.w3.org/2000/svg">
<path d="M122.322 84.8925C124.356 86.0683 124.368 87.979 122.347 89.1548L51.9344 130.073C49.9131 131.247 46.6136 131.247 44.5775 130.073L12.6576 111.644C10.6231 110.468 10.6115 108.557 12.6328 107.383L83.0451 66.458C85.0664 65.2839 88.3659 65.2839 90.4021 66.458L122.322 84.8925ZM51.5843 129.872L121.995 88.9517C123.825 87.8882 123.812 86.1592 121.974 85.0957L90.052 66.6661C88.2123 65.6026 85.225 65.6042 83.3969 66.6661L12.9846 107.578C11.1548 108.641 11.168 110.37 13.0077 111.434L44.9342 129.872C46.7771 130.935 49.7612 130.935 51.5909 129.872" fill="black"/>
<path d="M121.973 85.0957C123.815 86.1592 123.824 87.8882 121.995 88.9517L51.584 129.872C49.7543 130.935 46.7702 130.935 44.9272 129.872L13.0074 111.44C11.1661 110.385 11.1545 108.648 12.9843 107.578L83.3949 66.6661C85.2247 65.6043 88.212 65.6043 90.0517 66.6661L121.973 85.0957Z" fill="black"/>
<path d="M43.9438 58.9509L43.8877 79.1441C43.8877 79.0996 43.8877 79.0566 43.8877 79.012C43.8348 76.1138 41.7805 73.4997 38.4909 71.5989C35.1369 69.6635 30.5081 68.4761 25.4069 68.4976C20.4048 68.5191 15.8965 69.6998 12.6284 71.5989C9.36026 73.498 7.32244 76.132 7.31418 79.0302L7.37033 58.8369C7.37033 55.9371 9.40485 53.3113 12.6862 51.4056C15.9675 49.4999 20.461 48.3241 25.4647 48.3027C30.5642 48.2812 35.1931 49.4702 38.5471 51.4056C41.8367 53.3064 43.891 55.9205 43.9455 58.8187L43.9438 58.9509Z" fill="black"/>
<path d="M38.1853 55.6183L38.1292 75.8116L34.8859 73.9653L34.9437 53.7737L38.1853 55.6183Z" fill="#50DAFF"/>
<path d="M36.552 55.6248L36.4942 75.8181L34.9022 74.9115L34.96 54.7198L36.552 55.6248Z" fill="black"/>
<path d="M16.2543 58.4636L16.1981 78.6552L13.1629 80.6089L13.2207 60.4156L16.2543 58.4636Z" fill="#50DAFF"/>
<path d="M21.7162 61.5716L21.6601 81.7632L16.1989 78.6553L16.255 58.4636L21.7162 61.5716Z" fill="#50DAFF"/>
<path d="M34.9435 53.7737L34.8857 73.9653L21.6596 81.7632L21.7158 61.5716L34.9435 53.7737Z" fill="#50DAFF"/>
<path d="M21.7343 62.5194L21.6781 82.711L16.2516 79.6229L16.3094 59.4313L21.7343 62.5194Z" fill="black"/>
<path d="M34.9601 54.7198L34.9023 74.9115L21.6779 82.711L21.7341 62.5194L34.9601 54.7198Z" fill="black"/>
<path d="M21.7672 64.3425L21.7094 84.5358L14.7636 80.5823L14.8197 60.389L21.7672 64.3425Z" fill="black"/>
<path d="M16.3093 59.4313L16.2515 79.6229L14.7636 80.5824L14.8197 60.3891L16.3093 59.4313Z" fill="black"/>
<path d="M7.31277 79.1737V79.0399L7.36892 58.8483C7.36892 58.8912 7.36892 58.9358 7.36892 58.9804C7.38986 59.8515 7.58527 60.7095 7.94361 61.5037C7.926 68.2348 7.90728 74.9659 7.88746 81.697C7.52917 80.9028 7.33375 80.0447 7.31277 79.1737V79.1737Z" fill="#50DAFF"/>
<path d="M36.5518 55.6248L21.7668 64.3425L14.8194 60.3891L16.3089 59.4313L21.7338 62.5194L34.9598 54.7198L36.5518 55.6248Z" fill="black"/>
<path d="M36.5518 55.6249L36.494 75.8182L21.709 84.5359L21.7668 64.3426L36.5518 55.6249Z" fill="black"/>
<path d="M21.7848 65.2905L21.727 85.4821L13.1629 80.6088L13.2207 60.4155L21.7848 65.2905Z" fill="black"/>
<path d="M40.1307 85.5482C40.1505 78.8171 40.1698 72.086 40.1885 65.3549C42.5401 63.5797 43.9437 61.3602 43.9437 58.9508L43.8876 79.1441C43.8793 81.5535 42.4839 83.7729 40.1307 85.5482Z" fill="#50DAFF"/>
<path d="M38.1854 55.6183L38.1293 75.8116L21.7276 85.4821L21.7854 65.2905L38.1854 55.6183Z" fill="black"/>
<path d="M34.6844 88.3027C34.702 81.5716 34.7207 74.8405 34.7405 68.1094C36.0928 67.6708 37.396 67.0936 38.6296 66.387C39.1695 66.0745 39.69 65.7299 40.1885 65.3549C40.1687 72.0859 40.1494 78.817 40.1307 85.5481C39.6318 85.9226 39.1113 86.2672 38.5718 86.5802C37.3385 87.2862 36.0358 87.8634 34.6844 88.3027V88.3027Z" fill="#50DAFF"/>
<path d="M43.944 58.8204C43.9969 61.7747 41.9624 64.4516 38.6298 66.3871C35.3617 68.2862 30.8534 69.4686 25.8497 69.49C20.7502 69.5115 16.1213 68.3225 12.7673 66.3871C9.47773 64.488 7.42339 61.8721 7.37054 58.9739C7.31605 56.0212 9.35222 53.3427 12.6847 51.4072C15.9529 49.5081 20.4595 48.3257 25.4633 48.3042C30.5628 48.2828 35.1916 49.4718 38.5456 51.4072C41.8352 53.308 43.8895 55.9221 43.944 58.8204ZM13.2281 60.4156L21.7922 65.2905L38.1922 55.6183L34.9439 53.7737L21.7162 61.5716L16.2551 58.4636L13.2281 60.4156Z" fill="#50DAFF"/>
<path d="M34.6843 88.3028L34.4119 88.3903C34.4295 81.6592 34.4487 74.9281 34.4697 68.197L34.7405 68.1095C34.7229 74.8406 34.7042 81.5717 34.6843 88.3028Z" fill="#50DAFF"/>
<path d="M33.4394 88.6775C33.4581 81.9464 33.4774 75.2153 33.4972 68.4842C33.8275 68.3951 34.1578 68.2993 34.4699 68.1969C34.4501 74.928 34.4308 81.6591 34.4121 88.3902C34.0939 88.4904 33.7697 88.5862 33.4394 88.6775Z" fill="#50DAFF"/>
<path d="M33.4391 88.6775C33.2393 88.732 33.0378 88.7848 32.8331 88.8426C32.8529 82.1115 32.8722 75.381 32.8909 68.651C33.094 68.5998 33.2971 68.5469 33.4969 68.4858C33.4771 75.2158 33.4579 81.9464 33.4391 88.6775Z" fill="#50DAFF"/>
<path d="M7.88224 81.6905C6.47195 74.9544 7.92022 68.2283 7.93839 61.4972C8.76409 63.3798 10.465 65.0576 12.7671 66.387C16.1211 68.3224 20.7499 69.5114 25.8494 69.49C28.2219 69.487 30.5856 69.2026 32.891 68.6428C32.8712 75.3739 32.8519 82.1044 32.8332 88.8344C30.5281 89.396 28.1642 89.6805 25.7916 89.6816C20.6921 89.7031 16.0633 88.5157 12.7109 86.5803C10.4089 85.2509 8.71124 83.5714 7.88224 81.6905Z" fill="#50DAFF"/>
<path d="M45.2648 58.8137C45.3226 61.9794 43.1362 64.8545 39.5658 66.9287C36.0649 68.9632 31.223 70.2315 25.8592 70.2546C20.3948 70.2777 15.4224 69.0028 11.8323 66.9287C8.30655 64.8942 6.10028 62.0851 6.05239 58.9805C5.99459 55.8148 8.17939 52.9397 11.7497 50.8655C15.2507 48.831 20.0926 47.5627 25.4563 47.5396C30.9142 47.5165 35.8849 48.7881 39.4849 50.8655C43.0024 52.9001 45.207 55.7091 45.2648 58.8137ZM25.8493 69.49C30.8531 69.4685 35.3614 68.2861 38.6295 66.387C41.9604 64.4516 43.9965 61.7747 43.9437 58.8203C43.8892 55.9221 41.8349 53.3079 38.5453 51.4072C35.1913 49.4717 30.5674 48.2827 25.4629 48.3042C20.4592 48.3257 15.9525 49.5081 12.6844 51.4072C9.35188 53.3426 7.31571 56.0212 7.3702 58.9739C7.42305 61.8721 9.47739 64.4879 12.767 66.387C16.121 68.3225 20.7498 69.5115 25.8493 69.49Z" fill="black"/>
<path d="M38.1856 55.6183L21.7856 65.2905L13.2281 60.4156L16.2617 58.4636L21.7229 61.5716L34.9506 53.7737L38.1856 55.6183ZM14.82 60.3892L21.7674 64.3426L36.5524 55.6249L34.9605 54.7199L21.7344 62.5195L16.3096 59.4314L14.8233 60.3892" fill="black"/>
<path d="M45.2648 58.9573L45.2086 79.1506C45.1987 82.2586 43.0255 85.0791 39.5097 87.1203C35.9938 89.1614 31.1668 90.4231 25.8031 90.4462C20.3386 90.4693 15.3662 89.1961 11.7761 87.1203C8.25366 85.0858 6.04739 82.2784 5.99124 79.1737C5.99124 79.1275 5.99124 79.0796 5.99124 79.0334L6.04904 58.8401C6.04904 58.888 6.04904 58.9342 6.04904 58.9821C6.10519 62.0867 8.31146 64.8958 11.8372 66.9303C15.4273 69.0044 20.3997 70.2793 25.8642 70.2562C31.223 70.2347 36.0648 68.9648 39.5708 66.9303C43.0767 64.8958 45.2648 62.0653 45.2648 58.9573Z" fill="black"/>
<path d="M87.8013 51.1511L87.7897 55.1888C86.9195 54.6933 85.78 54.4357 84.6339 54.4357C83.4879 54.4357 82.3484 54.6867 81.4847 55.1888L81.4963 51.1511C82.36 50.6557 83.4994 50.3981 84.6455 50.3981C85.7916 50.3981 86.931 50.6491 87.8013 51.1511Z" fill="black"/>
<path d="M81.5294 55.3242C81.5294 55.1921 81.5294 55.06 81.5294 54.9295V52.9644C81.5294 52.4046 81.5294 51.8447 81.5294 51.2849C81.6252 51.2849 81.7193 51.2849 81.8151 51.2849C81.8151 52.6314 81.8112 53.9778 81.8035 55.3242C81.7193 55.3193 81.6252 55.3209 81.5294 55.3242Z" fill="white"/>
<path d="M81.5161 55.3242C81.5161 53.9789 81.5199 52.6325 81.5276 51.2849H81.5408C81.5408 52.6302 81.537 53.9767 81.5293 55.3242H81.5161Z" fill="white"/>
<path d="M81.8147 55.3192C81.8147 53.9717 81.8185 52.6253 81.8262 51.2799H81.8361C81.8361 52.6242 81.8323 53.969 81.8246 55.3143C81.8246 54.5535 81.8246 53.7923 81.8246 53.0304C81.8246 52.4475 81.8246 51.8629 81.8246 51.2799C82.4409 51.2789 83.0554 51.3482 83.656 51.4863C83.656 52.8306 83.6521 54.1748 83.6444 55.5191C83.6444 54.7572 83.6444 53.9965 83.6444 53.2368C83.6444 52.6522 83.6444 52.0693 83.6444 51.4863C83.6444 52.8306 83.6406 54.1737 83.6329 55.5158C83.6329 54.7539 83.6329 53.9937 83.6329 53.2352C83.6329 52.6522 83.6329 52.0693 83.6329 51.4863C84.1966 51.6133 84.739 51.8213 85.243 52.104L85.2314 56.1416C84.2802 55.5934 83.0268 55.3159 81.78 55.3159L81.8147 55.3192Z" fill="white"/>
<path d="M117.996 68.5832L117.984 72.6209L87.7902 55.1888L87.8017 51.1511L117.996 68.5832Z" fill="black"/>
<path d="M119.305 70.4079L119.293 74.4472C119.293 73.7867 118.852 73.1261 117.984 72.6208L117.995 68.5831C118.864 69.0835 119.301 69.7441 119.305 70.4079Z" fill="black"/>
<path d="M117.713 76.0229C117.701 75.3078 117.217 74.5894 116.281 74.0412L116.293 70.0018C117.234 70.5468 117.713 71.2635 117.724 71.9835C117.721 73.33 117.717 74.6764 117.713 76.0229Z" fill="white"/>
<path d="M117.713 76.0228C117.713 75.9717 117.713 75.9205 117.713 75.8709L117.723 71.9835V72.0199L117.713 76.0575C117.714 76.0526 117.714 76.0476 117.713 76.0427V76.0228Z" fill="white"/>
<path d="M116.293 70.0067L116.281 74.046L85.2711 56.1415L85.2827 52.1039L116.293 70.0067Z" fill="white"/>
<path d="M115.594 70.4132L115.583 74.4525L84.5729 56.548L84.5845 52.5104L115.594 70.4132Z" fill="black"/>
<path d="M116.734 72.0033L116.723 76.036C116.723 75.458 116.339 74.88 115.583 74.4457L115.593 70.4064C116.351 70.8506 116.731 71.4253 116.734 72.0033Z" fill="black"/>
<path d="M81.2257 55.339C80.4193 55.3894 79.6271 55.5753 78.8824 55.8889C78.8824 54.543 78.8923 53.1971 78.8939 51.8512C79.6382 51.5367 80.4307 51.3513 81.2373 51.303C81.234 52.5118 81.229 54.1285 81.2257 55.339Z" fill="black"/>
<path d="M116.734 72.0033L116.722 76.036C116.722 76.614 116.352 77.192 115.599 77.6263L115.611 73.5886C116.364 73.1576 116.737 72.5829 116.734 72.0033Z" fill="white"/>
<path d="M118.004 76.2739C118.004 75.1328 118.016 73.3592 118.016 72.2363C118.881 71.7326 119.309 71.0721 119.305 70.4082L119.294 74.4475C119.297 75.1114 118.869 75.7719 118.004 76.2739Z" fill="white"/>
<path d="M81.2305 55.3389L81.242 51.3013C81.2365 52.6477 81.2327 53.9936 81.2305 55.3389Z" fill="white"/>
<path d="M115.611 73.5953L115.599 77.633L79.1133 56.5678L79.1248 52.5284L115.611 73.5953Z" fill="white"/>
<path d="M54.3757 113.62C54.215 113.537 54.0302 113.514 53.8539 113.554L53.8654 109.515C53.8654 110.856 53.8616 112.197 53.8539 113.538C53.8539 112.779 53.8539 112.02 53.8539 111.262C53.8539 110.679 53.8539 110.106 53.8539 109.515C54.0297 109.476 54.2135 109.499 54.3741 109.581C54.3796 110.927 54.3801 112.274 54.3757 113.62Z" fill="black"/>
<path d="M54.3751 113.62C54.3751 112.274 54.3789 110.927 54.3866 109.581C54.3833 110.928 54.3795 112.275 54.3751 113.62Z" fill="black"/>
<path d="M54.5204 113.823C54.5164 113.779 54.5008 113.738 54.4752 113.702C54.4497 113.666 54.4151 113.638 54.3751 113.62C54.3751 112.274 54.3789 110.928 54.3866 109.582C54.4269 109.6 54.4616 109.628 54.4872 109.664C54.5128 109.7 54.5283 109.742 54.532 109.786C54.5287 110.998 54.5237 112.613 54.5204 113.823Z" fill="black"/>
<path d="M53.865 109.515L53.8534 113.554L17.1874 92.5548L17.199 88.5155L53.865 109.515Z" fill="white"/>
<path d="M17.1527 92.1288C17.1527 90.7824 17.1566 89.4365 17.1643 88.0912C17.2065 88.1104 17.2427 88.1406 17.2692 88.1787C17.2956 88.2168 17.3113 88.2613 17.3146 88.3075L17.303 92.3468C17.3 92.3003 17.2845 92.2554 17.258 92.217C17.2316 92.1787 17.1952 92.1482 17.1527 92.1288V92.1288Z" fill="black"/>
<path d="M17.3102 88.2944L17.2986 92.3337C17.2948 92.3771 17.2794 92.4186 17.2542 92.454C17.2289 92.4894 17.1946 92.5175 17.1549 92.5352L17.1665 88.4976C17.2063 88.4795 17.2406 88.4512 17.2659 88.4155C17.2911 88.3798 17.3064 88.338 17.3102 88.2944V88.2944Z" fill="black"/>
<path d="M78.263 56.2475C78.2452 56.2769 78.2355 56.3105 78.2349 56.3449L78.2449 52.3056C78.2468 52.2712 78.257 52.2378 78.2746 52.2081C78.2713 53.4203 78.2663 55.0353 78.263 56.2475Z" fill="black"/>
<path d="M78.2349 56.3448L78.2465 52.3054C78.2499 52.3495 78.2653 52.3918 78.2909 52.4279C78.3164 52.464 78.3513 52.4924 78.3918 52.5102C78.5002 52.5656 78.6202 52.5944 78.7419 52.5944C78.8636 52.5944 78.9836 52.5656 79.092 52.5102L79.0804 56.5495C78.9721 56.6049 78.8521 56.6338 78.7304 56.6338C78.6086 56.6338 78.4887 56.6049 78.3803 56.5495C78.3398 56.5317 78.3049 56.5033 78.2793 56.4672C78.2537 56.4312 78.2384 56.3888 78.2349 56.3448V56.3448Z" fill="black"/>
<path d="M79.0917 52.5104L79.0801 56.548L17.1874 92.5551L17.199 88.5158L79.0917 52.5104Z" fill="black"/>
<path d="M48.194 109.581L48.1824 113.62L17.1725 95.7156L17.184 91.678L48.194 109.581Z" fill="white"/>
<path d="M53.6867 109.582L53.6767 113.62C52.9237 114.058 51.9312 114.281 50.9338 114.281C49.976 114.298 49.0297 114.07 48.1842 113.62L48.1958 109.581C48.9538 110.018 49.9479 110.241 50.9453 110.241C51.9428 110.241 52.9336 110.018 53.6867 109.582Z" fill="white"/>
<path d="M17.1528 92.1289C16.9922 92.0476 16.8085 92.0243 16.6327 92.0628L16.6442 88.0251L16.6343 92.0546L16.6442 88.0317C16.82 87.9923 17.0041 88.0157 17.1644 88.0978C17.1611 89.3033 17.1562 90.9184 17.1528 92.1289Z" fill="black"/>
<path d="M16.0132 92.4229C15.4864 92.8275 15.1743 93.2998 15.0752 93.782L15.0868 89.7427C15.1859 89.2605 15.498 88.7898 16.0248 88.3853C16.0215 89.5957 16.0165 91.2108 16.0132 92.4229Z" fill="black"/>
<path d="M15.0868 89.7426L15.0752 93.7819L14.5071 94.1121L14.5187 90.0728L15.0868 89.7426Z" fill="black"/>
<path d="M15.0738 93.7935C15.0738 92.4481 15.0777 91.1017 15.0854 89.7541V89.7426L15.0738 93.7819V93.7935Z" fill="white"/>
<path d="M15.0441 94.0361L15.054 89.9967C15.0588 89.9135 15.0693 89.8308 15.0854 89.749C15.0854 91.0966 15.0816 92.443 15.0739 93.7884C15.0574 93.87 15.0475 93.9528 15.0441 94.0361V94.0361Z" fill="white"/>
<path d="M17.1661 88.4974L17.1545 92.5351C16.4031 92.9727 16.0349 93.5408 16.0349 94.1271L16.0464 90.0877C16.0349 89.5097 16.4131 88.9334 17.1661 88.4974Z" fill="black"/>
<path d="M17.1909 91.6781L17.1793 95.7158C16.4164 95.2798 16.0349 94.6968 16.0349 94.1271L16.0464 90.0878C16.0481 90.6658 16.4279 91.2404 17.1909 91.6781Z" fill="white"/>
<path d="M54.3874 109.581C54.4297 109.595 54.4665 109.623 54.4925 109.659C54.5186 109.696 54.5326 109.739 54.5326 109.784C54.5326 109.829 54.5186 109.872 54.4925 109.909C54.4665 109.945 54.4297 109.973 54.3874 109.987C53.556 110.442 52.6361 110.712 51.6906 110.778C51.4446 110.8 51.1952 110.811 50.9459 110.811C49.7007 110.811 48.4456 110.537 47.4944 109.985L16.4861 92.0843C15.5349 91.5344 15.0577 90.8094 15.0527 90.0878C15.0528 89.9718 15.0644 89.8562 15.0874 89.7426C15.1865 89.2604 15.4986 88.7898 16.0254 88.3852C16.1654 88.2779 16.3122 88.1798 16.4647 88.0912C16.5209 88.0599 16.5816 88.0376 16.6447 88.0252C16.8205 87.9857 17.0045 88.0091 17.1649 88.0912C17.2072 88.1057 17.244 88.1331 17.27 88.1695C17.2961 88.2059 17.3101 88.2496 17.3101 88.2943C17.3101 88.3391 17.2961 88.3828 17.27 88.4192C17.244 88.4556 17.2072 88.483 17.1649 88.4975C16.4118 88.9334 16.0386 89.5098 16.0419 90.0878C16.0452 90.6657 16.4267 91.2437 17.183 91.678L48.1946 109.581C48.9526 110.018 49.9468 110.241 50.9442 110.241C51.9417 110.241 52.9341 110.022 53.6855 109.581C53.7417 109.549 53.8024 109.526 53.8655 109.513C54.0421 109.475 54.2264 109.499 54.3874 109.581V109.581Z" fill="black"/>
<path d="M51.6915 110.778L51.68 114.818L51.0277 115.196L51.0392 111.158L51.6915 110.778Z" fill="white"/>
<path d="M54.5322 109.786L54.5206 113.823C54.5169 113.867 54.5016 113.909 54.4764 113.944C54.4511 113.98 54.4168 114.008 54.377 114.026C53.5452 114.481 52.6255 114.75 51.6802 114.817C51.4342 114.839 51.1848 114.849 50.9355 114.849C49.6903 114.849 48.4352 114.575 47.484 114.023L47.4956 109.984C48.4468 110.534 49.7019 110.81 50.947 110.81C51.1964 110.81 51.4424 110.798 51.6918 110.776C52.6372 110.71 53.5571 110.44 54.3885 109.985C54.4279 109.968 54.4619 109.94 54.4871 109.905C54.5124 109.87 54.5279 109.829 54.5322 109.786Z" fill="black"/>
<path d="M115.611 73.5952L115.6 77.6329L53.8539 113.554L53.8654 109.515L115.611 73.5952Z" fill="white"/>
<path d="M115.486 77.737C115.467 77.766 115.456 77.7998 115.456 77.8344L115.468 73.7951C115.468 73.761 115.478 73.7278 115.497 73.6993L115.486 77.7221V77.737Z" fill="black"/>
<path d="M15.0441 94.0364C15.0441 94.0579 15.0441 94.081 15.0441 94.1041L15.0524 90.0731C15.0524 90.0516 15.0524 90.0285 15.0524 90.0054L15.0441 94.0364Z" fill="white"/>
<path d="M14.5189 90.0729L14.5073 94.1122C13.6436 94.6076 13.2142 95.2682 13.2175 95.9387L13.2275 91.8993C13.2275 91.2371 13.6552 90.5683 14.5189 90.0729Z" fill="black"/>
<path d="M15.0441 94.1106L15.0524 90.0729V90.0894C15.0524 90.8111 15.5346 91.536 16.4858 92.086L16.4742 96.1237C15.523 95.5738 15.0441 94.8488 15.0441 94.1271V94.1106Z" fill="black"/>
<path d="M14.5489 93.7258L14.5373 97.7635C13.667 97.2681 13.2294 96.6075 13.2261 95.9387L13.2278 91.8993C13.2278 92.5632 13.6703 93.2237 14.5489 93.7258Z" fill="white"/>
<path d="M47.496 109.987L47.4844 114.026L16.4745 96.1219L16.486 92.0842L47.496 109.987Z" fill="black"/>
<path d="M44.7331 111.158L44.7216 115.195L14.5291 97.7634L14.5406 93.7257L44.7331 111.158Z" fill="white"/>
<path d="M47.4955 109.987C48.4467 110.537 49.7017 110.813 50.9469 110.813C51.1963 110.813 51.4423 110.801 51.6917 110.78L51.0394 111.16C50.174 111.655 49.0346 111.913 47.8885 111.913C46.7424 111.913 45.6013 111.662 44.7327 111.16L14.5484 93.7257C13.6782 93.2303 13.2405 92.5697 13.2372 91.8993C13.2339 91.2288 13.6633 90.5782 14.527 90.0728L15.0951 89.7426C15.0718 89.8561 15.0607 89.9718 15.062 90.0877C15.062 90.8094 15.5426 91.5343 16.4938 92.0842L47.4955 109.987Z" fill="white"/>
<path d="M44.7211 115.196C44.7211 114.04 44.7326 112.301 44.7326 111.158C45.6013 111.654 46.744 111.911 47.8885 111.911C49.0329 111.911 50.174 111.66 51.0393 111.158L51.0278 115.196C50.1624 115.691 49.023 115.949 47.8769 115.949C46.7308 115.949 45.5947 115.698 44.7211 115.196Z" fill="white"/>
<path d="M118.694 68.177L88.4998 50.7448C87.4363 50.1305 86.0359 49.8234 84.6405 49.8234C83.2451 49.8234 81.8496 50.1305 80.7927 50.7448L78.8936 51.8496C79.6379 51.5349 80.4304 51.3495 81.237 51.3014L81.4962 51.1511C82.3599 50.6557 83.4994 50.3981 84.6455 50.3981C85.7915 50.3981 86.931 50.6491 87.8013 51.1511L117.995 68.5832C118.864 69.0787 119.302 69.7392 119.305 70.408C119.308 71.0769 118.879 71.7292 118.015 72.2361L117.672 72.436C117.523 73.009 117.071 73.5606 116.313 73.9998C116.205 74.0552 116.085 74.0841 115.963 74.0841C115.842 74.0841 115.722 74.0552 115.614 73.9998C115.472 73.9189 115.434 73.8 115.497 73.6993L53.8651 109.515C53.9553 109.497 54.0478 109.493 54.1392 109.503C54.2259 109.513 54.31 109.54 54.3869 109.581C54.4295 109.605 54.4667 109.637 54.4959 109.677C54.519 109.708 54.5317 109.745 54.5322 109.784C54.5285 109.828 54.5132 109.869 54.4879 109.905C54.4627 109.941 54.4284 109.969 54.3885 109.987C54.2928 110.043 54.1854 110.088 54.0847 110.137C53.7777 110.291 53.4578 110.418 53.1285 110.516C52.6591 110.649 52.178 110.737 51.6918 110.778L51.0395 111.158C50.1742 111.653 49.0347 111.911 47.8886 111.911C46.7426 111.911 45.6015 111.66 44.7328 111.158L14.5486 93.7258C13.6783 93.2304 13.2407 92.5698 13.2374 91.8993C13.2341 91.2289 13.6634 90.5782 14.5271 90.0729L15.0952 89.7426C15.1495 89.4886 15.2546 89.2482 15.404 89.0358C15.5772 88.7863 15.7896 88.5666 16.0332 88.3852L13.8253 89.6683C12.7667 90.281 12.2416 91.0918 12.2465 91.8993C12.2515 92.7069 12.7865 93.5177 13.8484 94.132L44.0343 111.564C45.0978 112.178 46.4982 112.486 47.8919 112.484C49.2857 112.482 50.6845 112.178 51.7414 111.564L118.717 72.6407C119.774 72.0264 120.301 71.2156 120.296 70.408C120.291 69.6005 119.756 68.7913 118.694 68.177Z" fill="black"/>
<path d="M116.293 70.0068C117.243 70.5567 117.723 71.2816 117.725 72.0033C117.726 72.1492 117.708 72.2947 117.672 72.436C117.523 73.009 117.071 73.5606 116.315 73.9999C116.206 74.0552 116.086 74.0841 115.964 74.0841C115.843 74.0841 115.723 74.0552 115.614 73.9999C115.472 73.9189 115.434 73.8 115.497 73.6993C115.526 73.6559 115.565 73.6201 115.611 73.5953C116.364 73.1576 116.737 72.583 116.734 72.0033C116.731 71.4237 116.351 70.8473 115.593 70.413L84.5846 52.5102C83.8266 52.0726 82.8325 51.8496 81.8334 51.8496C80.8343 51.8496 79.8435 52.0676 79.0921 52.5102C78.9837 52.5656 78.8637 52.5944 78.742 52.5944C78.6203 52.5944 78.5003 52.5656 78.3919 52.5102C78.2515 52.4293 78.2119 52.3104 78.2746 52.2096C78.3041 52.1657 78.3438 52.1294 78.3902 52.104C78.5532 52.0097 78.7213 51.9248 78.8939 51.8496C79.6381 51.5349 80.4306 51.3495 81.2372 51.3014C81.4354 51.2865 81.6336 51.2799 81.8317 51.2799C83.0786 51.2799 84.332 51.554 85.2832 52.1056L116.293 70.0068Z" fill="black"/>
<path d="M117.668 73.2502L117.66 76.4738L118.003 76.274L118.013 73.0504L117.668 73.2502Z" fill="white"/>
<path d="M115.466 74.5317L115.456 77.8345C115.46 77.8786 115.476 77.9208 115.502 77.9568C115.528 77.9928 115.562 78.0212 115.603 78.0392C115.711 78.0946 115.831 78.1235 115.952 78.1235C116.074 78.1235 116.193 78.0946 116.301 78.0392C117.059 77.6 117.512 77.0484 117.661 76.4737C117.695 76.3377 117.713 76.1979 117.713 76.0576V73.2205L115.466 74.5317ZM117.725 72.0199C117.725 72.0678 117.725 72.114 117.725 72.1619C117.725 72.1817 117.725 72.2032 117.725 72.2247C117.717 72.2959 117.703 72.3666 117.685 72.4361L117.738 72.4047L117.725 72.0199Z" fill="black"/>
<path d="M119.305 70.408C119.305 71.0685 118.88 71.7291 118.015 72.2361L117.671 72.4359C117.708 72.2946 117.725 72.1491 117.724 72.0032C117.724 71.2816 117.242 70.5566 116.292 70.0067L85.2825 52.1039C84.3313 51.554 83.0779 51.2782 81.8311 51.2782C81.633 51.2782 81.4348 51.2782 81.2366 51.2997L81.4959 51.1494C82.3596 50.654 83.499 50.3964 84.6451 50.3964C85.7912 50.3964 86.9306 50.6474 87.8009 51.1494L117.995 68.5832C118.864 69.0852 119.301 69.7441 119.305 70.408Z" fill="white"/>
<path d="M81.5278 51.2865L81.2421 51.303C81.3362 51.2948 81.4303 51.2898 81.5278 51.2865ZM81.2355 53.7421L81.5212 53.9073V51.8562C81.4254 51.8562 81.3296 51.8678 81.2355 51.876V53.7421Z" fill="white"/>
<path d="M84.5844 52.5103L84.5678 56.5496C83.7223 56.0994 82.776 55.872 81.8183 55.8891C80.8192 55.8891 79.8267 56.1087 79.0753 56.5496L79.0869 52.512C79.8383 52.0744 80.8307 51.8514 81.8282 51.8514C82.8256 51.8514 83.8264 52.0727 84.5844 52.5103Z" fill="black"/>
<path d="M120.296 70.4082L120.284 74.4475C120.284 75.255 119.764 76.0659 118.707 76.6802L118.717 72.6409C119.774 72.0266 120.301 71.2157 120.296 70.4082Z" fill="black"/>
<path d="M115.593 70.4213C116.351 70.8589 116.731 71.4336 116.734 72.0116C116.737 72.5896 116.364 73.1676 115.611 73.6035L79.1183 52.5284C79.8367 52.0726 80.8292 51.8546 81.8266 51.8546C82.8241 51.8546 83.8198 52.0726 84.5778 52.5152L115.593 70.4213Z" fill="white"/>
<path d="M17.1642 88.0914C17.0039 88.0093 16.8198 87.9859 16.644 88.0253L78.2742 52.2081C78.2115 52.3105 78.2511 52.4278 78.3915 52.5103C78.4998 52.5657 78.6198 52.5946 78.7415 52.5946C78.8633 52.5946 78.9833 52.5657 79.0916 52.5103L17.1989 88.5108C17.236 88.4879 17.266 88.4552 17.2856 88.4163C17.3052 88.3774 17.3137 88.3339 17.3101 88.2905C17.3065 88.247 17.291 88.2055 17.2653 88.1703C17.2395 88.1352 17.2045 88.1079 17.1642 88.0914Z" fill="black"/>
<path d="M13.8402 94.132L13.8303 98.1647C12.7668 97.552 12.2301 96.7412 12.2268 95.932L12.2367 91.8993C12.2367 92.7151 12.7783 93.5177 13.8402 94.132Z" fill="black"/>
<path d="M79.1246 52.5284L115.611 73.5953L53.8648 109.515L17.1988 88.5157L79.1246 52.5284Z" fill="white"/>
<path d="M53.6864 109.582C52.935 110.018 51.9425 110.243 50.9451 110.243C49.9476 110.243 48.9535 110.023 48.1955 109.582L17.1905 91.678C16.4342 91.2404 16.0543 90.6657 16.0494 90.0877C16.0444 89.5097 16.4193 88.9318 17.1723 88.4974L53.6864 109.582Z" fill="white"/>
<path d="M118.717 72.6407L118.707 76.6784L51.7295 115.602L51.7411 111.563L118.717 72.6407Z" fill="black"/>
<path d="M44.0341 111.564L44.0225 115.602L13.83 98.1696L13.8416 94.132L44.0341 111.564Z" fill="black"/>
<path d="M51.7415 111.562L51.7299 115.602C50.673 116.216 49.2759 116.523 47.8805 116.523C46.4851 116.523 45.0863 116.216 44.0228 115.602L44.0344 111.564C45.0979 112.177 46.4983 112.486 47.8921 112.484C49.2858 112.482 50.6846 112.177 51.7415 111.562Z" fill="black"/>
<path d="M106.328 70.3041C107.003 70.6938 107.343 71.2074 107.347 71.7243C107.35 72.2412 107.016 72.7548 106.343 73.1445L93.7921 80.442C93.0321 80.8275 92.1919 81.0283 91.3397 81.0283C90.4876 81.0283 89.6474 80.8275 88.8874 80.442L67.0626 67.8419C66.3855 67.4505 66.0453 66.9369 66.0436 66.4217C66.042 65.9064 66.3739 65.3912 67.046 64.9998L79.5967 57.7023C80.3569 57.3175 81.1969 57.1169 82.049 57.1169C82.901 57.1169 83.7411 57.3175 84.5013 57.7023L106.328 70.3041Z" fill="#50DAFF"/>
<path d="M108.338 71.7244C108.338 72.385 107.91 73.0455 107.046 73.5508L94.4957 80.8484C93.6303 81.3438 92.4859 81.6014 91.3465 81.6031C90.207 81.6047 89.0593 81.3504 88.1906 80.8484L66.3641 68.2482C65.4922 67.7429 65.0562 67.0807 65.0529 66.4218C65.0496 65.7628 65.479 65.1006 66.3443 64.5953L78.8949 57.2978C79.7586 56.8024 80.903 56.5431 82.0441 56.5431C83.1852 56.5431 84.3297 56.7941 85.1999 57.2978L107.026 69.8979C107.895 70.4 108.333 71.0638 108.338 71.7244ZM93.7856 80.4421L106.336 73.1446C107.008 72.7549 107.342 72.2413 107.34 71.7244C107.339 71.2075 106.997 70.6939 106.321 70.3042L84.5014 57.7057C83.7412 57.3209 82.9011 57.1203 82.0491 57.1203C81.197 57.1203 80.357 57.3209 79.5968 57.7057L67.0461 65.0032C66.374 65.3946 66.0404 65.9082 66.0437 66.4251C66.047 66.9419 66.3856 67.4539 67.0627 67.8453L88.8875 80.4454C89.6475 80.8309 90.4877 81.0318 91.3398 81.0318C92.192 81.0318 93.0322 80.8309 93.7922 80.4454" fill="black"/>
<path d="M80.7467 63.3797L77.2556 61.3501C77.9317 60.9106 78.4944 60.3176 78.8979 59.6194C79.3014 58.9212 79.5343 58.1375 79.5775 57.3323L83.0702 59.3569C83.0253 60.1622 82.7917 60.9456 82.388 61.6439C81.9844 62.3422 81.4221 62.9356 80.7467 63.3764V63.3797Z" fill="black"/>
<path d="M80.2663 63.6572L76.7752 61.6293L77.2558 61.3502L80.7468 63.3798L80.2663 63.6572Z" fill="black"/>
<path d="M78.6226 63.8155L75.1315 61.786C75.5559 62.0271 76.1372 61.9941 76.7829 61.6208L80.274 63.6504C79.625 64.0253 79.0453 64.06 78.6226 63.8155Z" fill="black"/>
<path d="M74.4396 60.2965L77.9307 62.3294C77.9307 63.0659 78.1949 63.5811 78.6193 63.8156L75.1283 61.7861C74.7039 61.5466 74.4413 61.0314 74.4396 60.2965Z" fill="white"/>
<path d="M78.127 64.6761L74.6359 62.6482C74.086 62.3344 73.7425 61.6573 73.7392 60.7012L77.2303 62.7307C77.2303 63.6885 77.5737 64.3623 78.127 64.6761Z" fill="black"/>
<path d="M83.0697 59.3603L79.577 57.3324L79.5374 38.5791L83.0301 40.6087L83.0697 59.3603Z" fill="black"/>
<path d="M83.0301 40.6087L79.5374 38.5791C79.5437 38.4615 79.5767 38.3468 79.6339 38.2438C79.6912 38.1408 79.7711 38.0521 79.8676 37.9846C81.1789 37.1441 82.3596 35.7916 83.2134 34.264C84.0671 32.7365 84.5873 31.0388 84.5857 29.5096L88.0767 31.5376C88.0767 33.0684 87.5582 34.7644 86.7044 36.2919C85.8507 37.8195 84.6716 39.172 83.3587 40.0142C83.2621 40.0815 83.1822 40.1701 83.1252 40.2732C83.0683 40.3763 83.0357 40.4911 83.0301 40.6087V40.6087Z" fill="black"/>
<path d="M74.4099 46.4447C74.4141 46.4014 74.4069 46.3577 74.3889 46.318C74.3709 46.2783 74.3429 46.244 74.3075 46.2185L77.7969 48.248C77.8326 48.2732 77.861 48.3074 77.879 48.3472C77.897 48.387 77.904 48.4309 77.8993 48.4743L74.4099 46.4447Z" fill="white"/>
<path d="M74.3159 46.2349L77.807 48.2645C77.7659 48.2466 77.7213 48.238 77.6764 48.2394C77.6316 48.2408 77.5876 48.2522 77.5477 48.2728L74.0567 46.2449C74.0963 46.2238 74.1403 46.212 74.1852 46.2103C74.23 46.2086 74.2747 46.217 74.3159 46.2349Z" fill="black"/>
<path d="M77.9307 62.3246L74.4397 60.2966L74.41 46.4447L77.901 48.4743L77.9307 62.3246Z" fill="white"/>
<path d="M75.0673 51.64L71.5762 49.6137C72.0969 49.2987 72.5467 48.8792 72.8973 48.3818C73.2729 47.8687 73.5578 47.2951 73.7395 46.6858C73.7922 46.5043 73.9097 46.3485 74.0698 46.2482L77.5609 48.2761C77.4016 48.3781 77.2844 48.534 77.2306 48.7154C77.0489 49.3247 76.764 49.8983 76.3884 50.4113C76.0374 50.9076 75.5876 51.3259 75.0673 51.64V51.64Z" fill="black"/>
<path d="M74.5869 51.9157L71.0958 49.8861L71.5764 49.6104L75.0674 51.6382L74.5869 51.9157Z" fill="black"/>
<path d="M72.9417 52.0774L69.4507 50.0478C69.8735 50.2906 70.4547 50.2559 71.1021 49.8827L74.5931 51.9123C73.9458 52.2855 73.3661 52.3185 72.9417 52.0774Z" fill="black"/>
<path d="M68.7602 48.5549L72.2513 50.5845C72.2513 51.3177 72.5155 51.8346 72.9416 52.0708L69.4505 50.0412C69.0245 49.8067 68.7619 49.2832 68.7602 48.5549Z" fill="white"/>
<path d="M72.4464 52.9363L68.9537 50.9068C68.422 50.6029 68.0834 49.9622 68.0587 49.0555L71.5497 51.0835C71.5745 51.9917 71.913 52.6325 72.4464 52.9363Z" fill="black"/>
<path d="M72.2512 50.5848L68.7602 48.5552L68.7552 46.4265L72.2463 48.4561L72.2512 50.5848Z" fill="white"/>
<path d="M68.7558 46.4265C68.7521 46.3823 68.739 46.3394 68.7173 46.3007C68.6957 46.2619 68.666 46.2283 68.6303 46.2019L72.1214 48.2315C72.1571 48.2578 72.1867 48.2915 72.2083 48.3302C72.23 48.369 72.2431 48.4119 72.2469 48.4561L68.7558 46.4265Z" fill="white"/>
<path d="M68.653 46.2003L72.1441 48.2299C72.1042 48.2108 72.0599 48.203 72.0159 48.2073C71.9719 48.2117 71.93 48.2281 71.8947 48.2546C71.7925 48.3207 71.7075 48.4101 71.6466 48.5155C71.5857 48.6208 71.5508 48.7392 71.5446 48.8607C71.4998 49.666 71.2661 50.4494 70.8625 51.1477C70.4588 51.846 69.8965 52.4394 69.2211 52.8802L65.73 50.8506C66.4055 50.4099 66.9677 49.8164 67.3714 49.1181C67.775 48.4199 68.0087 47.6364 68.0535 46.8311C68.0596 46.7096 68.0945 46.5912 68.1554 46.4858C68.2162 46.3804 68.3013 46.291 68.4036 46.2251C68.4392 46.199 68.4811 46.1829 68.5249 46.1786C68.5688 46.1742 68.613 46.1817 68.653 46.2003V46.2003Z" fill="black"/>
<path d="M68.7409 53.1575L65.2482 51.1279L65.7304 50.8505L69.2215 52.88L68.7409 53.1575Z" fill="black"/>
<path d="M67.0958 53.3177L63.6031 51.2898C64.0275 51.5309 64.6088 51.4962 65.2545 51.1246L68.7472 53.1542C68.0999 53.5258 67.5202 53.5605 67.0958 53.3177Z" fill="black"/>
<path d="M62.9143 49.7954L66.4021 51.825C66.4021 52.5598 66.6679 53.0751 67.0924 53.3112L63.5996 51.2833C63.1802 51.0472 62.916 50.5303 62.9143 49.7954Z" fill="white"/>
<path d="M66.5986 54.1764L63.1075 52.1469C62.5576 51.8331 62.2141 51.156 62.2125 50.2015L65.7035 52.2295C65.7052 53.1873 66.0487 53.8627 66.5986 54.1764Z" fill="black"/>
<path d="M66.4059 51.8249L62.9148 49.7954L62.9115 48.1737L66.4026 50.2033L66.4059 51.8249Z" fill="white"/>
<path d="M62.8655 48.0002L66.3565 50.0298C66.389 50.0816 66.4051 50.1421 66.4027 50.2032L62.9117 48.1736C62.9141 48.1125 62.898 48.0521 62.8655 48.0002V48.0002Z" fill="white"/>
<path d="M62.8653 48.0002C62.8505 47.9782 62.8307 47.9601 62.8075 47.9474L66.3002 49.9753C66.3227 49.989 66.3419 50.0076 66.3563 50.0298L64.0543 48.6905L63.4598 48.3454L63.1526 48.167L63.004 48.0811C62.9552 48.0587 62.9088 48.0316 62.8653 48.0002V48.0002Z" fill="white"/>
<path d="M65.9727 50.0446L62.4817 48.0167C62.6468 47.9176 62.7409 47.9094 62.812 47.9474L66.3046 49.9753C66.2369 49.9439 66.1445 49.9439 65.9727 50.0446Z" fill="black"/>
<path d="M63.3738 53.8957L59.8827 51.8678C60.4648 51.5089 60.9591 51.0242 61.3293 50.4492C61.7238 49.8665 61.9993 49.2115 62.1402 48.5221C62.1609 48.4194 62.2017 48.3219 62.2604 48.2351C62.3191 48.1484 62.3944 48.0741 62.482 48.0167L65.9731 50.0446C65.8856 50.102 65.8104 50.1762 65.752 50.263C65.6936 50.3498 65.6531 50.4473 65.6329 50.55C65.4918 51.2402 65.2157 51.8957 64.8204 52.4788C64.4515 53.0543 63.9569 53.5388 63.3738 53.8957V53.8957Z" fill="black"/>
<path d="M62.8934 54.1748L59.4023 52.1452L59.8829 51.8678L63.3756 53.8957L62.8934 54.1748Z" fill="black"/>
<path d="M88.054 20.4401L84.5679 18.4106C84.5597 15.6924 83.5903 13.7867 82.0297 12.8949L85.5208 14.9245C87.0764 15.8162 88.0474 17.7219 88.054 20.4401Z" fill="black"/>
<path d="M61.2483 54.3348L57.7572 52.3053C58.1816 52.548 58.7629 52.5134 59.4086 52.1401L62.8997 54.1697C62.254 54.5429 61.6727 54.5776 61.2483 54.3348Z" fill="black"/>
<path d="M88.0788 31.5374L84.5877 29.5094L84.5629 18.4104L88.054 20.44L88.0788 31.5374Z" fill="black"/>
<path d="M57.0689 50.811L60.56 52.8406C60.56 53.5755 60.8242 54.094 61.2486 54.3269L57.7576 52.3055C57.3332 52.0644 57.0706 51.5476 57.0689 50.811Z" fill="white"/>
<path d="M75.959 13.491C78.3189 12.1319 80.4641 12.0047 82.0246 12.8948L85.5157 14.9244C83.9551 14.0343 81.8099 14.1614 79.4517 15.5205L75.959 13.491Z" fill="white"/>
<path d="M60.5599 52.8405L57.0688 50.811L57.0556 45.3795L60.5483 47.4091L60.5599 52.8405Z" fill="white"/>
<path d="M60.5486 47.4091L57.0559 45.3795L57.0542 43.8784L60.5453 45.9063L60.5486 47.4091Z" fill="white"/>
<path d="M60.5446 45.9062L57.0535 43.8783L57.0321 34.2804L60.5231 36.3083L60.5446 45.9062Z" fill="white"/>
<path d="M69.0779 21.5004L65.5868 19.4708L75.9592 13.4911L79.4519 15.5207L69.0779 21.5004Z" fill="white"/>
<path d="M60.6884 24.0832C62.0772 22.1576 63.7682 20.5211 65.5864 19.4708L69.0791 21.5004C67.2626 22.5507 65.5699 24.1856 64.1794 26.1127L60.6884 24.0832Z" fill="white"/>
<path d="M60.6882 24.0831L64.1793 26.1127C63.7642 26.6862 63.3784 27.2804 63.0233 27.8929C61.4726 30.5781 60.5132 33.5985 60.5181 36.315L57.0271 34.2871C57.0271 31.5755 57.9799 28.5551 59.5306 25.865C59.886 25.2518 60.2723 24.657 60.6882 24.0831V24.0831Z" fill="white"/>
<path d="M86.0111 14.0657C87.6972 15.0268 88.7491 17.0927 88.7574 20.0256L88.7821 31.1329C88.7821 32.8768 88.1876 34.8172 87.2166 36.5561C86.3199 38.1629 85.0979 39.6062 83.7322 40.5739L83.7718 58.9556C83.7718 59.9135 83.4415 60.9836 82.8883 61.9282C82.3351 62.8728 81.5837 63.7067 80.7514 64.1873L80.2741 64.4647C79.4484 64.9469 78.6805 64.9915 78.1273 64.6761C77.5741 64.3607 77.2339 63.6852 77.2306 62.7307L77.2042 50.1999C77.0757 50.4214 76.9363 50.6364 76.7864 50.844C76.3328 51.4876 75.7522 52.0317 75.0805 52.4425L74.5851 52.7233C73.7511 53.2038 72.9915 53.2501 72.4382 52.9363C71.885 52.6225 71.5663 51.9917 71.5415 51.0834C71.4821 51.2007 71.421 51.3146 71.3549 51.4286C70.81 52.3748 70.0503 53.2055 69.218 53.686L68.7342 53.9651C67.9002 54.4457 67.1406 54.4903 66.5873 54.1765C66.0341 53.8627 65.6939 53.1857 65.6923 52.2295C65.5276 52.427 65.379 52.6374 65.2481 52.8587C64.7673 53.6068 64.1245 54.2372 63.3671 54.7033L62.8849 54.9824C62.0592 55.4629 61.2913 55.5075 60.7381 55.1938C60.1849 54.88 59.8447 54.2029 59.8414 53.2468L59.8298 47.8137V46.3125L59.81 36.7146C59.81 33.7801 60.8421 30.5087 62.5183 27.6072C64.1945 24.7057 66.513 22.1658 69.0644 20.6928L79.4484 14.713C82.0015 13.2416 84.3267 13.1029 86.0111 14.0657ZM88.0539 20.4401C88.0539 17.7219 87.0762 15.8162 85.5157 14.9244C83.9551 14.0327 81.8099 14.1615 79.4484 15.5206L69.0826 21.497C66.7211 22.861 64.5858 25.206 63.0286 27.8928C61.4713 30.5797 60.5184 33.5984 60.5234 36.315L60.5449 45.9129V47.4157L60.5564 52.8455C60.5564 53.582 60.8207 54.1005 61.2451 54.3416C61.6695 54.5827 62.2508 54.5497 62.8965 54.1765L63.377 53.8974C63.9601 53.5405 64.4547 53.0561 64.8236 52.4805C65.2189 51.8974 65.495 51.2419 65.6361 50.5517C65.6564 50.449 65.6969 50.3515 65.7553 50.2647C65.8137 50.1779 65.8888 50.1037 65.9763 50.0463C66.1415 49.9489 66.2356 49.939 66.3066 49.977C66.3422 50.0026 66.3704 50.0372 66.3884 50.0772C66.4064 50.1172 66.4135 50.1612 66.409 50.2049V51.8233C66.409 52.5614 66.6749 53.0767 67.0993 53.3194C67.5237 53.5622 68.1033 53.5275 68.7507 53.1543L69.2312 52.8768C69.9067 52.4361 70.4689 51.8426 70.8726 51.1443C71.2762 50.4461 71.5099 49.6626 71.5547 48.8573C71.5609 48.7358 71.5959 48.6175 71.6567 48.5121C71.7176 48.4067 71.8026 48.3173 71.9048 48.2513C72.07 48.1555 72.2087 48.205 72.2467 48.3586L72.2615 50.5781C72.2615 51.3146 72.5258 51.8315 72.9518 52.0743C73.3779 52.317 73.9559 52.2823 74.6032 51.9091L75.0838 51.6333C75.6045 51.3183 76.0543 50.8988 76.4049 50.4014C76.7805 49.8884 77.0654 49.3147 77.2471 48.7054C77.3009 48.5241 77.4181 48.3682 77.5774 48.2661C77.8119 48.1753 77.9308 48.2661 77.9308 48.4676L77.9605 62.3162C77.9605 63.0544 78.2247 63.5696 78.6491 63.8124C79.0736 64.0552 79.6548 64.0188 80.3005 63.6473L80.7811 63.3698C81.4493 62.9259 82.0042 62.3318 82.4017 61.635C82.7991 60.9382 83.028 60.158 83.0699 59.3569L83.0303 40.6053C83.0361 40.4875 83.0689 40.3727 83.1262 40.2696C83.1835 40.1665 83.2637 40.078 83.3606 40.0108C84.6734 39.1686 85.8525 37.8177 86.7063 36.2886C87.5601 34.7594 88.0819 33.065 88.0786 31.5342L88.0539 20.4368" fill="black"/>
<path d="M88.074 27.1499L88.0666 23.8249L88.0589 20.44L88.0837 31.4697L88.0589 20.4317C88.0589 17.7218 87.0813 15.8161 85.5207 14.9243C83.9602 14.0326 81.81 14.1614 79.4485 15.5205L69.0761 21.5002C66.7212 22.8609 64.586 25.2059 63.0287 27.8927C61.4714 30.5796 60.5186 33.5983 60.5235 36.3149L60.545 45.9128V47.4156L60.5565 52.847C60.5565 53.5819 60.8208 54.1004 61.2452 54.3333C61.6696 54.5661 62.2509 54.5414 62.8966 54.1681L63.3804 53.8891C63.9618 53.5311 64.4551 53.0468 64.8238 52.4722C65.219 51.889 65.4952 51.2335 65.6362 50.5433C65.6623 50.4272 65.7131 50.3181 65.7852 50.2235C65.8573 50.1289 65.949 50.0509 66.0541 49.9951C66.0897 49.9693 66.1316 49.9534 66.1754 49.9491C66.2192 49.9447 66.2634 49.952 66.3034 49.9703C66.339 49.9955 66.3673 50.0298 66.3852 50.0695C66.4032 50.1093 66.4103 50.1531 66.4058 50.1965V51.8182C66.4058 52.5531 66.6717 53.0683 67.0961 53.3045C67.5205 53.5406 68.1001 53.5125 68.7475 53.1393L69.2297 52.8602C69.9047 52.4196 70.4666 51.8263 70.8699 51.1283C71.2733 50.4303 71.5068 49.6473 71.5516 48.8424C71.5577 48.7208 71.5927 48.6025 71.6535 48.4971C71.7144 48.3918 71.7995 48.3024 71.9017 48.2363C72.0668 48.1405 72.2055 48.1917 72.2534 48.4378V50.5664C72.2534 51.2997 72.5176 51.8166 72.9437 52.0527C73.3697 52.2888 73.9477 52.2608 74.5951 51.8876L75.0773 51.6101C75.5951 51.295 76.0421 50.8761 76.3902 50.3798C76.7658 49.8668 77.0506 49.2932 77.2324 48.6838C77.2632 48.5831 77.3138 48.4896 77.3813 48.4088C77.4488 48.328 77.5318 48.2615 77.6254 48.2132C77.7905 48.1537 77.9094 48.2512 77.9094 48.446L77.9392 62.2963C77.9392 63.0328 78.2034 63.5481 78.6278 63.7826C79.0522 64.0171 79.6335 63.989 80.2792 63.6174L80.7614 63.34C81.4291 62.9009 81.9853 62.3124 82.386 61.621C82.7868 60.9296 83.021 60.1544 83.0701 59.3568L83.0304 40.6052C83.0363 40.4874 83.0691 40.3726 83.1263 40.2695C83.1836 40.1664 83.2638 40.0779 83.3607 40.0107C84.6736 39.1685 85.8527 37.8176 86.7064 36.2885C87.5602 34.7593 88.0821 33.0649 88.0788 31.5341L88.074 27.1499Z" fill="white"/>
<path d="M76.783 50.8439C76.3294 51.4875 75.7489 52.0316 75.0771 52.4424L74.5817 52.7232C74.3114 52.8836 74.0186 53.0027 73.7131 53.0766L73.7296 60.7011L77.2207 62.7306L77.1942 50.1998C77.0679 50.4212 76.9307 50.6362 76.783 50.8439V50.8439Z" fill="black"/>
<path d="M60.7527 55.1936L57.2616 53.164C56.7117 52.8503 56.3682 52.1732 56.3649 51.217L59.856 53.2466C59.8593 54.2044 60.2028 54.8798 60.7527 55.1936Z" fill="black"/>
<path d="M79.4487 14.713L75.9576 12.6835C78.5107 11.2121 80.8359 11.075 82.5203 12.0378L86.0113 14.0657C84.3269 13.1029 82.0017 13.2416 79.4487 14.713Z" fill="black"/>
<path d="M59.8581 53.2469L56.3654 51.2173L56.3538 45.7842L59.8448 47.8138L59.8581 53.2469Z" fill="black"/>
<path d="M59.8446 47.8138L56.3535 45.7843L56.3502 44.2848L59.8413 46.3127L59.8446 47.8138Z" fill="black"/>
<path d="M59.8413 46.3126L56.3503 44.2846L56.3305 34.6851L59.8215 36.7146L59.8413 46.3126Z" fill="black"/>
<path d="M69.0756 20.6927L65.5846 18.6632L75.957 12.6835L79.4481 14.713L69.0756 20.6927Z" fill="black"/>
<path d="M59.8216 36.7145L56.3289 34.685C56.3206 31.7521 57.361 28.479 59.0372 25.5775C60.7133 22.676 63.0319 20.1361 65.5833 18.6631L69.0744 20.6927C66.523 22.1657 64.2044 24.7056 62.5282 27.6071C60.8521 30.5086 59.815 33.78 59.8216 36.7145Z" fill="black"/>
<path d="M119.323 10.1702L116.995 8.81775L117.347 8.61462L119.675 9.96712L119.323 10.1702Z" fill="white"/>
<path d="M104.902 25.3813L102.568 24.0288C104.106 24.904 106.221 24.7719 108.558 23.4227C110.895 22.0735 113.005 19.7665 114.533 17.121L116.861 18.4735C115.334 21.1157 113.228 23.4277 110.886 24.7752C108.545 26.1227 106.439 26.2565 104.902 25.3813Z" fill="black"/>
<path d="M116.866 18.4734L114.537 17.1209C116.063 14.4786 117.001 11.5061 116.995 8.81765C116.988 6.12918 116.033 4.25154 114.498 3.36804L116.826 4.72054C118.362 5.59743 119.315 7.47837 119.321 10.1701C119.328 12.8619 118.392 15.8295 116.866 18.4734Z" fill="black"/>
<path d="M111.902 2.8363C112.801 2.75088 113.706 2.93849 114.498 3.37465L116.826 4.72715C116.034 4.29095 115.129 4.10335 114.228 4.18879L111.902 2.8363Z" fill="white"/>
<path d="M111.901 2.83643H111.91L111.981 2.87936L112.02 2.90248L112.056 2.92395L114.233 4.18892L114.127 4.20048L111.799 2.84799L111.901 2.83643Z" fill="white"/>
<path d="M111.263 2.91892C111.441 2.88477 111.622 2.85997 111.803 2.8446L114.128 4.2004C113.949 4.21692 113.769 4.24004 113.586 4.27471L111.263 2.91892Z" fill="white"/>
<path d="M111.263 2.91882C111.278 2.91882 111.294 2.93699 111.309 2.94525L111.669 3.15497L112.077 3.39112L113.59 4.27132C112.617 4.46567 111.686 4.82539 110.835 5.33482L108.513 3.98232C109.362 3.47342 110.292 3.11372 111.263 2.91882Z" fill="white"/>
<path d="M108.513 3.9823L110.84 5.33479C108.5 6.67738 106.39 8.98934 104.862 11.6316C103.334 14.2738 102.403 17.2463 102.403 19.9381C102.403 22.6299 103.364 24.5042 104.9 25.3877L102.568 24.0286C101.032 23.1517 100.08 21.2708 100.071 18.579C100.063 15.8872 101.004 12.9197 102.53 10.2758C104.056 7.63189 106.172 5.32984 108.513 3.9823Z" fill="white"/>
<path d="M110.835 5.33496C113.173 3.98577 115.294 3.8487 116.826 4.72724C118.359 5.60579 119.315 7.48508 119.322 10.1769L119.675 9.97374L119.322 10.1769C119.322 12.8637 118.392 15.8362 116.866 18.4801C115.34 21.124 113.233 23.4343 110.891 24.7818C108.55 26.1294 106.432 26.2681 104.902 25.3879C103.371 24.5077 102.413 22.63 102.405 19.9383C102.396 17.2465 103.336 14.274 104.862 11.6317C106.388 8.9895 108.5 6.67755 110.835 5.33496Z" fill="white"/>
<path d="M117.321 3.87019C118.984 4.81809 120.017 6.86087 120.025 9.76733C120.033 12.6738 119.016 15.899 117.363 18.7608C115.71 21.6227 113.422 24.1246 110.893 25.5844C108.363 27.0443 106.067 27.1896 104.406 26.245C102.745 25.3004 101.709 23.2559 101.701 20.3495C101.693 17.443 102.712 14.2162 104.365 11.3543C106.018 8.49245 108.305 5.98563 110.833 4.53075C113.361 3.07586 115.658 2.92228 117.321 3.87019ZM116.866 18.4751C118.392 15.8329 119.33 12.8604 119.321 10.1719C119.313 7.48344 118.362 5.6058 116.826 4.72231C115.29 3.83881 113.173 3.98083 110.835 5.33002C108.496 6.67921 106.389 8.98952 104.862 11.6318C103.334 14.274 102.403 17.2465 102.403 19.9383C102.403 22.6301 103.364 24.5044 104.9 25.3879C106.435 26.2714 108.553 26.131 110.889 24.7818C113.226 23.4326 115.336 21.1256 116.864 18.4801" fill="black"/>
<path d="M104.406 26.24L102.073 24.8875C100.41 23.9396 99.3758 21.8985 99.3675 18.992C99.3593 16.0856 100.378 12.8587 102.03 9.99687C103.681 7.13499 105.976 4.63313 108.513 3.17329C111.049 1.71346 113.338 1.56813 115.001 2.51273L117.322 3.87018C115.659 2.92393 113.358 3.0676 110.833 4.53074C108.308 5.99388 106.014 8.4941 104.365 11.3543C102.715 14.2145 101.693 17.443 101.701 20.3495C101.709 23.2559 102.743 25.2921 104.406 26.24Z" fill="black"/>
<path d="M119.323 35.6461L116.995 34.2936L117.347 34.0905L119.675 35.4429L119.323 35.6461Z" fill="#50DAFF"/>
<path d="M104.902 50.8588L102.573 49.5047C104.111 50.3799 106.226 50.2461 108.563 48.8986C110.9 47.5511 113.01 45.2424 114.538 42.5985L116.866 43.951C115.339 46.5932 113.233 48.9052 110.891 50.2511C108.55 51.597 106.439 51.7324 104.902 50.8588Z" fill="black"/>
<path d="M116.866 43.951L114.537 42.5985C116.063 39.9563 117.001 36.9837 116.995 34.2936C116.988 31.6035 116.033 29.7275 114.498 28.844L116.826 30.1965C118.362 31.0734 119.315 32.956 119.321 35.6461C119.328 38.3362 118.392 41.3071 116.866 43.951Z" fill="black"/>
<path d="M111.802 28.3204C112.734 28.214 113.676 28.3992 114.498 28.8505L116.826 30.203C116.003 29.7515 115.06 29.5663 114.128 29.6729L111.802 28.3204Z" fill="#50DAFF"/>
<path d="M111.429 28.3669C111.555 28.3471 111.679 28.3322 111.803 28.3207L114.128 29.6732C114.006 29.6847 113.88 29.6996 113.755 29.7194L111.429 28.3669Z" fill="#50DAFF"/>
<path d="M111.429 28.3666C111.477 28.3851 111.521 28.4107 111.561 28.4425L111.631 28.4838L111.773 28.5664L111.847 28.6093L111.994 28.6952L112.56 29.0255L113.756 29.7207C113.624 29.7405 113.488 29.767 113.351 29.7967L111.025 28.4442C111.155 28.4112 111.295 28.3864 111.429 28.3666Z" fill="#50DAFF"/>
<path d="M108.513 29.4667C109.295 29.0001 110.144 28.6575 111.03 28.451L113.352 29.7969C112.466 30.0047 111.617 30.3472 110.835 30.8125L108.513 29.4667Z" fill="#50DAFF"/>
<path d="M102.535 35.7583C104.061 33.1161 106.168 30.8041 108.508 29.4583L110.835 30.8107C108.5 32.1599 106.389 34.4669 104.861 37.1108C103.334 39.7547 102.403 42.7289 102.403 45.4141C102.403 48.0992 103.364 49.9818 104.899 50.8637L102.571 49.5095C101.035 48.6343 100.082 46.7517 100.074 44.0599C100.066 41.3681 101.009 38.4022 102.535 35.7583Z" fill="#50DAFF"/>
<path d="M110.835 30.8109C113.173 29.4601 115.294 29.3247 116.826 30.2032C118.359 31.0818 119.315 32.9627 119.322 35.6528L119.675 35.4497L119.322 35.6528C119.322 38.3396 118.392 41.3138 116.866 43.9577C115.34 46.6016 113.233 48.9119 110.891 50.2578C108.55 51.6037 106.432 51.744 104.902 50.8655C103.371 49.987 102.413 48.106 102.405 45.4159C102.396 42.7258 103.336 39.7565 104.862 37.1127C106.388 34.4688 108.5 32.1601 110.835 30.8109Z" fill="#50DAFF"/>
<path d="M117.321 29.3462C118.984 30.2924 120.017 32.3352 120.025 35.24C120.033 38.1448 119.016 41.3733 117.363 44.2352C115.71 47.0971 113.422 49.5989 110.893 51.0588C108.363 52.5186 106.067 52.6639 104.406 51.7193C102.745 50.7747 101.709 48.7303 101.701 45.8238C101.693 42.9174 102.712 39.6905 104.365 36.8303C106.018 33.9701 108.305 31.4649 110.833 30.0067C113.361 28.5486 115.658 28.3999 117.321 29.3462ZM116.866 43.9511C118.392 41.3089 119.33 38.3364 119.321 35.6463C119.313 32.9561 118.362 31.0802 116.826 30.1967C115.29 29.3132 113.173 29.4535 110.835 30.8044C108.496 32.1552 106.389 34.4606 104.862 37.1045C103.334 39.7483 102.403 42.7291 102.403 45.4143C102.403 48.0995 103.364 49.982 104.9 50.8639C106.435 51.7457 108.553 51.6054 110.889 50.2562C113.226 48.907 115.336 46.6 116.864 43.9561" fill="black"/>
<path d="M104.406 51.716L102.073 50.3635C100.41 49.4156 99.3758 47.3728 99.3675 44.4664C99.3593 41.5599 100.378 38.3347 102.03 35.4745C103.681 32.6143 105.97 30.1091 108.498 28.6509C111.026 27.1928 113.325 27.0458 114.986 27.9904L117.315 29.3429C115.652 28.3966 113.352 28.5386 110.827 30.0034C108.302 31.4682 106.008 33.9668 104.358 36.827C102.708 39.6872 101.693 42.9141 101.701 45.8156C101.709 48.7171 102.743 50.7698 104.406 51.716Z" fill="black"/>
<path d="M31.4535 27.3894C32.8216 27.3894 33.9306 26.2804 33.9306 24.9123C33.9306 23.5442 32.8216 22.4352 31.4535 22.4352C30.0854 22.4352 28.9764 23.5442 28.9764 24.9123C28.9764 26.2804 30.0854 27.3894 31.4535 27.3894Z" fill="black"/>
<path d="M5.92549 16.8892L4.57912 15.5428C4.14509 15.1088 3.4414 15.1088 3.00737 15.5428L1.661 16.8892C1.22697 17.3232 1.22697 18.0269 1.661 18.4609L3.00737 19.8073C3.4414 20.2413 4.14509 20.2414 4.57912 19.8073L5.92549 18.461C6.35952 18.0269 6.35952 17.3232 5.92549 16.8892Z" fill="black"/>
<path d="M131.693 54.9677C133.061 54.9677 134.17 53.8587 134.17 52.4906C134.17 51.1226 133.061 50.0135 131.693 50.0135C130.325 50.0135 129.216 51.1226 129.216 52.4906C129.216 53.8587 130.325 54.9677 131.693 54.9677Z" fill="black"/>
<path d="M137.969 45.3896C138.607 45.3896 139.125 44.8721 139.125 44.2336C139.125 43.5952 138.607 43.0776 137.969 43.0776C137.33 43.0776 136.813 43.5952 136.813 44.2336C136.813 44.8721 137.33 45.3896 137.969 45.3896Z" fill="black"/>
<path d="M93.261 3.06389L91.9146 1.71751C91.4806 1.28349 90.7769 1.28349 90.3429 1.71751L88.9965 3.06389C88.5625 3.49791 88.5625 4.20161 88.9965 4.63563L90.3429 5.98201C90.7769 6.41604 91.4806 6.41603 91.9146 5.98201L93.261 4.63563C93.695 4.20161 93.695 3.49791 93.261 3.06389Z" fill="black"/>
<path d="M9.24236 32.6739C9.92639 32.6739 10.4809 32.1194 10.4809 31.4353C10.4809 30.7513 9.92639 30.1968 9.24236 30.1968C8.55833 30.1968 8.00381 30.7513 8.00381 31.4353C8.00381 32.1194 8.55833 32.6739 9.24236 32.6739Z" fill="black"/>
<path d="M85.8654 82.0077C86.5408 82.3974 86.881 82.911 86.8843 83.4279C86.8876 83.9447 86.554 84.4567 85.8819 84.8481L73.3313 92.1456C72.5791 92.5472 71.7364 92.7491 70.8839 92.7318C70.0289 92.7479 69.1839 92.5461 68.4283 92.1456L46.6018 79.5454C45.9264 79.154 45.5878 78.6404 45.5829 78.1236C45.5779 77.6067 45.9132 77.0947 46.5869 76.705L59.1359 69.4058C59.8959 69.0215 60.7357 68.8213 61.5874 68.8213C62.4391 68.8213 63.2788 69.0215 64.0389 69.4058L85.8654 82.0077Z" fill="white"/>
<path d="M87.8702 83.4279C87.8702 84.0885 87.4442 84.749 86.5805 85.2527L74.0265 92.5503C73.1629 93.0457 72.0184 93.305 70.8773 93.3033C69.7362 93.3016 68.5901 93.0539 67.7232 92.5503L45.895 79.9501C45.0263 79.4546 44.5871 78.7858 44.5838 78.1253C44.5805 77.4647 45.0115 76.8041 45.8752 76.2988L58.434 68.9996C59.2977 68.5042 60.4405 68.2466 61.5816 68.2466C62.7227 68.2466 63.8688 68.4976 64.7391 68.9996L86.564 81.6015C87.4343 82.1035 87.8702 82.7674 87.8702 83.4279ZM73.3181 92.1457L85.8687 84.8481C86.5392 84.4567 86.8744 83.9448 86.8711 83.4279C86.8678 82.911 86.5276 82.3974 85.8522 82.0077L64.0405 69.4059C63.2805 69.0216 62.4407 68.8213 61.589 68.8213C60.7374 68.8213 59.8976 69.0216 59.1375 69.4059L46.5853 76.7051C45.9131 77.0948 45.5796 77.6084 45.5812 78.1236C45.5829 78.6389 45.9247 79.1541 46.6001 79.5455L68.4267 92.1457C69.1822 92.5462 70.0273 92.7479 70.8823 92.7319C71.7348 92.7491 72.5775 92.5473 73.3297 92.1457" fill="black"/>
</svg>
