<svg width="80" height="80" viewBox="0 0 80 80" fill="none" xmlns="http://www.w3.org/2000/svg">
<circle cx="40" cy="40" r="40" fill="#FF4500"/>
<path d="M60 40.289C60 37.8313 58.0291 35.8794 55.6273 35.8794C54.4927 35.8778 53.4013 36.3181 52.5809 37.1084C49.5702 34.9395 45.448 33.5302 40.8604 33.3495L42.8672 23.8797L49.3905 25.289C49.4626 26.9517 50.8242 28.2893 52.5092 28.2893C54.2295 28.2893 55.6273 26.88 55.6273 25.1443C55.6273 23.4095 54.2297 22 52.5092 22C51.2907 22 50.2149 22.7229 49.7132 23.7712L42.4376 22.217C42.2224 22.1805 42.0073 22.217 41.8638 22.3254C41.6846 22.4339 41.5772 22.6144 41.5417 22.8314L39.3189 33.3853C34.6595 33.5302 30.4658 34.9395 27.4194 37.1447C26.5989 36.3544 25.5074 35.9142 24.3728 35.9159C21.9354 35.9159 20 37.9033 20 40.3254C20 42.1324 21.075 43.6502 22.5809 44.3376C22.5077 44.7795 22.4717 45.2268 22.4733 45.6749C22.4733 52.4694 30.323 58 40.0002 58C49.6777 58 57.5274 52.5058 57.5274 45.6749C57.5272 45.2269 57.4912 44.7797 57.4198 44.3376C58.925 43.6502 60 42.096 60 40.289ZM29.9641 43.4333C29.9641 41.6985 31.3616 40.289 33.0828 40.289C34.8031 40.289 36.2008 41.6983 36.2008 43.4333C36.2008 45.1682 34.8033 46.5782 33.0828 46.5782C31.3618 46.6138 29.9641 45.1682 29.9641 43.4333ZM47.4196 51.7827C45.2691 53.9516 41.1829 54.0964 40.0002 54.0964C38.7817 54.0964 34.6957 53.9152 32.5804 51.7827C32.2584 51.4575 32.2584 50.9514 32.5804 50.6261C32.9031 50.3014 33.4048 50.3014 33.7275 50.6261C35.0898 51.9999 37.9573 52.4694 40.0002 52.4694C42.0435 52.4694 44.9463 51.9997 46.2725 50.6261C46.5952 50.3014 47.0969 50.3014 47.4196 50.6261C47.7062 50.9514 47.7062 51.4575 47.4196 51.7827ZM46.8458 46.614C45.1253 46.614 43.7278 45.2047 43.7278 43.4697C43.7278 41.7347 45.1253 40.3254 46.8458 40.3254C48.5668 40.3254 49.9643 41.7347 49.9643 43.4697C49.9643 45.168 48.5668 46.614 46.8458 46.614Z" fill="white"/>
</svg>
