<svg width="138" height="105" viewBox="0 0 138 105" fill="none" xmlns="http://www.w3.org/2000/svg">
<path d="M77.0957 17.2884L77.077 24.2082C76.7424 24.0374 76.3721 23.9484 75.9965 23.9484C75.6208 23.9484 75.2505 24.0374 74.9159 24.2082L74.9345 17.2884C75.2691 17.1176 75.6395 17.0286 76.0151 17.0286C76.3908 17.0286 76.7611 17.1176 77.0957 17.2884Z" fill="black"/>
<path d="M74.9349 17.2885L74.9163 24.2083L60.4094 32.6373L60.4298 25.7175L74.9349 17.2885Z" fill="black"/>
<path d="M59.9682 33.2586L59.9869 26.3388C59.9869 26.1147 60.1346 25.8889 60.4299 25.7174L60.4096 32.6372C60.1159 32.8087 59.9682 33.0328 59.9682 33.2586Z" fill="black"/>
<path d="M59.9682 33.2638L59.9869 26.344C59.9801 28.6517 59.9739 30.9583 59.9682 33.2638Z" fill="white"/>
<path d="M60.4181 33.8885C60.1193 33.7188 59.9682 33.4896 59.9682 33.2638C59.9682 30.9572 59.9744 28.6506 59.9869 26.344C59.9869 26.5715 60.138 26.7973 60.4368 26.9704C60.4317 29.045 60.4232 31.814 60.4181 33.8885Z" fill="white"/>
<path d="M58.9492 33.2553L58.9695 26.344C58.9695 26.7226 59.2174 27.1046 59.7199 27.3932L59.6996 34.313C59.1987 34.0159 58.9475 33.6441 58.9492 33.2553Z" fill="black"/>
<path d="M102.422 31.9107L102.401 38.8288L77.0769 24.2083L77.0956 17.2885L102.422 31.9107Z" fill="black"/>
<path d="M102.872 32.5406L102.854 39.4604C102.854 39.2312 102.703 39.0037 102.402 38.8306L102.422 31.9108C102.723 32.0839 102.874 32.3131 102.872 32.5406Z" fill="black"/>
<path d="M102.853 39.4603C102.853 39.6844 102.704 39.9102 102.409 40.0817L102.429 33.1619C102.724 32.9921 102.872 32.7646 102.872 32.5405C102.867 34.6168 102.859 37.379 102.853 39.4603Z" fill="white"/>
<path d="M103.891 32.5422L103.87 39.4621C103.87 39.8373 103.622 40.2124 103.132 40.4977L103.15 33.5778C103.636 33.2926 103.889 32.9174 103.891 32.5422Z" fill="black"/>
<path d="M102.429 33.162L102.408 40.0818L87.903 48.5108L87.9234 41.591L102.429 33.162Z" fill="white"/>
<path d="M85.7625 41.5909L85.7421 48.5107L60.4176 33.8884L60.4362 26.9703L85.7625 41.5909Z" fill="white"/>
<path d="M87.9234 41.5909L87.9031 48.5108C87.5682 48.6806 87.198 48.7691 86.8225 48.7691C86.447 48.7691 86.0768 48.6806 85.7419 48.5108L85.7623 41.5909C86.0972 41.7608 86.4674 41.8493 86.8429 41.8493C87.2183 41.8493 87.5886 41.7608 87.9234 41.5909V41.5909Z" fill="white"/>
<path d="M102.422 31.9107C103.02 32.2502 103.023 32.8155 102.422 33.1619L87.9169 41.5909C87.582 41.7608 87.2118 41.8493 86.8363 41.8493C86.4608 41.8493 86.0906 41.7608 85.7557 41.5909L60.4363 26.9704C59.8387 26.6308 59.837 26.0621 60.4363 25.7175L74.9414 17.2884C75.276 17.1176 75.6463 17.0286 76.022 17.0286C76.3976 17.0286 76.768 17.1176 77.1026 17.2884L102.422 31.9107Z" fill="white"/>
<path d="M103.151 33.5779L103.132 40.4977L88.6253 48.9284L88.6456 42.0086L103.151 33.5779Z" fill="black"/>
<path d="M85.046 42.0086L85.0257 48.9284L59.6994 34.3062L59.7198 27.3864L85.046 42.0086Z" fill="black"/>
<path d="M103.14 31.4931C104.137 32.0686 104.14 33.004 103.15 33.5778L88.6451 42.0086C87.6553 42.5841 86.0408 42.5841 85.0443 42.0086L59.7198 27.3864C58.7232 26.8108 58.7181 25.8771 59.7079 25.3016L74.213 16.8708C75.2027 16.297 76.8172 16.2953 77.8138 16.8708L103.14 31.4931ZM87.9236 41.591L102.429 33.1619C103.023 32.8224 103.019 32.2553 102.429 31.9107L77.0957 17.2885C76.7611 17.1177 76.3907 17.0286 76.0151 17.0286C75.6394 17.0286 75.2691 17.1177 74.9345 17.2885L60.4294 25.7175C59.8369 26.0571 59.8386 26.6241 60.4294 26.9704L85.7556 41.591C86.0905 41.7608 86.4607 41.8494 86.8362 41.8494C87.2117 41.8494 87.5819 41.7608 87.9168 41.591" fill="black"/>
<path d="M88.6449 42.0086L88.6245 48.9234C87.6348 49.4972 86.0219 49.4972 85.0254 48.9234L85.0441 42.0035C86.0406 42.5842 87.6551 42.5842 88.6449 42.0086Z" fill="black"/>
<path d="M74.4728 5.27738L76.8649 3.88696C74.9193 4.99556 73.7139 7.37912 73.7021 10.7796C73.6902 14.1801 74.8905 17.9473 76.8156 21.3053C78.7408 24.6634 81.4215 27.5749 84.3806 29.2845C87.3397 30.9941 90.022 31.1622 91.9676 30.0536L89.5755 31.4372C87.6283 32.5458 84.9476 32.376 81.9885 30.6698C79.0294 28.9636 76.3573 26.0385 74.4219 22.6906C72.4865 19.3428 71.3015 15.5756 71.31 12.1734C71.3185 8.77123 72.5273 6.38597 74.4728 5.27738Z" fill="black"/>
<path d="M95.13 23.1506C95.1198 26.546 93.9128 28.9347 91.9672 30.045L89.5752 31.4371C91.5207 30.3268 92.7278 27.9449 92.7363 24.5427L95.13 23.1506Z" fill="white"/>
<path d="M76.865 3.88696C78.8123 2.77836 81.4912 2.94644 84.4503 4.65432L82.0583 6.04474C79.0992 4.33685 76.4185 4.17727 74.473 5.27738L76.865 3.88696Z" fill="white"/>
<path d="M92.7363 24.541L95.13 23.1506L95.4916 23.3594L93.0979 24.7498L92.7363 24.541Z" fill="white"/>
<path d="M84.4519 4.65417C86.6725 5.93594 88.73 7.89847 90.4362 10.2124L88.0425 11.6028C86.3346 9.29058 84.2821 7.32974 82.0581 6.04459L84.4519 4.65417Z" fill="white"/>
<path d="M90.8474 10.7896L88.4536 12.1801C88.3195 11.9865 88.1803 11.793 88.0411 11.6028L90.4349 10.2158C90.5741 10.4026 90.7116 10.5944 90.8474 10.7896Z" fill="white"/>
<path d="M90.8472 10.7897C90.9864 10.99 91.1234 11.1932 91.2581 11.3991L88.866 12.7896C88.7319 12.5841 88.5944 12.3804 88.4552 12.1801L90.8472 10.7897Z" fill="white"/>
<path d="M91.7183 12.1308L89.3262 13.5212C89.1768 13.2745 89.0229 13.0306 88.8644 12.7895L91.2582 11.4042C91.4127 11.6402 91.5689 11.8829 91.7183 12.1308Z" fill="white"/>
<path d="M92.0166 12.6334C93.9587 15.9881 95.1471 19.7502 95.1302 23.1507L92.7364 24.5411C92.7466 21.1457 91.5565 17.3734 89.6245 14.0255L92.0166 12.6351V12.6334Z" fill="white"/>
<path d="M91.7183 12.1309C91.8201 12.3006 91.9186 12.4704 92.0154 12.6402L89.6233 14.0306C89.5265 13.8608 89.4264 13.691 89.3262 13.5213L91.7183 12.1309Z" fill="white"/>
<path d="M82.0581 6.04458C85.0172 7.75416 87.6911 10.6759 89.6248 14.0237C91.5585 17.3716 92.7469 21.1388 92.7367 24.5393L93.0983 24.7481L92.7367 24.5393C92.7367 27.9347 91.5211 30.3233 89.5756 31.4336C87.63 32.5439 84.9476 32.3725 81.9885 30.6663C79.0294 28.9601 76.3573 26.035 74.4219 22.6871C72.4865 19.3392 71.3015 15.572 71.31 12.1699C71.3185 8.76768 72.5273 6.38581 74.4728 5.27722C76.4184 4.16862 79.0991 4.33669 82.0581 6.04458Z" fill="white"/>
<path d="M90.1356 13.7334L92.5293 12.343C94.592 15.9082 95.8636 19.9419 95.8517 23.5682C95.8398 27.1945 94.553 29.7393 92.4767 30.9277L90.083 32.3181C92.1592 31.1297 93.4495 28.5832 93.4597 24.9603C93.4699 21.3374 92.1983 17.3037 90.1356 13.7334Z" fill="black"/>
<path d="M73.9635 4.39616L76.3556 3.00405C78.4319 1.81566 81.2976 2.00071 84.4536 3.82404C87.6096 5.64736 90.4685 8.77282 92.5295 12.3431L90.1358 13.7335C88.0765 10.1683 85.2125 7.03948 82.0598 5.21445C78.9072 3.38943 76.0381 3.21117 73.9635 4.39616Z" fill="black"/>
<path d="M90.1358 13.7334C92.1985 17.2986 93.4701 21.3323 93.4599 24.9586C93.4497 28.5848 92.1595 31.1348 90.0832 32.3164C88.0069 33.498 85.1429 33.3197 81.9851 31.4964C78.8274 29.6731 75.9719 26.551 73.9109 22.9791C71.8499 19.4071 70.5766 15.3819 70.5868 11.7522C70.597 8.12252 71.8889 5.57768 73.9635 4.39608C76.0381 3.21449 78.9038 3.39105 82.0598 5.21437C85.2159 7.0377 88.0765 10.1632 90.1358 13.7334ZM89.5756 31.437C91.5211 30.3267 92.7282 27.9448 92.7367 24.5426C92.7452 21.1405 91.5568 17.375 89.6248 14.0271C87.6928 10.6793 85.0172 7.75582 82.0581 6.04794C79.0991 4.34006 76.4184 4.18048 74.4728 5.28058C72.5273 6.38069 71.3202 8.77274 71.31 12.1732C71.2998 15.5737 72.4984 19.3426 74.4219 22.6989C76.3454 26.0553 79.0295 28.9685 81.9885 30.6781C84.9476 32.3877 87.6283 32.5541 89.5756 31.4455" fill="black"/>
<path d="M109.012 35.4538L108.991 42.3736C108.657 42.2031 108.287 42.1142 107.912 42.1142C107.536 42.1142 107.166 42.2031 106.832 42.3736L106.851 35.4538C107.186 35.284 107.556 35.1954 107.931 35.1954C108.307 35.1954 108.677 35.284 109.012 35.4538V35.4538Z" fill="black"/>
<path d="M106.851 35.4539L106.832 42.3737L92.3255 50.8027L92.3459 43.8846L106.851 35.4539Z" fill="black"/>
<path d="M91.8842 51.4241L91.9029 44.506C91.9029 44.2802 92.0506 44.0544 92.346 43.8846L92.3256 50.8027C92.0319 50.9742 91.8842 51.2 91.8842 51.4241Z" fill="black"/>
<path d="M91.8842 51.4292L91.9029 44.5094C91.8961 46.8171 91.8898 49.1237 91.8842 51.4292Z" fill="white"/>
<path d="M92.334 52.0557C92.0353 51.8859 91.8842 51.6567 91.8842 51.4292C91.8842 49.1226 91.8904 46.816 91.9029 44.5094C91.9029 44.7369 92.0539 44.9627 92.3527 45.1358C92.3476 47.2121 92.3391 49.9794 92.334 52.0557Z" fill="white"/>
<path d="M90.8653 51.4207L90.8839 44.5009C90.8839 44.8811 91.1335 45.2631 91.6361 45.5517L91.6157 52.4715C91.1148 52.1829 90.8636 51.8094 90.8653 51.4207Z" fill="black"/>
<path d="M134.336 50.0761L134.318 56.9942L108.991 42.3737L109.012 35.4539L134.336 50.0761Z" fill="black"/>
<path d="M134.788 50.706L134.768 57.6258C134.768 57.3966 134.619 57.1691 134.318 56.9943L134.337 50.0762C134.637 50.2493 134.788 50.4785 134.788 50.706Z" fill="black"/>
<path d="M134.768 57.6258C134.768 57.8499 134.62 58.0756 134.325 58.2471L134.343 51.3273C134.639 51.1575 134.786 50.93 134.788 50.7059C134.781 52.7805 134.773 55.5444 134.768 57.6258Z" fill="white"/>
<path d="M135.807 50.7076L135.786 57.6274C135.786 58.0026 135.538 58.3778 135.048 58.6647L135.066 51.7449C135.552 51.458 135.805 51.0845 135.807 50.7076Z" fill="black"/>
<path d="M134.344 51.3274L134.325 58.2472L119.82 66.6762L119.839 59.7564L134.344 51.3274Z" fill="white"/>
<path d="M117.677 59.7564L117.658 66.6762L92.3337 52.0557L92.3524 45.1359L117.677 59.7564Z" fill="white"/>
<path d="M119.838 59.7563L119.817 66.6762C119.483 66.8467 119.113 66.9356 118.738 66.9356C118.362 66.9356 117.992 66.8467 117.658 66.6762L117.677 59.7563C118.011 59.9271 118.382 60.0162 118.757 60.0162C119.133 60.0162 119.503 59.9271 119.838 59.7563Z" fill="white"/>
<path d="M134.337 50.0761C134.936 50.4156 134.938 50.981 134.337 51.3273L119.832 59.7564C119.497 59.9271 119.127 60.0162 118.751 60.0162C118.375 60.0162 118.005 59.9271 117.67 59.7564L92.3526 45.1358C91.755 44.7963 91.7516 44.2292 92.3526 43.8846L106.858 35.4538C107.193 35.284 107.563 35.1954 107.938 35.1954C108.314 35.1954 108.684 35.284 109.019 35.4538L134.337 50.0761Z" fill="white"/>
<path d="M135.067 51.745L135.048 58.6648L120.541 67.0939L120.562 60.1741L135.067 51.745Z" fill="black"/>
<path d="M116.96 60.1739L116.94 67.092L91.6155 52.4714L91.6359 45.5516L116.96 60.1739Z" fill="black"/>
<path d="M135.054 49.6585C136.053 50.234 136.056 51.1694 135.066 51.7449L120.561 60.174C119.571 60.7495 117.957 60.7495 116.96 60.174L91.6358 45.5517C90.6392 44.9779 90.6324 44.0408 91.6222 43.467L106.127 35.0362C107.117 34.4624 108.733 34.4624 109.73 35.0362L135.054 49.6585ZM119.838 59.7563L134.343 51.3273C134.937 50.9877 134.936 50.4207 134.343 50.0761L109.012 35.4538C108.677 35.284 108.307 35.1954 107.931 35.1954C107.556 35.1954 107.185 35.284 106.851 35.4538L92.3454 43.8846C91.7512 44.2241 91.7546 44.7912 92.3454 45.1358L117.67 59.7563C118.005 59.9271 118.375 60.0162 118.751 60.0162C119.126 60.0162 119.497 59.9271 119.831 59.7563" fill="black"/>
<path d="M120.561 60.174L120.541 67.0887C119.551 67.6643 117.938 67.6643 116.94 67.0887L116.96 60.1689C117.957 60.7496 119.571 60.7496 120.561 60.174Z" fill="black"/>
<path d="M106.387 23.4425L108.781 22.0521C106.835 23.1624 105.628 25.5443 105.618 28.9448C105.608 32.3453 106.806 36.1141 108.732 39.4705C110.657 42.8268 113.337 45.7418 116.297 47.4496C119.256 49.1575 121.936 49.3256 123.884 48.217L121.49 49.6023C119.544 50.7109 116.864 50.5428 113.904 48.835C110.945 47.1271 108.272 44.2037 106.338 40.8558C104.404 37.5079 103.216 33.7408 103.226 30.3301C103.236 26.9194 104.442 24.5528 106.387 23.4425Z" fill="black"/>
<path d="M127.046 41.3159C127.036 44.7113 125.829 47.1017 123.883 48.2103L121.49 49.6024C123.435 48.4938 124.642 46.1102 124.652 42.7097L127.046 41.3159Z" fill="#6034DF"/>
<path d="M108.781 22.0521C110.728 20.9435 113.407 21.1116 116.366 22.8195L113.974 24.2116C111.015 22.502 108.335 22.3339 106.387 23.4425C107.105 23.0249 108.061 22.4664 108.781 22.0521Z" fill="#6034DF"/>
<path d="M124.652 42.708L127.046 41.3159L127.406 41.5247L125.014 42.9151L124.652 42.708Z" fill="#6034DF"/>
<path d="M123.933 30.8004C125.875 34.1534 127.063 37.9155 127.046 41.316L124.652 42.7081C124.661 39.3127 123.473 35.5404 121.541 32.1908L123.933 30.8004Z" fill="#6034DF"/>
<path d="M116.368 22.8196C119.329 24.5292 121.999 27.4509 123.933 30.7988L121.541 32.1892C119.607 28.8413 116.935 25.9196 113.976 24.21L116.368 22.8196Z" fill="#6034DF"/>
<path d="M113.974 24.2115C116.933 25.9194 119.605 28.8428 121.541 32.1907C123.476 35.5386 124.661 39.3057 124.653 42.7079L125.014 42.915L124.653 42.7079C124.642 46.1033 123.435 48.492 121.49 49.6006C119.544 50.7092 116.864 50.5411 113.904 48.8332C110.945 47.1253 108.272 44.2019 106.338 40.854C104.404 37.5062 103.216 33.739 103.226 30.3283C103.236 26.9177 104.442 24.546 106.387 23.4357C108.333 22.3254 111.015 22.5019 113.974 24.2115Z" fill="#6034DF"/>
<path d="M122.052 31.8988L124.445 30.5084C126.508 34.0736 127.778 38.1073 127.768 41.7336C127.758 45.3599 126.469 47.9047 124.393 49.0931L121.999 50.4835C124.075 49.2952 125.364 46.7486 125.376 43.124C125.388 39.4994 124.114 35.4708 122.052 31.8988Z" fill="black"/>
<path d="M105.88 22.5615L108.272 21.171C110.346 19.9827 113.212 20.1677 116.37 21.9893C119.527 23.811 122.385 26.9364 124.446 30.5084L122.052 31.8988C119.991 28.3336 117.128 25.2031 113.976 23.3797C110.823 21.5564 107.954 21.3782 105.88 22.5615Z" fill="black"/>
<path d="M122.052 31.8988C124.115 35.464 125.386 39.4977 125.376 43.124C125.366 46.7502 124.075 49.3019 121.999 50.4835C119.923 51.6651 117.059 51.4851 113.901 49.6635C110.743 47.8419 107.888 44.7181 105.827 41.1461C103.766 37.5742 102.493 33.5473 102.503 29.9193C102.513 26.2913 103.803 23.7431 105.88 22.5615C107.956 21.3799 110.82 21.5581 113.976 23.3798C117.132 25.2014 119.991 28.3268 122.052 31.8988ZM121.49 49.6024C123.435 48.4938 124.643 46.1102 124.653 42.7097C124.663 39.3092 123.473 35.542 121.541 32.1925C119.609 28.8429 116.933 25.9212 113.974 24.2133C111.015 22.5054 108.334 22.3357 106.387 23.4443C104.44 24.5529 103.235 26.9381 103.226 30.3369C103.218 33.7357 104.406 37.5063 106.338 40.8626C108.27 44.219 110.945 47.1339 113.905 48.8418C116.864 50.5497 119.544 50.7093 121.49 49.6092" fill="black"/>
<path d="M1.64998 57.6273L1.61942 68.6997L1.25781 68.4909L1.29007 57.4202L1.64998 57.6273Z" fill="black"/>
<path d="M2.01154 57.8361L1.97928 68.9068L1.61937 68.6997L1.64993 57.6273L2.01154 57.8361Z" fill="black"/>
<path d="M52.6334 28.4185L52.6012 39.4891L1.97928 68.9068L2.01153 57.8361L52.6334 28.4185Z" fill="black"/>
<path d="M52.6333 28.4185L2.01139 57.8362L1.64978 57.6273L1.28987 57.4202L51.9118 28.0009L52.6333 28.4185Z" fill="black"/>
<path d="M116.148 68.9103L116.115 79.981L51.7116 42.7964L51.7439 31.7257L116.148 68.9103Z" fill="black"/>
<path d="M57.7879 39.0971L57.7556 50.1678L52.9393 47.387L52.9698 36.3146L57.7879 39.0971Z" fill="white"/>
<path d="M56.3464 39.0972L56.3142 50.1678L52.9426 48.2206L52.9748 37.1499L56.3464 39.0972Z" fill="black"/>
<path d="M51.7442 31.7257L51.7119 42.7964L31.0119 54.8263L31.0442 43.7556L51.7442 31.7257Z" fill="black"/>
<path d="M52.9696 36.3146L52.939 47.387L38.5799 55.7311L38.6122 44.6605L52.9696 36.3146Z" fill="white"/>
<path d="M52.9747 37.1499L52.9424 48.2206L40.0195 55.7312L40.0518 44.6588L52.9747 37.1499Z" fill="black"/>
<path d="M33.3327 45.0763L33.3021 56.1487L31.0119 54.8262L31.0442 43.7555L33.3327 45.0763Z" fill="white"/>
<path d="M31.8913 45.0763L31.8608 56.147L29.5723 54.8262L29.6028 43.7555L31.8913 45.0763Z" fill="black"/>
<path d="M43.4234 46.6059L43.3929 57.6766L40.0195 55.7311L40.0518 44.6587L43.4234 46.6059Z" fill="#6034DF"/>
<path d="M56.3461 39.097L56.3138 50.1677L43.3926 57.6766L43.4232 46.606L56.3461 39.097Z" fill="#6034DF"/>
<path d="M56.3461 39.0972L43.4232 46.6061L40.0516 44.6588L52.9745 37.1499L56.3461 39.0972Z" fill="#6034DF"/>
<path d="M57.7873 39.097L57.7551 50.1677L43.396 58.5119L43.4282 47.4412L57.7873 39.097Z" fill="black"/>
<path d="M43.4285 47.4411L43.3963 58.5118L38.5799 55.7309L38.6122 44.6603L43.4285 47.4411Z" fill="black"/>
<path d="M52.9693 36.3146L57.7873 39.0971L43.4282 47.4413L38.6136 44.6605L52.9693 36.3146ZM43.4231 46.606L56.346 39.0971L52.9744 37.1498L40.0515 44.6588L43.4231 46.606" fill="black"/>
<path d="M38.4037 50.3613L38.3732 61.432L33.5551 58.6511L33.5874 47.5804L38.4037 50.3613Z" fill="white"/>
<path d="M36.9623 50.3612L36.9318 61.4319L33.5584 59.4846L33.5907 48.4139L36.9623 50.3612Z" fill="black"/>
<path d="M33.3323 45.0763L33.3018 56.1487L12.0025 68.5249L12.0347 57.4542L33.3323 45.0763Z" fill="black"/>
<path d="M33.5871 47.5804L33.5548 58.6511L19.1957 66.9953L19.228 55.9246L33.5871 47.5804Z" fill="white"/>
<path d="M33.5904 48.4139L33.5581 59.4846L20.637 66.9952L20.6676 55.9246L33.5904 48.4139Z" fill="black"/>
<path d="M36.9619 50.3612L24.0391 57.8701L20.6674 55.9246L33.5903 48.4139L36.9619 50.3612Z" fill="#6034DF"/>
<path d="M36.9619 50.3612L36.9314 61.4319L24.0085 68.9425L24.0391 57.8701L36.9619 50.3612Z" fill="#6034DF"/>
<path d="M24.0392 57.8702L24.0086 68.9426L20.637 66.9953L20.6676 55.9247L24.0392 57.8702Z" fill="#6034DF"/>
<path d="M38.4031 50.3612L38.3725 61.4319L24.0134 69.776L24.044 58.7054L38.4031 50.3612Z" fill="black"/>
<path d="M24.0443 58.7055L24.0138 69.7762L19.1957 66.9954L19.228 55.9247L24.0443 58.7055Z" fill="black"/>
<path d="M61.4484 72.8099C58.9629 74.2546 57.1006 75.9269 55.8612 77.7094C55.8714 74.0198 55.8822 70.3295 55.8935 66.6387C57.1328 64.8545 58.9952 63.1839 61.4806 61.7392C70.8179 56.3065 85.705 55.967 95.7911 60.7206L95.7605 71.7913C85.6745 67.0428 70.7925 67.3806 61.4484 72.8099Z" fill="white"/>
<path d="M97.7024 72.81C97.0776 72.4501 96.4302 72.1105 95.7602 71.7914L95.7908 60.7207C96.4698 61.0348 97.1099 61.3743 97.7346 61.7393C97.7244 65.4301 97.7137 69.1203 97.7024 72.81Z" fill="white"/>
<path d="M99.4709 73.9406C98.9209 73.5501 98.3312 73.1733 97.702 72.81C97.7122 69.1192 97.7229 65.4289 97.7342 61.7393C98.3624 62.1026 98.952 62.4795 99.5032 62.8699C99.493 66.5607 99.4823 70.251 99.4709 73.9406Z" fill="white"/>
<path d="M55.8604 77.7093C54.6347 79.4817 54.0184 81.3492 54.0117 83.2285L54.0422 72.1579C54.0422 70.2802 54.6653 68.4043 55.8927 66.6387C55.8927 68.4846 55.887 70.3295 55.8757 72.1732C55.8757 73.8063 55.8712 75.4401 55.8621 77.0744C55.8621 77.2645 55.9182 77.5277 55.8604 77.7093Z" fill="white"/>
<path d="M105.259 83.3865C105.27 80.0335 103.34 76.6755 99.471 73.9354C99.4812 70.2446 99.492 66.5544 99.5033 62.8647C103.372 65.6048 105.303 68.9629 105.289 72.3158C105.281 75.6416 105.267 80.0709 105.259 83.3865Z" fill="white"/>
<path d="M104.27 72.3091L104.24 83.3865C104.25 79.7127 101.829 76.0321 96.9839 73.2343C87.3546 67.6743 71.7392 67.6743 62.171 73.2343C57.4174 75.9965 55.0406 79.6193 55.0305 83.2507L55.061 72.18C55.0712 68.5521 57.4514 64.9309 62.2032 62.1636C71.7697 56.5969 87.3851 56.5969 97.0145 62.1653C101.861 64.9546 104.281 68.6352 104.27 72.3091Z" fill="black"/>
<path d="M77.8767 71.1105C77.7701 71.2068 77.6848 71.3244 77.6264 71.4557C77.5679 71.587 77.5375 71.729 77.5372 71.8727L77.5695 60.8021C77.5696 60.6583 77.5998 60.5162 77.6583 60.3849C77.7168 60.2536 77.8022 60.136 77.909 60.0398C78.7986 59.1808 81.2619 59.1519 82.727 59.4048C83.497 59.5375 84.2398 59.7962 84.9256 60.1705C84.9629 60.1909 84.9986 60.2096 85.0342 60.2316C87.2276 61.4964 87.45 63.3859 87.4466 64.5047L87.4144 75.5771C87.4144 74.4583 87.1954 72.5705 85.002 71.304L84.8916 71.2429C84.2055 70.8706 83.4627 70.6142 82.6931 70.484C81.2263 70.2226 78.7663 70.2514 77.8767 71.1105Z" fill="black"/>
<path d="M77.5913 72.2411C77.5609 72.1206 77.5443 71.997 77.5421 71.8727L77.5744 60.802C77.5759 60.9263 77.5924 61.05 77.6236 61.1704C77.6134 64.8612 77.6026 68.5514 77.5913 72.2411Z" fill="white"/>
<path d="M79.0989 73.8403C78.4691 73.4227 77.7543 72.949 77.5914 72.2411C77.6038 68.5503 77.6146 64.8601 77.6236 61.1704C77.7934 61.8784 78.5013 62.3588 79.1295 62.7696L79.0989 73.8403Z" fill="white"/>
<path d="M79.2859 73.9643L79.0992 73.8403L79.1297 62.7697L79.3165 62.8936L79.2859 73.9643Z" fill="white"/>
<path d="M83.1413 78.066C82.8476 77.1832 81.9393 75.7554 79.2858 73.9644L79.3164 62.8937C81.9715 64.6847 82.8815 66.1193 83.1735 66.9936C83.1633 70.6844 83.1526 74.3752 83.1413 78.066Z" fill="white"/>
<path d="M76.5826 72.3176C76.5454 72.1722 76.5255 72.0229 76.5232 71.8728L76.5555 60.8004C76.5565 60.951 76.5759 61.101 76.6132 61.2469C76.8186 62.1297 77.7116 62.7239 78.3635 63.1568L78.5435 63.2774C81.0527 64.9751 81.9015 66.2925 82.1732 67.104C82.2819 67.4359 82.3347 67.7835 82.3293 68.1328L82.2988 79.2035C82.3027 78.8542 82.2494 78.5067 82.1409 78.1746C81.871 77.3648 81.0204 76.0406 78.5129 74.348C78.4535 74.3107 78.3941 74.2699 78.333 74.2292C77.6794 73.7963 76.7864 73.2004 76.5826 72.3176Z" fill="black"/>
<path d="M66.2965 73.0052C65.098 73.3821 63.6125 74.2428 63.6108 75.1171L63.6413 64.0448C63.6413 63.1721 65.1285 62.3097 66.3271 61.9345C67.1338 61.6978 67.9701 61.5772 68.8108 61.5763C71.9108 61.5356 74.3946 62.7647 75.7952 63.5694C76.0379 63.7103 76.2484 63.8376 76.4233 63.9429C78.447 65.172 80.328 66.9054 80.3161 68.1871L80.2839 79.2578C80.2839 77.9744 78.4164 76.241 76.3928 75.0136C76.223 74.9066 76.0074 74.7793 75.7646 74.6401C74.3623 73.8303 71.8786 72.6029 68.7786 72.6453C67.9384 72.6474 67.1027 72.7686 66.2965 73.0052Z" fill="black"/>
<path d="M63.6753 75.4295C63.6327 75.3309 63.6107 75.2246 63.6108 75.1171L63.6413 64.0464C63.6419 64.1534 63.6644 64.2591 63.7076 64.3571C63.6974 68.0479 63.6866 71.7387 63.6753 75.4295Z" fill="white"/>
<path d="M87.4145 75.5772C87.4145 75.7469 87.4145 75.8997 87.4026 76.0304C87.4128 72.3396 87.4235 68.6494 87.4348 64.9598C87.4348 64.829 87.445 64.6762 87.445 64.5065C87.4365 67.8238 87.423 72.2531 87.4145 75.5772Z" fill="white"/>
<path d="M64.3837 76.1137C64.084 75.9648 63.837 75.7279 63.6757 75.4347C63.6882 71.7439 63.6989 68.0531 63.708 64.3623C63.8676 64.6561 64.1143 64.8934 64.4142 65.0414L64.3837 76.1137Z" fill="white"/>
<path d="M64.8552 76.348C64.694 76.278 64.5365 76.1998 64.3832 76.1137L64.4138 65.0413C64.5667 65.128 64.7242 65.2063 64.8858 65.2755L64.8552 76.348Z" fill="white"/>
<path d="M67.8701 76.8658C66.916 76.8267 65.8329 76.7826 64.855 76.3564L64.8855 65.2841C65.8651 65.7204 66.9465 65.7628 67.9006 65.8036L67.8701 76.8658Z" fill="white"/>
<path d="M68.154 76.8776L67.8721 76.8657L67.9027 65.795L68.1862 65.8052C68.1749 69.496 68.1641 73.1868 68.154 76.8776Z" fill="white"/>
<path d="M75.8769 78.207C74.5917 77.6977 72.2099 77.0611 68.1524 76.8777C68.1648 73.1869 68.1756 69.4961 68.1846 65.8053C72.2421 65.9903 74.624 66.6287 75.9074 67.1346L75.8769 78.207Z" fill="white"/>
<path d="M77.345 78.9149C76.8742 78.642 76.3832 78.4054 75.8765 78.207L75.907 67.1346C76.4137 67.3339 76.9046 67.5711 77.3756 67.8443L77.345 78.9149Z" fill="white"/>
<path d="M83.3176 79.2035C83.3247 78.8176 83.2673 78.4331 83.1479 78.0661C83.158 74.3753 83.1688 70.6845 83.1801 66.9937C83.2995 67.3607 83.3569 67.7452 83.3499 68.1311C83.3397 71.4535 83.3278 75.8811 83.3176 79.2035Z" fill="white"/>
<path d="M78.4297 79.6042C78.114 79.3937 77.7608 79.156 77.3449 78.9149L77.3755 67.8442C77.7914 68.0836 78.1462 68.3213 78.4603 68.5335L78.4297 79.6042Z" fill="white"/>
<path d="M80.2835 79.2577C80.2858 79.4832 80.2208 79.7043 80.0967 79.8926L80.1273 68.8219C80.2509 68.6333 80.3164 68.4125 80.3157 68.187C80.3055 71.5026 80.2937 75.937 80.2835 79.2577Z" fill="white"/>
<path d="M79.0806 80.0217C78.8769 79.9045 78.6511 79.7534 78.4304 79.604L78.4609 68.5333C78.6833 68.6827 78.9074 68.8338 79.1111 68.951L79.0806 80.0217Z" fill="white"/>
<path d="M79.9529 80.0761C79.9654 76.3853 79.9761 72.695 79.9852 69.0054C80.0382 68.9487 80.0859 68.8873 80.1278 68.822L80.0972 79.8927C80.0545 79.9579 80.0063 80.0193 79.9529 80.0761Z" fill="white"/>
<path d="M79.1889 80.0828L79.0803 80.0217L79.1109 68.951L79.2195 69.0122C79.211 72.3329 79.1974 76.7655 79.1889 80.0828Z" fill="white"/>
<path d="M79.985 69.0053L79.9527 80.076C79.6981 80.0675 79.4434 80.076 79.1888 80.076L79.2193 69.0053C79.474 68.9985 79.7303 68.9968 79.985 69.0053Z" fill="white"/>
<path d="M81.0361 69.097L81.0055 80.1609C80.6566 80.1114 80.3052 80.0808 79.9529 80.0692L79.9852 68.9985C80.3371 69.0107 80.688 69.0436 81.0361 69.097V69.097Z" fill="black"/>
<path d="M81.0055 80.161L81.0361 69.0903L81.0785 69.0274C81.2472 68.7764 81.3376 68.481 81.3383 68.1786L81.306 79.2493C81.3058 79.5515 81.216 79.8469 81.048 80.0981L81.0055 80.161Z" fill="black"/>
<path d="M62.6886 75.5772C62.6262 75.4366 62.5939 75.2845 62.5935 75.1307L62.6258 64.0583C62.6255 64.2126 62.6573 64.3652 62.7192 64.5065C62.9042 64.9344 63.3235 65.2518 63.6987 65.4674C63.8829 65.5723 64.0728 65.667 64.2675 65.7509C65.4898 66.2942 66.8446 66.3502 67.8326 66.3893L68.1077 66.4012C71.9427 66.5709 74.1548 67.1651 75.3381 67.6303C75.7945 67.81 76.2366 68.024 76.6606 68.2703C77.0545 68.4961 77.3907 68.7236 77.6894 68.9239L78.029 69.1531L78.0001 80.217C77.8864 80.144 77.7726 80.0676 77.6606 79.9878C77.3618 79.7875 77.0256 79.5617 76.6335 79.3342C76.2088 79.0878 75.7661 78.8739 75.3093 78.6942C74.1209 78.229 71.9139 77.6382 68.0805 77.4667L67.8055 77.4548C66.8174 77.4141 65.4626 77.3581 64.2403 76.8165C64.0451 76.7319 63.8547 76.6367 63.6699 76.5313C63.293 76.3157 62.8737 75.9982 62.6886 75.5772Z" fill="black"/>
<path d="M79.2195 69.0122L79.189 80.0829C78.7903 80.1015 78.3933 80.1463 78.0006 80.217L78.0311 69.1463C78.4238 69.0749 78.8208 69.03 79.2195 69.0122V69.0122Z" fill="black"/>
<path d="M83.2463 80.0963C83.2193 80.2786 83.2029 80.4622 83.1971 80.6464L83.2276 69.574C83.2335 69.3904 83.2499 69.2073 83.2769 69.0257C83.3198 68.7293 83.3436 68.4304 83.3482 68.131L83.3176 79.2016C83.3114 79.501 83.2876 79.7998 83.2463 80.0963V80.0963Z" fill="black"/>
<path d="M83.2088 80.8196C83.2004 80.7634 83.1964 80.7067 83.1969 80.6498L83.2274 69.5775C83.227 69.6343 83.231 69.6911 83.2393 69.7473C83.2308 73.0697 83.2173 77.4989 83.2088 80.8196Z" fill="white"/>
<path d="M83.2396 69.749L83.209 80.8196C82.8805 80.6619 82.5399 80.5308 82.1904 80.4274L82.221 69.3551C82.5705 69.459 82.9111 69.5907 83.2396 69.749V69.749Z" fill="black"/>
<path d="M76.8766 69.4434L76.8461 80.514C76.5551 80.6147 76.2714 80.7356 75.9972 80.8756L76.0294 69.805C76.3031 69.6649 76.5862 69.5441 76.8766 69.4434V69.4434Z" fill="black"/>
<path d="M87.4021 76.0271C87.3274 78.0202 86.2528 80.4224 84.0764 80.981L84.1069 69.9103C86.285 69.3518 87.3597 66.9495 87.4344 64.9564C87.4242 68.6472 87.4134 72.3374 87.4021 76.0271Z" fill="white"/>
<path d="M85.0325 60.2316C87.5587 61.6899 87.4704 63.9665 87.4348 64.9563C87.3601 66.9494 86.2854 69.3516 84.1072 69.9102C83.9706 69.9477 83.8317 69.976 83.6913 69.9951L83.5911 69.9339C83.4774 69.8694 83.3603 69.8083 83.2397 69.7489C83.2226 69.5072 83.2351 69.2643 83.2771 69.0257C83.3467 68.4671 83.435 67.7745 83.1735 66.9884C82.8798 66.1073 81.9715 64.6796 79.3163 62.8885L79.1296 62.7646C78.5014 62.3469 77.7867 61.8733 77.6237 61.1653C77.5605 60.9692 77.5536 60.7593 77.6037 60.5594C77.6538 60.3596 77.759 60.1778 77.9072 60.0347C78.7968 59.1756 81.2602 59.1468 82.7253 59.3997C83.4953 59.5324 84.2381 59.791 84.9238 60.1654C84.9612 60.1909 84.9968 60.2095 85.0325 60.2316Z" fill="white"/>
<path d="M83.6915 69.9951L83.6592 81.0657L83.5591 81.0063C83.4453 80.9401 83.3282 80.879 83.2094 80.8196L83.2399 69.7489C83.3604 69.8083 83.4776 69.8694 83.5913 69.9339L83.6915 69.9951Z" fill="white"/>
<path d="M83.6588 81.0658C83.6702 77.375 83.6809 73.6848 83.6911 69.9952C83.8315 69.9761 83.9704 69.9478 84.107 69.9103L84.0765 80.9809C83.9393 81.0186 83.7998 81.0469 83.6588 81.0658Z" fill="white"/>
<path d="M57.7423 81.4681C57.5905 81.7725 57.5103 82.1076 57.508 82.4477L57.5403 71.377C57.5413 71.0367 57.6215 70.7014 57.7745 70.3974C58.002 69.9492 58.4536 69.5078 59.0869 69.1259C61.591 67.5979 65.6213 67.6608 67.341 67.6862C70.2577 67.7287 73.6785 68.1955 75.2506 69.0936C75.5017 69.229 75.7247 69.4111 75.9076 69.6301C75.9517 69.683 75.9909 69.7399 76.0248 69.7999L75.9925 80.8705C75.9582 80.8108 75.9191 80.754 75.8754 80.7007C75.6928 80.4819 75.4697 80.3003 75.2183 80.166C73.648 79.2577 70.2271 78.8078 67.3105 78.7569C65.589 78.7331 61.5604 78.6737 59.0563 80.1965C58.4264 80.5802 57.9681 81.0199 57.7423 81.4681Z" fill="black"/>
<path d="M76.0243 69.8049L75.992 80.8756C75.9122 80.9181 75.8324 80.9605 75.756 81.0064C75.644 81.0709 75.5371 81.1388 75.4369 81.2084L75.4674 70.1377C75.5693 70.0681 75.6746 70.0002 75.7866 69.934C75.8647 69.8898 75.9428 69.8474 76.0243 69.8049Z" fill="white"/>
<path d="M75.4371 81.2084C75.1298 81.2084 74.736 81.1965 74.3489 81.1796C74.3591 77.4888 74.3698 73.7985 74.3811 70.1089C74.7665 70.1259 75.1604 70.1428 75.4677 70.1377C75.4541 73.4584 75.4541 77.886 75.4371 81.2084Z" fill="white"/>
<path d="M74.3484 81.1795C73.1803 81.1033 72.0079 81.1209 70.8427 81.2321L70.8698 70.1614C72.0356 70.0494 73.2086 70.0318 74.3773 70.1088C74.3693 73.7985 74.3597 77.4887 74.3484 81.1795Z" fill="white"/>
<path d="M84.3294 81.5615L84.36 70.4908L84.5297 70.45C87.3038 69.737 88.3801 67.0546 88.4599 64.9699C88.4599 64.834 88.4718 64.6728 88.4718 64.4945L88.4395 75.5669C88.4395 75.7452 88.4395 75.9064 88.4294 76.0406C88.3496 78.1236 87.2715 80.8077 84.4992 81.5207L84.3294 81.5615Z" fill="black"/>
<path d="M98.0744 65.9547L98.0422 77.0253C98.0422 76.9897 98.0422 76.954 98.0422 76.9184C98.0143 76.3789 97.7924 75.8676 97.4174 75.4787C97.1048 75.1618 96.7487 74.8908 96.3598 74.674C95.4939 74.1732 94.3378 73.7946 93.2258 73.9525C92.6473 74.0357 92.101 74.2699 91.6419 74.6316C90.8949 75.1969 90.8219 75.82 90.7591 76.3768C90.7523 76.4334 90.7455 76.49 90.7387 76.5466C90.4365 78.8962 89.3381 80.2815 88.4706 81.0166C87.7032 81.6736 86.7949 82.1269 86.0649 82.4902C85.7543 82.6354 85.4527 82.7993 85.1617 82.9809L85.194 71.9085C85.485 71.7285 85.7859 71.5653 86.0955 71.4195C86.8255 71.0562 87.7338 70.6013 88.5011 69.9443C89.3686 69.2041 90.4671 67.8255 90.7709 65.4759C90.7709 65.4233 90.7828 65.3673 90.7896 65.3061C90.8541 64.7527 90.9271 64.1262 91.6741 63.5609C92.1319 63.1981 92.678 62.9637 93.2564 62.8818C94.3684 62.7223 95.5245 63.1025 96.392 63.6034C96.7801 63.8206 97.1356 64.0915 97.448 64.4081C97.8237 64.7966 98.0462 65.308 98.0744 65.8477C98.0728 65.8834 98.0744 65.919 98.0744 65.9547Z" fill="black"/>
<path d="M98.0421 77.0235C98.0421 79.0777 95.2019 80.6447 93.9796 81.3204C93.992 77.6296 94.0028 73.9388 94.0118 70.248C95.2341 69.569 98.071 68.0071 98.0744 65.9512C98.0642 69.2736 98.0506 73.7096 98.0421 77.0235Z" fill="white"/>
<path d="M70.8428 81.232C70.4099 81.2796 69.9006 81.356 69.3233 81.4765L69.3539 70.4041C69.9311 70.2853 70.4404 70.2089 70.8734 70.1614L70.8428 81.232Z" fill="white"/>
<path d="M85.7524 59.8157C88.5842 61.4506 88.4925 63.9106 88.4535 64.9699C88.3737 67.053 87.2973 69.7371 84.5233 70.4501L84.3535 70.4909C84.1475 70.304 83.9234 70.1379 83.6847 69.9951C83.825 69.9761 83.964 69.9477 84.1006 69.9102C86.2787 69.3517 87.3534 66.9495 87.4281 64.9564C87.4637 63.9734 87.552 61.69 85.0258 60.2317C84.9902 60.2096 84.9545 60.1909 84.9172 60.1706C84.2314 59.7962 83.4886 59.5375 82.7187 59.4049C81.2536 59.1519 78.7902 59.1808 77.9006 60.0398C77.7524 60.1829 77.6472 60.3647 77.5971 60.5646C77.547 60.7645 77.5539 60.9744 77.6171 61.1705C77.7869 61.8784 78.4948 62.3589 79.1229 62.7697L79.3097 62.8937C81.9649 64.6847 82.8748 66.1193 83.1669 66.9936C83.4283 67.7745 83.3366 68.4672 83.2704 69.0308C83.2285 69.2695 83.2159 69.5124 83.2331 69.7541C82.9046 69.5958 82.5639 69.4641 82.2144 69.3602C82.2246 69.2397 82.2399 69.114 82.2569 68.985C82.3214 68.4638 82.4029 67.8136 82.1686 67.109C81.897 66.2975 81.0481 64.975 78.5389 63.2824L78.359 63.1619C77.7071 62.729 76.8141 62.1433 76.6087 61.252C76.5297 60.9858 76.5274 60.7027 76.6018 60.4352C76.6763 60.1677 76.8246 59.9265 77.0297 59.7393C78.1298 58.6766 80.9344 58.4864 83.0073 58.8447C83.9218 59.0003 84.8046 59.3054 85.62 59.7478L85.7524 59.8157Z" fill="black"/>
<path d="M84.36 70.484L84.3294 81.5547C84.1227 81.3678 83.8981 81.2018 83.6588 81.059L83.6911 69.9883C83.9298 70.1311 84.1539 70.2971 84.36 70.484V70.484Z" fill="black"/>
<path d="M75.4673 70.1445L75.4368 81.2152C75.1922 81.381 74.9682 81.5753 74.7696 81.7941L74.8001 70.7234C74.9991 70.505 75.223 70.3107 75.4673 70.1445V70.1445Z" fill="black"/>
<path d="M85.1156 82.7703C85.069 82.6001 85.0011 82.4364 84.9136 82.2831L84.9459 71.2124C85.032 71.3664 85.0998 71.5299 85.1479 71.6996C85.1365 75.3904 85.1258 79.0807 85.1156 82.7703Z" fill="black"/>
<path d="M85.1153 82.7702C85.1077 82.6447 85.1077 82.5189 85.1153 82.3934C85.1153 81.9808 85.1153 81.5666 85.1153 81.154V79.5412C85.1221 76.9279 85.1295 74.314 85.1374 71.6996C85.1561 71.7675 85.1696 71.8354 85.1815 71.9033L85.1493 82.9757C85.1422 82.9066 85.1308 82.838 85.1153 82.7702V82.7702Z" fill="black"/>
<path d="M69.324 81.4767C67.3985 81.8962 65.5345 82.5603 63.7776 83.4528L63.8081 72.3821C65.5652 71.4894 67.4291 70.8248 69.3545 70.4043L69.324 81.4767Z" fill="white"/>
<path d="M63.7768 83.4529L63.5697 83.5564L63.6003 72.4857L63.8142 72.3771L63.7768 83.4529Z" fill="white"/>
<path d="M58.4348 84.0656C58.1472 83.9059 57.9089 83.6706 57.7455 83.3851C57.5821 83.0996 57.4999 82.7749 57.5078 82.446L57.5401 71.3754C57.532 71.704 57.6139 72.0286 57.777 72.3141C57.9401 72.5996 58.1781 72.835 58.4653 72.995L58.4348 84.0656Z" fill="white"/>
<path d="M58.8542 84.2591C58.7087 84.209 58.5684 84.1453 58.4348 84.069L58.4654 72.9983C58.5992 73.074 58.7396 73.1377 58.8847 73.1884L58.8542 84.2591Z" fill="white"/>
<path d="M63.5699 83.5563C62.8501 83.9196 62.042 84.3304 60.8129 84.4238C60.8231 80.733 60.8338 77.0428 60.8451 73.3531C62.0641 73.2597 62.8824 72.8438 63.6005 72.4856L63.5699 83.5563Z" fill="white"/>
<path d="M60.8062 84.4289C60.4446 84.4561 59.5975 84.5189 58.8539 84.2592L58.8844 73.1885C59.6297 73.4482 60.4769 73.3837 60.8385 73.3582C60.8283 77.0479 60.8175 80.7381 60.8062 84.4289Z" fill="white"/>
<path d="M57.7302 84.4918C57.3555 84.2946 57.0416 83.999 56.8223 83.6368C56.6031 83.2745 56.4867 82.8594 56.4857 82.4359L56.5163 71.3652C56.5175 71.7886 56.6339 72.2037 56.8531 72.5659C57.0724 72.9281 57.3861 73.2238 57.7607 73.4212C57.9525 73.5307 58.1543 73.6217 58.3634 73.6928C59.4126 74.0595 60.5449 73.9746 60.9728 73.9423C62.5007 73.8269 63.5193 73.3108 64.2646 72.9356L64.4734 72.8304C67.3867 71.3822 69.6667 70.895 71.0673 70.7405C72.1442 70.6409 73.2272 70.6261 74.3065 70.6963L74.8005 70.7167L74.775 81.7874L74.2793 81.767C73.2006 81.6977 72.1182 81.7125 71.0418 81.8112C69.6412 81.9657 67.3595 82.4546 64.4479 83.901L64.2391 84.0063C63.4938 84.3832 62.4718 84.8976 60.9473 85.013C60.5195 85.0453 59.3871 85.1319 58.3362 84.7652C58.126 84.6934 57.9231 84.6019 57.7302 84.4918V84.4918Z" fill="black"/>
<path d="M74.2958 71.5503L74.2653 82.6227C74.1952 82.823 74.1585 83.0335 74.1566 83.2457L74.1889 72.1733C74.1894 71.9611 74.2256 71.7505 74.2958 71.5503Z" fill="black"/>
<path d="M65.395 85.2795C64.1709 85.9586 61.3358 87.5221 61.329 89.5747L61.3612 78.5023C61.3612 76.4497 64.2032 74.8845 65.4255 74.2088C67.9126 72.8353 71.6051 71.5824 73.8342 72.0799C73.9536 72.1042 74.0715 72.1354 74.1873 72.1732L74.1551 83.2456C74.0398 83.2074 73.9225 83.1757 73.8037 83.1506C71.5729 82.6531 67.8804 83.906 65.395 85.2795Z" fill="black"/>
<path d="M74.155 83.2457L74.1872 72.1733C74.177 75.4957 74.1702 79.9233 74.155 83.2457Z" fill="white"/>
<path d="M85.2154 72.2107L85.1848 83.2814C85.1848 83.179 85.1763 83.0768 85.1594 82.9758L85.1916 71.9034C85.208 72.005 85.2159 72.1078 85.2154 72.2107V72.2107Z" fill="white"/>
<path d="M84.1989 72.2089L84.1666 83.2796C84.1666 82.6005 83.7269 81.935 82.8407 81.424C81.0819 80.4054 78.2264 80.4054 76.4794 81.424C75.6102 81.9333 75.1756 82.5903 75.1739 83.2541L75.2044 72.1817C75.2044 71.5196 75.6425 70.8575 76.51 70.3516C78.2586 69.333 81.1124 69.333 82.8713 70.3516C83.7575 70.8643 84.2006 71.5366 84.1989 72.2089Z" fill="black"/>
<path d="M85.5703 83.4495C85.439 83.4227 85.3097 83.387 85.1832 83.3426L85.2155 72.2719C85.3414 72.3163 85.4701 72.352 85.6009 72.3788L85.5703 83.4495Z" fill="white"/>
<path d="M75.2299 83.6718C75.1929 83.5357 75.174 83.3952 75.1739 83.2542L75.2044 72.1835C75.2044 72.3247 75.2238 72.4652 75.2622 72.6011C75.2508 76.2919 75.2401 79.9821 75.2299 83.6718Z" fill="white"/>
<path d="M93.9789 81.3206C91.4917 82.694 87.7992 83.9469 85.5701 83.4495L85.6007 72.3788C87.8315 72.8762 91.5223 71.6233 94.0111 70.2482C94.0009 73.939 93.9902 77.6298 93.9789 81.3206Z" fill="white"/>
<path d="M85.216 72.2106L85.1854 83.2813C85.1854 83.3016 85.1854 83.322 85.1854 83.3424C85.1778 83.5557 85.1348 83.7663 85.0581 83.9654C84.9751 84.1824 84.8607 84.386 84.7186 84.5698C84.5489 84.7885 84.3528 84.9853 84.1346 85.1555C83.9731 85.2807 83.8029 85.3941 83.6252 85.4951L83.6558 74.4244C83.8327 74.3222 84.0028 74.2088 84.1651 74.0848C84.3833 73.9146 84.5795 73.7178 84.7491 73.4991C84.8909 73.3151 85.0053 73.1116 85.0887 72.8947C85.1651 72.6954 85.2087 72.485 85.2177 72.2717L85.216 72.2106Z" fill="black"/>
<path d="M85.0559 83.9655L85.0865 72.8948L85.2376 72.9288C88.0778 73.562 92.1183 72.1122 94.7141 70.6759C96.0315 69.9493 99.0873 68.2618 99.0924 65.958L99.0619 77.0287C99.0619 79.3325 96.006 81.02 94.6835 81.7483C92.0861 83.1829 88.0472 84.6344 85.207 83.9995L85.0559 83.9655Z" fill="black"/>
<path d="M97.125 63.1925C97.5729 63.4444 97.9823 63.7594 98.3405 64.1279C98.7881 64.5876 99.0546 65.1935 99.0909 65.8341C99.1962 68.2007 96.0554 69.9357 94.7143 70.6759C92.1185 72.1122 88.078 73.562 85.2377 72.9288L85.0866 72.8948C85.1631 72.6955 85.2067 72.485 85.2157 72.2717C85.3415 72.3162 85.4703 72.3519 85.601 72.3787C87.8318 72.8761 91.5226 71.6232 94.0114 70.2481C95.2541 69.569 98.1657 67.9528 98.0723 65.8477C98.0441 65.3079 97.8215 64.7966 97.4458 64.408C97.1335 64.0914 96.778 63.8205 96.3899 63.6033C95.5224 63.094 94.3662 62.7222 93.2542 62.8818C92.6759 62.9637 92.1298 63.1981 91.672 63.5609C90.925 64.1262 90.852 64.7493 90.7875 65.3061C90.7875 65.3604 90.7756 65.4165 90.7688 65.4759C90.4649 67.8255 89.3665 69.2108 88.499 69.9442C87.7317 70.6012 86.8234 71.0562 86.0934 71.4195C85.7839 71.5652 85.4829 71.7285 85.1919 71.9084C85.1508 71.665 85.0675 71.4306 84.9457 71.2158C85.0968 71.136 85.2598 71.0545 85.4279 70.9713C86.107 70.6318 86.9643 70.2057 87.6553 69.6132C88.4532 68.9341 89.4667 67.6506 89.7519 65.43C89.7519 65.3791 89.7655 65.3248 89.7706 65.2705C89.8385 64.6983 89.9285 63.9123 90.8622 63.2078C91.4852 62.7254 92.2252 62.4172 93.0064 62.3148C94.4681 62.1009 95.9858 62.5338 97.125 63.1925Z" fill="black"/>
<path d="M75.2298 83.6718C75.2239 83.591 75.2239 83.5098 75.2298 83.429V83.171C75.2298 82.991 75.2298 82.811 75.2298 82.6311C75.2298 82.2916 75.2298 81.9401 75.2298 81.5938L75.2553 72.596C75.3996 73.1223 75.8223 73.6282 76.5234 74.0323C78.2839 75.0509 81.1378 75.0509 82.8864 74.0323C83.7556 73.523 84.1902 72.8659 84.1919 72.2021L84.1597 83.2745C84.1597 83.9366 83.7234 84.5987 82.8558 85.1029C81.1072 86.1216 78.2517 86.1216 76.4912 85.1029C75.7934 84.704 75.3758 84.1981 75.2298 83.6718Z" fill="white"/>
<path d="M102.135 72.8422L102.108 83.9129C102.117 83.5844 102.035 83.2598 101.872 82.9743C101.709 82.6888 101.472 82.4533 101.185 82.2933C101.05 82.2173 100.909 82.1537 100.764 82.1032C100.018 81.8434 99.1728 81.9079 98.8112 81.9334C97.5905 82.0251 96.774 82.4427 96.0524 82.8009L95.8402 82.9079C92.7572 84.4358 90.2956 84.9604 88.7744 85.1285C87.6092 85.2401 86.4368 85.2583 85.2687 85.1828C84.8629 85.1641 84.4504 85.1454 84.1363 85.1539L84.1669 74.0833C84.481 74.0833 84.8952 74.0934 85.3009 74.1104C86.4685 74.1857 87.6402 74.1681 88.805 74.0578C90.3329 73.888 92.7878 73.3685 95.8725 71.8355L96.0847 71.7285C96.8045 71.3652 97.6126 70.9544 98.8434 70.861C99.2034 70.8339 100.051 70.7711 100.796 71.0308C100.941 71.0812 101.081 71.1449 101.215 71.2209C101.502 71.3813 101.74 71.6172 101.902 71.903C102.064 72.1889 102.145 72.5137 102.135 72.8422V72.8422Z" fill="black"/>
<path d="M102.108 83.9111C102.107 84.2524 102.028 84.5888 101.875 84.8941L101.906 73.8234C102.059 73.5183 102.139 73.1818 102.14 72.8405C102.125 76.1612 102.108 80.5904 102.108 83.9111Z" fill="white"/>
<path d="M83.7372 85.6615C83.6964 85.6106 83.6595 85.5567 83.6268 85.5002L83.6574 74.4296C83.6901 74.486 83.727 74.5399 83.7677 74.5908L83.7372 85.6615Z" fill="white"/>
<path d="M74.155 83.2508L74.1872 72.1785C74.1867 72.3085 74.1998 72.4382 74.2263 72.5655C74.277 72.8056 74.3683 73.0352 74.4962 73.2446C74.6621 73.5143 74.8695 73.7561 75.1108 73.961C75.3283 74.148 75.5631 74.314 75.8119 74.4568C75.9817 74.5501 76.143 74.635 76.3212 74.7148C76.651 74.8621 76.9916 74.9841 77.3399 75.0798C77.785 75.201 78.2392 75.2862 78.698 75.3345C79.052 75.3736 79.408 75.3923 79.7642 75.3905C80.0341 75.3905 80.3023 75.3769 80.5689 75.3532C80.9473 75.3203 81.3232 75.2636 81.6945 75.1834C82.0864 75.0981 82.4708 74.9811 82.8438 74.8337C83.112 74.7282 83.3719 74.6028 83.6213 74.4585L83.6638 74.433L83.6332 85.5037L83.5908 85.5291C83.3412 85.6731 83.0813 85.7985 82.8132 85.9043C82.4401 86.0516 82.0558 86.1685 81.6639 86.254C81.2922 86.3351 80.9157 86.3918 80.5366 86.4238C80.2701 86.4476 80.0019 86.4612 79.7336 86.4612C79.3769 86.4627 79.0204 86.4445 78.6658 86.4068C78.2069 86.3581 77.7527 86.2724 77.3076 86.1505C76.9589 86.0561 76.6183 85.934 76.289 85.7855C76.1148 85.7084 75.9448 85.6223 75.7797 85.5274C75.5303 85.3846 75.295 85.2187 75.0768 85.0317C74.836 84.8269 74.6287 84.5857 74.4623 84.317C74.3345 84.1075 74.2432 83.8779 74.1923 83.6379C74.1671 83.5104 74.1546 83.3808 74.155 83.2508Z" fill="black"/>
<path d="M76.3267 74.859L76.3029 85.9331C76.3056 85.8839 76.3056 85.8346 76.3029 85.7854L76.3335 74.7147C76.3347 74.7629 76.3324 74.8111 76.3267 74.859V74.859Z" fill="black"/>
<path d="M101.87 84.8941C101.642 85.344 101.191 85.782 100.556 86.1656C100.566 82.476 100.577 78.7857 100.588 75.0949C101.218 74.7113 101.673 74.2716 101.9 73.8234L101.87 84.8941Z" fill="white"/>
<path d="M84.3923 86.1979C84.1413 86.0631 83.9187 85.8809 83.737 85.6615L83.7676 74.5908C83.9495 74.8097 84.172 74.9913 84.4228 75.1256L84.3923 86.1979Z" fill="white"/>
<path d="M83.6574 74.4295L83.615 74.455C83.3655 74.5993 83.1056 74.7247 82.8374 74.8302C82.4644 74.9776 82.08 75.0946 81.6881 75.1799C81.3168 75.2601 80.9409 75.3168 80.5625 75.3497C80.296 75.3734 80.0277 75.3853 79.7578 75.387C79.4016 75.3888 79.0457 75.3701 78.6916 75.331C78.2328 75.2827 77.7786 75.1976 77.3335 75.0763C76.9852 74.9806 76.6447 74.8586 76.3149 74.7113C76.1451 74.6315 75.9753 74.5416 75.8056 74.4533C75.5567 74.3105 75.322 74.1445 75.1044 73.9575C74.8631 73.7526 74.6557 73.5108 74.4899 73.2411C74.362 73.0317 74.2707 72.8021 74.2199 72.562C74.1927 72.4331 74.1796 72.3016 74.1809 72.1699C74.182 71.9576 74.2187 71.747 74.2895 71.5468C74.4022 71.2378 74.5753 70.9545 74.7988 70.7132C74.9978 70.4948 75.2217 70.3005 75.466 70.1343C75.5679 70.0647 75.6732 69.9968 75.7852 69.9306C75.8633 69.8865 75.9414 69.844 76.0229 69.8016C76.2971 69.6615 76.5807 69.5406 76.8717 69.44C77.2491 69.3119 77.6355 69.2126 78.0279 69.1429C78.4205 69.0714 78.8175 69.0266 79.2162 69.0088C79.4709 68.9952 79.7255 68.9935 79.9819 69.0088C80.3337 69.0187 80.6846 69.0493 81.0328 69.1004C81.4345 69.158 81.8317 69.2442 82.2212 69.3585C82.5706 69.4624 82.9113 69.5941 83.2398 69.7524C83.3603 69.8101 83.4774 69.8729 83.5912 69.9374L83.6914 69.9985C83.9301 70.1413 84.1542 70.3074 84.3602 70.4942C84.5924 70.7016 84.7901 70.9446 84.946 71.2141C85.0677 71.4289 85.151 71.6633 85.1921 71.9067C85.2119 72.0285 85.2198 72.1518 85.2159 72.2751C85.2069 72.4884 85.1633 72.6989 85.0869 72.8982C85.0035 73.115 84.8891 73.3186 84.7473 73.5026C84.5777 73.7213 84.3815 73.918 84.1633 74.0883C84.0022 74.2127 83.8332 74.3267 83.6574 74.4295V74.4295ZM76.5271 74.0373C78.2876 75.056 81.1414 75.056 82.89 74.0373C84.6387 73.0187 84.6285 71.3686 82.868 70.3516C81.1075 69.3347 78.2553 69.333 76.5067 70.3516C74.7581 71.3703 74.7751 73.0306 76.5305 74.0373" fill="black"/>
<path d="M79.4278 87.2437L79.4601 76.173C79.4577 75.9475 79.5227 75.7264 79.6468 75.5381C79.6802 75.4858 79.717 75.4359 79.7572 75.3887L79.7266 86.4593C79.6868 86.5069 79.65 86.5567 79.6163 86.6087C79.4927 86.7974 79.4272 87.0182 79.4278 87.2437V87.2437Z" fill="black"/>
<path d="M77.1945 87.3677L77.2267 76.2971C77.2312 76.013 77.2539 75.7294 77.2946 75.4482C77.3116 75.3209 77.3269 75.197 77.3354 75.0781L77.3048 86.1488C77.2946 86.2676 77.2793 86.3916 77.2641 86.5189C77.2236 86.8002 77.2004 87.0836 77.1945 87.3677V87.3677Z" fill="black"/>
<path d="M76.3265 74.8589L76.3027 85.933C76.2974 86.1148 76.2815 86.2962 76.2551 86.4762C76.2131 86.7727 76.1892 87.0715 76.1838 87.3709L76.2144 76.2985C76.2204 75.9991 76.2448 75.7003 76.2874 75.4039C76.3112 75.2231 76.3242 75.0412 76.3265 74.8589Z" fill="white"/>
<path d="M92.3023 87.6053C89.3873 87.5628 85.9631 87.096 84.3927 86.1979L84.4233 75.1255C85.9953 76.0338 89.4179 76.4921 92.3328 76.5346L92.3023 87.6053Z" fill="white"/>
<path d="M100.556 86.1657C98.0517 87.6936 94.0231 87.6308 92.3016 87.6053L92.3322 76.5346C94.0537 76.5584 98.084 76.6178 100.588 75.095C100.582 78.7858 100.572 82.476 100.556 86.1657Z" fill="white"/>
<path d="M116.192 77.0101L116.161 88.0808L116.116 79.9811L116.148 68.9104L116.192 77.0101Z" fill="black"/>
<path d="M103.159 72.8608L103.127 83.9264C103.124 84.3223 103.028 84.712 102.846 85.0639C102.573 85.6004 102.035 86.1233 101.295 86.5732C98.4816 88.2861 94.1338 88.2216 92.28 88.1945C89.2818 88.152 85.5571 87.7038 83.6845 86.6224C83.3484 86.4403 83.0505 86.1954 82.8068 85.9009L82.8374 74.8302C83.0814 75.1243 83.3793 75.3692 83.7151 75.5517C85.5826 76.6331 89.3175 77.0796 92.3105 77.1238C94.1661 77.1509 98.5122 77.2137 101.327 75.5025C102.067 75.0526 102.604 74.5297 102.877 73.9932C103.058 73.6429 103.155 73.2551 103.159 72.8608V72.8608Z" fill="black"/>
<path d="M101.914 70.7999C102.189 70.9448 102.431 71.1428 102.629 71.3823C102.826 71.6219 102.974 71.8982 103.063 72.1953C103.153 72.4924 103.182 72.8043 103.15 73.113C103.118 73.4216 103.025 73.7208 102.877 73.9933C102.603 74.5297 102.067 75.0526 101.327 75.5025C98.512 77.2138 94.1659 77.151 92.3103 77.1238C89.3139 77.0797 85.5891 76.6332 83.7149 75.5517C83.3791 75.3692 83.0812 75.1244 82.8372 74.8302C83.1053 74.7247 83.3653 74.5993 83.6147 74.455L83.6571 74.4296C83.6898 74.486 83.7267 74.5399 83.7675 74.5908C83.9494 74.8097 84.1719 74.9913 84.4228 75.1256C85.9949 76.0339 89.4174 76.4923 92.3324 76.5347C94.0538 76.5585 98.0842 76.6179 100.588 75.0951C101.218 74.7114 101.673 74.2717 101.901 73.8235C102.288 73.0646 102.281 71.8423 101.21 71.2226C101.076 71.1466 100.936 71.0829 100.79 71.0325C100.045 70.7727 99.1979 70.8355 98.8379 70.8627C97.6156 70.9561 96.8007 71.372 96.0792 71.7302L95.867 71.8372C92.7823 73.3651 90.3223 73.8914 88.7995 74.0595C87.6347 74.1698 86.463 74.1874 85.2954 74.1121C84.8897 74.0951 84.4754 74.0764 84.1614 74.0849C84.3796 73.9147 84.5757 73.7179 84.7454 73.4992L85.3684 73.5247C86.4477 73.594 87.5307 73.5793 88.6076 73.4806C90.0065 73.3261 92.2882 72.8371 95.2015 71.389L95.4086 71.2854C96.1556 70.9085 97.1759 70.3941 98.7021 70.2787C99.1282 70.2464 100.262 70.1599 101.313 70.5283C101.522 70.5997 101.723 70.6906 101.914 70.7999V70.7999Z" fill="black"/>
<path d="M61.3323 89.6816C61.3323 89.6459 61.3323 89.612 61.3323 89.5763L61.3645 78.5056C61.3645 78.5396 61.3645 78.5752 61.3645 78.6092C61.3933 79.1497 61.6164 79.6615 61.9927 80.0505C62.3049 80.3665 62.6598 80.6374 63.0469 80.8552C63.9145 81.3645 65.0723 81.7346 66.1843 81.5751C66.762 81.4927 67.3075 81.2584 67.7648 80.896C68.5135 80.3306 68.5865 79.7076 68.6493 79.1507C68.6493 79.0947 68.6612 79.0404 68.6697 78.981C68.9719 76.6314 70.0703 75.246 70.9378 74.5109C71.7052 73.8539 72.6135 73.4007 73.3435 73.0356C73.6475 72.8942 73.9428 72.7349 74.228 72.5586L74.1957 83.6293C73.9109 83.8056 73.6161 83.9655 73.3129 84.108C72.5829 84.4713 71.6746 84.9263 70.9073 85.5816C70.0381 86.3235 68.9397 87.702 68.6375 90.0517C68.6375 90.1043 68.6256 90.1586 68.6188 90.2214C68.5543 90.7749 68.4813 91.4098 67.7343 91.9667C67.2759 92.3284 66.73 92.5627 66.152 92.6457C65.04 92.8053 63.8839 92.425 63.0164 91.9242C62.6277 91.7079 62.2721 91.4369 61.9604 91.1195C61.5845 90.7316 61.3614 90.2209 61.3323 89.6816V89.6816Z" fill="white"/>
<path d="M74.4965 73.2428L74.4642 84.3152C74.3114 84.3967 74.1467 84.4849 73.977 84.563C73.2979 84.9026 72.4406 85.3287 71.7479 85.9212C70.95 86.6003 69.9382 87.8837 69.6512 90.1043L69.6818 79.0336C69.9687 76.813 70.9822 75.533 71.7802 74.8488C72.4728 74.258 73.3251 73.8302 74.0092 73.4907C74.1773 73.4075 74.342 73.3243 74.4965 73.2428Z" fill="black"/>
<path d="M96.1316 80.3137L96.1011 91.3844C96.1012 91.2768 96.0787 91.1703 96.0349 91.072C95.8748 90.7785 95.6282 90.5414 95.3286 90.3929C95.1754 90.3068 95.0179 90.2286 94.8567 90.1587C93.8788 89.724 92.7957 89.6799 91.8416 89.6409L91.5581 89.629C87.5023 89.4456 85.1187 88.8056 83.8353 88.2997C83.3277 88.1 82.8357 87.8628 82.3634 87.59C81.9491 87.3507 81.596 87.113 81.2819 86.9025C81.0612 86.7531 80.8354 86.602 80.6317 86.4848L80.5298 86.4271L80.5621 75.3564L80.6623 75.4125C80.866 75.5313 81.0918 75.6824 81.3125 75.8318C81.6266 76.0423 81.9797 76.2783 82.3956 76.5109C82.8672 76.784 83.3586 77.0212 83.8658 77.2205C85.151 77.7298 87.5345 78.3665 91.5903 78.5498L91.8738 78.5617C92.8279 78.6007 93.9111 78.6449 94.8889 79.071C95.05 79.14 95.2071 79.2182 95.3592 79.3053C95.6589 79.4542 95.9059 79.6911 96.0671 79.9844C96.1128 80.088 96.1348 80.2005 96.1316 80.3137V80.3137Z" fill="black"/>
<path d="M81.7046 90.3674C80.4024 89.3318 79.4262 88.1706 79.4279 87.2436L79.4602 76.173C79.4602 77.0999 80.433 78.2611 81.7368 79.295C81.7266 82.9858 81.7159 86.6766 81.7046 90.3674Z" fill="white"/>
<path d="M72.0786 91.0007L72.1091 79.9284C72.1091 79.7586 72.1091 79.6041 72.121 79.4734C72.1957 77.4786 73.2703 75.0781 75.4485 74.5178C75.5603 74.487 75.6736 74.4621 75.788 74.4431L75.7575 85.5138C75.6216 85.5359 75.4892 85.5698 75.4179 85.5902C73.2398 86.1487 72.1668 88.551 72.0921 90.5441C72.0853 90.6748 72.0786 90.8293 72.0786 91.0007Z" fill="black"/>
<path d="M82.6709 91.0721C82.3314 90.848 82.0122 90.6103 81.7049 90.3675C81.7162 86.6768 81.727 82.986 81.7372 79.2952C82.0428 79.5396 82.3687 79.7756 82.7031 80.0014C82.693 83.6922 82.6822 87.3824 82.6709 91.0721Z" fill="white"/>
<path d="M83.3197 91.4864C83.1013 91.354 82.8851 91.2159 82.6712 91.0721C82.6814 87.3814 82.6921 83.6911 82.7034 80.0015C82.9157 80.1441 83.133 80.2833 83.352 80.4157C83.3407 84.1065 83.3299 87.7967 83.3197 91.4864Z" fill="white"/>
<path d="M83.951 91.8632C83.7066 91.7223 83.4961 91.5933 83.3195 91.4863C83.3297 87.7967 83.3404 84.1064 83.3517 80.4156C83.5215 80.5226 83.7388 80.6516 83.9816 80.7925L83.951 91.8632Z" fill="white"/>
<path d="M96.1017 91.3844C96.1017 92.257 94.6145 93.1194 93.4159 93.4963L93.4465 82.4239C94.6468 82.0488 96.1322 81.1863 96.1322 80.312C96.1238 83.6344 96.1085 88.062 96.1017 91.3844Z" fill="white"/>
<path d="M74.2958 71.5502C74.2249 71.7503 74.1882 71.9609 74.1871 72.1732C74.0713 72.1354 73.9534 72.1042 73.834 72.0799C71.6049 71.5824 67.9124 72.8353 65.4253 74.2088C64.1809 74.898 61.2693 76.5041 61.3627 78.6092C61.3915 79.1497 61.6145 79.6616 61.9909 80.0506C62.3031 80.3665 62.658 80.6374 63.0451 80.8553C63.9127 81.3646 65.0705 81.7347 66.1825 81.5751C66.7602 81.4928 67.3056 81.2584 67.763 80.896C68.5117 80.3307 68.5847 79.7076 68.6475 79.1508C68.6475 79.0948 68.6594 79.0404 68.6679 78.981C68.9701 76.6314 70.0685 75.2461 70.936 74.511C71.7034 73.854 72.6116 73.4007 73.3417 73.0357C73.6456 72.8943 73.941 72.735 74.2261 72.5586C74.2769 72.7987 74.3682 73.0283 74.4961 73.2377C74.3416 73.3192 74.1769 73.4075 74.0088 73.4856C73.3298 73.8251 72.4724 74.2529 71.7798 74.8437C70.9819 75.5228 69.9683 76.808 69.6814 79.0285C69.6814 79.0795 69.6695 79.1321 69.6644 79.1864C69.5982 79.7603 69.5066 80.5446 68.5728 81.2491C67.9501 81.7323 67.2101 82.0411 66.4286 82.1438C64.9754 82.3526 63.4492 81.918 62.3117 81.261C61.863 81.0096 61.453 80.6945 61.0945 80.3256C60.6473 79.867 60.3808 79.2623 60.3441 78.6228C60.2371 76.2562 63.3779 74.5229 64.7174 73.781C67.3165 72.3464 71.357 70.8949 74.1956 71.5281L74.2958 71.5502Z" fill="black"/>
<path d="M60.3125 89.5696L60.3431 78.4989C60.3431 78.5396 60.3431 78.5821 60.3431 78.6228C60.379 79.2643 60.6462 79.8711 61.0951 80.3307C61.4536 80.6996 61.8636 81.0147 62.3124 81.2661C63.4498 81.9232 64.9761 82.3578 66.4293 82.1489C67.2107 82.0462 67.9508 81.7374 68.5735 81.2543C69.5072 80.548 69.5921 79.7654 69.6651 79.1916C69.6651 79.1372 69.677 79.0846 69.6821 79.0337L69.6515 90.1044C69.6515 90.1553 69.6396 90.2096 69.6329 90.2622C69.5666 90.8361 69.4767 91.6204 68.5412 92.3266C67.918 92.8087 67.1782 93.1168 66.397 93.2196C64.9438 93.4284 63.4193 92.9938 62.2801 92.3368C61.8316 92.0858 61.4221 91.7707 61.0646 91.4014C60.6157 90.9426 60.349 90.3361 60.3142 89.6952C60.3125 89.6528 60.3125 89.612 60.3125 89.5696Z" fill="black"/>
<path d="M93.4155 93.4963C92.6088 93.7331 91.7725 93.8537 90.9318 93.8545C90.9419 90.1638 90.9527 86.473 90.964 82.7822C91.8053 82.7818 92.6423 82.6612 93.4495 82.424L93.4155 93.4963Z" fill="white"/>
<path d="M90.9316 93.8545C87.835 93.8952 85.3529 92.6661 83.9506 91.8631L83.9812 80.7924C85.3852 81.6022 87.8655 82.8296 90.9638 82.7821C90.9536 86.4729 90.9429 90.1637 90.9316 93.8545Z" fill="white"/>
<path d="M95.3592 79.3121C95.6589 79.461 95.9059 79.6979 96.0672 79.9912C96.4882 80.9639 94.7888 81.9944 93.4459 82.4138C92.6398 82.6507 91.8041 82.7713 90.9639 82.772C87.8656 82.8127 85.3853 81.5921 83.9813 80.7823C83.7385 80.6414 83.5263 80.5124 83.3514 80.4054C80.9746 78.9607 78.7965 76.8165 79.647 75.5279C79.6804 75.4757 79.7172 75.4258 79.7574 75.3785C80.0273 75.3785 80.2956 75.365 80.5621 75.3412L80.6623 75.3972C80.866 75.5161 81.0918 75.6671 81.3125 75.8165C81.6266 76.0271 81.9797 76.263 82.3956 76.4956C82.8672 76.7688 83.3586 77.006 83.8658 77.2053C85.151 77.7146 87.5345 78.3512 91.5903 78.5345L91.8738 78.5464C92.828 78.5855 93.9111 78.6296 94.889 79.0557C95.0506 79.1319 95.2076 79.2175 95.3592 79.3121V79.3121Z" fill="white"/>
<path d="M97.149 80.3069L97.1167 91.3776C97.1167 92.4403 95.5718 93.4929 93.903 94.0141C92.9472 94.2969 91.9559 94.4416 90.9592 94.4436C87.4619 94.4895 84.7558 93.1602 83.2449 92.2875C82.9902 92.1398 82.7695 92.0057 82.5845 91.8937C80.5048 90.6306 78.4013 88.7818 78.4064 87.2505L78.437 76.1798C78.437 77.7077 80.5353 79.5599 82.6167 80.823C82.8018 80.9351 83.0208 81.0692 83.2754 81.2152C84.7881 82.0878 87.4925 83.4222 90.9898 83.373C91.987 83.37 92.9787 83.2254 93.9353 82.9434C95.6024 82.4205 97.1456 81.3697 97.149 80.3069Z" fill="black"/>
<path d="M96.0758 78.8978C96.4493 79.1151 96.8703 79.4326 97.0554 79.8587C97.5766 81.0641 95.8364 82.3475 93.935 82.9434C92.9785 83.2254 91.9867 83.37 90.9895 83.3729C87.4923 83.4188 84.7878 82.0878 83.2752 81.2152C83.0205 81.0691 82.8015 80.935 82.6165 80.823C80.1328 79.3154 77.6202 76.9743 78.6914 75.3326C79.0454 75.3717 79.4014 75.3905 79.7576 75.3887C79.7174 75.4359 79.6806 75.4858 79.6472 75.5381C78.7984 76.8266 80.9714 78.9708 83.3516 80.4155C83.5214 80.5225 83.7387 80.6515 83.9814 80.7924C85.3854 81.6022 87.8658 82.8297 90.9641 82.7821C91.8054 82.7818 92.6423 82.6611 93.4495 82.4239C94.7924 82.0046 96.4918 80.9741 96.0707 80.0013C95.9095 79.7081 95.6625 79.4711 95.3628 79.3222C95.2107 79.2352 95.0536 79.1569 94.8925 79.0879C93.9147 78.6533 92.8315 78.6092 91.8774 78.5786L91.5939 78.5667C87.5381 78.3834 85.1545 77.7434 83.8694 77.2375C83.3622 77.0382 82.8707 76.801 82.3992 76.5278C81.9833 76.2867 81.6301 76.0508 81.3161 75.8487C81.0954 75.6993 80.8696 75.5482 80.6658 75.4294L80.5657 75.3734C80.9441 75.3405 81.32 75.2838 81.6912 75.2036C81.822 75.2868 81.9527 75.3734 82.0885 75.4651C82.3873 75.6671 82.7234 75.8929 83.1156 76.1204C83.5411 76.3664 83.9843 76.5803 84.4415 76.7604C85.6299 77.2256 87.8369 77.8164 91.6703 77.9895L91.9453 77.9997C92.9334 78.0405 94.2881 78.0948 95.5105 78.6398C95.7032 78.7161 95.8919 78.8022 96.0758 78.8978V78.8978Z" fill="black"/>
<path d="M81.9812 83.6277L81.949 94.6983C81.9475 94.574 81.9309 94.4503 81.8997 94.3299C81.73 93.622 81.0237 93.1415 80.3939 92.7307L80.2071 92.6068C77.5519 90.8157 76.642 89.3812 76.3517 88.5051C76.2322 88.1386 76.1748 87.7548 76.1819 87.3694L76.2124 76.297C76.2062 76.6829 76.2636 77.0672 76.3822 77.4345C76.6759 78.3156 77.5842 79.7433 80.2394 81.5344C80.2988 81.5751 80.3616 81.6176 80.4261 81.6583C81.0543 82.076 81.7673 82.5513 81.932 83.2576C81.9623 83.3787 81.9788 83.5028 81.9812 83.6277V83.6277Z" fill="black"/>
<path d="M81.9815 83.6276L81.9492 94.6983C81.9491 94.8421 81.9188 94.9842 81.8604 95.1155C81.8019 95.2468 81.7165 95.3644 81.6097 95.4606C80.7201 96.3196 78.2584 96.3485 76.7933 96.0955C76.0204 95.9639 75.2747 95.7052 74.5863 95.3299L74.4827 95.2721C72.2893 94.0057 72.0618 92.1212 72.0652 91.0007L72.0958 79.9283C72.0958 81.0488 72.3199 82.9333 74.515 84.2014L74.6169 84.2592C75.3059 84.6327 76.0514 84.8908 76.8239 85.0231C78.289 85.2778 80.7506 85.2472 81.6402 84.3899C81.7469 84.2935 81.8324 84.1759 81.8911 84.0447C81.9499 83.9134 81.9806 83.7714 81.9815 83.6276V83.6276Z" fill="white"/>
<path d="M83.0004 83.6278L82.9682 94.7001C82.967 94.901 82.924 95.0994 82.8418 95.2827C82.7597 95.4659 82.6402 95.6301 82.4911 95.7646C81.3893 96.8273 78.5864 97.0192 76.5118 96.661C75.5971 96.5048 74.7144 96.1991 73.899 95.7561C73.8566 95.734 73.8142 95.7086 73.7734 95.6848C71.3033 94.2587 71.0571 92.2079 71.0571 91.0026L71.0877 79.9319C71.0877 81.1372 71.3304 83.1881 73.804 84.6141L73.9296 84.6854C74.7451 85.1288 75.6277 85.4357 76.5424 85.5937C78.6203 85.9519 81.4216 85.7635 82.5217 84.6973C82.6716 84.5622 82.7916 84.3973 82.874 84.2131C82.9565 84.0289 82.9995 83.8296 83.0004 83.6278V83.6278Z" fill="black"/>
<path d="M105.289 72.3125L105.259 83.3866C105.247 87.1656 102.77 90.9362 97.8213 93.8138C87.8592 99.6029 71.5953 99.6029 61.567 93.8138C56.5215 90.9006 54.0004 87.0672 54.0123 83.2406L54.0428 72.1682C54.0327 75.9965 56.552 79.8282 61.5993 82.7415C71.6259 88.5323 87.8898 88.5306 97.8519 82.7415C102.802 79.8622 105.279 76.0865 105.289 72.3125Z" fill="black"/>
<path d="M116.192 77.01L116.161 88.0807L88.1002 104.387L88.1325 93.3164L116.192 77.01Z" fill="white"/>
<path d="M88.1325 93.3164L88.1002 104.387H74.118L74.1502 93.3164H88.1325Z" fill="white"/>
<path d="M74.1501 93.3164L74.1178 104.387L12.0025 68.5249L12.0347 57.4542L74.1501 93.3164Z" fill="white"/>
<path d="M117.165 68.6658L117.212 77.2545L88.5588 93.9122H73.7311L10.6023 57.4542L31.8914 45.0763L29.6029 43.7555L51.7392 30.8921L117.165 68.6658ZM88.1344 93.3164L116.199 77.01L116.155 68.9086L51.751 31.7291L31.0442 43.7555L33.3327 45.0763L12.0351 57.4542L74.1504 93.3164H88.1327" fill="black"/>
<path d="M33.5869 47.5804L38.4032 50.3613L24.0441 58.7054L19.2278 55.9246L33.5869 47.5804ZM24.039 57.8702L36.9619 50.3613L33.5903 48.414L20.6674 55.9246L24.039 57.8702" fill="black"/>
<path d="M75.7934 63.5693C76.0362 63.7102 76.2467 63.8375 76.4216 63.9428C78.7983 65.3892 80.9765 67.5317 80.1259 68.8219C80.0841 68.8873 80.0363 68.9486 79.9833 69.0053C79.7287 68.9968 79.474 69.0053 79.2177 69.0053L79.109 68.9442C78.9053 68.827 78.6812 68.6759 78.4588 68.5266C78.1447 68.3143 77.7899 68.0767 77.374 67.8373C76.903 67.5641 76.4121 67.3269 75.9055 67.1277C74.622 66.6184 72.2401 65.9834 68.1826 65.7984L67.8991 65.7882C66.945 65.7474 65.8619 65.705 64.884 65.2687C64.7225 65.1994 64.5649 65.1212 64.412 65.0344C64.1122 64.8864 63.8655 64.6492 63.7058 64.3553C63.2848 63.3826 64.9842 62.3538 66.3254 61.9327C67.1321 61.696 67.9684 61.5754 68.8091 61.5745C71.9108 61.5355 74.3945 62.7612 75.7934 63.5693Z" fill="white"/>
<path d="M76.4976 63.1433C76.7523 63.2893 76.973 63.4234 77.158 63.5371C79.6451 65.0464 82.1628 67.3909 81.078 69.0342L81.0355 69.097C80.6874 69.0459 80.3365 69.0153 79.9847 69.0054C80.0377 68.9487 80.0854 68.8873 80.1273 68.822C80.9761 67.5318 78.8031 65.3893 76.4229 63.9429C76.2531 63.8376 76.0375 63.7103 75.7948 63.5694C74.3942 62.7613 71.9104 61.5322 68.8104 61.5763C67.9697 61.5772 67.1334 61.6978 66.3267 61.9345C64.9855 62.3555 63.2861 63.3843 63.7072 64.3571C63.8668 64.651 64.1135 64.8882 64.4134 65.0362C64.5663 65.123 64.7238 65.2012 64.8854 65.2705C65.8649 65.7068 66.9464 65.7492 67.9005 65.79L68.184 65.8001C72.2415 65.9852 74.6234 66.6235 75.9068 67.1294C76.4135 67.3287 76.9044 67.5659 77.3753 67.8391C77.7913 68.0784 78.1461 68.3161 78.4601 68.5283C78.6825 68.6777 78.9066 68.8288 79.1104 68.946L79.219 69.0071C78.8203 69.0249 78.4233 69.0697 78.0306 69.1412L77.6911 68.912C77.3923 68.7117 77.0561 68.4842 76.6623 68.2584C76.2382 68.012 75.7961 67.7981 75.3398 67.6184C74.1514 67.1532 71.9444 66.5624 68.1093 66.3892L67.8343 66.3774C66.8462 66.3383 65.4914 66.2823 64.2691 65.739C64.0744 65.6551 63.8846 65.5604 63.7004 65.4555C63.3252 65.2399 62.9058 64.9224 62.7208 64.4946C62.1996 63.2893 63.938 62.0058 65.8412 61.4099C66.7976 61.1278 67.7895 60.9838 68.7867 60.9821C72.2788 60.9414 74.985 62.2707 76.4976 63.1433Z" fill="black"/>
<path d="M101.21 71.2227C102.281 71.8423 102.288 73.0647 101.901 73.8235C101.673 74.2717 101.222 74.7114 100.588 75.0951C98.0843 76.623 94.054 76.5585 92.3325 76.5348C89.4176 76.4923 85.995 76.0339 84.423 75.1257C84.1721 74.9913 83.9496 74.8097 83.7677 74.5909C83.7269 74.54 83.69 74.4861 83.6573 74.4296C83.8342 74.3275 84.0043 74.2141 84.1666 74.0901C84.4807 74.0901 84.8949 74.1003 85.3007 74.1172C86.4683 74.1925 87.64 74.1749 88.8047 74.0646C90.3327 73.8948 92.7875 73.3754 95.8722 71.8423L96.0845 71.7354C96.8043 71.3721 97.6124 70.9612 98.8432 70.8679C99.2031 70.8407 100.05 70.7779 100.796 71.0376C100.939 71.0867 101.078 71.1487 101.21 71.2227V71.2227Z" fill="white"/>
<path d="M77.3347 75.078C77.3262 75.1968 77.311 75.3208 77.294 75.4481C77.2295 75.971 77.148 76.6212 77.3823 77.3241C77.6539 78.1356 78.5028 79.4581 81.0119 81.1507L81.1919 81.2712C81.8455 81.7041 82.7385 82.2898 82.9422 83.1828C83.0202 83.4488 83.0221 83.7314 82.9477 83.9985C82.8733 84.2655 82.7255 84.5064 82.5212 84.6938C81.4211 85.7565 78.6165 85.9484 76.5419 85.5901C75.6263 85.4335 74.7425 85.1278 73.9258 84.6853L73.8001 84.614C70.9667 82.9774 71.06 80.5174 71.0991 79.4581C71.1789 77.3767 72.2535 74.6926 75.0293 73.9796L75.1074 73.9592C75.3179 74.1416 75.5453 74.3036 75.7864 74.4431C75.672 74.4621 75.5587 74.487 75.4469 74.5178C73.2688 75.078 72.1941 77.4786 72.1194 79.4733C72.0821 80.4563 71.9955 82.7397 74.5267 84.2014L74.6286 84.2591C75.3176 84.6327 76.0632 84.8907 76.8356 85.0231C78.3007 85.2778 80.7624 85.2472 81.652 84.3899C81.8003 84.2465 81.9057 84.0644 81.9561 83.8644C82.0065 83.6643 81.9999 83.4541 81.9372 83.2575C81.7674 82.5513 81.0595 82.0691 80.4313 81.6583C80.3668 81.6175 80.304 81.5751 80.2446 81.5343C77.5894 79.7433 76.6794 78.3087 76.3874 77.4344C76.126 76.6552 76.2177 75.9608 76.2839 75.3972C76.3222 75.1696 76.3353 74.9384 76.3229 74.7079C76.6504 74.8566 76.9886 74.9803 77.3347 75.078V75.078Z" fill="black"/>
<path d="M97.7345 61.7392C107.761 67.5283 107.815 76.9488 97.8516 82.738C87.8878 88.5271 71.6256 88.5288 61.599 82.738C51.5724 76.9471 51.5181 67.5283 61.4802 61.7392C71.4423 55.9501 87.7062 55.9501 97.7345 61.7392ZM62.3171 82.3221C71.9465 87.8803 87.5636 87.8803 97.1199 82.3221C106.676 76.7638 106.637 67.7219 97.0079 62.1568C87.3785 56.5918 71.7699 56.5969 62.2119 62.1653C52.6539 67.7338 52.6963 76.7655 62.3256 82.3305" fill="black"/>
<path d="M96.3902 63.6033C96.7783 63.8205 97.1338 64.0914 97.4462 64.408C97.8219 64.7965 98.0444 65.3078 98.0726 65.8476C98.166 67.9528 95.2544 69.5622 94.0117 70.248C91.5229 71.6232 87.8321 72.8761 85.6013 72.3787C85.4705 72.3518 85.3418 72.3161 85.2159 72.2717C85.2198 72.1484 85.2119 72.025 85.1921 71.9033C85.4831 71.7233 85.7841 71.5601 86.0936 71.4144C86.8236 71.0511 87.7319 70.5961 88.4993 69.9391C89.3668 69.1989 90.4652 67.8203 90.7691 65.4707C90.7691 65.4181 90.781 65.3621 90.7878 65.3009C90.8523 64.7475 90.9253 64.121 91.6723 63.5557C92.1301 63.1929 92.6762 62.9585 93.2545 62.8766C94.3665 62.7221 95.5227 63.1024 96.3902 63.6033Z" fill="white"/>
<path d="M75.2503 69.0937C75.5014 69.2291 75.7244 69.4112 75.9073 69.6302C75.9514 69.6831 75.9906 69.7399 76.0245 69.7999C75.943 69.8424 75.8649 69.8848 75.7868 69.929C75.6747 69.9952 75.5695 70.0631 75.4676 70.1327C75.1603 70.1327 74.7665 70.1208 74.3811 70.1038C73.2124 70.0268 72.0395 70.0444 70.8737 70.1565C69.3457 70.3262 66.8909 70.8457 63.8078 72.377L63.5939 72.4857C62.8741 72.8473 62.0575 73.2598 60.8386 73.3532C60.477 73.3787 59.6298 73.4432 58.8845 73.1834C58.7394 73.1327 58.599 73.069 58.4652 72.9933C57.3939 72.3736 57.3871 71.1513 57.7742 70.3924C58.0017 69.9442 58.4533 69.5028 59.0865 69.1209C61.5906 67.5929 65.621 67.6557 67.3407 67.6812C70.2574 67.7288 73.6782 68.1871 75.2503 69.0937Z" fill="white"/>
<path d="M82.8716 70.3517C84.6321 71.3703 84.6422 73.0221 82.8936 74.0373C81.145 75.0526 78.2912 75.056 76.5307 74.0373C74.7702 73.0187 74.7617 71.3686 76.5103 70.3517C78.2589 69.3347 81.1127 69.3364 82.8716 70.3517Z" fill="white"/>
<path d="M76.3183 74.713C76.3307 74.9435 76.3176 75.1746 76.2792 75.4022C76.2096 75.9608 76.1213 76.6551 76.3828 77.4395C76.6765 78.3206 77.5848 79.7483 80.24 81.5394C80.2994 81.5802 80.3622 81.6226 80.4267 81.6633C81.0549 82.081 81.7679 82.5563 81.9326 83.2626C81.9953 83.4591 82.0018 83.6693 81.9514 83.8694C81.901 84.0695 81.7957 84.2515 81.6474 84.3949C80.7578 85.2438 78.2961 85.2828 76.831 85.0282C76.0585 84.8958 75.313 84.6377 74.624 84.2642L74.5221 84.2065C71.9909 82.7448 72.0774 80.4614 72.1148 79.4784C72.1895 77.4836 73.2641 75.0831 75.4423 74.5228C75.5541 74.492 75.6674 74.4671 75.7818 74.4481C75.9753 74.5483 76.1434 74.6332 76.3183 74.713Z" fill="white"/>
<path d="M116.147 68.9103L116.192 77.0101L88.1321 93.3164H74.1498L12.0345 57.4543L33.3321 45.0764L31.0436 43.7556L51.7436 31.7257L116.147 68.9103ZM61.5988 82.7398C71.6254 88.5289 87.8893 88.5289 97.8514 82.7398C107.813 76.9506 107.761 67.5301 97.7342 61.741C87.7076 55.9518 71.4437 55.9501 61.4799 61.741C51.5161 67.5318 51.5705 76.9506 61.5988 82.7415V82.7398ZM43.4334 47.443L57.7925 39.0988L52.9745 36.3163L38.6137 44.6605L43.43 47.4413L43.4334 47.443ZM24.044 58.7055L38.4031 50.3613L33.5868 47.5805L19.2277 55.9247L24.044 58.7055" fill="white"/>
<path d="M75.9633 68.6675C76.2996 68.8501 76.5976 69.0956 76.841 69.3907L76.8801 69.4434C76.5891 69.544 76.3054 69.6648 76.0312 69.805C75.9974 69.745 75.9582 69.6881 75.9141 69.6352C75.7312 69.4162 75.5082 69.2342 75.2571 69.0987C73.685 68.1922 70.2642 67.7406 67.3475 67.6913C65.6278 67.6659 61.5974 67.6064 59.0933 69.131C58.4635 69.513 58.0085 69.9544 57.781 70.4025C57.3939 71.1614 57.4007 72.3838 58.472 73.0034C58.6058 73.0792 58.7462 73.1428 58.8913 73.1936C59.6366 73.4533 60.4838 73.3888 60.8454 73.3633C62.0643 73.27 62.8826 72.854 63.6007 72.4958L63.8146 72.3872C66.8976 70.8592 69.3593 70.3329 70.8804 70.1666C72.0462 70.0545 73.2192 70.0369 74.3879 70.1139C74.7732 70.1309 75.1671 70.1479 75.4744 70.1428C75.2301 70.309 75.0061 70.5033 74.8072 70.7217L74.3132 70.7013C73.2339 70.6311 72.1509 70.6459 71.074 70.7455C69.6734 70.9 67.3934 71.3872 64.4801 72.8353L64.2713 72.9406C63.526 73.3158 62.504 73.8319 60.9795 73.9473C60.5517 73.9796 59.4193 74.0645 58.3701 73.6978C58.161 73.6267 57.9592 73.5357 57.7674 73.4261C57.4931 73.2812 57.2502 73.0832 57.053 72.8437C56.8557 72.6042 56.7079 72.3279 56.6182 72.0309C56.5285 71.7339 56.4987 71.422 56.5304 71.1133C56.5622 70.8046 56.6549 70.5053 56.8031 70.2328C57.0765 69.6946 57.6146 69.1734 58.3548 68.7235C61.1679 67.0106 65.5157 67.0751 67.3713 67.1005C70.3609 67.1396 74.0857 67.5861 75.9633 68.6675Z" fill="black"/>
<path d="M74.1871 72.1818C74.1858 72.3136 74.1989 72.4451 74.2261 72.574C73.941 72.7503 73.6456 72.9096 73.3417 73.051C72.6116 73.4161 71.7034 73.8693 70.936 74.5263C70.0685 75.2682 68.9701 76.6468 68.6679 78.9964C68.6679 79.049 68.6543 79.1033 68.6475 79.1661C68.5847 79.7196 68.5117 80.346 67.763 80.9114C67.3056 81.2738 66.7602 81.5081 66.1825 81.5905C65.0705 81.75 63.9127 81.3714 63.0451 80.8706C62.658 80.6528 62.3031 80.3819 61.9909 80.0659C61.6146 79.6769 61.3915 79.1651 61.3627 78.6246C61.2694 76.5194 64.1809 74.9117 65.4253 74.2242C67.9124 72.8507 71.6049 71.5978 73.834 72.0952C73.9532 72.1174 74.0711 72.1463 74.1871 72.1818V72.1818Z" fill="white"/>
<path d="M117.212 77.2545L117.181 88.3252L88.5259 104.978L88.5564 93.9072L117.212 77.2545Z" fill="black"/>
<path d="M73.7308 93.9072L73.6985 104.978L10.5612 68.5249L10.5935 57.4542L73.7308 93.9072Z" fill="black"/>
<path d="M88.5564 93.9071L88.5258 104.978H73.6981L73.7304 93.9071H88.5564Z" fill="black"/>
<path d="M8.90249 65.722L14.8852 62.2451L14.875 65.9817L8.8923 69.4586L8.90249 65.722Z" fill="black"/>
<path d="M8.8923 69.4586L14.875 65.9817L29.448 74.3955L23.4653 77.8723L8.8923 69.4586Z" fill="black"/>
<path d="M8.90297 65.722L14.8856 62.2451L29.4587 70.6589L23.476 74.1358L8.90297 65.722Z" fill="white"/>
<path d="M23.4755 74.1358L29.4582 70.6589L29.448 74.3956L23.4653 77.8725L23.4755 74.1358Z" fill="white"/>
<path d="M8.18281 64.4758L24.2006 73.7232L24.1836 79.1201L8.16753 69.8728L8.18281 64.4758ZM23.4621 77.8723L23.4723 74.1374L8.90433 65.7304L8.89414 69.4654L23.4672 77.8791" fill="black"/>
<path d="M23.4755 74.1358L23.4653 77.8724L8.8923 69.4587L8.90249 65.722L23.4755 74.1358Z" fill="white"/>
<path d="M24.2004 73.7231L30.1831 70.2479L30.1678 75.6432L24.1851 79.1201L24.2004 73.7231Z" fill="black"/>
<path d="M8.18317 64.4759L14.1658 60.999L30.1836 70.2481L24.2009 73.7232L8.18317 64.4759Z" fill="black"/>
<path d="M28.1527 77.2238L34.1354 73.7469L34.1252 77.0693L28.1425 80.5462L28.1527 77.2238Z" fill="black"/>
<path d="M28.1425 80.5463L34.1252 77.0695L68.0893 96.6779L62.1066 100.155L28.1425 80.5463Z" fill="black"/>
<path d="M28.1532 77.2238L34.1359 73.7469L68.1 93.3571L62.1173 96.834L28.1532 77.2238Z" fill="white"/>
<path d="M62.1172 96.8339L68.0999 93.3571L68.0897 96.6778L62.1071 100.155L62.1172 96.8339Z" fill="white"/>
<path d="M62.1168 96.8341L62.1066 100.155L28.1425 80.5464L28.1527 77.224L62.1168 96.8341Z" fill="white"/>
<path d="M62.8405 96.4198L68.8231 92.9446L68.8095 97.9256L62.8269 101.402L62.8405 96.4198Z" fill="black"/>
<path d="M27.4334 75.9777L33.4161 72.5009L68.8232 92.9445L62.8405 96.4197L27.4334 75.9777Z" fill="black"/>
<path d="M27.433 75.9777L62.8401 96.4196L62.8266 101.402L27.4194 80.9604L27.433 75.9777ZM62.1067 100.155L62.1169 96.8339L28.1528 77.2238L28.1426 80.5462L62.1067 100.155Z" fill="black"/>
<path d="M3.47155 39.9256C4.87797 39.9256 6.01809 38.7855 6.01809 37.3791C6.01809 35.9726 4.87797 34.8325 3.47155 34.8325C2.06513 34.8325 0.925003 35.9726 0.925003 37.3791C0.925003 38.7855 2.06513 39.9256 3.47155 39.9256Z" fill="black"/>
<path d="M131.075 72.5054L129.691 71.1213C129.245 70.6751 128.522 70.6751 128.076 71.1213L126.691 72.5054C126.245 72.9516 126.245 73.675 126.691 74.1212L128.076 75.5053C128.522 75.9515 129.245 75.9515 129.691 75.5053L131.075 74.1212C131.522 73.675 131.522 72.9516 131.075 72.5054Z" fill="black"/>
<path d="M42.179 13.102C43.5854 13.102 44.7256 11.9619 44.7256 10.5555C44.7256 9.14904 43.5854 8.00891 42.179 8.00891C40.7726 8.00891 39.6325 9.14904 39.6325 10.5555C39.6325 11.9619 40.7726 13.102 42.179 13.102Z" fill="black"/>
<path d="M48.6304 3.25532C49.2867 3.25532 49.8188 2.72326 49.8188 2.06693C49.8188 1.4106 49.2867 0.87854 48.6304 0.87854C47.9741 0.87854 47.442 1.4106 47.442 2.06693C47.442 2.72326 47.9741 3.25532 48.6304 3.25532Z" fill="black"/>
<path d="M13.7419 16.0211L12.3578 14.637C11.9116 14.1908 11.1882 14.1908 10.742 14.637L9.35784 16.0211C8.91165 16.4673 8.91165 17.1908 9.35784 17.6369L10.742 19.0211C11.1882 19.4673 11.9116 19.4673 12.3578 19.0211L13.7419 17.6369C14.1881 17.1908 14.1881 16.4673 13.7419 16.0211Z" fill="black"/>
<path d="M135.977 39.9256C136.68 39.9256 137.25 39.3555 137.25 38.6523C137.25 37.9491 136.68 37.379 135.977 37.379C135.274 37.379 134.703 37.9491 134.703 38.6523C134.703 39.3555 135.274 39.9256 135.977 39.9256Z" fill="black"/>
</svg>
