<?xml version="1.0" encoding="UTF-8"?>
<svg width="293px" height="293px" viewBox="0 0 293 293" version="1.1" xmlns="http://www.w3.org/2000/svg" xmlns:xlink="http://www.w3.org/1999/xlink">
    <title>logo_icon_white</title>
    <defs>
        <polygon id="path-1" points="1.07901814e-14 0 200 0 200 214 1.07901814e-14 214"></polygon>
    </defs>
    <g id="logo_icon_white" stroke="none" stroke-width="1" fill="none" fill-rule="evenodd">
        <g id="Group-16" transform="translate(46.000000, 39.000000)">
            <g id="Group-3" transform="translate(0.000000, 0.000000)">
                <mask id="mask-2" fill="white">
                    <use xlink:href="#path-1"></use>
                </mask>
                <g id="Clip-2"></g>
                <path d="M196.105776,110.865984 C184.64503,74.6324287 152.924108,49.8014106 116.283737,44.9558299 C151.3463,36.9630327 163.441814,49.8435062 163.441814,49.8435062 C171.508527,14.6914242 143.581785,-0.000688836305 143.581785,-0.000688836305 C126.538728,10.6119825 110.355189,33.4805825 103.416024,44.1032036 C62.5433613,44.0289624 34.2491224,71.3841828 34.2491224,71.3841828 C42.7250935,46.2623228 80.1657581,36.3912985 80.1657581,36.3912985 C77.8613083,-3.0162611 46.0895142,2.80670179 46.0895142,2.80670179 C46.0895142,2.80670179 -35.767426,116.634605 18.6973136,178.217336 C61.6291744,226.75963 132.12028,218.293832 164.904969,197.368516 C188.455154,182.336577 208.777592,150.928703 196.105776,110.865984" id="Fill-1" fill="#FEFEFE" mask="url(#mask-2)"></path>
            </g>
            <path d="M116.767937,58.7353114 C115.047382,57.843651 116.064074,55.2100002 117.930412,55.7205045 C143.624078,62.75735 197.015179,85.6213577 182.04271,152.270862 C177.11263,174.216422 157.667934,193.153297 132.836823,196.295156 C102.712692,200.106717 80.7562591,187.922733 81.8481203,171.198553 C84.7767077,126.313214 164.171265,177.902461 158.002022,112.164517 C155.595827,86.5283255 146.309692,74.0412541 116.767937,58.7353114" id="Fill-4" fill="#231F20" opacity="0.104152134"></path>
            <path d="M63.1133615,115.248896 C63.1338623,115.258081 63.2037172,115.328495 63.2705348,115.393552 L63.4763028,115.591018 C63.6236054,115.72802 63.7617964,115.865787 63.9220069,116.002024 C64.2226864,116.28215 64.5408295,116.554624 64.8635284,116.82327 C65.1824309,117.092681 65.524112,117.34602 65.8475702,117.610839 L66.868058,118.349425 C68.2454128,119.310734 69.7100861,120.105192 71.1998161,120.763413 C74.1861096,122.094398 77.3607074,122.675317 80.5618805,122.604902 C80.9498784,122.619444 81.3902675,122.577349 81.8192672,122.54903 L83.1077849,122.463308 C83.9581914,122.344675 84.8177094,122.271199 85.6597637,122.10894 C87.3628545,121.86249 89.0188693,121.41245 90.671847,120.946338 C92.3066016,120.431241 93.9185775,119.823534 95.4705693,119.098726 C96.2579546,118.755838 97.0096532,118.350956 97.7537589,117.948369 C98.1197374,117.74478 98.4925496,117.536598 98.8357493,117.320763 C99.0126642,117.215906 99.1903385,117.111816 99.3497897,117.006959 L99.5882072,116.855415 C99.6542656,116.81332 99.754492,116.742905 99.7582885,116.753621 C101.227518,115.419574 103.492484,115.539738 104.815929,117.021501 C106.138615,118.503265 106.019406,120.785609 104.549418,122.120421 L104.164457,122.487035 L103.835684,122.788592 C103.619286,122.987589 103.405166,123.169748 103.192564,123.350376 C102.760527,123.713929 102.326972,124.041509 101.885823,124.372916 C101.003527,125.015064 100.09921,125.615882 99.168319,126.160063 C97.3027398,127.246128 95.3528791,128.166873 93.3362009,128.910051 C89.2793063,130.356607 85.0508119,131.183976 80.7122202,131.224541 C76.2043065,131.257452 71.6105928,130.215778 67.6789813,128.065844 C65.6995084,127.02417 63.8673379,125.750588 62.2120824,124.301736 C61.3981219,123.557793 60.6016251,122.803134 59.8704274,121.974234 C59.5052082,121.560933 59.1430262,121.143039 58.7975485,120.699122 C58.6251893,120.484817 58.455108,120.246021 58.2865453,120.016409 L58.0291455,119.652856 L57.7375776,119.225012 C56.7603694,117.792233 57.1210329,115.832876 58.5424266,114.848606 C59.465725,114.208753 60.6107366,114.138339 61.5666847,114.56006 L63.1133615,115.248896 Z" id="Fill-6" fill="#010202"></path>
            <path d="M149.819365,114.034325 L150.656864,114.491253 C150.965895,114.662696 151.284798,114.829548 151.608256,114.991807 C152.253654,115.318622 152.918793,115.61329 153.58621,115.894948 C154.917248,116.463621 156.27638,116.92361 157.625641,117.28257 C158.978699,117.643061 160.324922,117.880327 161.640775,117.952272 C162.96346,118.080855 164.232996,117.966814 165.468363,117.763225 C166.69386,117.574943 167.92619,117.111892 169.164594,116.60598 C170.397684,116.039604 171.613309,115.342348 172.814509,114.553248 C173.999003,113.732767 175.166794,112.833453 176.283711,111.849948 C176.847865,111.363936 177.400629,110.857258 177.929096,110.332977 C178.198645,110.07275 178.453007,109.8064 178.709648,109.541581 L179.409715,108.808353 L179.645854,108.561137 C181.005745,107.137542 183.253248,107.094681 184.665531,108.465466 C185.924436,109.687002 186.093758,111.619571 185.153755,113.033216 C184.829537,113.521524 184.592639,113.86135 184.310941,114.253221 C184.035319,114.624428 183.752862,114.990276 183.46585,115.344644 C182.893344,116.061034 182.2973,116.752166 181.677718,117.427226 C180.427925,118.764334 179.073349,120.023374 177.602601,121.182915 C176.121223,122.337864 174.502414,123.363464 172.768951,124.264309 C171.867672,124.670722 170.993728,125.113874 170.022594,125.415431 C169.54424,125.573098 169.076516,125.754492 168.583736,125.884605 L167.085654,126.241269 C163.045464,127.054096 158.963513,126.648448 155.331821,125.551668 C153.503448,125.010548 151.757077,124.306405 150.09271,123.473678 C149.266601,123.042773 148.454918,122.594264 147.660699,122.103659 C147.26359,121.861036 146.86724,121.609228 146.474686,121.344408 C146.068465,121.062751 145.73134,120.819362 145.235522,120.439737 C143.515727,119.124059 143.18012,116.652668 144.485342,114.919862 C145.668318,113.34855 147.792816,112.923767 149.46022,113.836858 L149.819365,114.034325 Z" id="Fill-8" fill="#010202"></path>
            <path d="M138.135767,128.737918 C140.920089,128.737918 143.176703,131.174103 143.176703,134.17896 L143.176703,134.55782 C143.176703,136.111528 142.561677,137.590995 141.48652,138.623485 L137.858626,141.296935 C135.211663,143.357116 134.288565,146.146821 134.207269,148.216027 L133.904387,158.089998 C134.020559,158.162709 134.163306,158.220877 134.284792,158.295884 C134.452596,158.355583 134.601417,158.435182 134.776054,158.490289 C135.461694,158.719901 136.239968,158.868384 137.09493,158.865322 C138.763853,158.910479 140.736492,158.47192 142.491215,157.838191 C144.196584,157.202165 145.661257,156.31127 146.619483,155.15479 C147.122134,154.593006 147.504057,153.963869 147.77968,153.301821 C147.916353,152.971179 148.02645,152.63365 148.107694,152.301477 C148.140344,152.136922 148.181345,151.971601 148.197291,151.823119 C148.212476,151.742755 148.213995,151.681525 148.218551,151.617999 C148.223107,151.582792 148.224625,151.556769 148.221588,151.54835 C148.221588,151.5384 148.220829,151.525388 148.218551,151.536869 C148.377243,149.279782 150.299769,147.558457 152.550309,147.679386 C154.825146,147.802611 156.570757,149.761202 156.448511,152.053496 C156.429529,152.310662 156.411306,152.415518 156.393843,152.541805 C156.376379,152.67498 156.356637,152.790551 156.335377,152.894642 C156.295135,153.11507 156.251855,153.336263 156.200223,153.532198 C156.106071,153.946265 155.983066,154.328952 155.860061,154.71317 C155.601142,155.472421 155.286036,156.197229 154.91778,156.890658 C154.185063,158.27675 153.233671,159.535024 152.126624,160.585882 C149.93379,162.747297 147.220082,164.003275 144.622546,164.731146 C143.961963,164.935501 143.321121,165.06638 142.684075,165.182716 C142.053863,165.323545 141.391761,165.406205 140.728899,165.481212 C139.407732,165.638879 138.022025,165.661075 136.608224,165.519481 C135.19822,165.388602 133.731269,165.024284 132.318986,164.389024 C132.07905,164.278045 131.841392,164.158646 131.604493,164.029298 C130.76092,163.569309 129.763211,163.541755 128.877118,163.913727 C128.871803,163.916023 128.867247,163.918319 128.862692,163.91985 C128.271203,164.19615 127.650103,164.387493 127.041151,164.621697 C126.424606,164.832941 125.789839,164.999027 125.160386,165.185778 C122.616,165.843234 119.889384,166.088919 117.157454,165.795781 C114.436153,165.511827 111.682202,164.718134 109.276767,163.371077 C108.004954,162.779443 106.944223,161.939063 105.814398,161.156851 L105.814398,161.156851 L105.396028,160.858355 L105.021697,160.523887 L104.275314,159.851889 L102.786343,158.488758 C100.880521,156.746002 100.866854,153.685273 102.871384,151.929506 C104.583586,150.430139 107.23731,150.559487 108.819673,152.196621 C108.843971,152.223409 108.869027,152.248667 108.893325,152.274689 L108.893325,152.274689 L109.200838,152.612219 L110.154508,153.655423 L110.629065,154.185062 L110.866723,154.452943 L111.128679,154.672605 C111.83482,155.245105 112.494644,155.93241 113.275955,156.363315 C114.755814,157.418 116.428534,158.064741 118.196924,158.439774 C119.964554,158.814807 121.859746,158.855372 123.768605,158.556111 C124.241643,158.458143 124.722275,158.386963 125.196832,158.275219 C125.665315,158.138982 126.151262,158.050964 126.612151,157.881817 C126.992557,157.76548 127.360813,157.627713 127.72831,157.486119 L127.72831,157.486119 L127.434436,147.890669 C127.361789,145.87159 127.131484,143.939721 124.230861,141.60538 L120.09576,138.176506 C119.062364,137.146313 118.474672,135.697461 118.474672,134.17896 C118.474672,131.174103 120.732046,128.737918 123.515609,128.737918 L138.135767,128.737918 Z" id="Combined-Shape" fill="#010202"></path>
            <path d="M148.218475,151.536869 C148.216956,151.545288 148.215438,151.562126 148.210882,151.60958 C148.212401,151.584322 148.216956,151.561361 148.218475,151.536869" id="Fill-14" fill="#010202"></path>
        </g>
    </g>
</svg>