<svg width="136" height="108" viewBox="0 0 136 108" fill="none" xmlns="http://www.w3.org/2000/svg">
<path d="M39.4828 55.2322V77.6535L73.0865 96.9625L57.2722 87.8184L39.4828 98.1263" stroke="black" stroke-width="2" stroke-miterlimit="10" stroke-linecap="round"/>
<path d="M73.0667 76.8455L58.9149 68.6756V46.2543" stroke="black" stroke-width="2" stroke-miterlimit="10" stroke-linecap="round"/>
<path d="M74.3982 11.7129C82.0128 7.31546 88.2291 10.8567 88.254 19.6085C88.254 19.7165 88.254 19.8263 88.254 19.941V20.5079L88.7195 20.074C89.6563 19.1901 90.6891 18.4138 91.7986 17.7597C97.6043 14.408 102.341 17.108 102.361 23.7798C102.381 30.4517 97.6724 38.6032 91.8668 41.955L42.1562 70.6591C36.3505 74.0108 31.6139 71.3108 31.5939 64.6406C31.574 57.9704 36.2823 49.8156 42.0863 46.4655C42.1811 46.4106 42.2742 46.3574 42.369 46.3076L42.6533 46.1513L42.7198 45.7922C43.7905 40.0164 47.7623 34.1193 52.3793 31.4526C55.5813 29.6054 58.6139 29.642 60.4926 31.5556L60.9265 31.9979L61.121 31.0635C62.7354 23.2461 68.1985 15.2924 74.3982 11.7129Z" fill="black"/>
<path d="M91.7955 16.9418C97.9903 13.3639 103.048 16.2468 103.068 23.3643C103.088 30.4817 98.0601 39.1852 91.8687 42.7614L42.1514 71.4605C35.9567 75.0367 30.9008 72.1538 30.8792 65.0347C30.8576 57.9156 35.8835 49.2154 42.0782 45.6393C43.3351 39.556 47.5198 33.4277 52.3712 30.6263C55.565 28.7825 58.6025 28.6911 60.6308 30.3437C62.5477 22.4249 68.1123 14.5211 74.3968 10.8917C82.3422 6.30304 88.8378 9.9374 88.9592 18.9851C89.8362 18.2136 90.7861 17.5293 91.7955 16.9418V16.9418ZM91.867 41.9484C97.6727 38.5967 102.379 30.4434 102.361 23.7732C102.343 17.103 97.6045 14.4014 91.7989 17.7598C90.6859 18.4133 89.6497 19.1896 88.7098 20.074L88.2443 20.508V19.941C88.2443 19.833 88.2443 19.7232 88.2443 19.6085C88.2194 10.8568 82.003 7.31554 74.3885 11.713C68.1988 15.2925 62.7356 23.2462 61.1146 31.0603L60.9201 31.9946L60.4861 31.5491C58.6075 29.6354 55.5749 29.5989 52.3728 31.446C47.7559 34.1061 43.784 40.0098 42.7133 45.7856L42.6468 46.1447L42.3609 46.301C42.2678 46.3508 42.1747 46.404 42.0799 46.4589C36.2759 49.809 31.5692 57.9622 31.5875 64.6341C31.6058 71.3059 36.3441 74.0043 42.1497 70.6525L91.8604 41.9484" fill="black"/>
<path d="M82.2475 9.79419L85.7571 11.8375C88.0265 13.1542 89.433 15.9473 89.443 19.9209C89.4663 27.9012 83.8302 37.6704 76.8791 41.6821L73.3644 39.6405C80.3156 35.6271 85.9517 25.8645 85.9284 17.8776C85.9234 13.9057 84.5119 11.1093 82.2475 9.79419Z" fill="black"/>
<path d="M73.2879 10.6655C76.7793 8.65052 79.9498 8.46265 82.2425 9.78938L85.7571 11.8327C83.4645 10.5026 80.294 10.6921 76.8009 12.7088C75.4685 13.4907 74.2282 14.4198 73.1034 15.4787L69.5854 13.437C70.7114 12.3768 71.9534 11.4471 73.2879 10.6655V10.6655Z" fill="#FB8F8D"/>
<path d="M82.7496 8.93315L86.2643 10.9748C83.8419 9.56824 80.4902 9.76276 76.796 11.8958L73.288 9.85254C76.9739 7.71948 80.3272 7.52496 82.7496 8.93315Z" fill="black"/>
<path d="M72.6346 15.9124L69.1199 13.8708L69.5854 13.4369L73.1001 15.4785L72.6346 15.9124Z" fill="#FB8F8D"/>
<path d="M73.3527 14.403L69.8363 12.3597C70.9 11.4105 72.0563 10.5705 73.2878 9.85254L76.7959 11.8958C75.5672 12.6143 74.4137 13.4542 73.3527 14.403Z" fill="black"/>
<path d="M72.6346 15.9126L69.1199 13.8693L69.1266 13.3041L72.6412 15.3474L72.6346 15.9126Z" fill="black"/>
<path d="M64.31 2.32935L67.8247 4.37264C70.794 6.09671 72.6228 9.75768 72.6444 14.9565C72.6444 15.0862 72.6444 15.2159 72.6444 15.3472L69.1314 13.3039C69.1314 13.1726 69.1314 13.0429 69.1314 12.9132C69.1148 7.71439 67.2727 4.05342 64.31 2.32935Z" fill="black"/>
<path d="M58.9581 1.25872C60.9665 1.07251 62.782 1.44492 64.2933 2.32276L67.8096 4.36605C66.2917 3.48821 64.4845 3.1158 62.4728 3.30201L58.9581 1.25872Z" fill="#FB8F8D"/>
<path d="M58.4377 1.3203C58.6123 1.29537 58.7852 1.27541 58.9581 1.25879L62.4811 3.29543C62.3148 3.31206 62.1353 3.33201 61.9607 3.35528L58.4377 1.3203Z" fill="#FB8F8D"/>
<path d="M58.4378 1.32031C58.4642 1.33022 58.4889 1.34425 58.5109 1.36188L61.9524 3.35695C61.6299 3.40239 61.3029 3.46114 60.9715 3.53318L57.4552 1.49654C57.7877 1.42339 58.1152 1.36354 58.4378 1.32031Z" fill="#FB8F8D"/>
<path d="M17.6702 75.863L14.1539 73.8197L73.3644 39.6357L76.8791 41.6774L17.6702 75.863Z" fill="black"/>
<path d="M52.5607 3.47004C54.0816 2.56545 55.7323 1.89987 57.4553 1.49658L60.9716 3.53821C59.2488 3.94287 57.5982 4.60896 56.077 5.51333L52.5607 3.47004Z" fill="#FB8F8D"/>
<path d="M39.9966 29.5807L36.4803 27.5374L36.6748 26.603L40.1894 28.6463L39.9966 29.5807Z" fill="#FB8F8D"/>
<path d="M39.9965 29.5804L36.4802 27.5371L36.0462 27.0948L39.5626 29.1381L39.9965 29.5804Z" fill="black"/>
<path d="M34.8328 26.1489L38.3475 28.1922C38.793 28.4518 39.2018 28.77 39.5628 29.1382L36.0465 27.0949C35.686 26.7267 35.2778 26.4086 34.8328 26.1489V26.1489Z" fill="black"/>
<path d="M40.1896 28.646L36.6749 26.6028C38.6151 17.2641 45.154 7.75095 52.5607 3.46985L56.077 5.51314C48.662 9.79424 42.1298 19.3058 40.1896 28.646Z" fill="#FB8F8D"/>
<path d="M8.70371 76.7341L5.18906 74.6908C7.48173 76.0208 10.6572 75.8396 14.1536 73.8196L17.6699 75.8629C14.1719 77.8813 10.9981 78.0658 8.70371 76.7341Z" fill="black"/>
<path d="M64.8087 1.46658L68.3234 3.51153C65.1894 1.68271 60.8535 1.94207 56.0736 4.70192C48.5771 9.02459 41.9418 18.4846 39.7057 27.9329L36.1893 25.8896C38.4305 16.4413 45.0624 6.98629 52.5589 2.65863C57.3371 -0.101222 61.6748 -0.352269 64.8087 1.46658Z" fill="black"/>
<path d="M18.2103 46.5486L14.694 44.5053L14.7605 44.1478L18.2752 46.1894L18.2103 46.5486Z" fill="#FB8F8D"/>
<path d="M17.9243 46.7048L14.4096 44.6615L14.6939 44.5052L18.2103 46.5485L17.9243 46.7048Z" fill="#FB8F8D"/>
<path d="M34.8329 26.1489L38.3475 28.1921C36.1131 26.8937 33.0506 27.1647 29.8469 29.0151C24.3155 32.2089 19.5573 39.2715 18.2754 46.1894L14.7657 44.1478C16.0476 37.2282 20.8058 30.1656 26.3355 26.9718C29.536 25.1214 32.5984 24.8504 34.8329 26.1489Z" fill="#FB8F8D"/>
<path d="M35.335 25.2876L38.8497 27.3293C36.4838 25.9543 33.2385 26.2436 29.8436 28.2021C26.9507 29.873 24.2308 32.5381 21.978 35.9114C19.9092 39.0055 18.4228 42.4515 17.5921 46.0797L14.0708 44.038C14.9018 40.4083 16.3905 36.9615 18.4633 33.8681C20.7144 30.4948 23.4344 27.8313 26.3289 26.1605C29.7289 24.2003 32.9692 23.911 35.335 25.2876Z" fill="black"/>
<path d="M14.0721 44.8595L14.4046 44.6699L17.9243 46.7049C17.8112 46.7664 17.6998 46.8296 17.5918 46.8944C10.6423 50.9062 5.00616 60.6688 5.02778 68.6557C5.03941 72.6292 6.44927 75.4257 8.71867 76.7391L5.19902 74.6958C2.92962 73.384 1.51977 70.586 1.50813 66.6124C1.48485 58.6255 7.11762 48.8646 14.0721 44.8595Z" fill="#FB8F8D"/>
<path d="M56.0769 5.51329C65.1828 0.256266 72.6228 4.49248 72.6444 14.9566C72.6444 15.0863 72.6444 15.216 72.6444 15.3473V15.9126L73.1099 15.4787C74.2347 14.4198 75.475 13.4907 76.8074 12.7089C83.7486 8.69543 89.4146 11.9291 89.4446 19.9211C89.4745 27.913 83.8301 37.6656 76.8789 41.6773L17.6701 75.863C10.7189 79.8764 5.04624 76.6427 5.02296 68.6557C4.99968 60.6688 10.6374 50.9062 17.5919 46.8945C17.705 46.8296 17.8164 46.7664 17.9244 46.7049L18.2104 46.5487L18.2752 46.1895C19.5571 39.2716 24.3153 32.2091 29.8467 29.0153C33.6806 26.8024 37.3116 26.8539 39.5627 29.1383L39.9966 29.5805L40.1895 28.6462C42.1297 19.3059 48.6619 9.79439 56.0769 5.51329Z" fill="#FB8F8D"/>
<path d="M76.796 11.8958C84.1362 7.65792 90.1281 11.0645 90.1514 19.507C90.1746 27.9495 84.2227 38.2524 76.8824 42.4919L17.6719 76.6759C10.3317 80.9138 4.33984 77.5072 4.3149 69.0647C4.28996 60.6222 10.2453 50.3176 17.5921 46.0798C18.4249 42.4511 19.9135 39.0052 21.9846 35.9115C24.2374 32.5382 26.9573 29.8731 29.8502 28.2022C33.6741 25.9943 37.3118 25.9095 39.7125 27.9329C41.952 18.4845 48.584 9.02954 56.0805 4.70188C65.5354 -0.757975 73.2597 3.59628 73.3595 14.4029C74.4184 13.4545 75.5696 12.6146 76.796 11.8958V11.8958ZM76.8791 41.6773C83.8303 37.6655 89.4664 27.9013 89.4431 19.921C89.4198 11.9407 83.7488 8.70035 76.7976 12.7138C75.4652 13.4956 74.2249 14.4247 73.1001 15.4836L72.6346 15.9175V15.3523C72.6346 15.2209 72.6346 15.0912 72.6346 14.9616C72.623 4.4924 65.183 0.256189 56.0755 5.51321C48.6621 9.79432 42.1299 19.3125 40.1897 28.6461L39.9968 29.5805L39.5629 29.1382C37.3118 26.8489 33.6807 26.8023 29.8469 29.0152C24.3155 32.2073 19.5573 39.2716 18.2754 46.1895L18.2106 46.5486L17.9246 46.7049C17.8116 46.7664 17.7002 46.8296 17.5921 46.8944C10.6426 50.9062 5.00652 60.6688 5.02814 68.6557C5.04975 76.6427 10.7241 79.8764 17.6753 75.8629L76.8791 41.6773Z" fill="black"/>
<path d="M8.20344 77.5952L4.68713 75.5536C2.29636 74.1637 0.811694 71.2126 0.800056 67.0213C0.77678 58.5855 6.73042 48.276 14.0706 44.0381L17.5919 46.0797C10.2517 50.3176 4.29144 60.6288 4.32136 69.0646C4.32801 73.2543 5.81268 76.207 8.20344 77.5952Z" fill="black"/>
<path d="M88.6215 76.8156V79.5256C88.6215 78.0675 87.6639 76.6061 85.7403 75.4955C81.9164 73.2893 75.7184 73.2893 71.9194 75.4955C70.0324 76.5911 69.0931 78.0292 69.0848 79.469L69.0931 76.759C69.0931 75.3193 70.0407 73.8811 71.9194 72.7838C75.7184 70.5776 81.9181 70.5759 85.7403 72.7838C87.6655 73.8961 88.6265 75.3575 88.6215 76.8156Z" fill="black"/>
<path d="M69.0782 79.4992V79.4709L69.0865 76.7609V76.7891C69.0832 77.6925 69.0804 78.5958 69.0782 79.4992Z" fill="#FB8F8D"/>
<path d="M88.5831 80.0277C88.5831 79.1255 88.5831 78.2222 88.5831 77.3177C88.6094 77.1528 88.6227 76.986 88.623 76.819V79.5289C88.6212 79.6959 88.6079 79.8626 88.5831 80.0277V80.0277Z" fill="#FB8F8D"/>
<path d="M88.5833 80.0278C88.5542 80.2152 88.5097 80.3998 88.4503 80.5798C88.4503 79.6754 88.4503 78.7721 88.4503 77.8698C88.5097 77.6898 88.5542 77.5052 88.5833 77.3179C88.5833 77.7801 88.5833 78.2428 88.5833 78.7061C88.5833 78.9256 88.5833 79.1467 88.5833 79.3711C88.5833 79.4858 88.5833 79.6006 88.5833 79.7153V79.9564C88.5833 79.9746 88.5833 80.0046 88.5833 80.0278Z" fill="#FB8F8D"/>
<path d="M88.196 81.16C88.196 80.2578 88.1987 79.3544 88.2043 78.45C88.3017 78.2637 88.3835 78.0696 88.4487 77.8698C88.4487 78.7731 88.4487 79.6764 88.4487 80.5797C88.38 80.7796 88.2955 80.9736 88.196 81.16V81.16Z" fill="#FB8F8D"/>
<path d="M88.1959 81.1601C88.1109 81.322 88.016 81.4786 87.9117 81.6289C87.9117 80.7256 87.9117 79.8222 87.9117 78.9189C88.0156 78.7684 88.1105 78.6118 88.1959 78.4501V79.9314C88.1959 80.1359 88.1959 80.3404 88.1959 80.5449V81.0171C88.2009 81.0646 88.2009 81.1125 88.1959 81.1601V81.1601Z" fill="#FB8F8D"/>
<path d="M87.1234 82.5249C87.1234 81.6216 87.1234 80.7182 87.1234 79.8149C87.4184 79.5458 87.6831 79.2453 87.9131 78.9188C87.9131 79.8232 87.9131 80.7266 87.9131 81.6288C87.6832 81.9553 87.4184 82.2558 87.1234 82.5249V82.5249Z" fill="#FB8F8D"/>
<path d="M87.1236 82.525L87.0239 82.6148C87.0239 81.7104 87.0239 80.8065 87.0239 79.9032L87.122 79.8151C87.1264 80.7184 87.127 81.6217 87.1236 82.525Z" fill="#FB8F8D"/>
<path d="M71.9577 83.5027C70.0474 82.3987 69.0865 80.9489 69.0782 79.4992C69.0782 78.597 69.0809 77.6936 69.0865 76.7892C69.0865 78.2389 70.0541 79.6887 71.966 80.791C75.7899 82.9989 81.988 82.9989 85.7853 80.791C86.2291 80.5368 86.6468 80.2394 87.0322 79.9032C87.0322 80.3554 87.0322 80.8071 87.0322 81.2582V82.6148C86.6465 82.95 86.2295 83.2473 85.7869 83.5027C81.9813 85.7089 75.7816 85.7089 71.9577 83.5027Z" fill="#FB8F8D"/>
<path d="M85.7422 72.7906C89.566 74.9968 89.5843 78.5879 85.7854 80.7958C81.9864 83.0037 75.7884 83.0037 71.9661 80.7958C68.1439 78.5879 68.124 74.9985 71.9213 72.7906C75.7185 70.5827 81.9199 70.5777 85.7422 72.7906Z" fill="#FB8F8D"/>
<path d="M89.6191 76.8191L89.6108 79.5307C89.6108 81.1168 88.565 82.7029 86.4868 83.9099C82.3005 86.3422 75.4673 86.3422 71.2544 83.9099C69.1346 82.6863 68.0755 81.0835 68.0805 79.4692V76.7576C68.0805 78.3653 69.1363 79.9763 71.256 81.1999C75.469 83.6322 82.3021 83.6322 86.4868 81.1999C88.5733 79.9912 89.6141 78.4068 89.6191 76.8191Z" fill="black"/>
<path d="M86.4439 72.3766C90.6568 74.8089 90.6801 78.7675 86.4937 81.1998C82.3074 83.6322 75.4759 83.6322 71.263 81.1998C67.0501 78.7675 67.0268 74.8089 71.2131 72.3766C75.3994 69.9443 82.2309 69.9443 86.4439 72.3766ZM71.9663 80.7909C75.7902 82.9987 81.9882 82.9987 85.7855 80.7909C89.5828 78.583 89.5645 74.9918 85.7423 72.7856C81.92 70.5794 75.7203 70.5794 71.9214 72.7856C68.1224 74.9918 68.144 78.5846 71.9663 80.7909Z" fill="black"/>
<path d="M44.5541 98.883V101.595C44.5458 100.143 43.5848 98.6968 41.6696 97.5911C39.7543 96.4855 37.2521 95.9286 34.7483 95.9286C32.2445 95.9286 29.7523 96.4789 27.8487 97.5911C25.945 98.7034 25.0024 100.145 25.009 101.593V98.883C25.009 97.4332 25.945 95.9868 27.8487 94.8812C29.7523 93.7756 32.2478 93.2186 34.75 93.2186C37.2521 93.2186 39.7543 93.7706 41.6696 94.8812C43.5848 95.9918 44.5474 97.4332 44.5541 98.883Z" fill="black"/>
<path d="M25.004 101.706C25.004 101.668 25.004 101.631 25.004 101.593V98.8829C25.004 98.9195 25.004 98.9577 25.004 98.9943C25.0063 99.8988 25.0063 100.803 25.004 101.706Z" fill="white"/>
<path d="M44.509 102.113C44.509 101.209 44.5117 100.306 44.5173 99.4033C44.5428 99.231 44.555 99.0571 44.5539 98.8829V101.595C44.5522 101.768 44.5372 101.942 44.509 102.113V102.113Z" fill="white"/>
<path d="M25.004 101.706C25.004 101.613 25.004 101.52 25.004 101.427C25.004 100.616 25.004 99.8056 25.004 98.9943C25.0189 99.3344 25.0839 99.6706 25.1969 99.9918C25.1969 100.896 25.1969 101.8 25.1969 102.703C25.0833 102.382 25.0183 102.046 25.004 101.706V101.706Z" fill="white"/>
<path d="M42.0685 103.091L42.0618 105.801L41.7077 105.596L41.716 102.886L42.0685 103.091Z" fill="white"/>
<path d="M44.5091 102.113C44.3163 103.385 43.3836 104.622 41.7077 105.605V102.895C43.3836 101.92 44.3146 100.682 44.5091 99.4116V100.825C44.5091 101.041 44.5091 101.257 44.5091 101.473V101.972C44.5091 102.007 44.5125 102.068 44.5091 102.113Z" fill="white"/>
<path d="M25.1982 102.717C25.1965 102.703 25.1965 102.689 25.1982 102.675V102.634C25.1982 101.757 25.1982 100.881 25.1982 100.005C25.5723 101.054 26.4734 102.065 27.8999 102.883C29.8152 103.989 32.3157 104.546 34.8195 104.546C37.3233 104.546 39.8172 103.994 41.7208 102.883V105.593C39.8172 106.699 37.3233 107.256 34.8195 107.256C32.3157 107.256 29.8152 106.704 27.8999 105.593C26.4651 104.775 25.5723 103.766 25.1982 102.717Z" fill="white"/>
<path d="M41.6694 94.8812C43.5847 95.9868 44.5473 97.4333 44.554 98.883C44.5606 100.333 43.6196 101.779 41.716 102.883L42.0685 103.088L41.716 102.883C39.8124 103.989 37.3185 104.546 34.8147 104.546C32.3109 104.546 29.8104 103.994 27.8951 102.883C25.9798 101.773 25.0172 100.329 25.0089 98.8797C25.0006 97.4299 25.9449 95.9835 27.8486 94.8779C29.7522 93.7723 32.2477 93.2153 34.7499 93.2153C37.252 93.2153 39.7542 93.774 41.6694 94.8812Z" fill="white"/>
<path d="M45.5531 98.8829L45.5448 101.593C45.5548 103.191 44.5107 104.788 42.4159 106.005C40.321 107.222 37.5645 107.834 34.8096 107.834C32.0548 107.834 29.2916 107.224 27.1835 106.005C25.0753 104.787 24.0113 103.189 24.0046 101.595V98.8829C24.0046 100.479 25.0753 102.077 27.1851 103.295C29.2949 104.514 32.0564 105.124 34.8096 105.124C37.5628 105.124 40.321 104.514 42.4159 103.295C44.5107 102.077 45.5631 100.479 45.5531 98.8829Z" fill="black"/>
<path d="M45.5534 98.8829C45.5634 100.479 44.5193 102.077 42.4228 103.295C40.3263 104.514 37.5731 105.124 34.8166 105.124C32.0601 105.124 29.3002 104.514 27.1921 103.295C25.0839 102.077 24.0199 100.479 24.0116 98.8829C24.0033 97.2869 25.0457 95.6891 27.1422 94.4721C29.2387 93.2551 31.9919 92.6433 34.7484 92.6433C37.5049 92.6433 40.2648 93.2535 42.3746 94.4721C44.4844 95.6908 45.5451 97.2869 45.5534 98.8829ZM34.8149 104.536C37.3187 104.536 39.8126 103.984 41.7162 102.873C43.6198 101.763 44.5625 100.319 44.5542 98.8696C44.5459 97.4199 43.5849 95.9734 41.6697 94.8678C39.7544 93.7622 37.2539 93.2053 34.7501 93.2053C32.2463 93.2053 29.7524 93.7572 27.8488 94.8678C25.9451 95.9784 25.0025 97.4199 25.0091 98.8696C25.0158 100.319 25.9801 101.779 27.9003 102.883C29.8206 103.987 32.3161 104.546 34.8199 104.546" fill="black"/>
<path d="M89.4447 98.8828V101.593C89.4447 100.143 88.4754 98.6966 86.5601 97.591C84.6449 96.4854 82.1427 95.9284 79.6389 95.9284C77.135 95.9284 74.6512 96.4804 72.7392 97.591C70.8273 98.7016 69.8929 100.143 69.8996 101.593L69.9079 98.8828C69.8996 97.4331 70.8439 95.9866 72.7459 94.8794C74.6478 93.7721 77.145 93.2168 79.6472 93.2168C82.1493 93.2168 84.6515 93.7688 86.5684 94.8794C88.4854 95.99 89.4364 97.4331 89.4447 98.8828Z" fill="black"/>
<path d="M69.8928 101.704C69.8928 101.668 69.8928 101.631 69.8928 101.593L69.901 98.8829C69.901 98.9195 69.901 98.9577 69.901 98.9943C69.8999 99.8988 69.8972 100.802 69.8928 101.704Z" fill="white"/>
<path d="M89.3981 102.113C89.3981 101.209 89.4009 100.305 89.4064 99.4017C89.4325 99.23 89.4453 99.0566 89.4447 98.8829V101.593C89.4433 101.767 89.4278 101.941 89.3981 102.113V102.113Z" fill="white"/>
<path d="M69.8928 101.704C69.8928 101.613 69.8928 101.52 69.8928 101.427C69.8928 100.615 69.8928 99.8045 69.8928 98.9943C69.9076 99.3346 69.9731 99.6708 70.0873 99.9918C70.0873 100.896 70.0845 101.8 70.079 102.703C69.9675 102.381 69.9048 102.045 69.8928 101.704V101.704Z" fill="white"/>
<path d="M86.9593 103.091L86.951 105.801L86.5968 105.596L86.6051 102.886L86.9593 103.091Z" fill="white"/>
<path d="M89.3982 102.113C89.2054 103.385 88.2727 104.622 86.5968 105.605L86.6051 102.895C88.281 101.92 89.2137 100.682 89.4065 99.4033V100.818C89.4065 101.034 89.4065 101.25 89.4065 101.467V102.04C89.3982 102.06 89.3999 102.09 89.3982 102.113Z" fill="white"/>
<path d="M70.0873 102.717C70.0865 102.703 70.0865 102.689 70.0873 102.675V102.634C70.0873 101.757 70.0901 100.881 70.0956 100.005C70.4614 101.054 71.3625 102.065 72.789 102.883C74.7059 103.989 77.2048 104.546 79.7086 104.546C82.2124 104.546 84.7062 103.994 86.6099 102.883L86.6016 105.593C84.6979 106.699 82.2041 107.256 79.7003 107.256C77.1964 107.256 74.6976 106.704 72.7823 105.593C71.3542 104.775 70.4614 103.766 70.0873 102.717Z" fill="white"/>
<path d="M86.5602 94.881C88.4755 95.9866 89.4365 97.4331 89.4448 98.8828C89.4531 100.333 88.5087 101.779 86.6051 102.883L86.9592 103.087L86.6051 102.883C84.7015 103.989 82.2076 104.545 79.7038 104.545C77.2 104.545 74.7012 103.992 72.7892 102.883C70.8773 101.774 69.9113 100.329 69.9047 98.8795C69.898 97.4297 70.8407 95.9833 72.7427 94.8761C74.6447 93.7688 77.1418 93.2135 79.644 93.2135C82.1461 93.2135 84.6433 93.7738 86.5602 94.881Z" fill="white"/>
<path d="M90.4422 98.8829V101.593C90.4505 103.189 89.4064 104.787 87.3115 106.005C85.2167 107.224 82.4618 107.834 79.7053 107.834C76.9488 107.834 74.1889 107.224 72.0791 106.005C69.9693 104.787 68.9086 103.189 68.9003 101.593V98.8829C68.9103 100.479 69.971 102.077 72.0808 103.294C74.1906 104.511 76.9521 105.123 79.707 105.123C82.4618 105.123 85.2167 104.512 87.3132 103.294C89.4097 102.075 90.4521 100.479 90.4422 98.8829Z" fill="black"/>
<path d="M90.4422 98.8829C90.4521 100.479 89.4081 102.077 87.3132 103.294C85.2184 104.511 82.4619 105.123 79.707 105.123C76.9522 105.123 74.1906 104.512 72.0809 103.294C69.9711 102.075 68.9104 100.479 68.9004 98.8829C68.8904 97.2869 69.9362 95.6891 72.031 94.4721C74.1258 93.2551 76.8823 92.6433 79.6372 92.6433C82.3921 92.6433 85.1536 93.2518 87.2634 94.4721C89.3731 95.6925 90.4339 97.2869 90.4422 98.8829ZM79.7037 104.536C82.2075 104.536 84.7013 103.984 86.605 102.873C88.5086 101.762 89.4513 100.319 89.4446 98.8696C89.438 97.4199 88.4754 95.9734 86.5601 94.8678C84.6448 93.7622 82.1427 93.2053 79.6389 93.2053C77.135 93.2053 74.6429 93.7572 72.7376 94.8678C70.8323 95.9784 69.8913 97.4215 69.8996 98.8713C69.9079 100.321 70.8689 101.779 72.7891 102.883C74.7094 103.987 77.2049 104.546 79.7087 104.546" fill="black"/>
<path d="M104.858 68.6757L108.368 66.639L104.855 68.6807L104.858 68.6757Z" fill="black"/>
<path d="M108.368 66.6391C108.471 66.817 108.582 66.9916 108.7 67.1578L105.192 69.1961C105.073 69.0284 104.962 68.8548 104.86 68.6757L108.368 66.6391L104.855 68.6807C104.459 68.0143 104.206 67.2734 104.11 66.5044L107.625 64.4612C107.72 65.2306 107.973 65.972 108.368 66.6391Z" fill="black"/>
<path d="M109.365 68.634C109.932 69.6149 110.71 70.4628 111.57 70.9616L108.055 73.0049C107.194 72.5061 106.416 71.6549 105.849 70.6773C105.577 70.2067 105.357 69.7077 105.194 69.1893L108.71 67.146C108.872 67.6649 109.092 68.1641 109.365 68.634V68.634Z" fill="black"/>
<path d="M105.192 69.196L108.708 67.1527C109.108 67.7351 109.627 68.2263 110.23 68.5942L106.715 70.6374C106.112 70.2692 105.593 69.778 105.192 69.196V69.196Z" fill="white"/>
<path d="M107.629 63.909C107.506 64.0095 107.367 64.0903 107.219 64.1484L106.554 64.5325L105.867 64.9315L104.111 65.9523C104.128 65.9001 104.163 65.8556 104.21 65.8276L107.724 63.786C107.679 63.8144 107.645 63.8581 107.629 63.909V63.909Z" fill="black"/>
<path d="M104.211 65.8276L107.728 63.7859C107.775 63.7636 107.827 63.7544 107.879 63.7594C107.931 63.7644 107.98 63.7833 108.022 63.8142C108.141 63.8925 108.24 63.9976 108.312 64.1212C108.383 64.2448 108.424 64.3833 108.433 64.5258L104.916 66.5691C104.909 66.4264 104.868 66.2875 104.797 66.1638C104.725 66.04 104.626 65.9351 104.506 65.8575C104.464 65.8268 104.414 65.8079 104.363 65.8026C104.311 65.7973 104.259 65.806 104.211 65.8276V65.8276Z" fill="black"/>
<path d="M108.163 13.5866C108.205 13.6173 108.254 13.6362 108.306 13.6412C108.357 13.6462 108.409 13.6371 108.456 13.6148L104.941 15.6581C104.894 15.68 104.842 15.6889 104.791 15.6839C104.74 15.679 104.69 15.6603 104.649 15.6299C104.455 15.5032 104.315 15.3087 104.258 15.0845L107.774 13.0413C107.831 13.2655 107.97 13.4602 108.163 13.5866V13.5866Z" fill="black"/>
<path d="M105.061 15.3939L108.577 13.3506L108.454 64.5409L104.94 66.5825L105.061 15.3939Z" fill="black"/>
<path d="M104.916 66.5693L108.432 64.526C108.467 65.1509 108.648 65.759 108.96 66.3011C109.273 66.8432 109.709 67.3041 110.233 67.6466L106.717 69.6883C106.193 69.3459 105.757 68.8853 105.444 68.3435C105.132 67.8017 104.951 67.1939 104.916 66.5693V66.5693Z" fill="black"/>
<path d="M108.053 73.0151L111.568 70.9718L131.088 82.2406L127.572 84.2839L108.053 73.0151Z" fill="black"/>
<path d="M106.715 70.6375L110.23 68.5942L132.387 81.3876L128.872 83.4309L106.715 70.6375Z" fill="white"/>
<path d="M133.306 82.4582H133.316L129.801 84.5015H129.79C129.22 84.8257 128.44 84.7791 127.58 84.2837L131.097 82.2404C131.946 82.7375 132.728 82.7824 133.306 82.4582Z" fill="black"/>
<path d="M106.717 69.6881L110.233 67.6465L132.39 80.4383L128.875 82.4816L106.717 69.6881Z" fill="black"/>
<path d="M133.981 81.6868C133.844 82.0047 133.612 82.272 133.316 82.4515L129.793 84.4948C130.088 84.3147 130.321 84.0475 130.458 83.7301L133.981 81.6868Z" fill="white"/>
<path d="M106.715 70.6375L128.872 83.4309C129.469 83.775 130.022 83.8615 130.466 83.7301C130.325 84.0531 130.085 84.3231 129.781 84.5016C129.211 84.8258 128.431 84.7792 127.572 84.2838L108.053 73.0149C107.192 72.5162 106.414 71.6649 105.847 70.6873C105.575 70.2167 105.355 69.7177 105.192 69.1993C105.593 69.7802 106.112 70.2702 106.715 70.6375V70.6375Z" fill="white"/>
<path d="M133.981 81.6868L130.466 83.7301C130.022 83.8614 129.469 83.775 128.872 83.4308L132.387 81.3876C132.984 81.7317 133.537 81.8198 133.981 81.6868Z" fill="white"/>
<path d="M133.981 81.6869C134.075 81.6593 134.164 81.6208 134.249 81.5721L130.734 83.6155C130.65 83.6641 130.56 83.7026 130.466 83.7302C131.52 83.1167 132.861 82.1707 133.981 81.6869Z" fill="black"/>
<path d="M128.875 82.4815L132.39 80.4382C132.889 80.7259 133.338 80.7525 133.667 80.5646L130.147 82.6079C129.823 82.7941 129.371 82.7658 128.875 82.4815Z" fill="black"/>
<path d="M130.688 81.4493L134.202 79.406C134.202 79.9763 133.998 80.3753 133.667 80.5698L130.147 82.6081C130.48 82.4186 130.686 82.0196 130.688 81.4493Z" fill="white"/>
<path d="M134.226 79.2612C134.209 79.3077 134.201 79.3567 134.202 79.4059L130.688 81.4475L134.189 79.4125L130.688 81.4475C130.687 81.3988 130.695 81.3504 130.711 81.3045L134.211 79.2745L130.711 81.3078L134.226 79.2612Z" fill="white"/>
<path d="M130.856 30.4433L134.37 28.4L134.225 79.2611L130.711 81.3044L130.856 30.4433Z" fill="white"/>
<path d="M134.226 79.2614C134.164 79.31 134.097 79.3497 134.024 79.3794L133.599 79.6255L133.155 79.8848L132.467 80.2839L130.711 81.3047C130.729 81.2546 130.763 81.212 130.807 81.1833L134.324 79.14C134.278 79.1681 134.243 79.2109 134.226 79.2614V79.2614Z" fill="black"/>
<path d="M130.812 81.1829L134.329 79.1395C134.376 79.1179 134.427 79.1093 134.479 79.1145C134.53 79.1198 134.579 79.1388 134.621 79.1695L131.107 81.2128C131.065 81.1821 131.015 81.1632 130.963 81.1579C130.912 81.1527 130.86 81.1613 130.812 81.1829V81.1829Z" fill="black"/>
<path d="M131.102 81.2129C131.221 81.2908 131.321 81.3958 131.393 81.5194C131.464 81.643 131.506 81.7818 131.514 81.9245C131.514 82.7558 131.211 83.3443 130.734 83.6153C130.65 83.6639 130.56 83.7024 130.466 83.73C130.023 83.8614 129.469 83.7749 128.872 83.4308L106.715 70.6374C106.112 70.2691 105.593 69.778 105.192 69.1959C105.073 69.0283 104.962 68.8546 104.86 68.6755C104.464 68.0091 104.211 67.2682 104.115 66.4992C104.1 66.3645 104.093 66.2291 104.093 66.0936C104.092 66.0455 104.1 65.9976 104.116 65.9523C104.173 65.7976 104.326 65.7527 104.507 65.8575C104.627 65.9351 104.727 66.04 104.798 66.1638C104.87 66.2875 104.911 66.4264 104.918 66.5691C104.952 67.1937 105.133 67.8015 105.446 68.3432C105.759 68.885 106.195 69.3457 106.718 69.688L128.877 82.4897C129.376 82.7757 129.825 82.8023 130.154 82.6161C130.483 82.4299 130.688 82.0276 130.689 81.4523C130.688 81.4031 130.696 81.3541 130.712 81.3077C130.767 81.1514 130.922 81.1032 131.102 81.2129Z" fill="black"/>
<path d="M104.916 66.5692L108.431 64.5276L134.202 79.4059L130.688 81.4475L104.916 66.5692Z" fill="white"/>
<path d="M134.759 28.942C134.801 28.9729 134.85 28.9919 134.902 28.9969C134.954 29.0018 135.006 28.9927 135.053 28.9703L131.537 31.0136C131.49 31.0351 131.438 31.0438 131.387 31.0389C131.336 31.0339 131.286 31.0154 131.244 30.9853C131.051 30.8599 130.912 30.6664 130.855 30.4433L134.37 28.4C134.428 28.6228 134.566 28.8161 134.759 28.942V28.942Z" fill="black"/>
<path d="M131.684 29.983L135.198 27.9397L135.049 80.9306L131.534 82.9739L131.684 29.983Z" fill="black"/>
<path d="M131.101 81.2131L134.616 79.1698C134.736 79.2476 134.836 79.3529 134.908 79.4769C134.98 79.6008 135.021 79.74 135.028 79.883C135.028 80.7143 134.726 81.3012 134.249 81.5739L130.734 83.6155C131.211 83.3445 131.51 82.7576 131.514 81.9247C131.506 81.782 131.464 81.6432 131.393 81.5196C131.321 81.396 131.221 81.291 131.101 81.2131Z" fill="black"/>
<path d="M131.534 82.9738L135.048 80.9371C135.048 82.1857 134.596 83.0669 133.885 83.4742L130.363 85.5091C131.081 85.1018 131.53 84.2223 131.534 82.9738Z" fill="black"/>
<path d="M130.687 81.4491C130.687 82.0193 130.483 82.4183 130.152 82.6129C129.821 82.8074 129.371 82.7791 128.875 82.4865L106.717 69.6848C106.193 69.3424 105.757 68.8818 105.444 68.34C105.132 67.7982 104.951 67.1904 104.916 66.5658L130.687 81.4491Z" fill="white"/>
<path d="M105.084 15.4073L108.6 13.364L134.347 28.229L130.832 30.2723L105.084 15.4073Z" fill="white"/>
<path d="M108.456 13.6149L104.941 15.6582C104.982 15.6286 105.015 15.5886 105.036 15.5421C105.057 15.4957 105.066 15.4446 105.061 15.3939L108.577 13.3506C108.582 13.4015 108.574 13.4528 108.552 13.4992C108.531 13.5457 108.498 13.5856 108.456 13.6149V13.6149Z" fill="black"/>
<path d="M104.505 65.8577C104.324 65.7529 104.173 65.7978 104.115 65.9524L104.258 15.078C104.315 15.3021 104.455 15.4966 104.648 15.6233C104.874 15.7547 105.061 15.6483 105.061 15.3872L104.939 66.5759C104.924 66.4318 104.876 66.293 104.802 66.1689C104.727 66.0449 104.626 65.9387 104.505 65.8577V65.8577Z" fill="black"/>
<path d="M105.598 14.2331L109.112 12.1915C108.78 12.3811 108.579 12.7801 108.577 13.3553L105.061 15.3936C105.064 14.8234 105.267 14.4227 105.598 14.2331Z" fill="black"/>
<path d="M107.776 12.4944C107.174 12.8419 104.973 14.122 104.26 14.5377C104.339 13.9059 104.614 13.4537 105.016 13.2259L108.534 11.1826C108.128 11.4104 107.854 11.8626 107.776 12.4944Z" fill="black"/>
<path d="M109.113 12.1917C109.445 12.0039 109.894 12.0255 110.389 12.3181L106.871 14.3597C106.373 14.0738 105.924 14.0472 105.595 14.2334C106.652 13.6215 108.055 12.7986 109.113 12.1917Z" fill="white"/>
<path d="M105.016 13.2258L108.534 11.1825C108.688 11.0945 108.857 11.038 109.033 11.0163C109.51 10.985 109.985 11.1073 110.388 11.3654L106.871 13.412C106.469 13.1542 105.995 13.0318 105.518 13.0629C105.342 13.0828 105.171 13.1382 105.016 13.2258V13.2258Z" fill="black"/>
<path d="M106.005 12.624L109.521 10.5807C109.33 10.6915 109.163 10.841 109.032 11.0196L105.523 13.0629C105.651 12.8848 105.816 12.7354 106.005 12.624V12.624Z" fill="black"/>
<path d="M106.875 14.3597L110.389 12.3181L132.546 25.1099L129.032 27.1532L106.875 14.3597Z" fill="white"/>
<path d="M106.876 13.4122L110.393 11.3689L132.55 24.1606L129.035 26.2039L106.876 13.4122Z" fill="black"/>
<path d="M106.005 12.6239L109.52 10.5822H109.528C110.098 10.2597 110.878 10.3063 111.739 10.8017L108.223 12.84C107.363 12.3412 106.584 12.298 106.012 12.6205L106.005 12.6239Z" fill="white"/>
<path d="M105.432 11.6082L108.946 9.56489C109.663 9.1559 110.654 9.21575 111.741 9.84254L108.227 11.8908C107.139 11.264 106.147 11.2042 105.432 11.6082Z" fill="black"/>
<path d="M134.37 28.4L130.855 30.4433L134.37 28.4Z" fill="white"/>
<path d="M134.347 28.2339C134.348 28.29 134.356 28.3459 134.37 28.4001L130.856 30.4434C130.841 30.3891 130.833 30.3333 130.832 30.2772L134.347 28.2339Z" fill="white"/>
<path d="M130.832 30.2721C130.833 30.3282 130.841 30.3841 130.856 30.4383L130.711 81.2994C130.695 81.3453 130.687 81.3938 130.688 81.4424L104.94 66.5824L105.084 15.4071L130.832 30.2721Z" fill="white"/>
<path d="M108.223 12.8402L111.738 10.7969L131.258 22.0674L127.743 24.109L108.223 12.8402Z" fill="white"/>
<path d="M129.032 27.1532L132.546 25.1099C133.079 25.4434 133.517 25.9068 133.821 26.4565C134.146 26.994 134.327 27.6061 134.347 28.2338L130.832 30.2771C130.798 29.6525 130.617 29.0447 130.304 28.5029C129.991 27.9611 129.555 27.5005 129.032 27.1581V27.1532Z" fill="white"/>
<path d="M129.032 27.1532C129.555 27.4956 129.991 27.9562 130.304 28.498C130.617 29.0398 130.798 29.6475 130.832 30.2722L105.084 15.4072C105.064 14.8237 105.267 14.423 105.598 14.2335C105.929 14.0439 106.378 14.0672 106.875 14.3598L129.032 27.1532Z" fill="white"/>
<path d="M108.226 11.8907L111.741 9.84741L131.261 21.1179L127.745 23.1612L108.226 11.8907Z" fill="black"/>
<path d="M135.053 28.9703L131.537 31.0136C131.579 30.9843 131.612 30.9443 131.634 30.8979C131.655 30.8514 131.663 30.8001 131.658 30.7492C131.627 29.8368 131.364 28.9474 130.892 28.1656C130.761 27.9395 130.616 27.7213 130.46 27.5122C130.075 26.9867 129.591 26.5421 129.035 26.2038L132.549 24.1605C133.106 24.4994 133.59 24.9446 133.974 25.4706C134.132 25.6789 134.276 25.8965 134.407 26.1223C134.88 26.9436 135.176 27.8747 135.173 28.706C135.178 28.7567 135.17 28.8078 135.149 28.8542C135.128 28.9006 135.095 28.9407 135.053 28.9703V28.9703Z" fill="black"/>
<path d="M129.035 26.2038C129.591 26.542 130.076 26.9867 130.46 27.5122C130.617 27.7213 130.761 27.9395 130.892 28.1656C131.364 28.9474 131.628 29.8368 131.659 30.7492C131.659 31.0103 131.472 31.1167 131.245 30.9853C131.051 30.8599 130.913 30.6664 130.856 30.4433C130.841 30.3891 130.833 30.3332 130.832 30.2771C130.798 29.6524 130.617 29.0447 130.304 28.5029C129.991 27.9611 129.555 27.5004 129.032 27.1581L106.871 14.3597C106.373 14.0737 105.924 14.0471 105.595 14.2333C105.265 14.4195 105.061 14.8235 105.058 15.3971C105.058 15.6582 104.871 15.7646 104.645 15.6332C104.452 15.5065 104.312 15.312 104.255 15.0879C104.241 15.0335 104.234 14.9777 104.233 14.9216C104.234 14.795 104.241 14.6684 104.256 14.5426C104.336 13.9108 104.61 13.4586 105.013 13.2308C105.166 13.1425 105.336 13.0859 105.511 13.0646C105.988 13.0335 106.462 13.1558 106.865 13.4137L129.035 26.2038Z" fill="black"/>
<path d="M129.035 26.2037L106.871 13.412C106.469 13.1541 105.995 13.0317 105.518 13.0628C105.648 12.8827 105.815 12.7321 106.007 12.6206C106.579 12.2981 107.359 12.3429 108.218 12.8401L127.738 24.1089C128.596 24.6077 129.374 25.4589 129.941 26.4365C130.141 26.7802 130.312 27.1394 130.455 27.5105C130.072 26.986 129.589 26.542 129.035 26.2037V26.2037Z" fill="white"/>
<path d="M127.743 24.109L131.258 22.0674C132.117 22.5661 132.895 23.4157 133.462 24.395C133.661 24.7384 133.832 25.0969 133.974 25.4673L130.46 27.5106C130.317 27.1395 130.146 26.7803 129.946 26.4366C129.379 25.459 128.601 24.6061 127.743 24.109Z" fill="white"/>
<path d="M130.533 26.1058L134.048 24.0625C134.759 25.2961 135.203 26.691 135.2 27.9396L131.684 29.9829C131.687 28.7326 131.245 27.3377 130.533 26.1058Z" fill="black"/>
<path d="M130.533 26.1058C131.245 27.3378 131.687 28.7343 131.684 29.9829L131.534 82.9738C131.534 84.2224 131.082 85.1019 130.37 85.5092C129.659 85.9166 128.663 85.86 127.577 85.2316L108.05 73.9627C106.961 73.3326 105.974 72.2503 105.264 71.0183C104.554 69.7864 104.1 68.3898 104.112 67.1412V66.4995C104.207 67.2684 104.461 68.0093 104.856 68.6758C104.958 68.8548 105.069 69.0285 105.189 69.1962C105.352 69.7146 105.572 70.2135 105.844 70.6841C106.411 71.6651 107.189 72.513 108.05 73.0117L127.569 84.2806C128.428 84.7794 129.208 84.8226 129.778 84.4984C130.082 84.3199 130.322 84.0499 130.463 83.727C130.557 83.6994 130.646 83.6609 130.731 83.6122C131.208 83.3412 131.507 82.7544 131.511 81.9214C131.502 81.7786 131.461 81.6396 131.389 81.5157C131.318 81.3919 131.218 81.2865 131.098 81.2082C130.919 81.1051 130.766 81.1483 130.708 81.3013L130.852 30.4401C130.909 30.6632 131.048 30.8567 131.241 30.9821C131.469 31.1135 131.654 31.0071 131.655 30.746C131.624 29.8336 131.36 28.9441 130.889 28.1624C130.758 27.9363 130.613 27.7181 130.457 27.509C130.314 27.1379 130.142 26.7788 129.943 26.435C129.376 25.4558 128.598 24.6062 127.74 24.1074L108.223 12.8402C107.364 12.3415 106.584 12.2982 106.012 12.6208C105.82 12.7322 105.653 12.8829 105.523 13.063C105.347 13.0844 105.178 13.1409 105.024 13.2293C104.622 13.457 104.348 13.9093 104.268 14.541V14.1503C104.268 12.9017 104.72 12.0206 105.432 11.6133C106.143 11.2059 107.139 11.2641 108.226 11.8909L127.747 23.1614C128.832 23.7882 129.815 24.8722 130.533 26.1058Z" fill="black"/>
<path d="M127.746 23.1615L131.261 21.1182C132.348 21.7449 133.336 22.8289 134.048 24.0626L130.533 26.1058C129.815 24.8722 128.832 23.7882 127.746 23.1615Z" fill="black"/>
<path d="M112.118 38.9099C112.577 38.6428 112.576 37.7827 112.115 36.9888C111.653 36.1949 110.907 35.7678 110.447 36.0349C109.987 36.302 109.989 37.1621 110.45 37.956C110.911 38.7499 111.658 39.177 112.118 38.9099Z" fill="black"/>
<path d="M121.188 36.0762C121.633 36.8111 121.882 37.6481 121.911 38.5069L121.883 48.6119C121.883 49.395 121.6 49.942 121.148 50.2013C120.696 50.4607 120.079 50.4191 119.397 50.0267L103.003 40.5618C102.273 40.1048 101.672 39.4698 101.255 38.7163C100.811 37.9811 100.564 37.1442 100.536 36.2857L100.564 26.1823C100.564 25.3992 100.846 24.8522 101.297 24.5912C101.748 24.3302 102.368 24.3718 103.048 24.7575L119.442 34.2241C120.173 34.682 120.774 35.3197 121.188 36.0762V36.0762ZM111.277 38.8227C111.929 39.2001 112.459 38.8976 112.461 38.1494C112.44 37.7413 112.322 37.3441 112.118 36.9901C111.913 36.6362 111.628 36.3355 111.286 36.1128C110.634 35.737 110.105 36.038 110.102 36.7878C110.123 37.1956 110.241 37.5927 110.445 37.9463C110.65 38.3 110.935 38.6003 111.277 38.8227V38.8227ZM115.406 41.2019C116.057 41.5776 116.588 41.2767 116.589 40.5269C116.567 40.1191 116.45 39.7222 116.245 39.3686C116.041 39.015 115.756 38.7146 115.414 38.4919C114.762 38.1145 114.233 38.4171 114.23 39.1652C114.251 39.5734 114.369 39.9707 114.573 40.3247C114.777 40.6787 115.063 40.9793 115.406 41.2019V41.2019ZM106.915 36.299C107.565 36.6747 108.095 36.3738 108.097 35.624C108.075 35.2161 107.958 34.8191 107.753 34.4654C107.549 34.1117 107.264 33.8114 106.921 33.589C106.27 33.2133 105.741 33.5142 105.739 34.254C105.76 34.6623 105.878 35.0597 106.082 35.4137C106.286 35.7678 106.572 36.0683 106.915 36.2907" fill="#FB8F8D"/>
<path d="M107.754 36.3909C108.214 36.1238 108.212 35.2636 107.751 34.4697C107.29 33.6758 106.543 33.2488 106.083 33.5159C105.624 33.783 105.625 34.6431 106.086 35.437C106.548 36.2309 107.294 36.658 107.754 36.3909Z" fill="black"/>
<path d="M116.246 41.2946C116.706 41.0274 116.705 40.1673 116.243 39.3734C115.782 38.5795 115.035 38.1525 114.576 38.4196C114.116 38.6867 114.117 39.5468 114.579 40.3407C115.04 41.1346 115.787 41.5617 116.246 41.2946Z" fill="black"/>
<path d="M121.692 35.7918C122.265 36.7894 122.621 37.9083 122.619 38.9158L122.591 49.0158C122.591 50.0233 122.225 50.7316 121.648 51.0608C121.072 51.39 120.272 51.3434 119.396 50.8446L103.001 41.3681C102.125 40.8693 101.329 39.9898 100.755 38.9956C100.181 38.0014 99.824 36.8775 99.8273 35.87L99.8556 25.7666C99.8556 24.7591 100.22 24.0492 100.798 23.7216C101.377 23.3941 102.175 23.4407 103.051 23.9461L119.446 33.411C120.32 33.9231 121.116 34.7959 121.692 35.7918ZM121.883 48.6118L121.911 38.5068C121.864 37.6503 121.616 36.817 121.187 36.0742C120.758 35.3314 120.16 34.6998 119.442 34.2307L103.048 24.7641C102.368 24.3717 101.749 24.3351 101.297 24.5978C100.845 24.8605 100.566 25.4058 100.564 26.1889L100.536 36.2923C100.581 37.1489 100.828 37.9827 101.257 38.7258C101.686 39.4689 102.284 40.1002 103.003 40.5684L119.397 50.0333C120.079 50.4257 120.697 50.4639 121.148 50.2079C121.599 49.9519 121.88 49.4015 121.883 48.6185" fill="black"/>
<path d="M16.3733 89.9797C17.7506 89.9797 18.8671 88.8632 18.8671 87.4859C18.8671 86.1086 17.7506 84.9921 16.3733 84.9921C14.996 84.9921 13.8794 86.1086 13.8794 87.4859C13.8794 88.8632 14.996 89.9797 16.3733 89.9797Z" fill="black"/>
<path d="M14.3339 26.2996L12.9784 24.9441C12.5414 24.5072 11.833 24.5072 11.396 24.9441L10.0405 26.2996C9.60357 26.7366 9.60357 27.445 10.0405 27.882L11.396 29.2375C11.833 29.6744 12.5414 29.6744 12.9784 29.2375L14.3339 27.882C14.7708 27.445 14.7708 26.7366 14.3339 26.2996Z" fill="black"/>
<path d="M129.095 11.0081C130.472 11.0081 131.589 9.89155 131.589 8.51423C131.589 7.13692 130.472 6.02039 129.095 6.02039C127.718 6.02039 126.601 7.13692 126.601 8.51423C126.601 9.89155 127.718 11.0081 129.095 11.0081Z" fill="black"/>
<path d="M132.753 14.3332C133.395 14.3332 133.916 13.8122 133.916 13.1694C133.916 12.5267 133.395 12.0056 132.753 12.0056C132.11 12.0056 131.589 12.5267 131.589 13.1694C131.589 13.8122 132.11 14.3332 132.753 14.3332Z" fill="black"/>
<path d="M109.742 93.3467L108.387 91.9913C107.95 91.5543 107.242 91.5543 106.805 91.9913L105.449 93.3467C105.012 93.7837 105.012 94.4922 105.449 94.9291L106.805 96.2846C107.242 96.7216 107.95 96.7216 108.387 96.2846L109.742 94.9291C110.179 94.4922 110.179 93.7837 109.742 93.3467Z" fill="black"/>
<path d="M119.701 99.4563C120.39 99.4563 120.948 98.8981 120.948 98.2094C120.948 97.5208 120.39 96.9625 119.701 96.9625C119.013 96.9625 118.454 97.5208 118.454 98.2094C118.454 98.8981 119.013 99.4563 119.701 99.4563Z" fill="black"/>
</svg>
