<svg width="80" height="80" viewBox="0 0 80 80" fill="none" xmlns="http://www.w3.org/2000/svg">
<circle cx="40" cy="40" r="40" fill="#55ACEE"/>
<g clip-path="url(#clip0)">
<path d="M60 27.0185C58.5281 27.678 56.9466 28.1238 55.2866 28.3243C56.9811 27.298 58.2822 25.6728 58.8948 23.7364C57.284 24.7023 55.5216 25.3829 53.6838 25.7487C52.1867 24.1371 50.0541 23.1299 47.6936 23.1299C43.1614 23.1299 39.4869 26.8429 39.4869 31.4225C39.4869 32.0726 39.5595 32.7054 39.6994 33.3125C32.8791 32.9666 26.8322 29.6651 22.7845 24.6479C22.0783 25.8727 21.6736 27.2974 21.6736 28.8169C21.6736 31.6941 23.1225 34.2323 25.3244 35.7195C24.0212 35.6782 22.7466 35.3225 21.6072 34.6821C21.6067 34.7168 21.6067 34.7516 21.6067 34.7865C21.6067 38.8044 24.4355 42.1562 28.1895 42.918C26.9811 43.2502 25.7135 43.2988 24.4836 43.0601C25.5278 46.3548 28.5586 48.7522 32.1495 48.8194C29.3409 51.0435 25.8023 52.3693 21.9577 52.3693C21.2952 52.3693 20.642 52.33 20 52.2534C23.6317 54.6063 27.9453 55.9792 32.5797 55.9792C47.6745 55.9792 55.9287 43.3428 55.9287 32.3842C55.9287 32.0246 55.9209 31.6669 55.905 31.3114C57.5116 30.1377 58.8983 28.684 60 27.0185Z" fill="white"/>
</g>
<defs>
<clipPath id="clip0">
<rect width="40" height="33" fill="white" transform="translate(20 23)"/>
</clipPath>
</defs>
</svg>
