<svg width="138" height="90" viewBox="0 0 138 90" fill="none" xmlns="http://www.w3.org/2000/svg">
<path d="M38.6808 66.9166L71.0952 48.2021" stroke="black" stroke-width="2" stroke-miterlimit="10"/>
<path d="M91.9836 25.6843L91.9264 45.6688C91.9346 42.5633 89.8866 39.4431 85.7841 37.0732C77.6315 32.3676 64.412 32.3676 56.3117 37.0732C52.2893 39.4104 50.2756 42.4767 50.2642 45.5478L50.3214 25.5633C50.3214 22.4922 52.3449 19.426 56.3689 17.0871C64.4676 12.3798 77.6887 12.3798 85.8413 17.0871C89.9438 19.457 91.9918 22.5723 91.9836 25.6843Z" fill="black"/>
<path d="M50.3687 46.7817C50.3003 46.3778 50.2659 45.9688 50.2658 45.5592L50.323 25.5747C50.3215 25.9839 50.3559 26.3925 50.4259 26.7956C50.4085 33.4522 50.3894 40.1143 50.3687 46.7817Z" fill="white"/>
<path d="M56.4076 54.145C52.8444 52.0872 50.8308 49.4655 50.3683 46.7736C50.3879 40.1116 50.4069 33.4495 50.4255 26.7875C50.8864 29.4811 52.9 32.1027 56.4648 34.1605C64.6174 38.8661 77.8385 38.8661 85.9356 34.1605C89.9613 31.8216 91.9831 28.7538 91.9831 25.6826L91.9259 45.6671C91.9259 48.7398 89.9041 51.8061 85.8784 54.145C77.7813 58.8506 64.5602 58.8522 56.4076 54.145Z" fill="white"/>
<path d="M86.5304 16.6882C95.0655 21.6144 95.1113 29.6331 86.6318 34.5609C78.1522 39.4888 64.3084 39.4888 55.7733 34.5609C47.2382 29.6331 47.1941 21.6112 55.6785 16.6882C64.163 11.7652 77.9953 11.7603 86.5304 16.6882ZM56.4647 34.1605C64.6173 38.8661 77.8384 38.8661 85.9355 34.1605C94.0326 29.4549 93.9917 21.7959 85.8407 17.0887C77.6897 12.3814 64.467 12.3814 56.3683 17.0887C48.2695 21.7959 48.312 29.4533 56.4647 34.1605" fill="black"/>
<path d="M91.9878 25.6812C92.0064 19.0149 82.6915 13.5848 71.1823 13.5527C59.6731 13.5205 50.328 18.8986 50.3094 25.5649C50.2908 32.2312 59.6057 37.6613 71.1149 37.6934C82.6241 37.7256 91.9692 32.3475 91.9878 25.6812Z" fill="white"/>
<path d="M92.9624 25.6859L92.9052 45.672C92.8954 48.887 90.7804 52.0987 86.575 54.5455C78.0954 59.4733 64.2532 59.475 55.7181 54.5455C51.4228 52.0644 49.2784 48.802 49.2866 45.5462L49.3438 25.5601C49.3339 28.8175 51.48 32.0799 55.7737 34.5594C64.3088 39.4872 78.1526 39.4872 86.6322 34.5594C90.8442 32.1126 92.9526 28.9025 92.9624 25.6859Z" fill="black"/>
<path d="M52.7468 52.5512L52.7092 65.8736C52.7174 62.7682 50.6694 59.6464 46.567 57.278C38.4159 52.5724 25.1949 52.5724 17.0961 57.278C13.0721 59.6169 11.0585 62.6848 11.0585 65.756L11.0961 52.4319C11.0961 49.3607 13.1179 46.2945 17.1435 43.9556C25.2423 39.25 38.4633 39.2484 46.6144 43.9556C50.707 46.3239 52.755 49.4392 52.7468 52.5512Z" fill="black"/>
<path d="M52.7076 66.0125C52.7185 61.5711 52.7311 57.1298 52.7452 52.6884C52.7452 52.6427 52.7452 52.5953 52.7452 52.5479L52.7076 65.8719C52.7093 65.9193 52.7076 65.9651 52.7076 66.0125Z" fill="white"/>
<path d="M11.1174 66.7482C11.0742 66.4198 11.0546 66.0888 11.0585 65.7577L11.0961 52.4336C11.0949 52.7649 11.1173 53.0959 11.1632 53.4241C11.1446 57.8665 11.1294 62.3079 11.1174 66.7482Z" fill="white"/>
<path d="M52.7076 66.0128C52.6998 66.3336 52.6709 66.6536 52.621 66.9706C52.6319 62.5281 52.6444 58.0868 52.6586 53.6465C52.7085 53.3295 52.7375 53.0095 52.7452 52.6887C52.7343 56.3466 52.7239 60.004 52.7141 63.6608C52.7141 64.0531 52.7141 64.4453 52.7141 64.8376V65.2969C52.7076 65.5355 52.7092 65.7741 52.7076 66.0128Z" fill="white"/>
<path d="M52.5836 67.1844C52.5945 62.742 52.607 58.3006 52.6212 53.8604C52.6343 53.7884 52.6473 53.7182 52.6588 53.6462C52.6457 58.0865 52.6332 62.5278 52.6212 66.9703C52.6097 67.0487 52.5967 67.1125 52.5836 67.1844Z" fill="white"/>
<path d="M52.5836 67.1844C52.5224 67.5002 52.4416 67.8119 52.3417 68.1177C52.3548 63.6753 52.3673 59.2339 52.3793 54.7936C52.4802 54.4881 52.561 54.1764 52.6212 53.8604C52.6081 58.3017 52.5956 62.7431 52.5836 67.1844Z" fill="white"/>
<path d="M52.3198 68.1815C52.3329 63.7407 47.9297 59.2868 52.3574 54.8591C52.3656 54.8362 52.3721 54.8149 52.3787 54.7937C52.3678 59.234 52.3552 63.6753 52.3411 68.1178C52.3345 68.1391 52.328 68.1603 52.3198 68.1815Z" fill="white"/>
<path d="M52.3202 68.1813C51.5586 70.4401 49.6773 72.5943 46.6732 74.3432C46.6863 69.9029 46.6988 65.4616 46.7108 61.0191C49.7149 59.2719 51.5962 57.1177 52.3578 54.8589C52.3469 59.0398 52.335 63.2213 52.3219 67.4033V68.1372C52.3221 68.1519 52.3216 68.1666 52.3202 68.1813Z" fill="white"/>
<path d="M11.1175 66.7481C11.1175 66.6549 11.1175 66.5307 11.1175 66.4392V66.2757C11.1175 65.9913 11.1175 65.7086 11.1175 65.4258C11.1175 64.9878 11.1175 64.5481 11.1175 64.1101C11.1273 60.5469 11.1376 56.9844 11.1485 53.4224C11.531 56.2009 13.5577 58.9092 17.2222 61.0242C25.3748 65.7314 38.5959 65.7314 46.6946 61.0242H46.7044C46.6914 65.4667 46.6788 69.908 46.6668 74.3483H46.6554C38.5583 79.0539 25.3372 79.0555 17.1846 74.3483C13.525 72.2333 11.4999 69.5217 11.1175 66.7481Z" fill="white"/>
<path d="M47.2936 43.5536C55.8287 48.4815 55.8745 56.5001 47.395 61.428C38.9154 66.3558 25.0732 66.3558 16.5381 61.428C8.003 56.5001 7.95233 48.4815 16.4368 43.5536C24.9212 38.6257 38.7585 38.6257 47.2936 43.5536ZM17.2279 61.0259C25.3805 65.7331 38.6016 65.7331 46.7003 61.0259C54.799 56.3187 54.7549 48.6612 46.6039 43.9556C38.4529 39.2501 25.2318 39.2501 17.1331 43.9556C9.03434 48.6612 9.07683 56.3203 17.2279 61.0259" fill="black"/>
<path d="M46.6044 43.9557C54.7554 48.6613 54.7995 56.3204 46.7008 61.026C38.6021 65.7315 25.381 65.7332 17.2283 61.026C9.07568 56.3187 9.03482 48.6629 17.1335 43.9557C25.2323 39.2485 38.4534 39.2485 46.6044 43.9557Z" fill="white"/>
<path d="M53.7258 52.5543L53.6882 65.8768C53.6784 69.0934 51.5635 72.3034 47.358 74.7519C38.8785 79.6797 25.0346 79.6781 16.4995 74.7519C12.2025 72.2789 10.0598 69.01 10.0777 65.7525L10.1153 52.4285C10.1055 55.6859 12.2516 58.9483 16.5469 61.4278C25.082 66.3557 38.9242 66.3557 47.4038 61.4278C51.6092 58.9794 53.7177 55.7709 53.7258 52.5543Z" fill="black"/>
<path d="M131.681 60.2954L131.663 66.9558C131.671 63.8504 129.622 60.7302 125.521 58.3619C117.368 53.6547 104.147 53.6547 96.0485 58.3619C92.0261 60.6992 90.0108 63.7654 90.001 66.8365L90.0206 60.1761C90.0206 57.105 92.0424 54.0371 96.0681 51.6999C104.167 46.9926 117.386 46.9926 125.539 51.6999C129.641 54.0682 131.691 57.1834 131.681 60.2954Z" fill="black"/>
<path d="M90.1059 68.0607C90.0359 67.6575 90.0014 67.249 90.0029 66.8398L90.0225 60.1777C90.0212 60.5869 90.0552 60.9953 90.1239 61.3987C90.1195 63.6194 90.1135 65.84 90.1059 68.0607Z" fill="white"/>
<path d="M96.1449 75.4322C92.5801 73.3745 90.5665 70.7528 90.0974 68.0609C90.1039 65.8402 90.1099 63.6195 90.1154 61.3988C90.5779 64.0924 92.5916 66.7141 96.1629 68.7702C104.316 73.4774 117.537 73.4774 125.635 68.7702C129.659 66.4329 131.673 63.3651 131.683 60.2939L131.665 66.9543C131.665 70.0271 129.643 73.0933 125.617 75.4322C117.519 80.1395 104.298 80.1395 96.1449 75.4322Z" fill="white"/>
<path d="M131.685 60.2914C131.704 53.6251 122.389 48.1949 110.88 48.1628C99.3706 48.1306 90.0254 53.5087 90.0068 60.175C89.9882 66.8413 99.3031 72.2714 110.812 72.3036C122.321 72.3357 131.667 66.9577 131.685 60.2914Z" fill="white"/>
<path d="M132.662 60.2971L132.644 66.9591C132.634 70.1757 130.519 73.3858 126.313 75.8342C117.832 80.7621 103.99 80.7621 95.455 75.8342C91.1596 73.3547 89.0218 70.0923 89.0218 66.8349L89.0397 60.1729C89.0397 63.4303 91.176 66.6927 95.4713 69.1721C104.006 74.1 117.849 74.1 126.328 69.1721C130.537 66.7221 132.652 63.5137 132.662 60.2971Z" fill="black"/>
<path d="M126.23 51.298C134.765 56.2258 134.809 64.2444 126.33 69.1723C117.85 74.1002 104.008 74.1002 95.473 69.1723C86.9379 64.2444 86.8922 56.2258 95.3717 51.298C103.851 46.3701 117.695 46.3701 126.23 51.298ZM96.1562 68.7702C104.309 73.4774 117.53 73.4774 125.629 68.7702C133.727 64.063 133.685 56.4056 125.532 51.7C117.38 46.9944 104.16 46.9928 96.0614 51.7C87.9627 56.4072 88.0052 64.0646 96.1562 68.7702Z" fill="black"/>
<path d="M81.2535 8.85264L78.9506 7.51403L79.2971 7.31299L81.6017 8.6516L81.2535 8.85264Z" fill="white"/>
<path d="M65.8123 25.1351L63.5093 23.7965C65.1536 24.7314 67.4189 24.5908 69.9213 23.1427C72.4236 21.6946 74.6792 19.2282 76.3136 16.3989L78.6182 17.7375C76.9838 20.5668 74.7266 23.0381 72.2242 24.4813C69.7219 25.9245 67.4614 26.07 65.8123 25.1351Z" fill="black"/>
<path d="M78.6214 17.7407L76.3168 16.4021C77.9513 13.5712 78.9565 10.3873 78.9483 7.51391C78.9401 4.64054 77.9202 2.62526 76.2727 1.68872L78.5756 3.02734C80.2215 3.96388 81.2414 5.97752 81.2496 8.85252C81.2578 11.7275 80.2559 14.9098 78.6214 17.7407Z" fill="black"/>
<path d="M75.7824 1.44531C75.9507 1.51626 76.1145 1.5976 76.2727 1.68885L78.5757 3.02747C78.4146 2.93522 78.2475 2.85386 78.0755 2.78393L75.7824 1.44531Z" fill="white"/>
<path d="M62.2169 22.6719L64.5215 24.0105C64.8774 24.465 65.3174 24.8467 65.8176 25.135L63.5146 23.7964C63.0137 23.5086 62.573 23.1268 62.2169 22.6719V22.6719Z" fill="white"/>
<path d="M75.7828 1.44524C75.8244 1.46646 75.8648 1.48992 75.9038 1.51552L76.0345 1.5907L76.2879 1.7378L78.0858 2.78385C76.4971 2.13007 74.4328 2.37197 72.1756 3.67463L69.871 2.33601C72.1216 1.03335 74.186 0.791453 75.7828 1.44524Z" fill="white"/>
<path d="M63.4702 9.08157C65.1047 6.25069 67.3635 3.78104 69.8642 2.33618L72.1688 3.6748C69.6681 5.11965 67.4076 7.59748 65.7748 10.4202C64.142 13.2429 63.1352 16.4333 63.1433 19.3083C63.1433 21.3236 63.6517 22.9156 64.5196 24.0106L62.2166 22.672C61.3503 21.577 60.8469 19.985 60.842 17.9697C60.8322 15.0947 61.8358 11.9124 63.4702 9.08157Z" fill="white"/>
<path d="M72.1689 3.67474C74.6696 2.23152 76.935 2.08932 78.5792 3.02096C80.2235 3.9526 81.245 5.97115 81.2532 8.84615L81.6013 8.64511L81.2532 8.84615C81.2532 11.7195 80.2562 14.9034 78.6217 17.7343C76.9873 20.5652 74.7301 23.0348 72.2277 24.4781C69.7254 25.9213 67.4617 26.0635 65.8158 25.1318C64.1699 24.2002 63.1516 22.1784 63.1435 19.305C63.1353 16.4316 64.1405 13.2477 65.7749 10.4169C67.4094 7.58599 69.6682 5.1196 72.1689 3.67474Z" fill="white"/>
<path d="M65.3221 25.9834L63.0192 24.6448C61.2491 23.6363 60.1491 21.4641 60.1409 18.3701C60.1327 15.2761 61.2148 11.8454 62.9734 8.79874C64.7321 5.75211 67.1674 3.09122 69.8594 1.53686C72.5513 -0.0175109 74.9981 -0.169515 76.7633 0.837309L79.0679 2.17756C77.2978 1.1691 74.8543 1.32111 72.164 2.87547C69.4736 4.42984 67.0383 7.094 65.2813 10.139C63.5242 13.184 62.439 16.618 62.4471 19.7104C62.4553 22.8027 63.5553 24.9749 65.3221 25.9834Z" fill="black"/>
<path d="M79.071 2.17749C80.8394 3.18431 81.9411 5.35813 81.9476 8.45052C81.9541 11.5429 80.8738 14.9769 79.1151 18.0153C77.3564 21.0538 74.9211 23.7359 72.2308 25.2838C69.5405 26.8316 67.0953 26.9918 65.3252 25.9833C63.5551 24.9748 62.4567 22.8027 62.4469 19.7103C62.4371 16.6179 63.524 13.1839 65.2811 10.1389C67.0381 7.09392 69.4751 4.42976 72.167 2.8754C74.859 1.32103 77.3008 1.16903 79.071 2.17749ZM78.6215 17.7408C80.2559 14.9099 81.2611 11.726 81.253 8.85259C81.2448 5.97922 80.2249 3.95904 78.579 3.0274C76.9331 2.09576 74.6694 2.23142 72.1687 3.68118C69.668 5.13094 67.4075 7.60387 65.7747 10.4266C64.1419 13.2493 63.135 16.4397 63.1432 19.3147C63.1514 22.1897 64.1778 24.1968 65.8123 25.135C67.4467 26.0732 69.7235 25.9294 72.2242 24.4812C74.725 23.0331 76.9838 20.5586 78.6182 17.7375" fill="black"/>
<path d="M11.8759 89.1451C13.2299 89.1451 14.3276 88.0474 14.3276 86.6934C14.3276 85.3394 13.2299 84.2417 11.8759 84.2417C10.5219 84.2417 9.42422 85.3394 9.42422 86.6934C9.42422 88.0474 10.5219 89.1451 11.8759 89.1451Z" fill="black"/>
<path d="M29.3243 4.63552L27.9917 3.30296C27.5621 2.87338 26.8657 2.87338 26.4361 3.30296L25.1035 4.63552C24.6739 5.06509 24.6739 5.76157 25.1035 6.19114L26.4361 7.52371C26.8657 7.95328 27.5621 7.95328 27.9917 7.52371L29.3243 6.19114C29.7538 5.76157 29.7538 5.06509 29.3243 4.63552Z" fill="black"/>
<path d="M116.318 89.7992C117.672 89.7992 118.769 88.7015 118.769 87.3475C118.769 85.9934 117.672 84.8958 116.318 84.8958C114.964 84.8958 113.866 85.9934 113.866 87.3475C113.866 88.7015 114.964 89.7992 116.318 89.7992Z" fill="black"/>
<path d="M2.06912 68.0607C2.701 68.0607 3.21324 67.5485 3.21324 66.9166C3.21324 66.2847 2.701 65.7725 2.06912 65.7725C1.43724 65.7725 0.925003 66.2847 0.925003 66.9166C0.925003 67.5485 1.43724 68.0607 2.06912 68.0607Z" fill="black"/>
<path d="M124.754 10.2388L123.421 8.90622C122.991 8.47665 122.295 8.47665 121.865 8.90622L120.533 10.2388C120.103 10.6684 120.103 11.3648 120.533 11.7944L121.865 13.1269C122.295 13.5565 122.991 13.5565 123.421 13.127L124.754 11.7944C125.183 11.3648 125.183 10.6683 124.754 10.2388Z" fill="black"/>
<path d="M135.849 40.2749C136.526 40.2749 137.075 39.7261 137.075 39.0491C137.075 38.3721 136.526 37.8232 135.849 37.8232C135.172 37.8232 134.623 38.3721 134.623 39.0491C134.623 39.7261 135.172 40.2749 135.849 40.2749Z" fill="black"/>
<path d="M37.1219 30.0186L40.5772 32.0273C41.3259 32.4883 41.9236 33.1581 42.2966 33.9543C42.8271 35.0781 43.0959 36.3075 43.0828 37.5501C43.0556 38.7995 42.8168 40.0352 42.3767 41.2048L38.9215 39.196C39.3604 38.0261 39.5985 36.7906 39.6259 35.5414C39.6408 34.2988 39.3725 33.0691 38.8414 31.9456C38.4677 31.1498 37.8702 30.4801 37.1219 30.0186V30.0186Z" fill="black"/>
<path d="M37.1149 30.0172L40.5702 32.0259C40.4027 31.9283 40.2278 31.8442 40.0471 31.7742L36.5919 29.7671C36.7724 29.8368 36.9473 29.9204 37.1149 30.0172Z" fill="#3ACEE8"/>
<path d="M37.6124 29.1704L41.0677 31.1776C40.8937 31.0767 40.7123 30.9893 40.525 30.916L37.0698 28.9089C37.2572 28.9818 37.4386 29.0693 37.6124 29.1704V29.1704Z" fill="black"/>
<path d="M36.5432 29.7458L36.5922 29.7671L40.0474 31.7742L40 31.7546L36.5432 29.7458Z" fill="#3ACEE8"/>
<path d="M36.5432 29.7458C36.5693 29.7589 36.5938 29.7753 36.62 29.79L36.651 29.8096L36.6674 29.8194L36.7916 29.8897L40 31.7546L36.5448 29.7458H36.5432Z" fill="#3ACEE8"/>
<path d="M36.538 29.7441C36.556 29.7523 36.5724 29.7654 36.5903 29.7752L39.9884 31.7529C39.941 31.7333 39.869 31.7088 39.7775 31.6777L36.3337 29.6755L39.7775 31.6777L36.3255 29.6689C36.4171 29.7 36.489 29.7245 36.538 29.7441Z" fill="#3ACEE8"/>
<path d="M39.5262 29.9859L36.0661 27.9853C36.0516 27.9762 36.0384 27.9653 36.0268 27.9526L39.4821 29.9614C39.4952 29.9721 39.5102 29.9804 39.5262 29.9859V29.9859Z" fill="black"/>
<path d="M36.0234 27.9413L39.4786 29.9467H39.4868L36.0316 27.938L36.0234 27.9413Z" fill="black"/>
<path d="M26.3688 52.1752L22.9136 50.1665C22.9773 50.204 23.0427 50.2384 23.1097 50.2727C23.7635 50.5996 24.7442 50.8284 25.9471 50.7401C27.1501 50.6519 28.595 50.2498 30.1967 49.3296C31.7228 48.44 33.1327 47.3645 34.394 46.1277C35.4504 45.1065 36.3875 43.9687 37.1873 42.7362C37.8924 41.6262 38.4739 40.4423 38.9214 39.2058L42.3767 41.2146C41.93 42.451 41.3485 43.6344 40.6425 44.7433C39.8433 45.9758 38.9068 47.1136 37.8509 48.1348C36.5874 49.3709 35.1753 50.4454 33.6471 51.3335C32.0518 52.2553 30.6119 52.6574 29.3975 52.7456C28.1831 52.8339 27.2139 52.6067 26.5601 52.2765C26.498 52.2438 26.4326 52.2079 26.3688 52.1752Z" fill="black"/>
<path d="M35.5514 29.4743C35.8137 29.5214 36.0726 29.5864 36.3261 29.6688L39.783 31.6775C39.5295 31.5947 39.2706 31.5291 39.0082 31.4814C38.2039 31.3269 37.375 31.3577 36.5843 31.5713L33.1242 29.5626C33.916 29.3487 34.7461 29.3185 35.5514 29.4743Z" fill="#3ACEE8"/>
<path d="M37.2102 30.589L33.7533 28.5819C34.4749 28.4467 35.2153 28.4467 35.9369 28.5819C36.326 28.6505 36.7068 28.7601 37.0729 28.9088L40.5281 30.9159C40.1617 30.768 39.7811 30.6585 39.3921 30.589C38.671 30.4545 37.9313 30.4545 37.2102 30.589V30.589Z" fill="black"/>
<path d="M33.1242 29.5627L36.5811 31.5715L33.1242 29.5627Z" fill="#3ACEE8"/>
<path d="M31.6921 30.0497C31.8931 29.9745 32.6008 29.713 33.1271 29.5593L36.5823 31.5681C36.056 31.7184 35.3483 31.98 35.1489 32.0584L35.1179 32.0682L31.661 30.0595C31.6718 30.058 31.6823 30.0546 31.6921 30.0497V30.0497Z" fill="#3ACEE8"/>
<path d="M31.6611 30.0594L35.1179 32.0714C35.0913 32.0805 35.063 32.0841 35.0349 32.0818C35.0067 32.0796 34.9794 32.0716 34.9545 32.0583L31.4993 30.0496C31.524 30.0626 31.5512 30.0703 31.5791 30.072C31.607 30.0737 31.635 30.0694 31.6611 30.0594V30.0594Z" fill="#3ACEE8"/>
<path d="M21.0882 47.8081L24.5435 49.8168C24.9014 50.8547 25.5094 51.672 26.3708 52.1721L22.9139 50.1634C22.0525 49.6632 21.4445 48.846 21.0882 47.8081Z" fill="#3ACEE8"/>
<path d="M35.051 23.7473L38.5063 25.7561C38.6945 25.8636 38.8608 26.0055 38.9966 26.1745C39.2512 26.5126 39.4266 26.9036 39.5098 27.3186C39.5727 27.608 39.6034 27.9034 39.6013 28.1996C39.6013 28.4657 39.5849 28.7315 39.5523 28.9956L36.0971 26.9868C36.1292 26.7227 36.145 26.4569 36.1445 26.1908C36.1472 25.8947 36.1165 25.5991 36.0529 25.3099C35.9708 24.8948 35.796 24.5037 35.5414 24.1657C35.4059 23.9965 35.2395 23.8545 35.051 23.7473V23.7473Z" fill="black"/>
<path d="M35.1342 31.2787L31.6789 29.2716C31.6789 29.2716 31.9944 29.015 32.4341 28.6864C32.9242 28.3137 33.435 27.9688 33.9639 27.6535C34.1647 27.535 34.3733 27.4301 34.5883 27.3397C35.3107 27.0487 35.7831 26.9735 36.092 26.985L39.5472 28.9937C39.2399 28.9823 38.7676 29.0575 38.0435 29.3484C37.8286 29.4383 37.62 29.5426 37.4191 29.6606C36.891 29.9778 36.3804 30.3232 35.8893 30.6952C35.4513 31.0221 35.1391 31.2754 35.1342 31.2787Z" fill="black"/>
<path d="M34.9563 32.047L31.501 30.0383C31.4676 30.0153 31.4409 29.9837 31.4237 29.947C31.4064 29.9102 31.3993 29.8695 31.403 29.8291C31.4077 29.7221 31.4347 29.6172 31.4823 29.5213C31.5298 29.4253 31.5969 29.3403 31.6792 29.2717L35.1344 31.2788C35.0523 31.3479 34.9853 31.4332 34.9377 31.5294C34.8902 31.6256 34.8631 31.7306 34.8582 31.8378C34.8547 31.8782 34.8619 31.9189 34.8791 31.9556C34.8963 31.9923 34.923 32.0239 34.9563 32.047V32.047Z" fill="black"/>
<path d="M34.8516 23.6475C34.9203 23.6761 34.9869 23.7094 35.051 23.7472L38.5062 25.7543C38.4416 25.7175 38.375 25.6842 38.3068 25.6546L34.8516 23.6475Z" fill="#3ACEE8"/>
<path d="M34.8516 23.6475L38.3068 25.6546L34.8516 23.6475Z" fill="#3ACEE8"/>
<path d="M30.7853 30.2998L34.2422 32.3069L30.7853 30.2998Z" fill="#3ACEE8"/>
<path d="M30.7853 30.2998L34.2405 32.3085C34.1741 32.464 34.0595 32.5941 33.9136 32.6796V32.6796L30.4584 30.6708C30.6048 30.586 30.7196 30.4557 30.7853 30.2998Z" fill="#3ACEE8"/>
<path d="M34.3579 23.5365C34.5285 23.5272 34.6983 23.5657 34.8482 23.6477L38.3035 25.6548C38.1532 25.5739 37.9835 25.536 37.8131 25.5453L34.3579 23.5365Z" fill="#3ACEE8"/>
<path d="M34.3583 23.5364C34.3583 23.5364 34.3714 23.5446 34.378 23.5478C35.5242 24.2125 36.6684 24.8783 37.8103 25.5451L34.3534 23.5364H34.3583Z" fill="#3ACEE8"/>
<path d="M33.8123 24.3291C34.0199 24.0022 34.216 23.7276 34.3549 23.5364L37.8118 25.5451C37.6712 25.7347 37.4767 26.0093 37.2675 26.3378L33.8123 24.3291Z" fill="#3ACEE8"/>
<path d="M33.8101 24.3308L37.2653 26.3396C36.8878 26.9361 36.4481 27.7403 36.0019 28.5608C35.5933 29.3224 35.1847 30.1952 34.8578 30.9079C34.5309 31.6205 34.3021 32.1664 34.2449 32.3037L30.7864 30.2949C30.8452 30.156 31.0773 29.6085 31.4009 28.8975C31.7245 28.1865 32.1397 27.3121 32.545 26.5504C32.9896 25.7299 33.4325 24.9258 33.8101 24.3308Z" fill="#3ACEE8"/>
<path d="M35.5394 22.8973L38.9963 24.9061C38.9213 24.8628 38.8438 24.8241 38.7642 24.79C38.5358 24.6849 38.2954 24.6081 38.0483 24.5612C37.983 24.5545 37.9173 24.57 37.862 24.6053C37.8 24.6454 37.7448 24.695 37.6985 24.7524L34.2433 22.7437C34.2888 22.686 34.3441 22.6367 34.4067 22.5982C34.4614 22.5627 34.5265 22.5466 34.5914 22.5525C34.8391 22.599 35.0801 22.6758 35.309 22.7813C35.388 22.8154 35.465 22.8541 35.5394 22.8973V22.8973Z" fill="black"/>
<path d="M33.7582 31.9704L30.303 29.9617C30.401 29.7328 30.5645 29.3569 30.7688 28.9042C31.1088 28.149 31.5631 27.1831 32.0306 26.3152C32.4768 25.4816 32.9312 24.6562 33.3545 23.9894C33.6256 23.5579 33.9208 23.1421 34.2387 22.7439L37.7005 24.7526C37.3828 25.1504 37.0876 25.5657 36.8163 25.9965C36.3946 26.6633 35.9402 27.4904 35.4924 28.3223C35.0266 29.1918 34.5722 30.1578 34.2306 30.9129C34.0197 31.3657 33.8563 31.7448 33.7582 31.9704Z" fill="black"/>
<path d="M20.702 45.2273L24.1589 47.236C24.1573 47.2665 24.1573 47.2971 24.1589 47.3276C24.1486 48.1726 24.2773 49.0136 24.5397 49.8169L21.0845 47.8081C20.8224 47.0053 20.6932 46.165 20.702 45.3205V45.2273Z" fill="#3ACEE8"/>
<path d="M27.0032 33.4918C28.0259 32.406 29.1858 31.4582 30.4536 30.6724L33.9088 32.6811C32.6412 33.4678 31.4818 34.4167 30.4601 35.5038C29.3093 36.703 28.2851 38.0175 27.4037 39.4265L23.9484 37.4178C24.8287 36.0074 25.8524 34.6917 27.0032 33.4918V33.4918Z" fill="#3ACEE8"/>
<path d="M23.9512 37.4243L25.4516 38.2971L27.4032 39.4265C27.3445 39.5286 27.2613 39.6145 27.1613 39.6766C27.1079 39.7111 27.0449 39.7277 26.9815 39.724L23.5295 37.7218C23.5927 37.7254 23.6555 37.7094 23.7093 37.676C23.8087 37.6124 23.8916 37.5261 23.9512 37.4243V37.4243Z" fill="#3ACEE8"/>
<path d="M23.5295 37.7219L26.9848 39.7307L23.5295 37.7219Z" fill="#3ACEE8"/>
<path d="M23.4626 37.699C23.4832 37.7109 23.506 37.7187 23.5296 37.7219L26.9849 39.7306C26.9613 39.7275 26.9385 39.7197 26.9179 39.7077L23.4626 37.699Z" fill="#3ACEE8"/>
<path d="M28.626 36.7133L25.1708 34.7046C25.6203 34.1375 26.1515 33.5164 26.7432 32.8985C27.8052 31.7762 29.0007 30.7882 30.303 29.9565L33.7582 31.9653C32.4554 32.7962 31.2598 33.7843 30.1984 34.9073C29.6034 35.5251 29.0755 36.1446 28.626 36.7133Z" fill="black"/>
<path d="M26.9127 39.7077L23.4575 37.699C23.3692 37.6483 23.3333 37.5192 23.3692 37.3557C23.4722 36.9435 23.6095 36.5406 23.7795 36.1511C24.2021 35.1615 24.7415 34.226 25.3861 33.3644C26.0897 32.3832 26.8956 31.4797 27.7904 30.6692L31.2457 32.6779C30.3509 33.4885 29.5449 34.392 28.8414 35.3731C28.1983 36.2349 27.6605 37.1704 27.2396 38.1599C27.0693 38.5494 26.9315 38.9523 26.8277 39.3645C26.7934 39.5279 26.8294 39.657 26.9127 39.7077Z" fill="black"/>
<path d="M20.7023 45.227C20.7023 42.8995 21.24 40.1406 21.8921 37.854L25.349 39.8627C24.6952 42.151 24.164 44.9083 24.1591 47.2357L20.7023 45.227Z" fill="#3ACEE8"/>
<path d="M27.0473 28.8108L30.5091 30.8195C30.5157 30.8224 30.5217 30.8262 30.5271 30.831C30.6936 30.9491 30.8229 31.1124 30.8997 31.3017C31.0525 31.6548 31.159 32.0262 31.2168 32.4066C31.2331 32.5063 31.2479 32.5978 31.2577 32.6779L27.7959 30.6692C27.7845 30.5891 27.7714 30.5057 27.755 30.3978C27.6941 30.017 27.5842 29.6456 27.4281 29.293C27.352 29.1038 27.2232 28.9405 27.0571 28.8222L27.0473 28.8108Z" fill="black"/>
<path d="M25.8735 53.0171L22.4183 51.0099C20.8181 50.0799 20.0173 48.1366 20.0107 45.7209C20.0107 43.2349 20.5615 40.3435 21.248 37.9343L24.7032 39.9414C24.0184 42.3506 23.4611 45.2436 23.466 47.7296C23.4807 50.1437 24.275 52.0887 25.8735 53.0171Z" fill="black"/>
<path d="M26.4307 28.5966C26.6494 28.6216 26.8598 28.6947 27.0469 28.8108L30.5086 30.8195C30.3207 30.7009 30.1084 30.626 29.8876 30.6005C29.7503 30.5882 29.612 30.6032 29.4806 30.6446L29.3564 30.6822L25.8995 28.68L26.0237 28.6408C26.1553 28.6004 26.2935 28.5854 26.4307 28.5966V28.5966Z" fill="#3ACEE8"/>
<path d="M25.8999 28.6799L29.365 30.687L29.262 30.7181L25.8068 28.711L25.8999 28.6799Z" fill="#3ACEE8"/>
<path d="M23.9709 31.7234L27.4261 33.7321C27.2071 34.2911 26.9995 34.8354 26.8475 35.2587C26.6024 35.9452 26.2624 36.9831 25.9715 37.8967C25.6805 38.8104 25.4419 39.5737 25.3585 39.8483L21.9115 37.8444L25.3585 39.8483V39.863L21.8951 37.8542C21.9752 37.5976 22.222 36.8033 22.5129 35.8929C22.8039 34.9825 23.1438 33.9413 23.3906 33.2565C23.5427 32.8266 23.7502 32.2824 23.9709 31.7234Z" fill="#3ACEE8"/>
<path d="M27.534 27.9609L30.9892 29.9696C30.6962 29.7857 30.3542 29.6951 30.0086 29.7097C29.885 29.7178 29.7627 29.7398 29.6441 29.7751C29.5427 29.8045 29.4643 29.8323 29.4267 29.8421L25.9698 27.835C26.0074 27.8252 26.0875 27.7958 26.1888 27.7664C26.3075 27.731 26.4298 27.7091 26.5533 27.701C26.899 27.6864 27.2409 27.777 27.534 27.9609V27.9609Z" fill="black"/>
<path d="M24.9207 29.3486L25.0139 29.1182L28.4707 31.1269C28.4429 31.1923 28.4119 31.2691 28.3759 31.3557C28.2566 31.6499 28.0899 32.0585 27.9085 32.5129C27.745 32.8987 27.5816 33.3187 27.4181 33.7322L23.9711 31.7235C24.1345 31.3116 24.298 30.8899 24.4614 30.5042C24.6347 30.0498 24.7997 29.6412 24.9207 29.3486Z" fill="#3ACEE8"/>
<path d="M25.6888 28.7553C25.7242 28.738 25.7608 28.7232 25.7983 28.7112L29.2536 30.7183C29.2536 30.7183 29.2013 30.7379 29.1457 30.764C29.0901 30.7902 29.0182 30.8245 28.943 30.8654C28.8025 30.9373 28.6455 31.0288 28.4968 31.1106L25.0563 29.1116L28.4968 31.1106L28.4707 31.1269L25.0138 29.1182C25.1772 29.0283 25.3407 28.9335 25.4862 28.8566C25.5613 28.8174 25.6316 28.7815 25.6888 28.7553Z" fill="#3ACEE8"/>
<path d="M42.9308 33.263C43.5057 34.4793 43.7953 35.8109 43.7774 37.1562C43.7774 38.4638 43.4799 39.8596 42.9961 41.2244C42.5083 42.5771 41.8724 43.8719 41.1002 45.085C40.2361 46.4204 39.2228 47.6531 38.0797 48.7592C36.7486 50.0634 35.2601 51.1966 33.6487 52.1327C31.9456 53.1134 30.4092 53.5449 29.1262 53.6397C27.8431 53.7345 26.8053 53.4942 26.0894 53.1346C24.347 52.2586 23.4742 50.2498 23.4661 47.7295C23.4661 45.2435 24.0185 42.3505 24.7033 39.9413C24.7311 39.8531 24.7426 39.8171 24.7573 39.7681C24.7851 39.6749 24.8276 39.5409 24.8766 39.3807C24.9779 39.0538 25.1152 38.6191 25.2689 38.1369C25.5778 37.1677 25.9504 36.0219 26.2299 35.2439C26.5094 34.4659 26.9425 33.361 27.3119 32.4425C27.6813 31.5239 27.9788 30.808 27.9788 30.7998C28.037 30.6554 28.1372 30.5319 28.2665 30.4452L28.4953 30.3111L28.8467 30.115C28.9725 30.0464 29.1 29.981 29.2128 29.9287C29.2831 29.8933 29.3564 29.8643 29.4318 29.842C29.4694 29.8322 29.5479 29.8045 29.6492 29.775C29.7679 29.7397 29.8901 29.7178 30.0137 29.7097C30.3681 29.6948 30.7183 29.7908 31.0156 29.9842C31.2461 30.1412 31.4257 30.3622 31.5321 30.62C31.6566 30.8914 31.7519 31.1752 31.8165 31.4667C31.8962 31.8214 31.9508 32.1814 31.9799 32.5438C31.9789 32.6607 31.9511 32.7759 31.8987 32.8804C31.8463 32.9849 31.7706 33.0761 31.6776 33.1469C31.6171 33.1927 31.5746 33.2254 31.5141 33.2728C31.4013 33.3676 31.2314 33.5163 31.0156 33.7271C30.3669 34.375 29.7697 35.0722 29.2291 35.8127C28.9992 36.1265 28.796 36.4267 28.6195 36.7133C29.069 36.1445 29.6002 35.525 30.1918 34.9072C31.2533 33.7842 32.4489 32.7962 33.7517 31.9652C33.8497 31.7364 34.0132 31.3605 34.2175 30.9077C34.5591 30.1526 35.0135 29.1866 35.4793 28.3171C35.9271 27.4852 36.3815 26.6581 36.8032 25.9913C37.0745 25.5605 37.3697 25.1452 37.6874 24.7475C37.7337 24.69 37.7889 24.6404 37.8509 24.6004C37.9062 24.565 37.9719 24.5495 38.0372 24.5562C38.2843 24.6031 38.5247 24.68 38.7531 24.785C39.0727 24.9206 39.3535 25.1335 39.5703 25.4045C39.867 25.7985 40.0725 26.2535 40.1718 26.7366C40.2479 27.0827 40.2846 27.4364 40.2813 27.7908C40.2792 28.3607 40.2173 28.9288 40.0966 29.4857C40.0546 29.6634 39.9524 29.821 39.8073 29.9319C39.6521 30.0251 39.5425 30.0218 39.4804 29.9499C39.4146 29.9105 39.3398 29.8886 39.2631 29.8862C39.0489 29.8666 38.6469 29.9074 37.9359 30.1935C37.7571 30.2697 37.5834 30.3576 37.4161 30.4566L37.2004 30.5841C37.9215 30.4496 38.6613 30.4496 39.3824 30.5841C39.7713 30.6535 40.152 30.7631 40.5183 30.911C41.5742 31.3245 42.3816 32.1679 42.9308 33.263ZM42.3767 41.2129C42.8168 40.0434 43.0556 38.8077 43.0828 37.5583C43.0958 36.3157 42.8271 35.0863 42.2966 33.9625C41.785 32.941 41.0315 32.1646 40.0721 31.7936L39.9953 31.7609C39.9463 31.7413 39.8743 31.7168 39.7828 31.6857C39.5291 31.6036 39.2703 31.5381 39.0081 31.4896C38.2038 31.3351 37.3748 31.3659 36.5842 31.5795C36.0579 31.7298 35.3485 31.9914 35.1851 32.0535C34.9841 32.1286 34.8582 32.0371 34.8582 31.8459C34.8631 31.7387 34.8902 31.6337 34.9377 31.5374C34.9853 31.4412 35.0523 31.3559 35.1344 31.2869C35.1344 31.2869 35.4515 31.0303 35.8895 30.7034C36.3806 30.3314 36.8913 29.986 37.4194 29.6688C37.6202 29.5508 37.8288 29.4465 38.0438 29.3566C38.7678 29.0657 39.2402 28.9905 39.5475 29.0019C39.58 28.7379 39.5964 28.472 39.5965 28.206C39.5985 27.9098 39.5678 27.6144 39.505 27.325C39.4218 26.91 39.2464 26.519 38.9917 26.1809C38.8106 25.953 38.5751 25.7743 38.3069 25.6611C38.1585 25.597 38.0062 25.5424 37.8509 25.4977C37.6711 25.7412 37.4766 26.0158 37.2674 26.3443C36.8898 26.9409 36.4502 27.745 36.004 28.5655C35.5953 29.3272 35.1867 30.2 34.8598 30.9126C34.5329 31.6252 34.3041 32.1711 34.2567 32.2872C34.1976 32.441 34.0919 32.5724 33.9544 32.6631C32.6698 33.4524 31.4949 34.4075 30.4599 35.5038C29.3093 36.7032 28.2852 38.0176 27.4035 39.4265C27.3447 39.5285 27.2616 39.6145 27.1616 39.6766C27.1082 39.7111 27.0452 39.7277 26.9818 39.724C26.8477 39.706 26.7824 39.5605 26.8265 39.3578C26.9303 38.9456 27.0681 38.5427 27.2384 38.1532C27.6603 37.1636 28.1992 36.2281 28.8434 35.3665C29.547 34.3854 30.3529 33.4819 31.2477 32.6713C31.2379 32.5912 31.2232 32.4997 31.2068 32.4C31.1491 32.0196 31.0425 31.6482 30.8898 31.2951C30.813 31.1058 30.6837 30.9425 30.5171 30.8244C30.3273 30.7024 30.112 30.6258 29.8878 30.6004C29.7506 30.5882 29.6123 30.6031 29.4809 30.6446C29.4073 30.6642 29.337 30.6903 29.2537 30.7132C29.2537 30.7132 29.2014 30.7328 29.1458 30.759C29.0902 30.7851 29.0183 30.8194 28.9431 30.8603C28.7944 30.9371 28.626 31.0238 28.4985 31.1055C28.449 31.1826 28.4079 31.2647 28.376 31.3506C28.2566 31.6448 28.0899 32.0535 27.9085 32.5078C27.544 33.4166 27.1109 34.5166 26.8461 35.2537C26.6009 35.9402 26.261 36.9781 25.97 37.8917C25.6791 38.8054 25.4307 39.5997 25.3653 39.8138C24.6903 42.174 24.1542 44.9771 24.1623 47.3225C24.1623 49.6353 24.9649 51.4659 26.565 52.2717C27.2188 52.5985 28.1994 52.829 29.4024 52.7407C30.6054 52.6525 32.0518 52.2504 33.652 51.3286C35.1802 50.4405 36.5923 49.366 37.8558 48.1299C38.9097 47.11 39.8446 45.9739 40.6425 44.7434C41.3486 43.6339 41.9302 42.4499 42.3767 41.2129" fill="black"/>
<path d="M42.2965 33.9544C42.8269 35.0782 43.0957 36.3076 43.0827 37.5502C43.0555 38.7996 42.8167 40.0353 42.3766 41.2049C41.9306 42.4447 41.349 43.6314 40.6424 44.7435C39.8432 45.976 38.9067 47.1137 37.8508 48.135C36.5873 49.371 35.1752 50.4455 33.647 51.3336C32.0518 52.2554 30.6118 52.6575 29.3974 52.7457C28.183 52.834 27.2138 52.6068 26.56 52.2767C24.9599 51.4709 24.1639 49.6403 24.1573 47.3275C24.1573 44.9821 24.6853 42.179 25.3472 39.863C25.4257 39.6047 25.6741 38.8104 25.9651 37.9016C26.256 36.9929 26.596 35.9501 26.8411 35.2636C27.1059 34.5265 27.539 33.4265 27.9035 32.5178C28.0849 32.0634 28.2517 31.6548 28.371 31.3606C28.4069 31.2739 28.438 31.1971 28.4658 31.1317C28.621 31.0418 28.7927 30.947 28.9381 30.8702C29.0133 30.8294 29.0836 30.795 29.1408 30.7689C29.198 30.7427 29.2421 30.7248 29.2487 30.7231C29.332 30.7002 29.4007 30.6741 29.4759 30.6545C29.6073 30.6131 29.7456 30.5981 29.8828 30.6103C30.1083 30.6358 30.3247 30.7129 30.5154 30.8359C30.6819 30.9541 30.8112 31.1174 30.888 31.3066C31.0408 31.6598 31.1473 32.0311 31.2051 32.4115C31.2215 32.5112 31.2362 32.6027 31.246 32.6828C30.3512 33.4934 29.5453 34.3969 28.8417 35.378C28.1989 36.2382 27.6612 37.1721 27.2399 38.1599C27.0699 38.5495 26.9321 38.9524 26.828 39.3645C26.7839 39.5639 26.8493 39.7126 26.9833 39.7306C27.0468 39.7343 27.1097 39.7177 27.1631 39.6832C27.2634 39.6191 27.346 39.5308 27.4034 39.4266C28.2848 38.0175 29.309 36.703 30.4598 35.5039C31.4828 34.4173 32.6433 33.469 33.9118 32.6828C34.0589 32.5959 34.1736 32.4633 34.2387 32.3053C34.2959 32.168 34.5296 31.6204 34.8516 30.9094C35.1736 30.1985 35.5903 29.324 35.9957 28.5624C36.437 27.7451 36.8816 26.9377 37.2591 26.3412C37.4683 26.0143 37.6628 25.738 37.8034 25.5484C37.9738 25.5394 38.1434 25.5772 38.2937 25.658C38.5619 25.7712 38.7974 25.9499 38.9786 26.1777C39.2332 26.5158 39.4086 26.9068 39.4918 27.3218C39.5547 27.6112 39.5854 27.9067 39.5833 28.2028C39.5832 28.4689 39.5668 28.7347 39.5343 28.9988C39.227 28.9873 38.7546 29.0625 38.0306 29.3534C37.8157 29.4433 37.6071 29.5476 37.4062 29.6656C36.8781 29.9829 36.3674 30.3282 35.8764 30.7002C35.4383 31.0271 35.1262 31.2805 35.1213 31.2837C35.0391 31.3528 34.9721 31.4381 34.9246 31.5343C34.877 31.6305 34.8499 31.7355 34.845 31.8427C34.845 32.034 34.9709 32.1255 35.136 32.0634C35.3354 31.9882 36.0447 31.7267 36.571 31.573C37.3617 31.3594 38.1906 31.3287 38.9949 31.4831C39.2571 31.5317 39.5159 31.5972 39.7696 31.6793C39.8612 31.7103 39.9331 31.7348 39.9821 31.7545L40.0344 31.7757C41.0314 32.1533 41.7866 32.9329 42.2965 33.9544Z" fill="#3ACEE8"/>
<path d="M28.2667 30.4452L24.8115 28.4381C24.8115 28.4381 24.9063 28.3809 25.0403 28.304C25.1417 28.2452 25.2642 28.1749 25.3917 28.1063C25.5192 28.0376 25.6434 27.9723 25.7578 27.92C25.8277 27.8854 25.9004 27.857 25.9752 27.835L29.4321 29.8421C29.3567 29.8644 29.2834 29.8934 29.2131 29.9287C29.1003 29.981 28.9728 30.0464 28.847 30.115L28.4956 30.3112L28.2667 30.4452Z" fill="black"/>
<path d="M24.7031 39.9413L21.2478 37.9342C21.2756 37.8443 21.2854 37.8084 21.3002 37.7593L21.4211 37.372C21.5208 37.0451 21.6597 36.612 21.8117 36.1298C22.1206 35.1589 22.4949 34.005 22.7728 33.2352C23.0507 32.4653 23.4805 31.3523 23.8548 30.437C24.2291 29.5217 24.5233 28.7944 24.5233 28.7927L27.9785 30.8015C27.9785 30.8015 27.6794 31.5288 27.3117 32.4441C26.9439 33.3594 26.5075 34.4675 26.2297 35.2455C25.9518 36.0235 25.5759 37.1693 25.2686 38.1385C25.115 38.6207 24.9777 39.0604 24.8763 39.3824C24.8273 39.5458 24.7848 39.6766 24.757 39.7697C24.7423 39.8171 24.7309 39.8531 24.7031 39.9413Z" fill="black"/>
<path d="M27.979 30.8L24.5238 28.7913C24.581 28.6467 24.6814 28.5234 24.8114 28.4382L28.2667 30.4454C28.1374 30.5321 28.0372 30.6557 27.979 30.8V30.8Z" fill="black"/>
<path d="M131.845 53.2918L131.834 57.2897C131.842 54.1842 129.792 51.0624 125.69 48.6941C117.539 43.9885 104.318 43.9868 96.2205 48.6941C92.1964 51.0313 90.1828 54.0976 90.173 57.1687L90.1828 53.1725C90.1926 50.1013 92.2062 47.0351 96.2303 44.6962C104.329 39.9906 117.55 39.9906 125.701 44.6962C129.8 47.0645 131.845 50.1814 131.845 53.2918Z" fill="black"/>
<path d="M131.83 57.2863C131.829 57.6541 131.799 58.0214 131.741 58.3846C131.741 57.052 131.744 55.7199 131.752 54.3884C131.81 54.0251 131.84 53.6579 131.842 53.29C131.845 54.4897 131.834 56.0882 131.83 57.2863Z" fill="white"/>
<path d="M91.719 61.7729C90.6828 60.3019 90.1663 58.7361 90.1712 57.172L90.181 53.1741C90.181 54.7399 90.6942 56.3057 91.7304 57.7767C91.7272 59.1093 91.7234 60.4414 91.719 61.7729Z" fill="white"/>
<path d="M96.3117 65.7643C94.2752 64.5874 92.7437 63.2276 91.7189 61.7729C91.7189 60.4403 91.7227 59.1082 91.7303 57.7767C92.7551 59.2297 94.2866 60.5912 96.3231 61.768C104.476 66.4736 117.697 66.4736 125.796 61.768C129.339 59.707 131.323 57.0836 131.752 54.3884C131.752 55.72 131.748 57.052 131.74 58.3847C131.312 61.0799 129.328 63.7048 125.784 65.7643C117.685 70.4715 104.464 70.4715 96.3117 65.7643Z" fill="white"/>
<path d="M132.826 53.2935L132.814 57.2914C132.814 60.5063 130.689 63.7181 126.484 66.1648C118.004 71.0927 104.16 71.0944 95.6254 66.1648C91.3267 63.687 89.1856 60.4246 89.1856 57.1671L89.1971 53.1709C89.1856 56.4251 91.3382 59.694 95.6319 62.1686C104.167 67.0965 118.011 67.0965 126.49 62.1686C130.701 59.7202 132.811 56.5101 132.826 53.2935Z" fill="black"/>
<path d="M126.389 44.2941C134.924 49.222 134.97 57.2406 126.491 62.1684C118.011 67.0963 104.167 67.0963 95.6322 62.1684C87.0971 57.2406 87.053 49.2236 95.5325 44.2957C104.012 39.3678 117.854 39.3678 126.389 44.2941ZM96.3154 61.768C104.468 66.4736 117.689 66.4736 125.788 61.768C133.887 57.0624 133.842 49.4034 125.69 44.6962C117.537 39.9889 104.318 39.9906 96.219 44.6962C88.1203 49.4017 88.1644 57.0608 96.3154 61.768Z" fill="black"/>
<path d="M125.698 44.6963C133.85 49.4035 133.893 57.061 125.796 61.7682C117.699 66.4754 104.476 66.4738 96.3233 61.7682C88.1706 57.0626 88.1281 49.4035 96.2285 44.6963C104.329 39.9891 117.547 39.9907 125.698 44.6963Z" fill="white"/>
<path d="M107.893 54.042L111.349 52.0349L113.751 53.4209L110.294 55.4296L107.893 54.042Z" fill="black"/>
<path d="M110.989 56.2304L114.444 54.2217C114.449 54.2646 114.442 54.308 114.424 54.3474C114.406 54.3867 114.378 54.4206 114.343 54.4456L110.888 56.4543C110.923 56.429 110.95 56.395 110.968 56.3558C110.986 56.3165 110.993 56.2733 110.989 56.2304Z" fill="black"/>
<path d="M107.977 24.5317L111.432 22.5229L111.348 52.0346L107.893 54.0418L107.977 24.5317Z" fill="black"/>
<path d="M107.386 23.5054L110.841 21.4983C110.881 21.4802 110.924 21.473 110.968 21.4773C111.011 21.4816 111.052 21.4973 111.088 21.5228L107.632 23.5299C107.597 23.5051 107.555 23.4899 107.512 23.4856C107.469 23.4813 107.425 23.4881 107.386 23.5054V23.5054Z" fill="black"/>
<path d="M107.977 24.5317L111.433 22.5229L113.835 23.909L110.38 25.9177L107.977 24.5317Z" fill="#3ACEE8"/>
<path d="M110.38 25.9179L113.835 23.9092L113.752 53.4209L110.295 55.4296L110.38 25.9179Z" fill="#3ACEE8"/>
<path d="M110.379 25.918L110.294 55.4297L107.893 54.0421L107.977 24.532L110.379 25.918Z" fill="#3ACEE8"/>
<path d="M111.074 25.9194L114.531 23.9106L114.445 54.2216L110.989 56.2303L111.074 25.9194Z" fill="black"/>
<path d="M107.632 23.5298L111.087 21.5227L114.185 23.3108L110.73 25.3195L107.632 23.5298Z" fill="black"/>
<path d="M110.975 25.578L114.43 23.5725C114.492 23.6758 114.527 23.7934 114.531 23.9141L111.076 25.9212C111.072 25.8 111.037 25.6819 110.975 25.578V25.578Z" fill="black"/>
<path d="M110.975 25.5779C111.037 25.6814 111.072 25.7989 111.076 25.9195L110.989 56.2305C110.998 56.2739 110.993 56.3191 110.974 56.3594C110.956 56.3997 110.925 56.4332 110.887 56.4552C110.848 56.4771 110.804 56.4862 110.76 56.4814C110.715 56.4766 110.674 56.458 110.641 56.4282L107.544 54.6401C107.442 54.575 107.358 54.4867 107.297 54.3823C107.237 54.278 107.202 54.1608 107.196 54.0403L107.282 23.7359C107.278 23.6928 107.286 23.6494 107.304 23.6101C107.322 23.5707 107.35 23.5369 107.385 23.512C107.425 23.4947 107.469 23.4879 107.512 23.4922C107.555 23.4965 107.596 23.5117 107.632 23.5365L110.729 25.3262C110.831 25.3881 110.915 25.4747 110.975 25.5779ZM110.295 55.4296L110.38 25.9179L107.982 24.5319L107.899 54.0419L110.3 55.4296" fill="black"/>
<path d="M110.73 25.3195L114.193 23.3108C114.296 23.3747 114.381 23.4643 114.438 23.5707L110.983 25.5778C110.923 25.4711 110.835 25.3821 110.73 25.3195Z" fill="black"/>
<path d="M93.4189 13.189L96.8676 11.1803C96.8831 11.1718 96.8996 11.1652 96.9166 11.1606L93.4679 13.1694C93.4504 13.1725 93.4337 13.1791 93.4189 13.189V13.189Z" fill="black"/>
<path d="M95.4796 13.9179L98.9348 11.9092C99.7684 12.2459 100.842 12.6888 102.075 13.2265C104.449 14.2595 107.416 15.6341 110.41 17.2391L106.953 19.2462C103.966 17.6428 100.999 16.2683 98.6259 15.2337C97.3853 14.6976 96.3131 14.2563 95.4796 13.9179Z" fill="black"/>
<path d="M103.214 12.37L99.7586 14.3788C99.1473 14.248 98.5785 14.1532 98.0555 14.0829C97.202 13.9656 96.341 13.911 95.4796 13.9195L98.9348 11.9108C99.7963 11.9023 100.657 11.9569 101.511 12.0742C102.035 12.1445 102.603 12.2409 103.214 12.37Z" fill="#3ACEE8"/>
<path d="M106.147 13.174L102.691 15.1828C101.729 14.8586 100.75 14.5901 99.7584 14.3786L103.214 12.3699C104.206 12.5821 105.186 12.8506 106.147 13.174V13.174Z" fill="#3ACEE8"/>
<path d="M106.947 19.2459L110.404 17.2388L110.401 18.038L106.946 20.0468L106.947 19.2459Z" fill="black"/>
<path d="M107.637 21.8074L111.094 19.8003L114.173 21.5769L110.716 23.5857L107.637 21.8074Z" fill="black"/>
<path d="M106.147 13.1743C107.607 13.6668 109.032 14.2594 110.41 14.9477L106.953 16.9565C105.575 16.2675 104.151 15.675 102.691 15.1831L106.147 13.1743Z" fill="#3ACEE8"/>
<path d="M106.953 16.9563L110.41 14.9475L110.404 17.239L106.947 19.2461L106.953 16.9563Z" fill="#3ACEE8"/>
<path d="M95.4796 13.9178C96.341 13.9094 97.202 13.964 98.0555 14.0813C100.277 14.3771 103.304 15.1437 106.953 16.9547V19.2429C103.966 17.6395 100.999 16.2649 98.6259 15.2303C97.3853 14.6975 96.3131 14.2562 95.4796 13.9178Z" fill="#3ACEE8"/>
<path d="M111.414 24.3899L114.869 22.3811C114.874 22.4243 114.867 22.4679 114.849 22.5075C114.831 22.5471 114.803 22.5813 114.768 22.6067L111.313 24.6138C111.348 24.5887 111.376 24.5548 111.394 24.5154C111.411 24.4761 111.418 24.4328 111.414 24.3899V24.3899Z" fill="black"/>
<path d="M93.4677 13.1692L96.9229 11.1605C96.9409 11.1605 98.4723 10.8205 101.199 11.1752C103.487 11.4727 106.625 12.2605 110.412 14.1467L106.957 16.1554C103.168 14.2692 100.033 13.4814 97.7417 13.184C95.0155 12.8293 93.4856 13.1643 93.4677 13.1692Z" fill="black"/>
<path d="M93.4676 13.1693C93.4856 13.1693 95.0155 12.8293 97.7417 13.184C100.03 13.4815 103.168 14.2693 106.957 16.1554V16.9563C103.307 15.1453 100.28 14.3788 98.0588 14.083C97.2053 13.9656 96.3444 13.911 95.4829 13.9195C96.3165 14.2464 97.3887 14.6991 98.6227 15.2271C100.996 16.2617 103.962 17.6363 106.95 19.2397V20.0405C104.231 18.5826 101.521 17.311 99.2683 16.3189C96.3998 15.0522 94.2767 14.2399 93.8207 14.0682L93.7275 14.0339C93.7058 14.0265 93.6849 14.0166 93.6654 14.0045C93.5105 13.904 93.3972 13.7507 93.3467 13.573C93.2813 13.3687 93.332 13.1987 93.4676 13.1693Z" fill="black"/>
<path d="M106.957 16.1555L110.412 14.1467L110.41 14.9476L106.954 16.9564L106.957 16.1555Z" fill="black"/>
<path d="M107.652 16.6572L111.109 14.6484L111.094 19.8003L107.637 21.8074L107.652 16.6572Z" fill="black"/>
<path d="M107.057 15.6323L110.513 13.6252C110.553 13.6072 110.596 13.5998 110.639 13.6039C110.682 13.6079 110.723 13.6231 110.759 13.6481L107.305 15.6552C107.27 15.6304 107.229 15.6151 107.186 15.6108C107.143 15.6066 107.099 15.6134 107.06 15.6306L107.057 15.6323Z" fill="black"/>
<path d="M110.731 18.4339L114.188 16.4268L114.173 21.5769L110.716 23.5857L110.731 18.4339Z" fill="#3ACEE8"/>
<path d="M111.416 22.6359L114.871 20.6272L114.866 22.3777L111.411 24.3864L111.416 22.6359Z" fill="black"/>
<path d="M111.417 21.8352L114.874 19.8264L114.87 20.6273L111.415 22.6361L111.417 21.8352Z" fill="black"/>
<path d="M107.651 16.6572L111.108 14.6484L114.187 16.4267L110.73 18.4338L107.651 16.6572Z" fill="#3ACEE8"/>
<path d="M110.731 18.4339L110.716 23.5857L107.637 21.8074L107.652 16.6572L110.731 18.4339Z" fill="#3ACEE8"/>
<path d="M111.424 19.5534L114.881 17.5447L114.874 19.8264L111.417 21.8351L111.424 19.5534Z" fill="black"/>
<path d="M111.427 18.751L114.883 16.7439L114.881 17.5448L111.424 19.5535L111.427 18.751Z" fill="black"/>
<path d="M111.427 18.437L114.883 16.4282L114.882 16.7437L111.427 18.7508V18.437Z" fill="black"/>
<path d="M107.305 15.6552L110.762 13.6465L114.537 15.8268L111.08 17.8356L107.305 15.6552Z" fill="black"/>
<path d="M111.328 18.0954L114.783 16.0867C114.845 16.1899 114.88 16.3076 114.884 16.4283L111.427 18.437C111.423 18.3166 111.389 18.1991 111.328 18.0954V18.0954Z" fill="black"/>
<path d="M111.327 18.0954C111.389 18.1991 111.423 18.3166 111.427 18.437V18.7508V19.5533V21.8416V22.6425L111.414 24.3897C111.422 24.433 111.416 24.4778 111.398 24.5178C111.379 24.5578 111.349 24.5911 111.31 24.613C111.272 24.6349 111.228 24.6444 111.184 24.6401C111.14 24.6358 111.099 24.618 111.066 24.5891L107.29 22.4104C107.188 22.3455 107.104 22.2562 107.045 22.1505C106.982 22.0472 106.948 21.9295 106.944 21.8089V20.0502V19.2493V16.9611V16.1602V15.8546C106.939 15.8115 106.947 15.7681 106.965 15.7287C106.983 15.6894 107.011 15.6556 107.047 15.6307C107.086 15.6134 107.129 15.6066 107.172 15.6109C107.215 15.6152 107.256 15.6304 107.292 15.6552L111.087 17.8355C111.188 17.9002 111.271 17.9897 111.327 18.0954V18.0954ZM110.716 23.5855L110.731 18.4337L107.655 16.6571L107.64 21.8073L110.719 23.5855" fill="black"/>
<path d="M111.087 17.8356L114.544 15.8269C114.646 15.8917 114.731 15.9811 114.789 16.0868L111.334 18.0955C111.276 17.989 111.191 17.8995 111.087 17.8356V17.8356Z" fill="black"/>
<path d="M111.414 21.8354L114.871 19.8267C117.64 21.5543 120.53 23.5532 122.901 25.2514C124.134 26.1357 125.225 26.9382 126.087 27.5789L122.632 29.586C121.77 28.9469 120.67 28.1444 119.444 27.2602C117.078 25.562 114.193 23.5614 111.414 21.8354Z" fill="black"/>
<path d="M118.058 19.8805L114.603 21.8893C113.594 21.0835 112.53 20.2957 111.424 19.5537L114.881 17.5449C115.99 18.287 117.05 19.0764 118.058 19.8805Z" fill="#3ACEE8"/>
<path d="M118.059 19.8804C119.964 21.4103 121.778 23.0508 123.491 24.7935L120.035 26.8023C118.322 25.0595 116.508 23.419 114.603 21.8891L118.059 19.8804Z" fill="#3ACEE8"/>
<path d="M120.035 26.8024L123.492 24.7937C124.521 25.8381 125.399 26.7943 126.09 27.5723L122.635 29.5794C121.944 28.803 121.066 27.8469 120.035 26.8024Z" fill="#3ACEE8"/>
<path d="M120.034 26.8025C121.066 27.8469 121.943 28.803 122.635 29.581C121.773 28.942 120.673 28.1395 119.448 27.2552C117.078 25.5619 114.193 23.5613 111.414 21.8354V19.5471C114.807 21.8223 117.789 24.524 120.034 26.8025Z" fill="#3ACEE8"/>
<path d="M111.427 18.751L114.882 16.7439C118.37 19.0746 121.432 21.8499 123.74 24.1872C125.33 25.7832 126.83 27.466 128.234 29.2279L124.777 31.235C123.373 29.4739 121.873 27.7916 120.283 26.196C117.976 23.8587 114.915 21.0834 111.427 18.751Z" fill="black"/>
<path d="M128.295 29.8851L124.84 31.8922C124.876 31.8701 124.903 31.8368 124.918 31.7974C124.941 31.6992 124.94 31.5971 124.916 31.4993C124.891 31.4016 124.844 31.311 124.778 31.2351L128.235 29.228C128.301 29.3039 128.348 29.3945 128.372 29.4923C128.396 29.5901 128.397 29.6923 128.374 29.7903C128.359 29.8297 128.331 29.863 128.295 29.8851V29.8851Z" fill="black"/>
<path d="M124.778 31.2349C124.844 31.3108 124.891 31.4013 124.916 31.4991C124.94 31.5968 124.941 31.699 124.918 31.7972C124.866 31.9263 124.734 31.9508 124.591 31.8674C124.571 31.8567 124.552 31.8441 124.534 31.8298L124.436 31.7547L124.15 31.5356C123.902 31.346 123.536 31.0698 123.076 30.7266C122.159 30.0385 120.867 29.0823 119.363 28.0052C117.012 26.3201 114.149 24.3408 111.416 22.6361V21.8352C114.195 23.5611 117.076 25.5617 119.446 27.2599C120.679 28.1442 121.772 28.9467 122.633 29.5857C121.942 28.8028 121.064 27.8467 120.033 26.8072C117.786 24.5287 114.803 21.827 111.423 19.5584V18.7559C114.911 21.0882 117.972 23.8635 120.278 26.2008C121.87 27.7948 123.372 29.4753 124.778 31.2349V31.2349Z" fill="black"/>
</svg>
